<svg xmlns="http://www.w3.org/2000/svg" viewBox="0 0 516.88 197.04"><defs><style>.cls-1{fill:#94171d;}.cls-2{fill:#170d0e;}.cls-3{fill:#ebdc21;}.cls-4{fill:#faf6f5;}.cls-5{fill:#e32b29;}.cls-6{fill:#87181e;}.cls-7{fill:#aa1a20;}.cls-8{fill:#9f171d;}.cls-9{fill:#b31b21;}.cls-10{fill:#6b2005;}.cls-11{fill:#be1920;}.cls-12{fill:#cc1c23;}.cls-13{fill:#e02d2a;}.cls-14{fill:#db3534;}.cls-15{fill:#131112;}.cls-16{fill:#bb191f;}.cls-17{fill:#ecd824;}.cls-18{fill:#fefffd;}.cls-19{fill:#e31e27;}</style></defs><g id="Capa_2" data-name="Capa 2"><g id="Capa_1-2" data-name="Capa 1"><path class="cls-1" d="M140,118.79l-1,1.73Z"/><path class="cls-1" d="M142,116.87l-.89.69Z"/><path class="cls-1" d="M140.46,118.12l-.51.67Z"/><path class="cls-1" d="M141.12,117.57l-.64.53Z"/><path class="cls-1" d="M174.41,175.17c.49,1.21,1,2.42,1.46,3.63C175.39,177.59,174.9,176.38,174.41,175.17Z"/><path class="cls-2" d="M172.83,189.06s4.8-1.68,5.86-2l-1-3-1,2.23-2.26,1.06Z"/><path class="cls-3" d="M100.63,81.7Zm0,0Zm0,0Zm0,0Zm0,0Zm0,0Zm0,0Zm0,0Zm0,0Zm0,0Zm0,0Zm0,0Zm0,0ZM132.7,93.57c-2.46-19.51-25.52-23.86-38.16-35.23-1.74-1.63-9.1-7.89-6.11-10.16,2.5-2,5-4.2,6.15-7.2.66-1.67,1.67-7.11-1.11-7.24-1.71.24-.92,2.24-1.34,3.4-.89,7.06-11,6.8-11.8-.13C80,33.1,85.92,32.4,89,31.44a2.6,2.6,0,0,0-.47-5.07c-5.5-1.22-10.86-.25-11.59,6.31C74.7,46.19,73.79,60.36,80.5,72.84c-12.57,4.75-15.45,19-24.85,27.41-6.94,5.93-15.41,6.51-27.63,4.37a24.75,24.75,0,0,0-4.87.28l-.15.42c2.19,1.1,4.34,2.24,5.62,4.1,1.69,2.88,2.2,6.06-2.23,7.17,2.8,4.8,14.77,4,19.38,2.46a46.82,46.82,0,0,0,9.38-3.83c4.94-2.37,13.87-10.07,19.33-7.13.77,3.36-5.22,4.43-4.64,12.36.5,5.26-.26,10.55,1.39,15.66,2.17,7.09,2.18,15,.9,22.28,4.94,7.54,12.1-1.31,16.29-5.16,7.51-7,12-16.44,17.11-25.32.27-.43,1-.55,1.6-.82,1.17,1.84-.38,3.66-1,5.45-3.2,7-7.11,14-6.57,22,0,1.21.27,2.05,1.72,2.1,2.47-.33,7.44,1.9,8.33-1.26,1.73-4.88,3.6-9.72,5.65-14.46C121.19,125,135.45,111.7,132.7,93.57Zm-14.57,5.18a10,10,0,0,1-2,2.81c0,.75-.4,1.14-1.19,1l-.57.47c0,.8-.44,1-1.14.89l0,0-.57.32v0c-.46.29-.9.82-1.37.85-2.24-.16-5,.71-6.93-.63h0c-1.09.81-6.7.56-7.34-.45-1-.23-.38-.87-.27-1.29.76-3.4,2.41-7,1.47-10.53l0,0a12.1,12.1,0,0,0-2.12-1.8c-.62-.08-1,0-1.13.8a53.63,53.63,0,0,1-2.28,9.58l0,0c.1.12.21.24.31.37s.22.3.31.46h0c.21.33.68.83.58,1-.33.54-.79,1.24-1.33,1.38a5.06,5.06,0,0,1-2-.4c-1.05-.29-2.22-.44-3.3-.69v0l-.86-.26h0c-1.61.28-.62-.92-1.6-1.28.72-.36,1.22-1.22,2-1.46,3.1-.86,2.17-6.9,3-9.55C90.55,87,86.72,86.71,85,85c-1.86-.73.29-3.09,1.28-3.29,4.49-.39,10.38-2.87,14.36,0l0-.07v.08l1,.2.75-1.15c.64-.27,1.31-.84,1.9-.76,3.07.38,6.12.91,9.17,1.44,2,.79,4.31,2.46,2.08,4.43-.32.29-.35.91-.64,1.73-6.45-.7-.08-4.94-8.2-4.3,0,.2,0,.51-.07.82a10,10,0,0,0,2,1.42.08.08,0,0,0,.12,0l.42.27h0a33.52,33.52,0,0,1,3.76,2.38c.24,0,.43.15.63.24v0a9.39,9.39,0,0,1,1.79,1C117.66,91.81,121,95.67,118.13,98.75Zm-17.49-17h0Zm0,0Zm0,0Zm0,0Zm0,0Zm0,0Zm0,0Zm0,0Zm0,0Zm0,0Zm0,0Zm0,0Zm0,0Z"/><path class="cls-2" d="M174.71,59.76a68.06,68.06,0,0,0-1.52-6.89c-.18-.49-.35-1-.53-1.49h0c-.07-.26-.31-.5-.3-.77l-.24-.65h0c-.31-.61-.64-1.26-.89-1.88s-.81-1.3-1.12-2c-.51-.8-1-1.58-1.63-2.33h0a64.23,64.23,0,0,0-11.19-11.22h0c-.86-.63-1.77-1.19-2.58-1.89h-.06c-4.15-1.69-7.08-4.88-10-8.18h0c-.56-.48-1.15-.89-1.73-1.33h0a14,14,0,0,0-11.9-.25c-2.68.46-4.81-1.31-7.07,1.33h0l-1,.92H123l-.36.49h0c-2.11,3.18-4,6.55-7.2,8.78-3-4.77-4.21-5.41-8.74-8.3-.24-.18-.19-1.12,0-1.54,2.17-3.69,2.15-7.87.91-11.86-.05,0-.06-.08,0-.13l-1-1.53h0l-.36-.54c-.79-.74-1.46-1.66-2.21-2.46V6l-.27-.27h0c-1.23-.92-2.39-1.9-3.61-2.83h0l-.31-.27,0,0c-.91-.48-1.8-1-2.74-1.44a20.64,20.64,0,0,0-13.47.92l-.06,0c-.83.51-1.69.93-2.57,1.36-.94,1.31-2.1-1-3.34-.79l0-.11a.25.25,0,0,1-.14-.16l-.66-.32-.07,0C75.46,1.6,74.18,1.2,73,.65h0c-7.3-2.29-15.38,1.75-16.22,9.74-.44,3.56-.73,7.13-1.16,10.69-1.16,3-3,5.8-4.46,8.71C50,36.39,52.25,42.15,56.45,47.57a39,39,0,0,0-21.58,1.28C28,52,23,57.72,18.57,63.67c-4.18,4.47-2.28,10.52,4.73,10.47-3.57,8.81,0,16.37,10.13,11.67-2.32,11.43,9.8,8.26,15.7,4.42l.31.54C39,98,29.43,96.26,20,88.42a39.78,39.78,0,0,1-3.09-2.86v0c-1.61-2.23-4.25-1.8-6.68-2v0l-1.08.58a6,6,0,0,0-1.45,1.35h0c-1.9,2.89-1.6,6.67-1.9,10,.42,3,2.1,5.41,3.28,8.44-3,.7-6.29-.45-9.07.91,1.19,2.8,2.11,5.68,3.5,8.38,1.18,2.24,3,4.09,4.51,6.12,14.19,12.94,35.46,14,51.89,4.79.56,4.27,1.12,8.41,1.65,12.54.57,2.28,1.21,4.55,1.83,6.82a43.53,43.53,0,0,1-.17,10.64,11,11,0,0,1-.56,3.63c-.27,8.07-6.25,8.93-12.93,9.79-8.25.8-9.9-4.85-20.14-1.85h0c-.23.11-.47.19-.69.31l-.06,0c-8.52,4.16-13.2,10.39-10.79,20.11h0c3.29,12.8,27,7.08,36.45,5.31,9.57-.09,21.25,8.22,27.75-3.51,9.46,11.26,19.69-1,37.1,6.45,2.46.79,4.86,1.92,7.37,2.46h0a44.73,44.73,0,0,0,16-1.18l.26-.27c-.09-3.75,3.07-5.06,6.15-5.94v0c.71-.56,1.58-.78,2.28-1.33-1.06-3.24-2.19-6.54-3.46-9.67l-3-5.15,0,0c-.09-.14-.27-.24-.31-.41a.13.13,0,0,1,0-.06,2.66,2.66,0,0,0-.55-.56c-1.66-1.29-3.11-2.86-5.06-3.7v0l-1.68-.85h0l-.57-.29h0l-1.77-.57-.09,0a4.85,4.85,0,0,0-1-.08h0l-5.43-.23A17.37,17.37,0,0,0,122,168h0c-6.76,2.5-9.17-1.06-6.32-7.54,6.78-14.4,15.44-27.72,23.8-41.22,4.62-7.2,5.57-16.12,4.15-24.41a46.22,46.22,0,0,0-3.15-9.52c-.43-.91-1.36-1.58-.59-2.65.93-1.61,2.55.54,3.66.94s2.24.95,3.36,1.42c4.19.91,8.46-.14,12.25-2,.17-.1.33-.31.54-.3A99.13,99.13,0,0,0,167.12,76h0c.15-.12.26-.33.48-.32C172.79,71.43,175.74,66.68,174.71,59.76Zm-5.27,11.69c-9.27,8.92-16,17.3-29.08,8.25-1,1.39-3.18,2.67-2.18,4.61,5.83,11.1,6.37,25-1,35.51-7.75,11.87-15.29,23.88-21.49,36.65-1.44,2.77-3.11,5.65-2.72,9,.22,4,3.09,5.95,7,4.9,9.28-3.4,20.47-3.4,25.36,6.73,1.43,3.38,2.92,6.66,4.41,10.06-3,1.76-7.22,2.11-7.91,6-1,3.7-17.37,2.37-20.39.32-8.65-3.75-17.56-4-26.74-2.29-7.78,1.45-12.86-3.61-12.1-11.51.59-6.17,5.21-10.77,5.59-17.11-6.33,5.91-6,14.62-6.8,22.51-1.94,10.12-14,7.86-21.2,5.31a13.17,13.17,0,0,0-7.69-.17c-9,2.45-18.48,3.32-27.62,1.05-2.53-.49-4-2.3-4.84-4.6-5.59-13.45,12.07-25.09,23.52-17.89,5,1.42,10.6.35,15.39-1.63,7.16-3.26,6.39-16.77,6.1-23.48a99.91,99.91,0,0,1-3.24-22.18c-3,1.37-6,2.82-9,4-18.26,7.86-45.58,1.18-50.39-20h9.84c-.91-1.37-1.52-2.34-2.18-3.27-4.45-4.62-3.61-23,5.55-15.48,8.58,9.56,23.14,14.31,34,5.73,1.46-1,2.36-2.48,1.72-4.32-4.28.37-7.82,3.7-12.16,4.07-3.33.3-5.33-2.33-4-5.44.87-1.92,2.14-3.49,3.2-5.38-3.77,1.49-6.94,4.12-10.91,4.26-6.79-1.06-3.33-10.41-.54-14.16-2.91.55-6.76,1.89-8.48-1-.85-1.4-.68-3,.65-4.64,2.69-3.28,5.29-6.64,8.19-9.72,8-8.37,20.49-9.41,31.11-6.2a5.55,5.55,0,0,0-1.21-4.17c-5.32-6.23-6.61-15.86-.81-22.26,2-4.11,1.1-9.2,2.15-13.62C61.1-1.27,71.39.8,79.16,5.28a2.09,2.09,0,0,0,2.28,0C88,.8,96.68.81,102.2,6.87c11.24,9.75-1.54,16.56,3.53,18.74,4,1.88,7.17,4.49,8.38,9,8.25-1.58,10-16.81,15.62-11.06,6.94-4.34,12.38-2.2,17.19,3.83a24.69,24.69,0,0,0,6.15,4.54c3.85,2,6.89,5.05,10,8.08C170.35,47.45,178.15,62.5,169.44,71.45Z"/><path class="cls-4" d="M173.13,60.79c-1.17-12.37-9.68-22.67-20.06-28.93a24.41,24.41,0,0,1-6.15-4.53c-4.79-6-10.28-8.17-17.19-3.83-5.63-5.76-7.36,9.46-15.62,11.06-1.21-4.46-4.4-7.07-8.38-9-5.07-2.15,7.71-9-3.53-18.74C96.68.82,88,.79,81.44,5.26a2.07,2.07,0,0,1-2.28,0C71.4.81,61.09-1.27,58.49,9.86c-1.05,4.42-.14,9.51-2.15,13.62-5.8,6.4-4.52,16,.81,22.26a5.55,5.55,0,0,1,1.21,4.17c-10.61-3.21-23.16-2.17-31.11,6.2-2.9,3.08-5.5,6.44-8.19,9.72-1.33,1.63-1.5,3.24-.65,4.64,1.72,2.93,5.57,1.59,8.48,1-2.79,3.74-6.25,13.11.54,14.16,4-.14,7.14-2.77,10.91-4.26-1.06,1.89-2.33,3.46-3.2,5.38-1.28,3.11.72,5.74,4,5.44,4.34-.37,7.88-3.7,12.16-4.07.63,1.84-.24,3.31-1.72,4.32-10.85,8.58-25.41,3.83-34-5.73-9.17-7.54-10,10.85-5.55,15.47.66.94,1.27,1.91,2.18,3.28H2.43c4.82,21.16,32.12,27.83,50.39,20,3-1.2,5.93-2.65,9-4A99.91,99.91,0,0,0,65,143.64c.3,6.67,1,20.25-6.1,23.48-4.79,2-10.4,3-15.39,1.63-11.45-7.2-29.11,4.44-23.52,17.89.87,2.3,2.31,4.11,4.84,4.6,9.14,2.26,18.61,1.4,27.62-1.06a13.26,13.26,0,0,1,7.69.18c7.19,2.55,19.26,4.81,21.2-5.31.82-7.89.48-16.61,6.8-22.51-.38,6.34-5,10.94-5.59,17.11-.76,7.9,4.32,13,12.1,11.51,9.18-1.71,18.09-1.46,26.74,2.29,3,2.06,19.34,3.37,20.39-.32.7-3.9,4.88-4.25,7.91-6-1.49-3.39-3-6.68-4.41-10.06-4.91-10.15-16.08-10.11-25.36-6.73-3.88,1-6.75-.91-7-4.9-.38-3.31,1.28-6.19,2.72-9,6.2-12.77,13.74-24.78,21.49-36.65,7.35-10.54,6.81-24.42,1-35.51-1-2,1.19-3.21,2.18-4.61,6.15,4.39,14.24,5.68,20.08.16C165.71,74.32,174.66,69.66,173.13,60.79ZM166,70.15h0l-4.76,4.5c-6.39,7-12.25,7.52-19.74,1.88-2.11-1.53-4.09,2.4-5.76,3.43-1.65,2.59-1.86,3.62-.26,6.38h0c11.24,20.72-3.35,34.22-13.36,51.43v0h0q-4.24,7.65-8.48,15.3h0c-.11.19-.21.39-.31.58h0c-.87,2-1.73,4-2.63,6-3.32,6.54,1.23,16,9.36,13.89,5.28-1,11.31-4.26,16.28-.72v0c5.71,1.62,6.68,8.05,9.39,12.62-2.88,1.27-5.37,2.43-6.63,5.43-2.27,2.52-13,1.42-16-.18A46.34,46.34,0,0,0,94.74,188c-6,1.22-9.37-1.75-8.9-7.83,1.2-7.66,7.22-14.34,6-22.48l0,0,0,0h0a3.64,3.64,0,0,0-4,.91c-8.22,7.42-9.12,14.28-9.34,24.79-.94,8.84-11,5.61-16.79,4.09a19.66,19.66,0,0,0-11-.16c-7.27,1.86-14.66,2.77-22.18,1.63-6.76-.52-7.22-6.9-5.39-11.79,1.37-3.44,5.16-5.6,8.43-6.85a11.83,11.83,0,0,1,10,1.19h0c6.6,2.23,13.81.9,19.84-2.14,7.68-4.45,7.25-18.7,6.66-26.52-.38-3.17-1.57-6.24-2.2-9.38-1.24-5.91-.94-11.78-.64-17.77-6.88,3.87-13.61,7.79-21.48,9.17C29.89,127.35,13.23,122.57,6.87,109c3.85-.13,11.91-.68,7.54-6.17a38.27,38.27,0,0,1-2.62-4.12c-1.61-2.92-1.31-6-.67-9.13.48-3,2.58-.16,3.62,1A51.49,51.49,0,0,0,20,94.77h0l1.5,1v.11l0-.11c10.4,5.62,21.08,6.56,30.6-1.27,2-1.48,3.22-3.5,2.65-6.19-1.44-6.58-8.2-2-12-.48v0c-7.56,3.13-4.52-.32-1.61-4.37a.23.23,0,0,0,.07.07l-.07-.07c1.27-2,3.23-4.47,1.62-6.79-2.83-1.22-5.83,2.2-8.42,3.17-1.82.54-8,5.12-7.62.88A13.86,13.86,0,0,1,32.6,70.38h0l3.77-2.64h0c.78-5.19-5.92-.58-8.19-.08v0c-2.31.33-4.66,1.79-7,1.19.29-1.31,1.28-2.22,2.07-3.25h0l3.63-4.5h0c4-4.22,8.49-8.27,14.52-9,6.92-1.65,13.42.07,20.08,2.23,1.56-10.51-4.33-10.35-5.8-19a11.43,11.43,0,0,1,3.45-10c1.8-1.53,1.09-3.71,1.37-5.61.43-2.85.55-5.75,1-8.6.69-5,5-7.54,9.65-5.8,4,.81,7.92,5.48,11.86,2.76,6.56-4,11-3.92,16.9,1.25h0c6.53,4.92,3.08,8.3,1.29,14.43-.26,4.21,4.61,5.12,7.14,7.43A8.36,8.36,0,0,1,111,39.72a1.49,1.49,0,0,1-1.15.76c-3.41.08-6.87,0-10.29,0l1.71,2.68h0l3,4a.11.11,0,0,1,.08.15l.29.38v0q1.73,2.05,3.46,4.1c-3,2.36-6.34,2.18-10,2.12a15.85,15.85,0,0,0,3.72,4.71l0,0,.32.29v0c3.64,2.78,17.19,9.14,17.26.64a2.16,2.16,0,0,0-.85-1.14c-1.33-1.16-2.61-2.4-2.68-4.25.22-3.29,2.82-6.47-.53-9.16a8,8,0,0,1-1.79-2.47,3.74,3.74,0,0,1,2-4.91c5.55-2,8.35-6.6,11.31-11.28.77,4.15-.77,7.15-3.92,9.64,1.92.64,4.08-.32,5.57,1.66-3.64,1.93-6.75,4.47-10.88,4.88a1.16,1.16,0,1,0,.5,2.22c1.39-.43,3.25-1.43,3.89.63.53,1.55-.83,1.64-1.79,2-1.62,2.16,1.53,3.17,3.13,3.57,3.73,1,4.83-2.14,4.75-5.27.24-4.32,4.24-6,7.71-3.58h0c2.21,2.43,1.26,6.56,5.67,3.26,2.55-4-3.38-4.78-1.53-11.43-8.82,2.77-3-1.51-4.34-4.95a7.43,7.43,0,0,0-2.06,1.19h0l-2.76,2.69c-4.48-7.56,7.93-11.36,11.73-5.32h0c.73.76,1.47,1.51,2.21,2.27h0L145,30l0,0c.37.39.75.76,1.15,1.12a0,0,0,0,0,0,0c4.14,3.14,8.92,5.59,12.62,9.25h0c.21.19.4.38.6.58v0a58.5,58.5,0,0,1,5.61,6.46h0c2.46,3,3.52,6.56,4.41,10.19C170.6,62.14,170.46,67.39,166,70.15Zm-50.17-9.74A19.57,19.57,0,0,1,105,56.91c10.23-3.63,5.77-6.81.73-13.18,2,.24,3.84-.66,5.17.67.79,1.55,3.64,3.24,2.83,5C111.68,53.6,112.54,57.18,115.85,60.41ZM131.47,37.8c.11-.68.2-1.27.33-2.07l2.43,2.07Zm2.06-7.69Zm32.49,40h0Z"/><path class="cls-5" d="M169.12,59.18a63.64,63.64,0,0,0-4.21-11.81c-1.08-.38-3.14-2.94-3.2-4l-.06-.06c-1.31.24-1.49-.59-1.51-1.58-.28-.26-.55-.54-.82-.81v0c-.2-.2-.39-.39-.6-.58h0C154,37.09,148.68,34.59,145,30l0,0-.31-.28a2.21,2.21,0,0,1-2.21-2.27c-1-.42-2.26-.49-2.12-2-3.26.07-4.41-1.48-7.86,1-2.18,1.6-2.76,2.72-1.64,5.1,1.63-.78,3.06-1.91,4.71-2.64,1.32,3.43-4.48,7.72,4.34,4.95-1.84,6.69,4.08,7.43,1.53,11.43-4.41,3.3-3.46-.82-5.67-3.26h0c-3.48-2.38-7.46-.74-7.7,3.59.07,3.12-1,6.29-4.76,5.26-1.6-.39-4.75-1.41-3.13-3.57,1-.38,2.32-.47,1.79-2-.64-2.06-2.5-1.06-3.89-.63a1.16,1.16,0,1,1-.5-2.22c4.13-.41,7.24-3,10.88-4.88-1.49-2-3.65-1-5.57-1.66,3.15-2.49,4.69-5.49,3.92-9.64-3,4.68-5.76,9.26-11.31,11.28a3.73,3.73,0,0,0-2,4.91,8,8,0,0,0,1.79,2.47c3.35,2.69.75,5.87.53,9.16.07,1.85,1.35,3.09,2.68,4.25a2.16,2.16,0,0,1,.85,1.14c-.09,8.5-13.6,2.14-17.26-.64v0l-.3-.27c-1.47.18-1.89-.71-2-1.94-1.31-.61-1.6-1.46-2.36-2.81,3.24-.8,6.71-.05,9.67-2.15a10,10,0,0,1-2.52-4l-.29-.38c-1.08-.57-3.08-2.57-3.09-4.12l-2.71-2.56c2.13-1.6,7.84-.25,10.79-.65s.38-5.07-.1-6.76c-3.14-5.49-9.88-3-8.54-11.93,4.14-4.49,2.34-7.77-.79-12l-.06.05.05-.06C90.6,4.2,93.34,5.6,84,7.5c-.08.37-.1,1-.25,1.07-1.76.35-3.43,1.58-5.36.55A42.32,42.32,0,0,0,70,5.44C61.21,3.65,61.59,14.21,61,20c-.57,1.68,1.22,5.86-1.77,5.28-.76,2.4-2.87,4-2.52,6.71-1.86,1.72,0,3.18.4,4.87-.23,3.47,3,5.74,4.24,8.71.71,1.23,2.26,10.57-.57,9.33-1.83-.89-4.25-1-5.68-2.47-2.79,0-5.66-.22-8.5-.47-5.1-.3-9.44,2.63-14.12,4,.14.93-.4,1-1.08.81l-.05,0c0,.22.1.53,0,.64-1.2.9-3,3.64-4.36,3.64l0,.07,0-.07a7.79,7.79,0,0,1-3.63,4.49l0,.07,0-.06c-.18.69-.72,1.91-.54,2.52,1.72.65,3.65-.32,5.42-.46.14-1.42,4.17-2.23,5.45-3,2.08-.81,4.63,1.43,2.75,3.12h.09l-.1,0v0h0c-.2,1.32-1.94,2.54-3.77,2.64-.05,1.66-1.92,2.71-2.81,4-2.05,1.75-1.89,4.27-2.31,6.72,3.13.76,5.33-1.51,7.92-2.8a32.5,32.5,0,0,1,5.32-2.49c5.06-1.52,3.87,6.49.42,7.59l.07.07a.23.23,0,0,1-.07-.07c-.41,1.93-2,3-2.26,5l3.87-.64v0c1.66-2,4.18-2.38,6.47-3.31,7.47-2.18,8.47,8.59,1,12.2-1.45.85-2.64,2.14-4.63,2.22-3.28.72-6.53,1.87-9.84,2.07-1.87.11-4.15.24-5.95-1.12-2.84-1-6.36-1.6-8.24-4.12l0,.11v-.11l-1.5-1h0c-1.33-.34-2.8-.48-3.06-2.27a2.31,2.31,0,0,1-2.22-2l-1.92-.3L12.29,89h-.55c-.24,2.94-1.37,5.94.65,8.5,0,2.68,2.1,4.21,3.39,6.16,2.9,5-4.42,5.32-7.65,6.47.46,2.08,2.61,3.17,3,5.28a3.71,3.71,0,0,1,.29.27h0l.06.09c.43.17,1,.21,1.27.51,5.91,5.37,15.36,9.2,23.36,8.26,8.11,1,15.7-2.59,22.82-6,1.78-.66,7.19-6.07,7.11-1.49-.38,1.73-.81,3.46-.08,5.22-1,6.39,1.08,12.45,2.3,18.66,1.52,7.77.58,15.72-1.62,23.27-3.37,9.15-15.21,8.92-23.32,8.7-.74,0-1.76-.19-1.65-1.42-3.68-.94-6.9-1.89-10.6-.39l-8.25,11.4c.35,1.68.72,4.27,2.59,5,4.43,1.46,9,1.26,13.61,1.19,5.66,0,11.21-2,16.65-3A34.6,34.6,0,0,1,62,187.17c5.72.56,12.37,4.82,15.61-2.66.8-2.14.55-4.29.62-6.42a30.35,30.35,0,0,1,2.81-12c.26-.55.88-.94,1.33-1.41.26-.71.46-1.44.76-2.13A12.16,12.16,0,0,1,90,157c.72-.26,1.64-.57,1.92.68l0,0,0,0c1.76.7.27,6,0,7.59-1.18,3.1-2.07,6.47-3.7,9.33a16.09,16.09,0,0,0-1.87,5c-1.24,4.09,3,9.48,6.86,7.8,7.71-.52,15.46-2,23,.45,5.45,1.71,10.71,4.19,16.54,4.11,8.75-.15,3.31-2.43,11.13-6.31,2.15-.71-1.49-4.9-1.87-6.36-.26,1.25-1.52,1.93-3.09,2.28l.93,1.88a12.7,12.7,0,0,0-4,4.11c-3.46.45-8,.44-10.94-1A49.68,49.68,0,0,0,105,182.44c-4.12-.13-8.52.77-12.74,1.34-3.18.32-1.88-5.08-.87-7,3.31-7,5.64-12.87,5-19.5l-4.22.41-.16-.22,1.41-4a8.25,8.25,0,0,0-5-.22,79.36,79.36,0,0,1-6.94,6.23c-6.41,4.64-7.16,15.29-7.36,23.11-.15,2-1,2.44-1.77,2.31a39.67,39.67,0,0,1-9.29-1.7A24.16,24.16,0,0,0,49.65,183c-7.53,1.87-13.44,2.53-20.4,1.55a4.46,4.46,0,0,1-2.18-.71c-.52-.66-.26-3.64.27-4.94,1.85-3.56,8.15-6.23,11.87-3.61l1.56-1.45-.71,1.87c7.47,2.73,16.76,1.21,23.58-2.4,5.63-2.8,7.53-9.08,8.48-14.88,1.79-8.67.65-17.79-1.84-26.16.34-7.21-2.73-16,3.4-21.45,4.27-6-7.39-2.43-9.49-.88-5.91,3.42-11.76,7.44-18.42,9.15-6.81,1.8-15,2-21.22-2,1.22-.21,5.62-1.5,5.25-3.35.18-4.54-3.11-6.63-6.8-8.42l.15-.42a24,24,0,0,1,4.87-.28c12.2,2.14,20.7,1.56,27.63-4.37,9.4-8.39,12.28-22.66,24.85-27.41-6.9-13.26-6.18-28.84-2.79-43,1.13-2.87,3.5-3.88,6.35-3.92,2.28.25,6.3-.34,6.78,2.69.22,3.36-4,3.21-6.32,4-11.94,4.09,4.71,16.89,7.61,4.5.42-1.16-.36-3.16,1.34-3.4C94.88,33.62,95,35,95.19,36c.76,5.16-2.91,9.27-6.76,12.15-3.51,3,8,11.77,10.44,13.52l.6-.62-.49.69.4.28,1.34-1.17-1,1.41c11.18,7.64,26.29,12.66,31.9,26l-.06,0c3.29,10.79.64,22-5.24,31.32a174.35,174.35,0,0,0-15.35,32l.12.07-.12-.06c-1,1.9-1,5.83-4,5.31-4.74,8.49,0,21.54,11,21.3,3.63-.09,7.21-1.68,10.69-2.26l-1.47-3.56c-4.46.84-8.79,2.58-13.33,1-2.78-.8-3.36-3-4.23-5.12-2-5.11.93-11.26,3.93-15.25-.34-1.66.92-2.74,1.57-4,1.81-3.47,3.76-6.88,5.7-10.27.26-.45.81-.72,1.22-1.07h0v0c10-17.19,24.6-30.74,13.36-51.43a3.43,3.43,0,0,1-1.5-4.19c.4-.82.34-2.15,1.77-2.18.3-2.45,2.36-3.29,4.14-4.26,1.84-.77,3.4,1.18,4.78,2.12a9.39,9.39,0,0,0,11.45.29,5.87,5.87,0,0,1,2.06-.66c.65-1.35,1.46-2.51,3.07-2.8a9.13,9.13,0,0,1,4.76-4.5C168.54,66.07,170.76,64.58,169.12,59.18ZM38.32,72.54c-1.36.64-2.59,1.35-3.79,2,.4-.4,2.78-2,3.28-2.37l1.44,0A7.61,7.61,0,0,0,38.32,72.54Zm-25.4,20-.37.06,1.28-1.08Zm107.3-40.48c-.14-.06,0-.17,0-.25l.15.17Zm-9,120.6c.09.12,0,.2-.07.3C111.13,172.83,111.06,172.74,111.27,172.68ZM140.14,71.59c-1.39.39-2.63.45-3.94,1.82a6.64,6.64,0,0,1-1.28,3.69c-1.13,1.6-1.31,1.69-3,.75-4.5-2.45-7.94-6.29-8.62-11.53,2.88-.46,9.15.13,8.07-4.28-.09-.94-.08-2.4.45-2.76,1.07-.71,1.81.62,2.41,1.33C135.55,62.84,142.48,69.31,140.14,71.59Zm8.2-7.43c-.07.78-.69,1.09-1.23.53-2.65-3.52-5.26-7.07-7.87-10.61-.34-.88.07-1.92,0-2.86.89.3,2.15.32,2.61.93,2.27,3.62,5.69,6.89,6.58,11.15l-.13,0A3.28,3.28,0,0,1,148.34,64.16Z"/><path class="cls-6" d="M171.58,71.79l-2.81,2.81Z"/><path class="cls-7" d="M160.84,35.44l2.61,2.49Z"/><path class="cls-6" d="M172.44,70.69l-.86,1.1Z"/><path class="cls-6" d="M168.78,74.59l-1.18,1.1Z"/><path class="cls-1" d="M63.54,145.25c0-.57-.11-1.14-.16-1.71C63.43,144.11,63.49,144.68,63.54,145.25Z"/><path class="cls-7" d="M169.33,44.92l.81,1.21Z"/><path class="cls-8" d="M30.87,94.54l1.74.47Z"/><path class="cls-7" d="M168.5,43.8l.84,1.13Z"/><path class="cls-8" d="M25.36,92.25l1.35.64Z"/><path class="cls-9" d="M16,84.74l.89.83Z"/><path class="cls-6" d="M142.71,91.14l.3,1.12Z"/><path class="cls-6" d="M167.12,76l-.85.83Z"/><path class="cls-6" d="M148.34,85.25l-.85-.22Z"/><path class="cls-7" d="M42.68,47l1.14-.16Z"/><path class="cls-6" d="M160.38,82.16l-.65.52Z"/><path class="cls-7" d="M144.05,22l.63.52Z"/><path class="cls-10" d="M44.35,93.58l.64-.41Z"/><path class="cls-7" d="M144.68,22.51l.57.56Z"/><path class="cls-8" d="M122,167.94l.81-.31Z"/><path class="cls-7" d="M51.06,30.62c0-.28,0-.56.07-.84C51.11,30.06,51.08,30.34,51.06,30.62Z"/><path class="cls-1" d="M62.06,138.77c-.08-.31-.16-.61-.23-.92C61.9,138.16,62,138.46,62.06,138.77Z"/><path class="cls-6" d="M173.13,69.8l.17.16-.39.12C173,70,173.06,69.89,173.13,69.8Z"/><path class="cls-8" d="M20.07,88.61l.48.35Z"/><path class="cls-6" d="M142.1,89.2l.3.63Z"/><path class="cls-8" d="M22.3,90.28l.49.35Z"/><path class="cls-7" d="M118.64,29.5,119,29Z"/><path class="cls-6" d="M142.45,90.3c.08.21.16.43.23.64C142.61,90.73,142.53,90.51,142.45,90.3Z"/><path class="cls-1" d="M62.31,139.61,62.1,139Z"/><path class="cls-9" d="M16.89,85.56l.29.31Z"/><path class="cls-6" d="M141.85,88.34c.07.11.21.19,0,.28Z"/><path class="cls-8" d="M21.32,89.5l.35.29Z"/><path class="cls-9" d="M15.37,84.21l.39.33Z"/><path class="cls-6" d="M159.55,82.72l-.37.26Z"/><path class="cls-1" d="M61.68,137.1c0-.13-.09-.25-.13-.38C61.59,136.85,61.64,137,61.68,137.1Z"/><path class="cls-6" d="M167.39,75.75l-.27.26Z"/><path class="cls-8" d="M24.35,91.48l.39.3Z"/><path class="cls-8" d="M19.6,88.1l.37.32Z"/><path class="cls-11" d="M144.38,172.41c.09.12.19.23.29.35C144.57,172.64,144.47,172.53,144.38,172.41Z"/><path class="cls-11" d="M144.73,173l.24.27Z"/><path class="cls-10" d="M43.54,93.92l.32-.21Z"/><path class="cls-10" d="M42.71,94.21,43,94Z"/><path class="cls-7" d="M118.38,29.82l.26-.32Z"/><path class="cls-10" d="M45.77,92l-.27,0A.52.52,0,0,1,45.77,92Z"/><path class="cls-10" d="M45,92.28l-.31.22Z"/><path class="cls-8" d="M121.72,168.06l.31-.12Z"/><path class="cls-12" d="M146.37,23.34l-.55-.28Z"/><path class="cls-5" d="M166,70.15h0Zm-7.83,7.3h0ZM142,179.28a13.28,13.28,0,0,0-5.26-5.88,1.58,1.58,0,0,1-.3-.56c-5.25-.88-2.94-1.66-9.11-.36l1.47,3.56c-3.48.58-7.06,2.17-10.69,2.26-11,.24-15.78-12.81-11-21.3-1.9-.14-3.8-.32-5.71-.4-1.45,0-1.69-.89-1.72-2.1-.54-8,3.37-14.95,6.57-22,.58-1.79,2.13-3.61,1-5.45-.55.27-1.33.39-1.6.82-5.11,8.88-9.6,18.3-17.11,25.32a8.25,8.25,0,0,1,5,.22l-1.41,4,.16.22,4.22-.41c.67,6.64-1.66,12.54-5,19.5-1,1.95-2.3,7.35.87,7,4.22-.57,8.62-1.47,12.74-1.34a49.68,49.68,0,0,1,19.88,4.14c3,1.41,7.48,1.42,10.94,1a12.7,12.7,0,0,1,4-4.11l-.93-1.88C140.43,181.21,141.69,180.53,142,179.28Zm-4.41-107.6a8,8,0,0,1-1.52-.4,8.76,8.76,0,0,1,.18,2.13A6.23,6.23,0,0,1,139,71.82C138.5,71.79,138,71.71,137.54,71.68ZM135.76,80Zm-.27,6.37Zm-2-56.22Zm-2,58a1.72,1.72,0,0,1,.07.21l.06,0A1.09,1.09,0,0,1,131.5,88.14ZM111,151.68h0l.12.06Zm-9.13-93.1s0,0,0,0Zm-2.47,3.47.35.24,1-1.41Zm.55-52.8h0l-.05.06.06-.05ZM98.87,61.7l.11.07.49-.69Zm-7,96h0l0,0Zm-18.6,2.1a8.84,8.84,0,0,1-1.16-1.38c-1,5.8-2.86,12.08-8.49,14.88-6.82,3.61-16.11,5.13-23.58,2.4l.71-1.87-1.56,1.45c-3.69-2.61-9.79,0-11.8,3.42-.56,1.3-.94,4.43-.33,5.13,1.8,1.08,5.89,1.08,8.29,1.16,6.12.43,14-2.58,20.68-2.84,5.45-.07,10.9,2.73,16.3,2.76.69,0,1.46,0,1.74-2.09.29-8.21.78-16.5,6.17-22.46C77.68,161.9,75.32,161.71,73.29,159.77Zm-44.46-41a4.52,4.52,0,0,1-2.44-2.2,17.88,17.88,0,0,1-1.84.5,19.23,19.23,0,0,0,9.79,3A53.82,53.82,0,0,1,28.83,118.79Zm12.81,52.69h0ZM37.81,72.21c-.51.37-2.87,2-3.28,2.37a29,29,0,0,1,4.72-2.39Zm-1.43-4.46h0v0l.1,0Zm-3.79,2.64h0Zm-4.41-2.74v0Zm-1.24-6.56h0l.06.07Zm-3.6,4.56,0-.07h0ZM17,92.49h0Zm-2.22-2s0,0,0,0Z"/><path class="cls-13" d="M74.32,110.05c-6.83,5.93-3.79,14.22-4,22.18-1.45-6.35-.25-16.65-.49-24.09C61,112.55,53.33,118.44,43,120.43c-10,1.82-20.81-.45-28.49-8,8.06-2.89,6.24-9.14,1.83-14.82.61.49,2,1.45,2.69,1.88l2.29-3.44.08,0-1.56,3.85c4.26,1.79,8.61,4.09,13.39,4.65-3.36.15-6.77-.22-10.09.32l-.15.42c3.69,1.79,7,3.88,6.8,8.42.37,1.84-4,3.15-5.25,3.35,9.41,5.75,21.44,3,30.6-1.87,3.09-1.63,6-3.66,9-5.32C66.22,108.71,76.14,104.69,74.32,110.05Z"/><path class="cls-14" d="M122,45.31c.53,1.55-.83,1.64-1.79,2l1.34-1.5-2.25.1,1.42-1a2.81,2.81,0,0,1-.08-.31l-3.63,1c2.34,4.69-3.6,8.49,1.94,12.29a2.27,2.27,0,0,1,1,2.64c-.21.74,0,1.95-.47,2.31a6.67,6.67,0,0,1-4.76,1.46c-3.67-.55-10.69-2.07-12.53-5.44,3.64,2.78,17.19,9.14,17.26.64a2.16,2.16,0,0,0-.85-1.14c-1.33-1.16-2.61-2.4-2.68-4.25.22-3.29,2.82-6.47-.53-9.16a8,8,0,0,1-1.79-2.47,3.74,3.74,0,0,1,2-4.91c5.55-2,8.35-6.6,11.31-11.28.77,4.15-.77,7.15-3.92,9.64,1.92.64,4.08-.32,5.57,1.66-3.64,1.93-6.75,4.47-10.88,4.88a1.16,1.16,0,1,0,.5,2.22C119.49,44.25,121.35,43.25,122,45.31Z"/><path class="cls-14" d="M68.65,154.25c-.13,3.34-1.18,6.68-2,10-1,3.8-4.13,5.58-7.43,7-5.1,2.18-10.53,1.77-15.89,1.7-.74,0-1.77-.2-1.65-1.43,6.6,2.23,13.81.9,19.84-2.14,7.68-4.45,7.25-18.7,6.66-26.52-.38-3.17-1.57-6.24-2.2-9.38-1.24-5.91-.94-11.78-.64-17.77-16,10.84-38.91,14.89-53.85.07.43.17,1,.21,1.27.51,5.91,5.37,15.36,9.2,23.36,8.26,10.33,1.18,19.74-4.38,28.4-9.22,3.3-.56,0,5.13,1.45,7a1.87,1.87,0,0,1,0,1c-1.09,6.07,1.32,11.8,2.29,17.69C69.37,145.35,68.82,149.83,68.65,154.25Z"/><path class="cls-15" d="M105.74,43.73c2,.24,3.84-.66,5.17.67.79,1.55,3.64,3.24,2.83,5-2.06,4.16-1.2,7.74,2.11,11A19.55,19.55,0,0,1,105,56.92C115.24,53.28,110.79,50.1,105.74,43.73Zm5.43,12L108.9,57v.37l3.41,1.17Zm-1.52-10.36-.5.44L111.91,49l.47-.4Z"/><path class="cls-14" d="M145.76,185.44c-2.88,1.27-5.37,2.43-6.63,5.43-2.27,2.52-13,1.42-16-.18A46.34,46.34,0,0,0,94.74,188c-6,1.22-9.37-1.75-8.9-7.83,1.2-7.66,7.22-14.34,6-22.48,1.76.7.27,6,0,7.59-1.18,3.1-2.07,6.47-3.7,9.33a16.09,16.09,0,0,0-1.87,5c-1.24,4.09,3,9.48,6.86,7.8,7.71-.52,15.46-2,23,.45,5.45,1.71,10.71,4.19,16.54,4.11,8.75-.15,3.31-2.43,11.13-6.31.75-.4,1-.86.6-1.55-1.12-2.18-2.22-4.38-3.39-6.53-1.12-2.38-3.41-2.87-4.64-4.72h0v0C142.08,174.44,143.05,180.87,145.76,185.44Z"/><path class="cls-14" d="M78.75,180.87c.26,11.33-9.52,8.67-17,6.6a19.66,19.66,0,0,0-11-.16c-7.27,1.86-14.66,2.77-22.18,1.63-6.7-.55-7.14-6.61-5.49-11.6.53,1.8-.62,3.46-.3,5.16s.72,4.27,2.59,5c9,2.61,18.45.92,27.38-1.07,2.9-1.48,5.7-.15,8.61.51.22.06.43.27.64.27,2.95,0,5.56,1.57,8.51,1.78,6.42.46,8.22-5.63,7.72-10.86.43-4.6.75-10,4.14-13.39A30.76,30.76,0,0,0,78.75,180.87Z"/><path class="cls-14" d="M55.36,89c.14,5.4-4.51,7.16-8.27,9.76-3.73.43-7.61,2.13-11.37,2.29-1.87.11-4.15.24-5.95-1.12-2.83-1-6.36-1.6-8.24-4.12,10.4,5.62,21.08,6.56,30.6-1.27,2-1.48,3.22-3.5,2.65-6.19-1.44-6.58-8.2-2-12-.48,1.66-2,4.18-2.38,6.47-3.31C52.6,83.14,55.25,85.73,55.36,89Z"/><path class="cls-14" d="M111,39.72a1.49,1.49,0,0,1-1.15.76c-3.41.08-6.87,0-10.29,0l1.71,2.68h0l-2.71-2.56c2.13-1.6,7.84-.25,10.79-.65s.38-5.07-.1-6.76c-3.14-5.49-9.88-3-8.54-11.93,4.14-4.5,2.33-7.77-.8-12,6.52,4.91,3.08,8.31,1.29,14.43a5.08,5.08,0,0,0,2.94,4.72C108.66,30.46,112.48,34.44,111,39.72Z"/><path class="cls-14" d="M136.38,172.84h0a7.09,7.09,0,0,1-2.46-.49c-5.89-2.06-13.38,3.73-20,1.14-2.78-.8-3.36-3-4.23-5.12-1.34-3.28-.51-6.47.75-9.57.91-1.7,1.29-4,2.9-5.14-.87,2-1.73,4-2.63,6-3.32,6.54,1.23,16,9.36,13.89C125.38,172.52,131.41,169.3,136.38,172.84Z"/><path class="cls-14" d="M14.49,108.21c-2,.75-4.13,1.24-6.36,1.89.46,2.08,2.61,3.17,3,5.28A17.85,17.85,0,0,1,6.87,109c3.85-.13,11.9-.68,7.54-6.17a38.27,38.27,0,0,1-2.62-4.12c-1.61-2.92-1.31-6-.67-9.13.48-3,2.58-.16,3.62,1h0v0h0l-1.92-.3L12.29,89h-.55c-.24,2.94-1.37,5.94.65,8.5C12.06,101.39,20.08,105.35,14.49,108.21Z"/><path class="cls-14" d="M44.06,78.77c-.33,1.89-.75,3.86-2.92,4.67,1.27-2,3.23-4.47,1.62-6.79-2.83-1.22-5.83,2.2-8.42,3.17-1.82.54-8,5.12-7.62.88A13.86,13.86,0,0,1,32.6,70.38c0,1.67-1.92,2.72-2.81,4-2.05,1.75-1.89,4.27-2.31,6.72,3.13.76,5.33-1.51,7.92-2.8C38,76.88,44.63,73.06,44.06,78.77Z"/><path class="cls-14" d="M84,7.5c-.08.37-.1,1-.25,1.07-1.76.35-3.43,1.58-5.36.55A42.32,42.32,0,0,0,70,5.44C61.21,3.65,61.59,14.21,61,20c-.57,1.68,1.22,5.86-1.77,5.28,1.8-1.53,1.09-3.71,1.37-5.61.74-6.88.51-17.45,10.61-14.4a47.87,47.87,0,0,1,6.51,2.88C80,9.57,81.93,8.76,84,7.5Z"/><path class="cls-14" d="M62.22,53.91a1,1,0,0,1-1.48,1c-1.83-.89-4.25-1-5.68-2.47l6.48,1.89c.13-3.62.69-7.27-1.86-10.48-4.48-5.16-6-13.51-.49-18.56-.61,2.33-3,3.87-2.45,6.47-1.38,1.62-.82,2.82.09,4.35C57.87,44.19,63.17,42.51,62.22,53.91Z"/><path class="cls-14" d="M134.14,118.63a2.12,2.12,0,0,1-.31.28,7.42,7.42,0,0,1,.85-2.52c3.65-4.73,4.45-10.79,4.13-16.59a21.25,21.25,0,0,0-2.54-9.64c-.59-1.09-.54-2.54-.78-3.83C140.83,96.57,141.26,108.66,134.14,118.63Z"/><path class="cls-14" d="M141.46,45.3c2.55-4-3.38-4.78-1.53-11.43-8.82,2.77-3-1.51-4.34-4.95a7.43,7.43,0,0,0-2.06,1.19c.07-.59.14-1.17.23-1.85,1.11.25,2.47-.63,2.87.71,1,1.54-3.06,6,.3,5.38,1.12-.67,4-1.75,3.31.67C138.39,38.55,145.8,42.87,141.46,45.3Z"/><path class="cls-14" d="M135.79,42.05c-3-.71-7.18-.7-7.08,3.44A5.45,5.45,0,0,1,126.66,51c-2.22,1.34-8.24.44-7.38-3.16,0-.18.59-.32.9-.48-1.57,2.18,1.55,3.15,3.15,3.56,3.73,1,4.83-2.14,4.75-5.27C128.32,41.31,132.32,39.67,135.79,42.05Z"/><path class="cls-14" d="M158.19,77.45h0c-5.1,4.92-11.76,2.87-16.67-.93-2.05-1.55-4.12,2.41-5.76,3.43h0c.3-2.45,2.36-3.29,4.14-4.26,1.84-.77,3.4,1.18,4.78,2.12a9.39,9.39,0,0,0,11.45.29A6,6,0,0,1,158.19,77.45Z"/><path class="cls-14" d="M166,70.15h0c2.52-4.09,4.74-5.58,3.1-11a54.71,54.71,0,0,0-2.78-8.55,3.39,3.39,0,0,1-.84-2.39c2.21,2.72,2.94,6.06,3.82,9.32C170.6,62.14,170.46,67.39,166,70.15Z"/><path class="cls-14" d="M133.48,119.44c-3.71,6-7.4,12-11.16,17.95,1.09-3.11,3.09-5.75,4.72-8.58A43.58,43.58,0,0,1,133.48,119.44Z"/><path class="cls-14" d="M54.47,52.24c-2.63.51-5.27-.29-7.91-.31-5.08-.31-9.4,2.63-14.07,4C38.56,51.22,47.16,50.6,54.47,52.24Z"/><path class="cls-14" d="M41.64,171.49c-9.32-2.79-11.76-.48-18.45,5.66,1.37-3.44,5.16-5.6,8.43-6.85A11.81,11.81,0,0,1,41.64,171.49Z"/><path class="cls-14" d="M140.31,25.42c-.36,0-.78.21-1.08.1a6.59,6.59,0,0,0-6.71.94c-2.18,1.6-2.76,2.72-1.64,5.1l2.65-1.45h0l-2.76,2.69C126.82,26.78,135.58,22.31,140.31,25.42Z"/><path class="cls-14" d="M122.14,137.79q-4.24,7.65-8.48,15.3v0h0c-.34-1.66.92-2.74,1.57-4,1.81-3.47,3.76-6.88,5.7-10.27C121.18,138.41,121.73,138.14,122.14,137.79Z"/><path class="cls-14" d="M98.16,53.89l1.72,2.77c-1.31-.61-1.6-1.46-2.36-2.81,3.24-.8,6.71-.05,9.67-2.15a10,10,0,0,1-2.52-4v0q1.73,2.05,3.46,4.1C105.12,54.13,101.78,54,98.16,53.89Z"/><path class="cls-14" d="M158.76,40.38c-4.18-3.12-9.35-5.1-12.62-9.25C150.28,34.27,155.06,36.72,158.76,40.38Z"/><path class="cls-14" d="M91.89,157.67h0c-4.18-1.4-6.78,4.68-9.49,7A11.26,11.26,0,0,1,90,157C90.69,156.73,91.61,156.42,91.89,157.67Z"/><path class="cls-14" d="M37.06,66.58c0,.41-.45.79-.69,1.19.8-5.21-5.92-.6-8.19-.1.1-1.43,4.17-2.25,5.45-3C35.12,64,37.19,65.17,37.06,66.58Z"/><path class="cls-14" d="M42.75,87.81c-7.56,3.13-4.52-.32-1.61-4.37-.41,1.93-2,3-2.26,5Z"/><polygon class="cls-14" points="135.79 42.05 135.79 42.05 135.78 42.04 135.79 42.05"/><path class="cls-14" d="M141.44,45.34a2,2,0,0,1-2.56,1.87c-2.59-.47-2.25-3.21-3.09-5.16C138,44.51,137.08,48.55,141.44,45.34Z"/><path class="cls-14" d="M28.18,67.65c-2.3.33-4.65,1.79-6.95,1.19.29-1.31,1.28-2.22,2.07-3.25-.18.69-.72,1.91-.54,2.52C24.48,68.76,26.41,67.79,28.18,67.65Z"/><path class="cls-14" d="M135.54,80.45c-1.7,2-1.28,3.72,0,5.89h0a3.43,3.43,0,0,1-1.5-4.19c.4-.82.34-2.16,1.77-2.18A2.16,2.16,0,0,1,135.54,80.45Z"/><path class="cls-14" d="M166,70.15l-4.76,4.5A9.13,9.13,0,0,1,166,70.15Z"/><path class="cls-14" d="M31.3,57.45c-1.2.9-3,3.64-4.36,3.64h0l4.37-4.27C31.31,57,31.41,57.34,31.3,57.45Z"/><path class="cls-14" d="M26.94,61.09a7.83,7.83,0,0,1-3.64,4.5l3.63-4.5Z"/><path class="cls-15" d="M131.47,37.8c.11-.68.2-1.27.33-2.08l2.43,2.08Z"/><path class="cls-14" d="M104.3,47.16a5.67,5.67,0,0,1-3-4Z"/><path class="cls-14" d="M164.93,47.38c-1.1-.38-3.15-2.94-3.22-4Q163.33,45.37,164.93,47.38Z"/><path class="cls-14" d="M36.37,67.75c-.2,1.32-1.95,2.55-3.78,2.64h0Z"/><path class="cls-14" d="M20,94.77c-1.33-.34-2.81-.49-3.06-2.28Z"/><path class="cls-14" d="M161.26,74.65l-3.07,2.81C158.83,76.11,159.65,74.94,161.26,74.65Z"/><path class="cls-14" d="M142.5,27.48h0c-1-.42-2.26-.49-2.12-2Z"/><path class="cls-14" d="M144.72,29.76a2.21,2.21,0,0,1-2.22-2.27h0C143.24,28.25,144,29,144.72,29.76Z"/><path class="cls-14" d="M101.88,58.6c-1.47.18-1.91-.7-2-1.94Z"/><path class="cls-14" d="M17,92.5a2.31,2.31,0,0,1-2.23-2h0Z"/><path class="cls-14" d="M161.65,43.31c-1.31.24-1.49-.59-1.51-1.58Z"/><path class="cls-14" d="M31.36,56.78,32.44,56C32.58,56.9,32,56.93,31.36,56.78Z"/><path class="cls-16" d="M60.37,134l.55,1.13Z"/><path class="cls-17" d="M140.14,71.59c-1.32.53-2.7.08-4.12-.31a7.12,7.12,0,0,1-1.1,5.82c-1.13,1.6-1.31,1.69-3,.75-4.5-2.45-7.94-6.29-8.62-11.53,2.88-.46,9.15.13,8.07-4.28-.09-.94-.08-2.4.45-2.76,1.07-.71,1.81.62,2.41,1.33C135.55,62.84,142.48,69.31,140.14,71.59Z"/><path class="cls-17" d="M149,64.09c.33,6.72-9.32-9.69-10.59-11C138.34,44,149.49,61.34,149,64.09Z"/><path class="cls-17" d="M159.58,56.47c.75,7-10.4-9.62-11.82-11C147.1,36,159.9,53.54,159.58,56.47Z"/><path class="cls-14" d="M120.4,52c-.22.15-.34,0-.15-.17Z"/><path class="cls-14" d="M111.31,172.79a.72.72,0,0,1-.11.19c-.07-.15-.14-.24.07-.3C111.29,172.72,111.32,172.76,111.31,172.79Z"/><path class="cls-2" d="M109.65,45.36l2.73,3.22-.47.4-2.76-3.18Z"/><path class="cls-2" d="M120.05,168.51c10.27-4.81,25.51-1.34,28.92,12.51.83,2.28-1.67.62-1.67.62l-1.54-5.81-3.43-4.23-5-3-5.85-1Z"/><path class="cls-13" d="M142,179.28c-.55,3.66-10.76,2.43-10.88,2.35L127,171.78C131.71,170.1,141.72,172,142,179.28Z"/><path class="cls-13" d="M31.62,170.3c-.61.86-8.64,11.95-9.3,12.85C21.25,176.06,27.69,170.9,31.62,170.3Z"/><path class="cls-3" d="M79.1,78.67l4.62,27.51s20.8,9.53,21.64,9.42,15.81-6.27,15.81-6.27l6.38-14.75C122.11,79,124.64,83,109.7,76.11L92.2,73.74Z"/><path class="cls-4" d="M143.73,27.49c-14.94,3.46-.95,12.23-13,11.55l-2.23-8.84,2.23-5.82,4-1.59,6.69.27"/><path class="cls-4" d="M142.87,25.94l-2.49-.5-3.49.5L133,29.23l1.25,7.45,5.7-2.81s-.23-6.21,2.94-2.15c4.29,5.46,8.7,3.18,8.7,3.18"/><path class="cls-5" d="M141.77,30.6s-6.61-2.47-1.6,8.78l2.33-.52"/><path class="cls-3" d="M71.2,114s-3.7,6.76-.4,20.54,12.66,0,12.66,0"/><path class="cls-3" d="M45.77,119.05l-.08,0-.07,0a39.34,39.34,0,0,1-11.28,1,19.23,19.23,0,0,1-9.79-3,17.88,17.88,0,0,0,1.84-.5c1.57-.52,3.55-1.46,3.41-2.85Z"/><path class="cls-3" d="M21.52,102.84a2.71,2.71,0,0,1-1.21-.67C20.23,102,20.72,102.29,21.52,102.84Z"/><path class="cls-3" d="M48.31,104.3a25,25,0,0,0,4.13-1.67l-1.17.7-15.39,9.19s-5.31,0-7.26-3.1A23.32,23.32,0,0,0,24,104.75c-.94-.77-1.83-1.44-2.51-1.91a18.89,18.89,0,0,0,1.82.56c1.62.49,3.19.9,4.68,1.22C37.21,106.62,44,105.63,48.31,104.3Z"/><path class="cls-3" d="M52.44,102.62l1.37-.82s0,0-.06,0A12.54,12.54,0,0,1,52.44,102.62Z"/><path class="cls-13" d="M57,98.92s-11.35,12.86-32.23,4.89"/><path class="cls-13" d="M26,104.15s-2.56-.63-1.68.87,0,5.94,0,5.94l-5-8.48L17,99.19h5.58"/><path class="cls-13" d="M27.27,108a29.32,29.32,0,0,0-3.84-4c-1.38-1-2.52,2.41-2.52,2.41l3.67,3.1"/><rect class="cls-3" x="134.38" y="58.05" width="3.52" height="14.78" rx="0.18" transform="translate(-11.77 96.09) rotate(-37.38)"/><path class="cls-4" d="M126.57,31.13s-3.6,6.63-10.72,9.25c0,0-.85.73.72,3.75l6.89-.41,3.69-2.43,5.7-8"/><path class="cls-17" d="M148.13,45.93s-1.42-1.78,0-2.87"/><path class="cls-17" d="M158.63,53.72s2.21,3,.71,4.35c0,0-.89,1.32-4.5-2.94a108.07,108.07,0,0,1-7.34-10.2"/><path class="cls-17" d="M139.11,50.45s-2.26,1.25.46,4.19"/><path class="cls-17" d="M143,53.07s7.21,9.17,7.45,10.6-1.18,2.51-2.09,2c-2.1-1.11,0-4.07,0-4.07"/><path class="cls-17" d="M138.19,51.83s-.8,1,4.82,7.92"/><path class="cls-4" d="M117,49s-1.57,2.34,5.35,10-10.65,4.35-10.65,4.35L116.92,59"/><polyline class="cls-4" points="115.85 49.33 116.86 49.83 117.84 54.11 118.14 57.96 117 58.62 114.72 58.07 114.28 53.98"/><path class="cls-5" d="M160.14,41.73s12.44,10.9,9.71,22.59"/><path class="cls-3" d="M79.19,27.7s-8,6.23-3.43,29.94"/><path class="cls-18" d="M103.84,107.51a2.13,2.13,0,0,1-.44,0,5.85,5.85,0,0,1-.84-.21,6.38,6.38,0,0,0-.66-.16,7.09,7.09,0,0,0-.72,0l-.85,0c-.47-.06-1.57-.39-1.58-2.22V103.8c0-2.94-.13-6-1.46-8.72A3,3,0,0,0,96.37,94c-.23-.15-.67-.43-1.41-.83l.18,7.9a3.42,3.42,0,0,0,.1,1h0a2.07,2.07,0,0,0,.44.41,5,5,0,0,1,.93.8,2.15,2.15,0,0,1,.69,1.45,1.66,1.66,0,0,1-1.27,1.6,4.09,4.09,0,0,1-1,.21h-.36a7.6,7.6,0,0,1-1.15-.21c-.54-.13-.69-.15-.69-.15h-.05l-.59.06c-.28,0-.52.06-.73.07a2.52,2.52,0,0,1-.39,0,5.37,5.37,0,0,1-1.52-.32,1.82,1.82,0,0,1-1.45-1.56,1.45,1.45,0,0,1,.28-1,2.83,2.83,0,0,1,.5-.55,5.44,5.44,0,0,1,.55-.39l.31-.2a1.81,1.81,0,0,0,.51-.41h0a2.19,2.19,0,0,0,0-.4l-.61-10.94-.07,0a18.85,18.85,0,0,1-2.78-1.58,2.47,2.47,0,0,1-1.17-1.84c-.08-.85.22-2.32,3.13-2.65s5.64-.56,8.49-.7c.88,0,1.76-.08,2.64-.11a7.67,7.67,0,0,1,2.94.44,2.51,2.51,0,0,1,1.67,2.69,4.79,4.79,0,0,1-2,3.45,18,18,0,0,1-1.8,1.24l.62.31.29.15a3.2,3.2,0,0,1,1.3,1.23,3.81,3.81,0,0,1,.52,1.67c0,.26,0,.6.09,1s.08.91.13,1.48c.09,1.1.18,2.26.26,3.46.06.85.13,1.81.13,1.93a.68.68,0,0,0,0,.27c.2.17.32.26.54.43a5.38,5.38,0,0,1,.91.93,2.28,2.28,0,0,1,.62,1.56,1.73,1.73,0,0,1-1.3,1.45A3.26,3.26,0,0,1,103.84,107.51Zm-9-18a5.22,5.22,0,0,0,1.8.37h.06a2.82,2.82,0,0,0,1.91-1.2,2.34,2.34,0,0,0,.62-1.27h0a.28.28,0,0,0-.15,0,8.49,8.49,0,0,0-2.32-.13h-.05a6.45,6.45,0,0,0-1.74.24l-.13,0a4.12,4.12,0,0,0,0,.65Z"/><path class="cls-19" d="M97.92,91l.68.44.81.4,1,.5a2.06,2.06,0,0,1,.87.84,2.68,2.68,0,0,1,.38,1.21c0,.53.13,1.35.21,2.43s.18,2.21.27,3.38.12,1.79.12,1.84a1.21,1.21,0,0,0,.36,1c.24.18.35.28.58.46a3.9,3.9,0,0,1,.73.74,1.37,1.37,0,0,1,.39.83c0,.28-.23.47-.6.6a2.16,2.16,0,0,1-.91.13l-.71-.19a6.53,6.53,0,0,0-.77-.18,6.81,6.81,0,0,0-.83,0h-.72c-.46-.06-.69-.46-.69-1.22,0-.41,0-.62,0-1,0-3-.13-6.18-1.54-9a4,4,0,0,0-1.22-1.4c-.47-.3-1.28-.78-2.47-1.39-.86-.43-1.29-.64-2.16-1s-1.29-.66-2.18-1.07a18.53,18.53,0,0,1-2.57-1.46,1.49,1.49,0,0,1-.74-1.1c-.08-.84.65-1.37,2.2-1.54,3.56-.42,7.22-.68,10.82-.79a6.6,6.6,0,0,1,2.51.36,1.5,1.5,0,0,1,1,1.67,3.79,3.79,0,0,1-1.62,2.68A16.36,16.36,0,0,1,97.92,91Zm-4.54.45.21,9a4.18,4.18,0,0,0,.17,1.3,2.24,2.24,0,0,0,.77.82,4.33,4.33,0,0,1,.76.67,1.2,1.2,0,0,1,.42.75c0,.31-.19.52-.57.65a2.78,2.78,0,0,1-1,.15,7.77,7.77,0,0,1-1-.19,6.49,6.49,0,0,0-.84-.17,7.88,7.88,0,0,0-.8.07,6.17,6.17,0,0,1-1,.06,4.48,4.48,0,0,1-1.21-.26c-.49-.17-.74-.39-.77-.69a.54.54,0,0,1,.11-.35A1.91,1.91,0,0,1,89,103a4.67,4.67,0,0,1,.43-.3l.33-.21a2.68,2.68,0,0,0,.77-.68,1.6,1.6,0,0,0,.17-1c-.2-3.63-.4-7.27-.61-10.9C91.16,90.45,92.25,91,93.38,91.45Zm0-2.11A34.63,34.63,0,0,1,90,87.68l0-.38c0-.53-.27-.78-.74-.73a.81.81,0,0,0-.4.16.4.4,0,0,0-.17.37c0,.25.41.57,1.17,1s1.47.78,2.13,1.09a9.45,9.45,0,0,0,4.14,1.29,3.52,3.52,0,0,0,2.65-1.52,3.14,3.14,0,0,0,.84-1.82,1,1,0,0,0-.9-1.05,9.79,9.79,0,0,0-2.54-.15,8.43,8.43,0,0,0-2,.29,1,1,0,0,0-.7.56,3,3,0,0,0-.11,1.06C93.31,88.44,93.32,88.74,93.33,89.34Z"/><path class="cls-18" d="M113.7,109.32a4.8,4.8,0,0,1-1.35-.13,7,7,0,0,1-.85-.29l-.63-.22h0l-.78-.1a8.65,8.65,0,0,1-.86-.1,4.67,4.67,0,0,1-2.52-1.51,6.83,6.83,0,0,1-1.42-2.75A8.35,8.35,0,0,1,105,101a9.31,9.31,0,0,1,.83-3,6.08,6.08,0,0,1,1.92-2.41,4.12,4.12,0,0,1,2.27-.81,4.48,4.48,0,0,1,.73,0,4.59,4.59,0,0,1,3.83,3.07l.73-.22-.06-.22a5.1,5.1,0,0,0-1.1-1.84,16.1,16.1,0,0,0-2.1-1.84c-.84-.65-1.25-1-2.1-1.57-2.22-1.54-3.23-3.33-3-5.33a3.07,3.07,0,0,1,1.56-2.52,5.42,5.42,0,0,1,2.22-.6h.44c3.26.14,4.93.26,8.15.58,1.6.16,2.63.59,3.15,1.32a2,2,0,0,1,.31,1.67A3.11,3.11,0,0,1,121,89.41l-1.17.57,0,0-.11,0a2.24,2.24,0,0,1,.15.57l.06.95-.94.1-.32,0a3.75,3.75,0,0,1-.68,0,1.74,1.74,0,0,1-.73-.26,13.19,13.19,0,0,1,1.6,1.78,9.14,9.14,0,0,1,1.58,3.91,13,13,0,0,1-.35,5.14,12.63,12.63,0,0,1-1.61,3.82,7.62,7.62,0,0,1-2.64,2.63A4.74,4.74,0,0,1,113.7,109.32Zm-3.2-8.7a.82.82,0,0,0-.1.26c-.09.66-.05,1.33,1.56,1.63a4.26,4.26,0,0,0,.91.07,2.14,2.14,0,0,0,1.22-.43,3.53,3.53,0,0,0,1.07-1.78,6.29,6.29,0,0,1-.38.69,2,2,0,0,1-1.62,1,2.25,2.25,0,0,1-.51,0,2.75,2.75,0,0,1-1-.39,5.19,5.19,0,0,1-.72-.6A3.18,3.18,0,0,0,110.5,100.62ZM112,87.34a5.55,5.55,0,0,0,1.39,1.16c1,.68,1.47,1,2.41,1.73.33.25.64.51.94.77a2.46,2.46,0,0,1-.28-.45,2.61,2.61,0,0,1-.22-1.69,2.72,2.72,0,0,1,.53-1.16,5.65,5.65,0,0,0-.75-.11c-1.34-.12-2-.17-3.35-.26h-.48Z"/><path class="cls-19" d="M117.77,90.27a3.17,3.17,0,0,1-.75,0,.86.86,0,0,1-.68-.56,1.63,1.63,0,0,1-.14-1,1.77,1.77,0,0,1,.42-.83,1.6,1.6,0,0,0,.37-.59c.11-.53-.52-.86-1.87-1s-2-.17-3.31-.26c-1.11-.07-1.71.17-1.78.7s.56,1.34,1.89,2.23c.94.65,1.4,1,2.31,1.66A13.42,13.42,0,0,1,117,93.3a7.84,7.84,0,0,1,1.38,3.42,11.7,11.7,0,0,1-.33,4.64,11.49,11.49,0,0,1-1.45,3.45,6.53,6.53,0,0,1-2.25,2.25,3.55,3.55,0,0,1-2.68.39c-.07,0-.3-.1-.72-.25s-.65-.23-.71-.24-.43-.07-.89-.12l-.76-.09a3.59,3.59,0,0,1-1.94-1.18,5.69,5.69,0,0,1-1.18-2.3,7.46,7.46,0,0,1-.25-2.81,8.5,8.5,0,0,1,.72-2.68,5,5,0,0,1,1.58-2,3.12,3.12,0,0,1,2.25-.6,3.59,3.59,0,0,1,3,2.42c.18.42.37.65.59.68a.86.86,0,0,0,.39-.07,5.8,5.8,0,0,1-.71,1.66,1,1,0,0,1-1.11.49,1.5,1.5,0,0,1-.61-.24,4.08,4.08,0,0,1-.56-.46,3.55,3.55,0,0,0-.55-.47,1.28,1.28,0,0,0-.58-.22.7.7,0,0,0-.64.31,1.55,1.55,0,0,0-.38.83c-.21,1.48.56,2.36,2.31,2.67a3.37,3.37,0,0,0,2.86-.54,4.93,4.93,0,0,0,1.56-2.94,5.15,5.15,0,0,0-.12-2.83,6,6,0,0,0-1.28-2.15,18,18,0,0,0-2.18-1.91c-.82-.63-1.23-.94-2.08-1.55-1.84-1.28-2.72-2.68-2.54-4.32a2,2,0,0,1,1-1.72,4.12,4.12,0,0,1,2.12-.47c3.16.13,4.74.25,7.91.56,1.91.19,2.75.79,2.53,1.74a2.09,2.09,0,0,1-1.19,1.48l-1.16.56c-.46.2-.72.45-.78.76a1.06,1.06,0,0,0,.1.43A3.4,3.4,0,0,1,117.77,90.27Z"/><path class="cls-4" d="M227.06,107.86c-.27,0-.94,0-5.89-.22-3.4-.12-5.89-.19-7.39-.19-1.71,0-3.65,0-5.77.16l-3.3.18h-.14a20.9,20.9,0,0,1-5.62-1c-5.55-1.59-6.37-5-6.37-6.89a6.43,6.43,0,0,1,3.58-5.64l2.64-1.72c0-.37,0-.88,0-1.59V68c0-.18,0-.34,0-.48-3.17-1.77-6.2-3.84-6.2-7.41v-.31c.1-1.6.95-5.44,6.79-6.56a30.82,30.82,0,0,1,5.67-.58h21.22a22.12,22.12,0,0,1,6.37.75c4.78,1.46,5.49,4.78,5.49,6.63,0,2.82-1.59,5.38-4.87,7.85-1.13.85-2.25,1.63-3.35,2.33a8.63,8.63,0,0,1,3,6.58,8.33,8.33,0,0,1-3.82,7.26l4.63,2.44c5.58,2.94,6.42,7.36,6.42,9.73a10.64,10.64,0,0,1-4.2,9A14.57,14.57,0,0,1,227.06,107.86Zm-9.85-19.1a17.21,17.21,0,0,0,4.59.46h2.67a14.47,14.47,0,0,0,2.15-.14l1-4.22a8.18,8.18,0,0,1-.87.32l-6.65,2.09V84.84l-.49.14a19.84,19.84,0,0,1-2.56.53v.14C217.1,87.15,217.16,88.14,217.21,88.76Z"/><path class="cls-4" d="M247.16,107.52a15.26,15.26,0,0,1-2.09-.21l-.85-.1-.8.1a17.65,17.65,0,0,1-2.15.21,12.35,12.35,0,0,1-6.22-1.78,6.28,6.28,0,0,1-3.55-5.6c0-3,2.22-4.73,3.67-5.66V64.35a11.14,11.14,0,0,1-1.23-1.09A6.24,6.24,0,0,1,232.23,59c0-1.06.4-6.32,8.18-6.32H247A6,6,0,0,1,252,55.14a6.71,6.71,0,0,1,1.32,4V94.48a7.33,7.33,0,0,1,3.61,4.83l.07.41v.42a6.3,6.3,0,0,1-3.56,5.6A12.28,12.28,0,0,1,247.16,107.52Z"/><path class="cls-4" d="M282.87,107.52a15.74,15.74,0,0,1-2.11-.21l-.83-.1-.89.1a16.41,16.41,0,0,1-2.12.21,12.35,12.35,0,0,1-6.22-1.78,6.16,6.16,0,0,1-3.55-5.47c0-3,2.13-4.84,3.66-5.83V76.38A6.9,6.9,0,0,1,267.94,71c0-1,.4-6.32,8.18-6.32h7.75a10.45,10.45,0,0,1,4.84,1,9.68,9.68,0,0,1,4.23-1,10.06,10.06,0,0,1,5.75,1.8,11.11,11.11,0,0,1,3.8,4.51,13.3,13.3,0,0,1,1.26,5.75,14,14,0,0,1-2.33,7.61,11.76,11.76,0,0,1-5,4.42l-.1,1.19-3.54.88a7.59,7.59,0,0,1-1.91.22,6.18,6.18,0,0,1-2-.31v3.73c1.62,1,3.75,2.84,3.75,5.76a6.24,6.24,0,0,1-3.36,5.42l-.07,0A12.26,12.26,0,0,1,282.87,107.52Z"/><path class="cls-4" d="M310.58,107.52a15.6,15.6,0,0,1-2.11-.21l-.83-.1-.76.1a15.73,15.73,0,0,1-2.12.21,13,13,0,0,1-6.27-1.77l-.11-.06-.11-.07a6.36,6.36,0,0,1-3.37-5.48v-.61l.14-.59a7.63,7.63,0,0,1,3.61-4.5V76.37A6.65,6.65,0,0,1,295.78,71a5.83,5.83,0,0,1,2.93-5.11,8.2,8.2,0,0,1-.73-3.36c0-3.6,2.55-7.79,9.72-7.79s9.79,4.19,9.79,7.79a8.23,8.23,0,0,1-.74,3.39A5.83,5.83,0,0,1,319.62,71a6.67,6.67,0,0,1-2.87,5.43V94.45a7.64,7.64,0,0,1,3.59,4.42l.16.62v.65a6.29,6.29,0,0,1-3.65,5.61A12.48,12.48,0,0,1,310.58,107.52Z"/><path class="cls-4" d="M347.5,107.52a15.24,15.24,0,0,1-2.1-.21c-.38-.06-.63-.09-.79-.1l-.93.11a18.14,18.14,0,0,1-2.13.2,13.08,13.08,0,0,1-6.06-1.65c-.24-.14-.47-.27-.69-.42l-.4.26-.17.1-.18.09a13.56,13.56,0,0,1-6.11,1.62,15.35,15.35,0,0,1-2.08-.21l-.8-.1-.85.1a15.89,15.89,0,0,1-2.16.21,13.21,13.21,0,0,1-6.12-1.65,6.33,6.33,0,0,1-3.65-5.67,6.2,6.2,0,0,1,2.21-4.67A10.59,10.59,0,0,1,316,94.46V76.56a11.81,11.81,0,0,1-1.42-1.09,6.29,6.29,0,0,1-2-4.64,5.94,5.94,0,0,1,4.59-5.68,15.12,15.12,0,0,1,4.06-.45h7.87a10.42,10.42,0,0,1,5,1.07,14.2,14.2,0,0,1,6.24-1.46A13.88,13.88,0,0,1,347,66a11.87,11.87,0,0,1,4.92,5,14.31,14.31,0,0,1,1.58,6.78V94.44l.28.18a9.42,9.42,0,0,1,1.75,1.49,6,6,0,0,1,1.66,4.09,6.38,6.38,0,0,1-3.21,5.39l-.21.14-.22.12A12.84,12.84,0,0,1,347.5,107.52Zm-13.45-13c.23.15.47.31.7.48.22-.16.45-.32.69-.47V81.43l-1.39.64Z"/><path class="cls-4" d="M376.94,107.52c-.45,0-1.13,0-3.06-.22-1.47-.14-1.91-.17-2-.17s-.78,0-2,.11c-1.7.14-2.08.15-2.34.15a15.28,15.28,0,0,1-8-2.17,17.38,17.38,0,0,1-5.55-5.35,23.32,23.32,0,0,1-3-6.74,27.66,27.66,0,0,1-.94-7.08,25.83,25.83,0,0,1,2.35-11.18,18.8,18.8,0,0,1,7.51-8.24,22.17,22.17,0,0,1,11.4-2.85,26.77,26.77,0,0,1,6.22.75A15.8,15.8,0,0,1,384,67.71a10.39,10.39,0,0,1,2.42,12.92l.8,7.21a11.26,11.26,0,0,1,2.47,7.08,12.3,12.3,0,0,1-1.76,6.45,12.51,12.51,0,0,1-4.68,4.51A12.72,12.72,0,0,1,376.94,107.52ZM366.29,82.58c0,4.41,1.43,5.76,6.11,5.76h1.73a13.07,13.07,0,0,0,2.77-.23l.64-1.29.65-.65a10.37,10.37,0,0,1-1.12.06,12.84,12.84,0,0,1-3.06-.32l-.74,2.29-5.79-4.74a9.49,9.49,0,0,1-1.19-1.18Z"/><path class="cls-4" d="M406.58,107.52a22.17,22.17,0,0,1-2.32-.2L403,107.2l-1.08.07c-1.34.11-1.65.12-1.88.12a14.41,14.41,0,0,1-7.46-2.15,19.07,19.07,0,0,1-5.45-4.9,22.68,22.68,0,0,1-3.51-7.16,27,27,0,0,1-1.18-7.66,28.08,28.08,0,0,1,2-10.92,17.73,17.73,0,0,1,7-8.37,18.22,18.22,0,0,1,2.6-1.34,7.47,7.47,0,0,1,4-5l5.6-3c.07,0,.41-.23,1.37-.86s1.66-1.07,2.19-1.43l.17-.11.17-.1a8.8,8.8,0,0,1,4.4-1.48A6.2,6.2,0,0,1,416.72,55a6.45,6.45,0,0,1,1.6,4.32,6.61,6.61,0,0,1-1.21,3.76,7.2,7.2,0,0,1-2.39,2.22l-1,.56a18.19,18.19,0,0,1,4.44,3.46,18.46,18.46,0,0,1,4.28,7.71,30.78,30.78,0,0,1,1.17,8.47,28.54,28.54,0,0,1-.9,6.89A26.34,26.34,0,0,1,420,99.22a18.17,18.17,0,0,1-5.26,5.78A13.94,13.94,0,0,1,406.58,107.52Zm-3.73-30.78a2.46,2.46,0,0,0-1.51.37,3.69,3.69,0,0,0-1.13,1.6,8.63,8.63,0,0,0-.52,3A7,7,0,0,0,400.74,86a2.15,2.15,0,0,0,2,.79,3.41,3.41,0,0,0,2-.47,3.32,3.32,0,0,0,1.17-1.5,7,7,0,0,0,.53-2.66c0-2.69-.57-4-1.06-4.54C405.15,77.33,404.67,76.74,402.85,76.74Z"/><path class="cls-4" d="M451.65,107.52a15,15,0,0,1-2.09-.21c-.39-.06-.63-.09-.79-.1s-.46.05-.93.11a18.22,18.22,0,0,1-2.14.2,13,13,0,0,1-6.05-1.65,7.41,7.41,0,0,1-.69-.42l-.4.26-.18.1-.17.09a13.6,13.6,0,0,1-6.12,1.62,15.13,15.13,0,0,1-2.07-.21l-.81-.1-.84.1a16.16,16.16,0,0,1-2.16.21,13.15,13.15,0,0,1-6.12-1.65,6.33,6.33,0,0,1-3.66-5.67,6.21,6.21,0,0,1,2.22-4.67,11.11,11.11,0,0,1,1.45-1.07V76.56a10.89,10.89,0,0,1-1.41-1.09,6.27,6.27,0,0,1-2-4.64,6,6,0,0,1,4.6-5.68,15,15,0,0,1,4.06-.45h7.87a10.4,10.4,0,0,1,5,1.07,14.24,14.24,0,0,1,6.25-1.46A13.86,13.86,0,0,1,451.19,66a11.9,11.9,0,0,1,4.93,5,14.31,14.31,0,0,1,1.58,6.78V94.44l.28.18a9.69,9.69,0,0,1,1.74,1.49,6,6,0,0,1,1.66,4.09,6.38,6.38,0,0,1-3.21,5.39l-.2.14-.23.12A12.84,12.84,0,0,1,451.65,107.52Zm-13.45-13c.24.15.47.31.71.48.21-.16.44-.32.68-.47V81.43l-1.39.64Z"/><path class="cls-19" d="M227.06,105.67c-.25,0-1.13,0-5.8-.22-3.44-.13-6-.19-7.48-.19-1.74,0-3.72,0-5.87.16l-3.26.18h-.08a18.9,18.9,0,0,1-5-.88c-4-1.13-4.79-3.22-4.79-4.78,0-1.06.44-2.56,2.54-3.77l3.47-2.26.07,0A14.29,14.29,0,0,0,201,91V68a6.41,6.41,0,0,0-.17-1.83,3.09,3.09,0,0,0-.59-.36l-.06,0-.07,0c-3.37-1.87-5.32-3.39-5.32-5.63V60c.08-1.35.84-3.74,5-4.53a28.26,28.26,0,0,1,5.26-.55h21.22c2.39,0,9.67,0,9.67,5.19,0,2.08-1.31,4.07-4,6.1a46.11,46.11,0,0,1-5.81,3.76l-.55.3a11,11,0,0,1,1.91,1,6.51,6.51,0,0,1,3.23,5.65,6.25,6.25,0,0,1-4.64,6.26l-3.79,1.19V82l-3.26.88a13.76,13.76,0,0,1-3.72.57h-.46v2.23a19.76,19.76,0,0,0,.32,4.58c.38.32,1.84,1.18,6.57,1.18h2.67a9.85,9.85,0,0,0,3.9-.54,1.71,1.71,0,0,0,.19-.52l.9-3.61,3.3,1.73c4.33,2.28,5.24,5.5,5.24,7.79a8.53,8.53,0,0,1-3.32,7.21A12.41,12.41,0,0,1,227.06,105.67ZM215,64.1a14,14,0,0,0-.12,2.05v.57l3.35-2.65h-2.48A7.48,7.48,0,0,0,215,64.1Z"/><path class="cls-4" d="M223.23,163c-6.68,0-11.76-2.36-15.11-7l0-.06a24.79,24.79,0,0,1-4.24-14.4,27.92,27.92,0,0,1,1.58-8.73,22,22,0,0,1,5.62-8.94,15.53,15.53,0,0,1,11.2-4.35c.84,0,1.65,0,2.44.11a6.66,6.66,0,0,1-2.49-5.26c0-2.2,1.31-4.88,5-5.82a19.79,19.79,0,0,1,4.63-.44h6.66a6.83,6.83,0,0,1,3.93,1.1,6,6,0,0,1,2.46,5.09v35c2.1,1.31,3.9,2.94,4.23,5.45l0,.33v.33c0,2.19-1.2,4.06-3.58,5.57l-.29.19-.31.14a16.39,16.39,0,0,1-6.87,1.61c-.24,0-.51,0-3.49-.22-2.27-.16-3.13-.19-3.45-.19s-1.38,0-4,.25C223.72,163,223.49,163,223.23,163Zm-.52-19.12h.2c.51,0,1,0,1.38,0,.69-.06,1.26-.08,1.74-.08h.71v-9.45q-.54-.27-1.11-.6l-.06,0a3.29,3.29,0,0,0-1.62-.4,1.47,1.47,0,0,0-1.38,1,10.66,10.66,0,0,0-1.23,5.13,7.57,7.57,0,0,0,1,4c.22.36.35.44.36.44Z"/><path class="cls-19" d="M247.16,105.32a14.81,14.81,0,0,1-1.81-.18l-1.13-.14-1.09.14a14.3,14.3,0,0,1-1.86.18,10.27,10.27,0,0,1-5.15-1.49,4.13,4.13,0,0,1-2.43-3.69c0-2.23,2.12-3.5,3.25-4.18l.42-.25V63.27L237,63a11.07,11.07,0,0,1-1.44-1.22,4.05,4.05,0,0,1-1.11-2.8c0-1.24.59-4.13,6-4.13H247a3.9,3.9,0,0,1,3.16,1.62,4.53,4.53,0,0,1,.89,2.7V95.73c2,1.12,3.37,2.26,3.64,3.94l0,.23v.24a4.12,4.12,0,0,1-2.44,3.69A10.16,10.16,0,0,1,247.16,105.32Z"/><path class="cls-19" d="M282.87,105.32a14.2,14.2,0,0,1-1.82-.18c-.69-.1-1-.13-1.12-.14s-.44,0-1.17.14a15,15,0,0,1-1.84.18,10.24,10.24,0,0,1-5.15-1.49,4,4,0,0,1-2.43-3.56c0-2.17,1.74-3.54,3.66-4.56V75.31c-.23-.17-.48-.37-.74-.58A4.84,4.84,0,0,1,270.14,71c0-1.24.58-4.13,6-4.13h7.75c2.43,0,3.88.6,4.74,1.37a8,8,0,0,1,4.33-1.37,7.85,7.85,0,0,1,4.51,1.42,9,9,0,0,1,3.06,3.64,11.14,11.14,0,0,1,1.05,4.81,11.81,11.81,0,0,1-2,6.43,9.53,9.53,0,0,1-5.21,4.06l-.09,1-2,.51a5.78,5.78,0,0,1-1.38.15,4.33,4.33,0,0,1-3.37-1.68,5.42,5.42,0,0,1-.78-1.29v9.83c1.91,1.07,3.75,2.41,3.75,4.51a4.18,4.18,0,0,1-2.33,3.56l0,0A10.14,10.14,0,0,1,282.87,105.32Zm3.85-23.43,0,0a13.78,13.78,0,0,1,.72-1.39l.16-.29-.27.11-.06,0a3.54,3.54,0,0,1-.57.18Z"/><path class="cls-4" d="M268.45,163c-.33,0-.8,0-3-.22-1.54-.14-2.05-.17-2.17-.17s-.62,0-2.26.15c-2.15.15-2.8.17-3.16.17a14.57,14.57,0,0,1-9.24-3.19,18.75,18.75,0,0,1-5.61-7.35,21.47,21.47,0,0,1-1.87-8.65,35.29,35.29,0,0,1,.65-6.76,27.38,27.38,0,0,1,2.25-6.66,19.58,19.58,0,0,1,4.4-5.87c3.25-2.87,7.56-4.33,12.83-4.33h6.94a22.68,22.68,0,0,1,4.39.46,12.79,12.79,0,0,1,5.09,2.21,8.08,8.08,0,0,1,3.38,6.65,12.82,12.82,0,0,1-4.26,9.25l-.05.05A18.18,18.18,0,0,1,275,140.2a9.94,9.94,0,0,1,6.78,9.28v.1a13.16,13.16,0,0,1-1.88,6.89,13.34,13.34,0,0,1-4.89,4.78A13.2,13.2,0,0,1,268.45,163Z"/><path class="cls-19" d="M310.58,105.32a14.2,14.2,0,0,1-1.82-.18c-.7-.1-1-.13-1.12-.14s-.41,0-1.06.13a14.12,14.12,0,0,1-1.82.19,10.89,10.89,0,0,1-5.21-1.48l-.06,0-.07,0a4.21,4.21,0,0,1-2.32-3.62v-.35l.08-.34c.38-1.58,1.72-2.67,3.66-3.76V75.27l-.76-.58A4.4,4.4,0,0,1,298,71c0-1.1.45-3.49,4.32-4a5.56,5.56,0,0,1-2.12-4.45c0-1.32.54-5.6,7.52-5.6s7.6,4.28,7.6,5.6a5.53,5.53,0,0,1-2.16,4.45c3.84.54,4.29,2.92,4.29,4a4.46,4.46,0,0,1-2.16,3.79l-.71.54v20.4c2.24,1.26,3.31,2.36,3.66,3.72l.09.36v.37a4.16,4.16,0,0,1-2.52,3.7A10.42,10.42,0,0,1,310.58,105.32Z"/><path class="cls-19" d="M347.5,105.32a13.77,13.77,0,0,1-1.8-.18c-.66-.1-1-.13-1.08-.14s-.45,0-1.21.14a15.8,15.8,0,0,1-1.86.18,10.88,10.88,0,0,1-5-1.39,5.23,5.23,0,0,1-1.74-1.46,5.17,5.17,0,0,1-1.52,1.37l-.1.06-.1,0a11.43,11.43,0,0,1-5.12,1.37,14.19,14.19,0,0,1-1.79-.18l-1.09-.14-1.13.14a14.82,14.82,0,0,1-1.87.18,11,11,0,0,1-5.1-1.39,4.14,4.14,0,0,1-2.49-3.73,4,4,0,0,1,1.47-3A9.6,9.6,0,0,1,317.71,96l.43-.24V75.38l-.43-.29A10.33,10.33,0,0,1,316,73.86a4.07,4.07,0,0,1-1.3-3,3.75,3.75,0,0,1,3-3.57,12.71,12.71,0,0,1,3.45-.36h7.87c2.53,0,4,.64,4.83,1.44a12.36,12.36,0,0,1,6.4-1.83,11.83,11.83,0,0,1,5.7,1.36A9.75,9.75,0,0,1,350,72a12.29,12.29,0,0,1,1.32,5.76v18l.12.07q.6.33,1.14.69A7.48,7.48,0,0,1,354,97.58,3.83,3.83,0,0,1,355,100.2a4.32,4.32,0,0,1-2.23,3.57l-.12.08-.13.07A10.76,10.76,0,0,1,347.5,105.32Zm-15.64-9.6a9.19,9.19,0,0,1,2.9,2.26,5,5,0,0,1,.71-.78A9.8,9.8,0,0,1,337.14,96l.49-.28V80.24a2.87,2.87,0,0,0-.23-1.42,1.52,1.52,0,0,0-.51-.06,6.23,6.23,0,0,0-2.47.73l-1.59.73c-.18.08-.45.2-1,.39Z"/><path class="cls-4" d="M289.88,163a15.26,15.26,0,0,1-2.09-.21l-.85-.1-.8.1A15.72,15.72,0,0,1,284,163a12.45,12.45,0,0,1-6.23-1.77,6.32,6.32,0,0,1-3.55-5.61c0-3,2.22-4.73,3.67-5.66V119.83a10.2,10.2,0,0,1-1.23-1.09,6.22,6.22,0,0,1-1.71-4.31c0-1.05.4-6.32,8.18-6.32h6.62a6.11,6.11,0,0,1,4.93,2.51,6.8,6.8,0,0,1,1.31,4V150a7.35,7.35,0,0,1,3.62,4.82l.06.41v.42a6.29,6.29,0,0,1-3.56,5.6A12.28,12.28,0,0,1,289.88,163Z"/><path class="cls-19" d="M376.94,105.32c-.32,0-.9,0-2.85-.2-1.72-.16-2.11-.18-2.19-.19-.29,0-.93,0-2.2.13-1.62.12-2,.13-2.17.13a13.19,13.19,0,0,1-6.9-1.84,15.11,15.11,0,0,1-4.86-4.69,21.15,21.15,0,0,1-2.71-6.1,25.12,25.12,0,0,1-.87-6.51,23.68,23.68,0,0,1,2.14-10.24A16.6,16.6,0,0,1,361,68.52,20,20,0,0,1,371.26,66a24.68,24.68,0,0,1,5.71.69,13.55,13.55,0,0,1,5.6,2.74,7.94,7.94,0,0,1,2.9,6.3A8.08,8.08,0,0,1,383,81.56a8.89,8.89,0,0,1-9.86,1.68,3.62,3.62,0,0,1-.43-.24l-.48,1.47-3.31-2.71a5,5,0,0,1-2.06-3.92,4.94,4.94,0,0,1,.33-1.79,10.38,10.38,0,0,0-1.14.84c-1.26,1.08-1.9,3-1.9,5.69,0,5.65,2.4,8,8.3,8h1.73c3.21,0,4.18-.57,4.36-.7l.85-1.71L384.45,83l.63,5.72a9.19,9.19,0,0,1,2.39,6.19,10.17,10.17,0,0,1-1.45,5.32,10.35,10.35,0,0,1-3.87,3.73A10.57,10.57,0,0,1,376.94,105.32Z"/><path class="cls-19" d="M406.58,105.32a19.15,19.15,0,0,1-2.08-.18c-1-.11-1.38-.14-1.47-.14l-1.27.09c-1.26.1-1.54.1-1.71.1a12.17,12.17,0,0,1-6.33-1.83A16.86,16.86,0,0,1,388.89,99a20.44,20.44,0,0,1-3.16-6.47,24.83,24.83,0,0,1-1.09-7,26.07,26.07,0,0,1,1.84-10.08,15.6,15.6,0,0,1,6.16-7.35,15.4,15.4,0,0,1,3.48-1.62v-.19a5,5,0,0,1,3-4.51l5.62-3s.3-.17,1.5-.95l2.23-1.46.09-.06.1,0a6.68,6.68,0,0,1,3.32-1.2,4,4,0,0,1,3.07,1.38,4.33,4.33,0,0,1,1.05,2.88,4.4,4.4,0,0,1-.82,2.52,5,5,0,0,1-1.67,1.56l-4.8,2.83a16,16,0,0,1,11.54,11.4,28.44,28.44,0,0,1,1.08,7.87,25.6,25.6,0,0,1-.83,6.35,23.93,23.93,0,0,1-2.54,6.25,15.8,15.8,0,0,1-4.62,5.08A11.75,11.75,0,0,1,406.58,105.32Zm-3.73-30.77a4.37,4.37,0,0,0-2.89.86,5.6,5.6,0,0,0-1.8,2.55,10.76,10.76,0,0,0-.67,3.74A8.88,8.88,0,0,0,399,87.31a4.28,4.28,0,0,0,3.68,1.62A5.36,5.36,0,0,0,406,88a5.54,5.54,0,0,0,1.9-2.46,9.23,9.23,0,0,0,.68-3.46c0-2.68-.52-4.67-1.55-5.93C406.47,75.48,405.41,74.55,402.85,74.55Z"/><path class="cls-4" d="M336.27,163c-.32,0-.76,0-3.93-.33-2.54-.26-3.09-.27-3.15-.27a40.55,40.55,0,0,0-4.11.21c-2.4.24-2.86.26-3.22.26a12.11,12.11,0,0,1-5.77-1.5,12.62,12.62,0,0,1-4.48-4,10.77,10.77,0,0,1-1.89-6.11,10.25,10.25,0,0,1,1-4.81c.22-.43.51-.93.88-1.51l-4.18-3.26,7.39-3.58c.31-.15.62-.28.93-.4-.33-.28-.67-.57-1-.87a9.77,9.77,0,0,1-3.49-7.28c0-3.94,2.46-7,6.58-8.28a27,27,0,0,1,7.87-1.11h9.42a30.83,30.83,0,0,1,7.63.71c3.91,1,6.36,3.87,6.36,7.55a8.1,8.1,0,0,1-3.76,6.85,19.08,19.08,0,0,1,1.71,1.65,15,15,0,0,1,4,10.39,17.51,17.51,0,0,1-1.67,7.66,14,14,0,0,1-5.26,5.91A14.56,14.56,0,0,1,336.27,163Z"/><path class="cls-19" d="M451.65,105.32a13.77,13.77,0,0,1-1.8-.18c-.66-.1-1-.13-1.07-.14s-.45,0-1.22.14a15.61,15.61,0,0,1-1.86.18,10.94,10.94,0,0,1-5-1.39,5.08,5.08,0,0,1-1.73-1.46,5.22,5.22,0,0,1-1.53,1.37l-.09.06-.11,0a11.4,11.4,0,0,1-5.12,1.37,14.13,14.13,0,0,1-1.78-.18l-1.09-.14-1.14.14a14.67,14.67,0,0,1-1.87.18,11,11,0,0,1-5.1-1.39,4.16,4.16,0,0,1-2.49-3.73,4,4,0,0,1,1.48-3A9.17,9.17,0,0,1,421.86,96l.43-.24V75.38l-.43-.29a10.8,10.8,0,0,1-1.68-1.23,4.1,4.1,0,0,1-1.29-3,3.74,3.74,0,0,1,3-3.57,12.75,12.75,0,0,1,3.46-.36h7.87c2.52,0,4,.64,4.83,1.44a12.33,12.33,0,0,1,6.4-1.83,11.88,11.88,0,0,1,5.7,1.36,9.73,9.73,0,0,1,4,4.08,12.17,12.17,0,0,1,1.32,5.76v18l.12.07c.4.22.79.45,1.15.69a7.77,7.77,0,0,1,1.33,1.13,3.86,3.86,0,0,1,1.09,2.62,4.31,4.31,0,0,1-2.24,3.57l-.12.08-.13.07A10.7,10.7,0,0,1,451.65,105.32ZM436,95.72A9.23,9.23,0,0,1,438.92,98a4.92,4.92,0,0,1,.7-.78A9.8,9.8,0,0,1,441.29,96l.5-.28V80.24a3,3,0,0,0-.23-1.42,1.55,1.55,0,0,0-.52-.06,6.2,6.2,0,0,0-2.46.73l-1.6.73c-.17.08-.45.2-1,.39Z"/><path class="cls-3" d="M230.46,90.24q3.67,1.94,3.68,5.2a5.71,5.71,0,0,1-2.15,4.87,9.6,9.6,0,0,1-5.87,1.61c-.29,0-2.19-.07-5.69-.21s-6-.19-7.59-.19c-1.8,0-3.8,0-6,.16l-3.19.18a16.51,16.51,0,0,1-4.21-.77c-1.78-.51-2.67-1.17-2.67-2,0-.42.38-.85,1.14-1.27l3.47-2.27a2.88,2.88,0,0,0,1.38-1.82,16.19,16.19,0,0,0,.29-3.59v-23a7.64,7.64,0,0,0-.48-3.14,3.81,3.81,0,0,0-1.92-1.66c-2.54-1.42-3.81-2.44-3.81-3.08.05-.91.93-1.52,2.64-1.85a25.59,25.59,0,0,1,4.71-.48h21.22q6.75,0,6.75,2.26c0,1.09-.95,2.34-2.83,3.76a43,43,0,0,1-5.45,3.53l-7,3.86c-2.06,1.16-3.08,2-3.08,2.41s.22.46.67.46a1.88,1.88,0,0,0,.53-.07,19.36,19.36,0,0,1,6-1.53,7.48,7.48,0,0,1,4.07,1.17A3.57,3.57,0,0,1,226.92,76a3.34,3.34,0,0,1-2.59,3.47V79c0-.68-.38-1-1.14-1a8.66,8.66,0,0,0-2.61.4l-3.19.87a11.65,11.65,0,0,1-2.95.47A5.83,5.83,0,0,1,211,78.54a3.45,3.45,0,0,1-1.63-2.92q0-2.39,2.86-4.62l7.68-6.08,1.17-.84a4.55,4.55,0,0,0,.93-.93,2.06,2.06,0,0,0,.38-1.23,1.3,1.3,0,0,0-1.2-1.34,23,23,0,0,0-4.15-.25h-2.2c-1.66,0-2.68.26-3.06.8s-.74,2-.74,4.2v5.54q-2.53,2.28-2.54,4.4,0,2.34,2.54,4.29v5.26q0,5,.74,6.15,1.78,2.53,9.08,2.54h2.67a12.76,12.76,0,0,0,5.13-.81A3.35,3.35,0,0,0,230.46,90.24Z"/><path class="cls-4" d="M359.64,174.56a14.58,14.58,0,0,1-2.09-.23l-.8-.11-.93.12a17.31,17.31,0,0,1-2.19.22,12.41,12.41,0,0,1-6.15-1.75,6.31,6.31,0,0,1-3.63-5.63c0-2.91,2.11-4.71,3.67-5.7V132.22a8.75,8.75,0,0,1-1.39-1,6.25,6.25,0,0,1-2.15-4.77,6,6,0,0,1,4.31-5.73,12.83,12.83,0,0,1,4.28-.59h7.48a10.41,10.41,0,0,1,4.91,1,14.18,14.18,0,0,1,4.28-1.08l.24,0h.23a15.86,15.86,0,0,1,5.87,1.08,16.07,16.07,0,0,1,4.77,2.89,17,17,0,0,1,3.42,4.09c2.22,3.6,3.35,8.38,3.35,14.22a23,23,0,0,1-3.85,13.47A19.25,19.25,0,0,1,377,161.6a16.65,16.65,0,0,1-8.48,2.35h0a5.88,5.88,0,0,1,1,3.23,6.35,6.35,0,0,1-3.61,5.62A12.39,12.39,0,0,1,359.64,174.56Zm6-34a8.6,8.6,0,0,1,2.93,1.75,7.11,7.11,0,0,1,1.41,1.78,10.75,10.75,0,0,0,.93-4.65,5.94,5.94,0,0,0-1.07-3.71,1.61,1.61,0,0,0-1.57-.73,3.49,3.49,0,0,0-.56,0c-.25.12-.86.44-2.07,1.18Z"/><path class="cls-19" d="M223.23,160.81c-5.94,0-10.42-2.05-13.33-6.09l0-.05A22.58,22.58,0,0,1,206,141.54a25.69,25.69,0,0,1,1.47-8,19.85,19.85,0,0,1,5.07-8.06,13.43,13.43,0,0,1,9.67-3.73,18.08,18.08,0,0,1,6.69,1.12v-3.18l-2.18-1.26a4.45,4.45,0,0,1-2.37-4c0-.67.24-2.91,3.33-3.69a16.7,16.7,0,0,1,4.08-.38h6.66a4.63,4.63,0,0,1,2.67.71,3.75,3.75,0,0,1,1.53,3.29v36.21c2.46,1.37,4,2.65,4.25,4.47l0,.19v.19c0,2.09-1.86,3.28-2.56,3.72l-.17.11-.18.08a14.31,14.31,0,0,1-5.95,1.41c-.17,0-.43,0-3.33-.21-2.22-.17-3.19-.2-3.61-.2s-1.62,0-4.16.26C223.63,160.81,223.41,160.81,223.23,160.81ZM226,146c.45,0,1,0,1.62.07s.89.06.93.06h.25a8.49,8.49,0,0,0,.1-1.4V133c-.68-.33-1.43-.71-2.24-1.17l-.05,0a5.57,5.57,0,0,0-2.77-.69,3.68,3.68,0,0,0-3.24,2.15,12.8,12.8,0,0,0-1.48,6.16,9.63,9.63,0,0,0,1.33,5.18,2.58,2.58,0,0,0,2.43,1.5c.57,0,1.09,0,1.55-.06C225.1,146,225.61,146,226,146Z"/><path class="cls-3" d="M247.21,96.58a4.69,4.69,0,0,1,.87.53c1.79.94,2.73,1.67,2.82,2.2s-.32.82-1,1.15a7.24,7.24,0,0,1-3.73,1.12c-.12,0-.6,0-1.43-.16s-1.34-.17-1.5-.17-.67.06-1.49.17-1.3.16-1.46.16a7.39,7.39,0,0,1-3.74-1.12c-.62-.33-.93-.71-.93-1.15s.61-.93,1.84-1.67,1.83-1.11,1.83-1.13V61.86a1.47,1.47,0,0,0-.4-1,8.06,8.06,0,0,0-1.16-1,9.42,9.42,0,0,1-1.07-.88,1.13,1.13,0,0,1-.3-.79c0-.81,1-1.21,3.06-1.21h6.62a1,1,0,0,1,.81.43,1.6,1.6,0,0,1,.31,1Z"/><path class="cls-4" d="M395.5,163a15.74,15.74,0,0,1-2.11-.21l-.83-.1-.89.11a17.54,17.54,0,0,1-2.12.2,12.5,12.5,0,0,1-6.23-1.77,6.2,6.2,0,0,1-3.55-5.48c0-3,2.14-4.84,3.67-5.82V131.87a6.92,6.92,0,0,1-2.87-5.43c0-1,.4-6.32,8.18-6.32h7.74a10.6,10.6,0,0,1,4.85,1,9.82,9.82,0,0,1,4.23-1,10.06,10.06,0,0,1,5.75,1.8,11.25,11.25,0,0,1,3.8,4.51,13.3,13.3,0,0,1,1.26,5.75,14.05,14.05,0,0,1-2.33,7.62,11.8,11.8,0,0,1-5,4.41l-.1,1.19-3.54.89a8.1,8.1,0,0,1-1.91.21,6.47,6.47,0,0,1-2-.3v3.72c1.62,1,3.75,2.84,3.75,5.76,0,1.53-.58,3.7-3.36,5.43l-.07,0A12.34,12.34,0,0,1,395.5,163Z"/><path class="cls-19" d="M268.45,160.81c-.25,0-.69,0-2.78-.21-1.89-.17-2.31-.18-2.38-.18s-.48,0-2.41.15c-2.09.15-2.7.17-3,.17A12.45,12.45,0,0,1,250,158a16.74,16.74,0,0,1-5-6.5,19.43,19.43,0,0,1-1.67-7.78,33.31,33.31,0,0,1,.6-6.34,24.75,24.75,0,0,1,2.07-6.11,17.12,17.12,0,0,1,3.9-5.21c2.83-2.5,6.65-3.77,11.36-3.77h6.94a20.61,20.61,0,0,1,4,.42,10.59,10.59,0,0,1,4.22,1.82,5.93,5.93,0,0,1,2.49,4.89,10.73,10.73,0,0,1-3.61,7.69l0,0a14.56,14.56,0,0,1-2.82,2.12c-.84.48-2.09,1.13-3.83,2l-2.24,1.08a16.82,16.82,0,0,0-5.32,3.75,13.29,13.29,0,0,0,7.91-.35,1.73,1.73,0,0,0,1.28-1.4l.69-3.35,3.2,1.2c3.47,1.3,5.42,3.9,5.5,7.32v.08a11,11,0,0,1-1.57,5.73,11.23,11.23,0,0,1-4.09,4A11,11,0,0,1,268.45,160.81Zm-6.36-29.57c-1.57,0-3.63.23-4.49,1.34l-.06.07a9.37,9.37,0,0,0-1.86,5.77,21.5,21.5,0,0,1,4-2.89l3.36-1.89a18,18,0,0,0,2.35-1.52,1.56,1.56,0,0,0,0-.27v0l-.05,0A8.33,8.33,0,0,0,262.09,131.24Z"/><path class="cls-3" d="M290.6,85a2.92,2.92,0,0,1-.67.07,1.41,1.41,0,0,1-1.1-.61,1.94,1.94,0,0,1-.49-1.25,3,3,0,0,1,.14-1c.1-.22.29-.59.58-1.1a6.9,6.9,0,0,0,.62-1.33,4.66,4.66,0,0,0,.19-1.46,2.15,2.15,0,0,0-.63-1.54,2.08,2.08,0,0,0-1.57-.66,3.71,3.71,0,0,0-1.4.26l-.93.39a17.15,17.15,0,0,1-2.48.54v19.3a9.4,9.4,0,0,1,.95.53c1.86,1,2.8,1.76,2.8,2.27,0,.33-.32.68-.95,1.08a7.24,7.24,0,0,1-3.73,1.12c-.14,0-.62,0-1.43-.16s-1.32-.17-1.5-.17-.7.06-1.55.17-1.34.16-1.47.16a7.38,7.38,0,0,1-3.73-1.12c-.62-.33-.93-.67-.93-1,0-.65.93-1.42,2.8-2.34a4.86,4.86,0,0,1,.87-.53V73.87a2.06,2.06,0,0,0-.13-1,18.44,18.44,0,0,1-1.71-1.25c-.69-.55-1-1-1-1.49,0-.81,1-1.21,3.06-1.21h7.75c2,0,3,.4,3,1.21a1.25,1.25,0,0,1-.4.92,5.53,5.53,0,0,1-1.16.85,7.18,7.18,0,0,0-1.17.83,1.13,1.13,0,0,0-.41.87v.8a11.62,11.62,0,0,0,4.27-2.74c1.73-1.82,3.38-2.74,4.93-2.74a4.91,4.91,0,0,1,2.86.91,6.17,6.17,0,0,1,2.08,2.49,8.21,8.21,0,0,1,.75,3.55,8.84,8.84,0,0,1-1.52,4.85,6.78,6.78,0,0,1-4.3,3C291.08,84,290.66,84.4,290.6,85Z"/><path class="cls-4" d="M423.21,163a15.6,15.6,0,0,1-2.11-.21l-.83-.1-.76.1a15.73,15.73,0,0,1-2.12.21,13,13,0,0,1-6.27-1.76l-.11-.06-.11-.07a6.38,6.38,0,0,1-3.37-5.49V155l.14-.58a7.57,7.57,0,0,1,3.61-4.5V131.85a6.63,6.63,0,0,1-2.87-5.41,5.85,5.85,0,0,1,2.93-5.11,8.2,8.2,0,0,1-.73-3.36c0-3.59,2.55-7.79,9.71-7.79s9.8,4.2,9.8,7.79a8.23,8.23,0,0,1-.74,3.39,5.84,5.84,0,0,1,2.87,5.08,6.67,6.67,0,0,1-2.87,5.43v18.06a7.63,7.63,0,0,1,3.59,4.43l.16.62v.64a6.31,6.31,0,0,1-3.65,5.62A12.46,12.46,0,0,1,423.21,163Z"/><path class="cls-19" d="M289.88,160.81a16.58,16.58,0,0,1-1.81-.19c-.69-.09-1-.12-1.13-.13s-.43,0-1.09.13a15.83,15.83,0,0,1-1.85.19,10.19,10.19,0,0,1-5.16-1.5,4.13,4.13,0,0,1-2.43-3.69c0-2.23,2.12-3.5,3.25-4.18l.42-.25V118.76c-.1-.09-.23-.19-.39-.31a10.33,10.33,0,0,1-1.44-1.22,4,4,0,0,1-1.11-2.8c0-1.24.59-4.13,6-4.13h6.62a3.9,3.9,0,0,1,3.16,1.62,4.56,4.56,0,0,1,.89,2.71v36.58c2,1.12,3.37,2.27,3.64,3.94l0,.23v.24a4.1,4.1,0,0,1-2.44,3.69A10.08,10.08,0,0,1,289.88,160.81Z"/><path class="cls-3" d="M310.7,96.58a10.44,10.44,0,0,1,.93.53c1.74.92,2.68,1.65,2.82,2.2s-.34.8-1,1.15a7.48,7.48,0,0,1-3.8,1.12c-.14,0-.62,0-1.43-.16s-1.32-.17-1.52-.17-.67.06-1.45.17-1.26.16-1.42.16a7.94,7.94,0,0,1-3.8-1.12c-.63-.4-.94-.78-.94-1.15.13-.54,1.06-1.27,2.8-2.2a7.5,7.5,0,0,1,.95-.53V73.87a1.47,1.47,0,0,0-.41-1.19l-1.6-1.2a1.6,1.6,0,0,1-.86-1.34c0-.81,1-1.21,3.06-1.21h7.48c2.05,0,3.07.4,3.07,1.21a1.67,1.67,0,0,1-.93,1.4l-1.74,1.34a1.74,1.74,0,0,0-.2,1ZM306.76,59q4.67,0,4.67,2.67,0,3-4.67,3t-4.6-3Q302.16,59,306.76,59Z"/><path class="cls-4" d="M460.13,163a15.24,15.24,0,0,1-2.1-.21l-.79-.1-.93.11a18.14,18.14,0,0,1-2.13.2,13.08,13.08,0,0,1-6.06-1.65,7.92,7.92,0,0,1-.69-.42c-.13.09-.26.18-.4.26l-.17.11-.18.09a13.54,13.54,0,0,1-6.11,1.61,15.35,15.35,0,0,1-2.08-.21l-.8-.1-.85.1a16,16,0,0,1-2.16.21,13.21,13.21,0,0,1-6.12-1.65,6.31,6.31,0,0,1-3.65-5.67,6.17,6.17,0,0,1,2.21-4.66,10.63,10.63,0,0,1,1.46-1.08V132.05a11,11,0,0,1-1.42-1.1,6.29,6.29,0,0,1-2-4.64,5.93,5.93,0,0,1,4.59-5.67,14.73,14.73,0,0,1,4.06-.45h7.87a10.42,10.42,0,0,1,5,1.07,14.2,14.2,0,0,1,6.24-1.46,14,14,0,0,1,6.75,1.63,11.87,11.87,0,0,1,4.92,5,14.31,14.31,0,0,1,1.58,6.78v16.73l.28.18a9.76,9.76,0,0,1,1.75,1.49,6,6,0,0,1,1.66,4.09,6.38,6.38,0,0,1-3.21,5.39l-.21.14-.22.12A12.84,12.84,0,0,1,460.13,163Zm-13.45-13c.23.15.47.31.7.48.22-.16.45-.32.69-.47V136.91l-1.39.64Z"/><path class="cls-19" d="M336.27,160.81c-.23,0-.65,0-3.7-.32-2.49-.26-3.19-.29-3.38-.29a42.36,42.36,0,0,0-4.34.23c-2.28.23-2.73.25-3,.25a9.89,9.89,0,0,1-4.73-1.24,10.41,10.41,0,0,1-3.7-3.33,8.61,8.61,0,0,1-1.52-4.89,8.13,8.13,0,0,1,.76-3.79,26.43,26.43,0,0,1,1.62-2.62l.25-.4-3-2.33,4.22-2.05a7.76,7.76,0,0,1,3.41-.81,8.27,8.27,0,0,1,5.34,1.88,7,7,0,0,1,2.65,5.33,7.06,7.06,0,0,0,2.42.32c3.13,0,4-.61,4.15-.73v-.08c0-.18,0-.66-.92-1.43a14.73,14.73,0,0,0-3.69-2.22l-3.61-1.63c-2-.93-3.73-1.74-5-2.41a21,21,0,0,1-4.3-3.07,7.61,7.61,0,0,1-2.77-5.67c0-3,1.83-5.22,5-6.18a25.13,25.13,0,0,1,7.24-1h9.42a29.5,29.5,0,0,1,7.07.63c3,.74,4.72,2.77,4.72,5.44a5.7,5.7,0,0,1-2,4.45,6.44,6.44,0,0,1-4.25,1.54h-.49a18.87,18.87,0,0,1,5.26,4,12.84,12.84,0,0,1,3.41,8.91,15.42,15.42,0,0,1-1.45,6.71,12,12,0,0,1-4.45,5A12.5,12.5,0,0,1,336.27,160.81ZM332.1,131c.72.33,1.44.62,2.16.88l2,.78a5.17,5.17,0,0,1-1.06-1.62,4.33,4.33,0,0,0-.57,0Z"/><path class="cls-3" d="M328,77.69V96.58a7,7,0,0,0,.87.53c1.88,1,2.82,1.74,2.82,2.27s-.3.78-.88,1.14a8.47,8.47,0,0,1-3.8,1.06c-.12,0-.59,0-1.4-.16s-1.31-.17-1.47-.17-.68.06-1.51.17-1.34.16-1.5.16a8,8,0,0,1-3.74-1.06q-.93-.49-.93-1.14a1.16,1.16,0,0,1,.48-.83,7.82,7.82,0,0,1,1.24-.84l1.09-.6a5.26,5.26,0,0,0,.86-.53V74.08a1.76,1.76,0,0,0-.46-1.24,7.1,7.1,0,0,0-1.34-1,8.71,8.71,0,0,1-1.24-.89,1.16,1.16,0,0,1-.37-.89c0-.68,1.18-1,3.54-1h7.87c2,0,3,.4,3,1.2q0,.72-1.08,1.5a16.72,16.72,0,0,1-1.79,1.18,1.58,1.58,0,0,0-.28,1v.73a10.45,10.45,0,0,0,3.75-2.46c2.44-2.35,5-3.53,7.61-3.53a8.83,8.83,0,0,1,4.31,1,6.83,6.83,0,0,1,2.84,2.87,9.28,9.28,0,0,1,1,4.4V96.58a4.93,4.93,0,0,1,.43.26,3.14,3.14,0,0,0,.51.27l.68.38c.33.18.65.38.95.58a4,4,0,0,1,.79.66,1,1,0,0,1,.32.65c0,.34-.31.72-.94,1.14a7.8,7.8,0,0,1-3.67,1.06c-.14,0-.61,0-1.4-.16s-1.28-.17-1.47-.17-.71.06-1.58.17-1.37.16-1.5.16a7.93,7.93,0,0,1-3.67-1.06Q336,100,336,99.38a1.14,1.14,0,0,1,.47-.82,7.39,7.39,0,0,1,1.17-.83l1.1-.62a4.26,4.26,0,0,0,.87-.53V79.41c0-2.93-1.23-4.4-3.67-4.4a9.14,9.14,0,0,0-3.69,1l-1.59.73C330.28,76.92,329.38,77.24,328,77.69Z"/><path class="cls-4" d="M476.69,174.28a19.53,19.53,0,0,1-8.28-1.68,9.16,9.16,0,0,1-5.59-8.57,7.2,7.2,0,0,1,.12-1.29l-5.79-4.39,8.73-2.69a20.41,20.41,0,0,1-1.52-3.31,27.36,27.36,0,0,1-1.54-9.22A28.87,28.87,0,0,1,465,131.61a18,18,0,0,1,7.62-8.56,24,24,0,0,1,12.16-2.86h13.41c4.4,0,6.42,2.56,6.85,5l.08.44V126a7.62,7.62,0,0,1-2.61,5.64v15.53a15,15,0,0,0,.53,4.12l0,.12.35,1.37a24.69,24.69,0,0,1,.9,6.08,14.39,14.39,0,0,1-1.26,5.71,16.12,16.12,0,0,1-3.39,5c-3,3-7.36,4.49-13,4.49l-2.2,0c-1,0-1.74,0-2.13,0-1.39,0-2.6,0-3.6.06C477,174.28,476.82,174.28,476.69,174.28Zm6.73-40.59a1.48,1.48,0,0,0-1.14.36,4.62,4.62,0,0,0-1.28,2,11.09,11.09,0,0,0-.6,3.56,12.38,12.38,0,0,0,.94,4.78l0,0,.84,0,1.76-.07c.13,0,.31,0,.81,0,0-.21,0-.43,0-.65v-9.08a1.71,1.71,0,0,0-.09-.7A2.24,2.24,0,0,0,483.42,133.69Z"/><path class="cls-19" d="M359.64,172.36a11.94,11.94,0,0,1-1.77-.2c-.74-.11-1-.13-1.11-.14s-.38,0-1.23.15a14.28,14.28,0,0,1-1.9.19,10.22,10.22,0,0,1-5.11-1.48,4.1,4.1,0,0,1-2.48-3.7c0-2.11,1.78-3.41,3.67-4.44V130.91l-.21-.11a8.63,8.63,0,0,1-1.92-1.23,4.11,4.11,0,0,1-1.41-3.13,3.85,3.85,0,0,1,2.83-3.66,10.82,10.82,0,0,1,3.57-.47h7.48c2.43,0,3.87.6,4.72,1.37a12.13,12.13,0,0,1,4.68-1.42h.26a13.72,13.72,0,0,1,5.07.93,14,14,0,0,1,4.13,2.5,14.65,14.65,0,0,1,3,3.58c2,3.25,3,7.65,3,13.08a20.75,20.75,0,0,1-3.46,12.21,17,17,0,0,1-5.57,5.15,14.54,14.54,0,0,1-7.38,2.05,11.93,11.93,0,0,1-5-1.05v2c.62.34,1.14.65,1.58.94a4.13,4.13,0,0,1,2.1,3.51,4.09,4.09,0,0,1-2.47,3.69A10.2,10.2,0,0,1,359.64,172.36Zm3.79-30a6.43,6.43,0,0,1,3.65,1.64,6.1,6.1,0,0,1,1.7,3.1l0,.07a3,3,0,0,0,2.92-1.64,12.72,12.72,0,0,0,1.36-6,8.21,8.21,0,0,0-1.49-5,3.81,3.81,0,0,0-3.34-1.61,3.48,3.48,0,0,0-1.39.2,28.2,28.2,0,0,0-2.75,1.56l-.68.42Z"/><path class="cls-3" d="M381.28,88.56a2.35,2.35,0,0,0,.67,1.27,6.36,6.36,0,0,1,1.66,4.27,7.15,7.15,0,0,1-1,3.8,7.36,7.36,0,0,1-2.79,2.69,7.66,7.66,0,0,1-3.79,1c-.33,0-1.19-.06-2.58-.2s-2.2-.19-2.43-.19c-.54,0-1.36,0-2.46.13s-1.74.13-1.94.13A10.22,10.22,0,0,1,361.2,100a12,12,0,0,1-3.92-3.79A17.61,17.61,0,0,1,355,91a22.06,22.06,0,0,1-.78-5.76,20.62,20.62,0,0,1,1.86-9,13.69,13.69,0,0,1,5.49-6,17.05,17.05,0,0,1,8.8-2.14,21.54,21.54,0,0,1,5,.61,10.7,10.7,0,0,1,4.41,2.14,5,5,0,0,1,1.84,4.06A5.16,5.16,0,0,1,380,78.66a5.28,5.28,0,0,1-3.83,1.63,5.72,5.72,0,0,1-2.6-.45,7.06,7.06,0,0,1-1.62-1.2,2.1,2.1,0,0,0-1.33-.76c-.35,0-.62.27-.79.8a2.22,2.22,0,0,1-1-1.66,2.12,2.12,0,0,1,.8-1.64,2.52,2.52,0,0,1,1.66-.69,8.23,8.23,0,0,1,1.47.16,9.86,9.86,0,0,0,1,.16c.53,0,.8-.29.8-.86a1.9,1.9,0,0,0-.88-1.61,5.84,5.84,0,0,0-2.12-.91,9.67,9.67,0,0,0-2.07-.29,9.52,9.52,0,0,0-6.3,2.51q-2.93,2.49-2.93,7.91,0,10.88,11.23,10.87h1.73q6,0,7-2.39l.6-1.21Z"/><path class="cls-19" d="M395.5,160.81a15.69,15.69,0,0,1-1.82-.19l-1.12-.13-1.17.13a16.67,16.67,0,0,1-1.84.19,10.15,10.15,0,0,1-5.15-1.5,4,4,0,0,1-2.43-3.56c0-2.17,1.74-3.53,3.66-4.56V130.8l-.74-.58a4.86,4.86,0,0,1-2.12-3.78c0-1.24.58-4.13,6-4.13h7.75c2.43,0,3.88.6,4.74,1.37a8,8,0,0,1,4.33-1.37,7.85,7.85,0,0,1,4.51,1.42,9.14,9.14,0,0,1,3.06,3.65,11.07,11.07,0,0,1,1.05,4.8,11.78,11.78,0,0,1-2,6.43,9.53,9.53,0,0,1-5.21,4.06l-.09,1-2,.51a5.78,5.78,0,0,1-1.38.15,4.33,4.33,0,0,1-3.37-1.68,5.17,5.17,0,0,1-.78-1.28v9.82c1.91,1.07,3.75,2.41,3.75,4.51a4.16,4.16,0,0,1-2.33,3.56l0,0A10.18,10.18,0,0,1,395.5,160.81Zm3.85-23.44,0,0a14.84,14.84,0,0,1,.72-1.4c.06-.11.12-.2.16-.29l-.27.11-.06,0-.57.18Z"/><path class="cls-3" d="M417.59,84.69a22.66,22.66,0,0,1-.74,5.64,21.17,21.17,0,0,1-2.23,5.5,12.92,12.92,0,0,1-3.78,4.15,8.79,8.79,0,0,1-5.19,1.6c-.2,0-.79,0-1.77-.16s-1.57-.17-1.77-.17-.68,0-1.52.1-1.33.1-1.48.1a9.27,9.27,0,0,1-4.83-1.42,14,14,0,0,1-4-3.58,17.72,17.72,0,0,1-2.7-5.55,22,22,0,0,1-1-6.21,22.93,22.93,0,0,1,1.62-8.94,12.64,12.64,0,0,1,5-6,15.84,15.84,0,0,1,8.59-2.14q7.54,0,11.67,4.41a13.36,13.36,0,0,1,3.1,5.63A25.27,25.27,0,0,1,417.59,84.69Zm-7-3.4q0-5.08-2.21-7.79a7.9,7.9,0,0,0-6.46-2.69,7.26,7.26,0,0,0-4.74,1.51,8.66,8.66,0,0,0-2.7,3.81,13.7,13.7,0,0,0-.84,4.75,11.58,11.58,0,0,0,2.17,7.42,7.2,7.2,0,0,0,6,2.73,8.15,8.15,0,0,0,5.06-1.49,8.35,8.35,0,0,0,2.87-3.72A12.21,12.21,0,0,0,410.58,81.29Zm.67-21.24-10.2,6a3.94,3.94,0,0,1-1.62.67,1.3,1.3,0,0,1-.92-.4,1.19,1.19,0,0,1-.41-.87c0-.76.49-1.41,1.48-1.94l5.54-2.93c.24-.12.84-.49,1.79-1.1s1.71-1.11,2.27-1.49a5.36,5.36,0,0,1,1.88-.82,1.11,1.11,0,0,1,.87.38,1.44,1.44,0,0,1,.33,1,1.51,1.51,0,0,1-.32.87A2,2,0,0,1,411.25,60.05Z"/><path class="cls-19" d="M423.21,160.81a15.69,15.69,0,0,1-1.82-.19l-1.12-.13c-.12,0-.41,0-1.06.13a14.12,14.12,0,0,1-1.82.19,10.8,10.8,0,0,1-5.21-1.49l-.06,0-.07,0a4.21,4.21,0,0,1-2.32-3.62v-.35l.08-.33c.38-1.58,1.72-2.68,3.66-3.77V130.75l-.76-.58a4.39,4.39,0,0,1-2.1-3.73c0-1.1.45-3.49,4.32-4a5.56,5.56,0,0,1-2.12-4.45c0-1.31.54-5.6,7.51-5.6s7.61,4.29,7.61,5.6a5.56,5.56,0,0,1-2.16,4.46c3.84.54,4.29,2.92,4.29,4a4.46,4.46,0,0,1-2.16,3.79l-.71.54v20.41c2.24,1.25,3.31,2.35,3.66,3.72l.09.35v.37a4.14,4.14,0,0,1-2.52,3.7A10.34,10.34,0,0,1,423.21,160.81Z"/><path class="cls-3" d="M432.15,77.69V96.58a7,7,0,0,0,.86.53c1.88,1,2.82,1.74,2.82,2.27s-.29.78-.88,1.14a8.47,8.47,0,0,1-3.8,1.06c-.12,0-.58,0-1.4-.16s-1.3-.17-1.46-.17-.68.06-1.52.17-1.34.16-1.5.16a8,8,0,0,1-3.73-1.06q-.93-.49-.93-1.14a1.16,1.16,0,0,1,.48-.83,7,7,0,0,1,1.24-.84l1.08-.6a5.33,5.33,0,0,0,.87-.53V74.08a1.77,1.77,0,0,0-.47-1.24,6.79,6.79,0,0,0-1.34-1,8,8,0,0,1-1.23-.89,1.13,1.13,0,0,1-.37-.89c0-.68,1.18-1,3.54-1h7.87c2,0,3,.4,3,1.2,0,.48-.35,1-1.07,1.5a19,19,0,0,1-1.79,1.18,1.52,1.52,0,0,0-.28,1v.73a10.45,10.45,0,0,0,3.75-2.46q3.64-3.52,7.61-3.53a8.79,8.79,0,0,1,4.3,1,6.86,6.86,0,0,1,2.85,2.87,9.39,9.39,0,0,1,1,4.4V96.58a3.78,3.78,0,0,1,.43.26,2.86,2.86,0,0,0,.52.27l.67.38c.34.18.65.38,1,.58a4.25,4.25,0,0,1,.78.66,1,1,0,0,1,.33.65c0,.34-.32.72-.95,1.14a7.77,7.77,0,0,1-3.67,1.06c-.14,0-.61,0-1.4-.16s-1.28-.17-1.47-.17-.71.06-1.58.17-1.37.16-1.5.16a7.9,7.9,0,0,1-3.66-1.06q-.93-.51-.93-1.14a1.13,1.13,0,0,1,.46-.82,7.07,7.07,0,0,1,1.18-.83l1.1-.62a4.55,4.55,0,0,0,.86-.53V79.41q0-4.39-3.67-4.4a9.06,9.06,0,0,0-3.68,1l-1.6.73C434.43,76.92,433.54,77.24,432.15,77.69Z"/><path class="cls-19" d="M460.13,160.81a15.18,15.18,0,0,1-1.8-.19c-.66-.09-1-.12-1.08-.13l-1.21.13a17.74,17.74,0,0,1-1.86.19,10.78,10.78,0,0,1-5-1.4,5.33,5.33,0,0,1-1.74-1.45,5.15,5.15,0,0,1-1.52,1.36l-.1.06-.1.05a11.45,11.45,0,0,1-5.12,1.38,15.8,15.8,0,0,1-1.79-.19c-.66-.09-1-.12-1.09-.13s-.44,0-1.13.13a16.19,16.19,0,0,1-1.88.19,10.91,10.91,0,0,1-5.09-1.4,4.13,4.13,0,0,1-2.49-3.73,4,4,0,0,1,1.47-3,10.11,10.11,0,0,1,1.77-1.21l.43-.23V130.87l-.43-.3a11,11,0,0,1-1.68-1.22,4.09,4.09,0,0,1-1.3-3,3.74,3.74,0,0,1,3-3.56,12.79,12.79,0,0,1,3.46-.37h7.87c2.53,0,4,.64,4.83,1.45a12.37,12.37,0,0,1,6.4-1.84,11.83,11.83,0,0,1,5.7,1.36,9.81,9.81,0,0,1,4,4.08,12.32,12.32,0,0,1,1.32,5.76v18l.12.07c.4.22.78.46,1.14.69a7.48,7.48,0,0,1,1.34,1.13,3.87,3.87,0,0,1,1.08,2.62,4.32,4.32,0,0,1-2.23,3.57l-.12.08-.13.07A10.78,10.78,0,0,1,460.13,160.81Zm-15.64-9.6a9,9,0,0,1,2.9,2.25,5,5,0,0,1,.71-.78,10,10,0,0,1,1.67-1.18l.49-.28v-15.5a2.91,2.91,0,0,0-.23-1.42,1.88,1.88,0,0,0-.51-.06,6.23,6.23,0,0,0-2.47.73l-1.59.73c-.18.08-.45.2-1,.39Z"/><path class="cls-3" d="M238.79,151.46l.93.47c2.15,1.15,3.26,2,3.34,2.61,0,.32-.4.74-1.21,1.25a11.32,11.32,0,0,1-4.73,1.14c-.21,0-1.25-.06-3.12-.2s-3.13-.2-3.82-.2-2.27.09-4.41.26-3.29.27-3.48.27c-5,0-8.62-1.62-10.95-4.87A19.66,19.66,0,0,1,208,140.71a22.87,22.87,0,0,1,1.32-7.11,16.86,16.86,0,0,1,4.33-6.88,10.54,10.54,0,0,1,7.64-2.91,14.23,14.23,0,0,1,6.14,1.14l1.93.93c.12.07.63.27,1.54.61v-8.55a1.33,1.33,0,0,0-.22-.89,3.28,3.28,0,0,0-.92-.57L227.23,115a1.53,1.53,0,0,1-.86-1.47c0-.76,1.49-1.14,4.48-1.14h6.67a1.94,1.94,0,0,1,1,.19c.18.13.27.42.27.89Zm-7.88-21.23a29.53,29.53,0,0,1-3.74-1.81,8.59,8.59,0,0,0-4.34-1.07,6.59,6.59,0,0,0-5.72,3.7,15.76,15.76,0,0,0-1.83,7.53,12.61,12.61,0,0,0,1.77,6.71,5.49,5.49,0,0,0,4.92,2.89c.65,0,1.25,0,1.79-.07s1-.06,1.34-.06.83,0,1.38.06.94.07,1.16.07c1.43,0,2.34-.37,2.71-1.11a7.26,7.26,0,0,0,.56-3.23Z"/><path class="cls-19" d="M476.69,172.09a17.46,17.46,0,0,1-7.36-1.48A7,7,0,0,1,465,164a6.63,6.63,0,0,1,.43-2.15l-3.55-2.69,5.45-1.69a8.46,8.46,0,0,1,2.47-.19h0a16.29,16.29,0,0,1-3.4-5.7,25.27,25.27,0,0,1-1.41-8.48,26.73,26.73,0,0,1,2-10.65A15.86,15.86,0,0,1,473.7,125a21.81,21.81,0,0,1,11.06-2.57h13.41c3.73,0,4.52,2.2,4.69,3.14l0,.26V126a5.62,5.62,0,0,1-2.6,4.61v16.56a17.15,17.15,0,0,0,.61,4.73l0,.09.34,1.33a22.75,22.75,0,0,1,.82,5.54,12.23,12.23,0,0,1-1.07,4.84,14,14,0,0,1-2.93,4.3c-2.56,2.55-6.42,3.85-11.47,3.85l-2.25,0c-1,0-1.7,0-2.08,0-1.42,0-2.66,0-3.68.06Zm1.63-10.88a5.89,5.89,0,0,0,4.17,1.23,12.21,12.21,0,0,0,4.85-.85,1.18,1.18,0,0,0,.6-.43,5.09,5.09,0,0,1-.77.06,25,25,0,0,1-2.69-.16c-.87-.1-1.15-.12-1.21-.12s-.62,0-1.82.13-2,.15-2.63.15Zm5.1-29.71a3.67,3.67,0,0,0-2.6.91,6.94,6.94,0,0,0-1.9,3,13.45,13.45,0,0,0-.71,4.26,14.41,14.41,0,0,0,1.11,5.62c.59,1.4,1.16,1.4,1.57,1.4,0,0,.28,0,1.42-.06l1.65-.07,1.56.07,1,0a8.62,8.62,0,0,0,.46-2.93v-9.08a2.82,2.82,0,0,0-.81-2.31A4,4,0,0,0,483.42,131.5Z"/><path class="cls-3" d="M272.17,144.12c2.35.88,3.55,2.44,3.6,4.66a8,8,0,0,1-1.15,4.22,8.24,8.24,0,0,1-7.11,4.06c-.25,0-1.09-.06-2.51-.19s-2.31-.2-2.64-.2-1.13.06-2.63.17-2.43.16-2.79.16a9.56,9.56,0,0,1-6.08-2.1,13.69,13.69,0,0,1-4.09-5.38,16.43,16.43,0,0,1-1.43-6.6,29.78,29.78,0,0,1,.55-5.77,21.47,21.47,0,0,1,1.82-5.38,14.18,14.18,0,0,1,3.24-4.34q3.41-3,9.4-3h6.94a17.81,17.81,0,0,1,3.38.35,7.62,7.62,0,0,1,3.07,1.32,3,3,0,0,1,1.3,2.53,8,8,0,0,1-2.74,5.61,11.62,11.62,0,0,1-2.25,1.69c-.78.45-2,1.09-3.68,1.93l-2.21,1.06a19.29,19.29,0,0,0-6.27,4.48,6.92,6.92,0,0,0-1.47,3.67,16.89,16.89,0,0,0,6.95,1.59,15.77,15.77,0,0,0,5.71-1A4.63,4.63,0,0,0,272.17,144.12Zm-18.55,1a11.29,11.29,0,0,1,2.66-4.94,18.25,18.25,0,0,1,3.88-2.94l3.34-1.87a18.66,18.66,0,0,0,2.95-2,3,3,0,0,0,.91-2.37,2.78,2.78,0,0,0-1.82-2.75,11.08,11.08,0,0,0-4.39-.78q-4.87,0-6.8,2.46a12.58,12.58,0,0,0-2.54,8.28A14.59,14.59,0,0,0,253.62,145.12Z"/><path class="cls-3" d="M289.93,152.06a4.24,4.24,0,0,1,.87.54c1.79.93,2.73,1.67,2.82,2.2s-.32.81-.95,1.14a7.24,7.24,0,0,1-3.73,1.12c-.12,0-.6-.05-1.43-.16s-1.34-.16-1.5-.16-.67,0-1.49.16-1.3.16-1.46.16a7.41,7.41,0,0,1-3.74-1.12q-.93-.49-.93-1.14c0-.38.62-.94,1.84-1.67s1.83-1.11,1.83-1.14V117.34a1.47,1.47,0,0,0-.4-1,7.51,7.51,0,0,0-1.16-1,9.24,9.24,0,0,1-1.07-.89,1.11,1.11,0,0,1-.3-.79c0-.81,1-1.21,3.06-1.21h6.62a1,1,0,0,1,.81.43,1.62,1.62,0,0,1,.31,1Z"/><path class="cls-3" d="M316.11,141.84a4.85,4.85,0,0,1,2.14-.52,5.4,5.4,0,0,1,3.5,1.23,4.07,4.07,0,0,1,1.57,3.17,2.42,2.42,0,0,0,.73,2,7.61,7.61,0,0,0,4.61,1.13c4.72,0,7.08-1.25,7.08-3.73a4.73,4.73,0,0,0-2-3.68,17.51,17.51,0,0,0-4.43-2.66l-3.54-1.6c-2-.91-3.61-1.69-4.85-2.34a18,18,0,0,1-3.67-2.64,4.81,4.81,0,0,1-1.83-3.51c0-1.67,1-2.79,2.95-3.39a22.08,22.08,0,0,1,6.39-.88h9.42a26.81,26.81,0,0,1,6.34.53c1.69.42,2.53,1.29,2.53,2.61a2.78,2.78,0,0,1-1,2.23,3.47,3.47,0,0,1-2.34.84q-3,0-3-3c-.33,0-.81-.09-1.45-.19a10.81,10.81,0,0,0-1.55-.16h-4.14q-4.6,0-4.61,1.47c0,1,.81,1.92,2.43,2.83a32.8,32.8,0,0,0,4.92,2.26l3.13,1.2a17.11,17.11,0,0,1,6.9,4.47,9.92,9.92,0,0,1,2.65,6.94,12.51,12.51,0,0,1-1.16,5.44,9,9,0,0,1-3.37,3.8,9.57,9.57,0,0,1-5.15,1.37c-.33,0-1.46-.1-3.4-.3s-3.16-.3-3.68-.3a45,45,0,0,0-4.63.24c-1.55.15-2.45.23-2.7.23a6.88,6.88,0,0,1-3.34-.89,7.42,7.42,0,0,1-2.67-2.39,5.69,5.69,0,0,1-1-3.25,5.46,5.46,0,0,1,.43-2.45,25.61,25.61,0,0,1,1.44-2.33,4.81,4.81,0,0,0,1-2.31A1.75,1.75,0,0,0,316.11,141.84Z"/><path class="cls-3" d="M359.57,132.56v14.3a6.47,6.47,0,0,0-1.13,3.46,6.87,6.87,0,0,0,1.26,4.14v9.16a2,2,0,0,0,.38.26c.14.06.3.15.5.26.83.43,1.51.82,2,1.15s.77.69.77,1.06-.32.82-.95,1.13a7.29,7.29,0,0,1-3.73,1.14c-.12,0-.57-.06-1.35-.17a12.42,12.42,0,0,0-1.52-.17,14.25,14.25,0,0,0-1.63.17c-.85.11-1.35.17-1.51.17a7.4,7.4,0,0,1-3.73-1.14c-.62-.29-.93-.67-.93-1.13s.93-1.26,2.8-2.21l.45-.19c.27-.11.41-.23.41-.33V129.16a1.18,1.18,0,0,0-.47-1,7.8,7.8,0,0,0-1.35-.81,6.8,6.8,0,0,1-1.3-.81,1.23,1.23,0,0,1-.41-.94c0-.8,1.15-1.2,3.47-1.2h7.48q3,0,3,1.2a1.34,1.34,0,0,1-.44,1c-.29.27-.76.66-1.4,1.15s-1,.82-1,1v.6l5.26-3.53a9,9,0,0,1,4.21-1.47,10.68,10.68,0,0,1,4,.73,10.84,10.84,0,0,1,3.27,2,11.65,11.65,0,0,1,2.42,2.9q2.61,4.18,2.61,11.55a17.84,17.84,0,0,1-2.94,10.55,14,14,0,0,1-4.64,4.29,11.49,11.49,0,0,1-5.9,1.66,9.1,9.1,0,0,1-5.86-2.1,6.49,6.49,0,0,1-2.62-5.25,4.46,4.46,0,0,1,.32-1.9,12.6,12.6,0,0,1,1-1.57,2.83,2.83,0,0,0,.64-1.47,1.93,1.93,0,0,0-.45-1.14,5.39,5.39,0,0,1,1.12-.2,3.57,3.57,0,0,1,2.48.93A3.41,3.41,0,0,1,365,147a5.23,5.23,0,0,0,.71,1.74c.27.36.84.54,1.74.54,2.79,0,4.75-1.07,5.9-3.2a15.48,15.48,0,0,0,1.71-7.42A11,11,0,0,0,373,131.9a6.69,6.69,0,0,0-5.69-2.81,6.26,6.26,0,0,0-2.6.47,32.55,32.55,0,0,0-3.07,1.73Z"/><path class="cls-3" d="M403.23,140.5a2.45,2.45,0,0,1-.67.07,1.4,1.4,0,0,1-1.1-.6,2,2,0,0,1-.49-1.26,3,3,0,0,1,.14-1,11.76,11.76,0,0,1,.58-1.1,7,7,0,0,0,.62-1.34,4.66,4.66,0,0,0,.19-1.46,2.15,2.15,0,0,0-.63-1.54,2.08,2.08,0,0,0-1.57-.66,3.71,3.71,0,0,0-1.4.26l-.93.39a16.14,16.14,0,0,1-2.48.54v19.3a8.35,8.35,0,0,1,.95.54c1.86,1,2.8,1.75,2.8,2.26,0,.33-.32.69-.95,1.08a7.24,7.24,0,0,1-3.73,1.12c-.14,0-.62-.05-1.43-.16s-1.32-.16-1.5-.16-.7,0-1.55.16-1.34.16-1.47.16a7.38,7.38,0,0,1-3.73-1.12c-.62-.33-.93-.66-.93-1,0-.64.93-1.42,2.8-2.33a4.35,4.35,0,0,1,.87-.54V129.35a2.09,2.09,0,0,0-.13-1,16.74,16.74,0,0,1-1.71-1.25c-.69-.55-1-1-1-1.49q0-1.2,3.06-1.2h7.75c2,0,3,.4,3,1.2a1.24,1.24,0,0,1-.4.92,5.53,5.53,0,0,1-1.16.85,7.85,7.85,0,0,0-1.17.83,1.16,1.16,0,0,0-.41.87v.8a11.49,11.49,0,0,0,4.27-2.74c1.73-1.82,3.38-2.73,4.93-2.73a5,5,0,0,1,2.86.9,6.17,6.17,0,0,1,2.08,2.49,8.24,8.24,0,0,1,.75,3.55,9,9,0,0,1-1.52,4.86,6.81,6.81,0,0,1-4.3,3C403.71,139.47,403.29,139.88,403.23,140.5Z"/><path class="cls-3" d="M423.33,152.06a8.75,8.75,0,0,1,.93.54c1.74.91,2.68,1.64,2.82,2.2,0,.41-.34.79-1,1.14a7.48,7.48,0,0,1-3.8,1.12c-.14,0-.62-.05-1.43-.16s-1.32-.16-1.52-.16-.67,0-1.45.16-1.26.16-1.42.16a7.94,7.94,0,0,1-3.8-1.12c-.63-.39-.94-.77-.94-1.14.13-.55,1.06-1.28,2.8-2.2a8.57,8.57,0,0,1,.95-.54V129.35a1.47,1.47,0,0,0-.41-1.19l-1.6-1.2a1.6,1.6,0,0,1-.86-1.34q0-1.2,3.06-1.2h7.48c2.05,0,3.07.4,3.07,1.2a1.66,1.66,0,0,1-.93,1.4l-1.74,1.34a1.76,1.76,0,0,0-.2,1Zm-3.94-37.59q4.67,0,4.67,2.68c0,2-1.56,3-4.67,3s-4.6-1-4.6-3Q414.79,114.47,419.39,114.47Z"/><path class="cls-3" d="M440.62,133.17v18.89a8.91,8.91,0,0,0,.87.54c1.88,1,2.82,1.73,2.82,2.26s-.3.79-.88,1.14a8.47,8.47,0,0,1-3.8,1.06c-.12,0-.59-.05-1.4-.16s-1.31-.16-1.47-.16-.68,0-1.51.16-1.34.16-1.5.16A8,8,0,0,1,430,156q-.93-.48-.93-1.14a1.16,1.16,0,0,1,.48-.83,7.82,7.82,0,0,1,1.24-.84l1.09-.59a4.71,4.71,0,0,0,.86-.54V129.57a1.75,1.75,0,0,0-.46-1.24,6.37,6.37,0,0,0-1.34-1.05,9.59,9.59,0,0,1-1.24-.89,1.2,1.2,0,0,1-.37-.9c0-.67,1.18-1,3.54-1h7.87c2,0,3,.4,3,1.21,0,.48-.36,1-1.08,1.5a16.39,16.39,0,0,1-1.79,1.17,1.58,1.58,0,0,0-.28,1v.74a10.73,10.73,0,0,0,3.75-2.46c2.44-2.36,5-3.54,7.61-3.54a8.94,8.94,0,0,1,4.31,1,6.8,6.8,0,0,1,2.84,2.88,9.23,9.23,0,0,1,1,4.39v19.69a4.93,4.93,0,0,1,.43.26,4.29,4.29,0,0,0,.51.28l.68.37c.33.19.65.38.95.58a4,4,0,0,1,.79.66,1.06,1.06,0,0,1,.32.65c0,.34-.31.72-.94,1.14a7.8,7.8,0,0,1-3.67,1.06c-.14,0-.61-.05-1.4-.16s-1.29-.16-1.47-.16-.71,0-1.58.16-1.37.16-1.5.16a7.93,7.93,0,0,1-3.67-1.06q-.93-.5-.93-1.14a1.16,1.16,0,0,1,.47-.82,6.79,6.79,0,0,1,1.17-.82l1.1-.62a5,5,0,0,0,.87-.54V134.9c0-2.94-1.23-4.41-3.67-4.41a9.31,9.31,0,0,0-3.69,1l-1.59.73A28.05,28.05,0,0,1,440.62,133.17Z"/><path class="cls-3" d="M496.43,128.36v18a19.9,19.9,0,0,0,.74,5.54l.34,1.34a19.8,19.8,0,0,1,.73,4.8,9.13,9.13,0,0,1-.83,3.68,10.79,10.79,0,0,1-2.31,3.4q-3,3-9.41,3l-2.31,0-2,0c-1.46,0-2.73,0-3.8.07l-1.81.06a14.62,14.62,0,0,1-6.14-1.2,4.08,4.08,0,0,1-2.61-3.93,4.65,4.65,0,0,1,.4-1.55,7,7,0,0,0,.4-1.19,1.2,1.2,0,0,0-.54-1,8.92,8.92,0,0,1,1.61-.07,7.7,7.7,0,0,1,5.67,2.27l.67.66c1.41,1.47,3.53,2.2,6.34,2.2a15.07,15.07,0,0,0,6-1.09,4.47,4.47,0,0,0,1.47-6.92,6.41,6.41,0,0,1-2.8.94,21.45,21.45,0,0,1-2.36-.14c-.82-.09-1.32-.14-1.52-.14-.38,0-1.08.05-2.1.14s-1.81.14-2.37.14a8.91,8.91,0,0,1-5.93-2.09,12.7,12.7,0,0,1-3.71-5.57,22,22,0,0,1-1.24-7.5,23.78,23.78,0,0,1,1.73-9.48,12.86,12.86,0,0,1,5.5-6.17,18.93,18.93,0,0,1,9.59-2.18h13.41c1.12,0,1.72.25,1.81.73a3,3,0,0,1-1.53,2.35l-.34.25c-.13.09-.27.19-.4.3ZM489,142.92v-9.08a5.72,5.72,0,0,0-1.78-4.49,6.78,6.78,0,0,0-4.71-1.59,6.54,6.54,0,0,0-4.55,1.66,9.74,9.74,0,0,0-2.72,4.23,16.32,16.32,0,0,0-.86,5.19,17.33,17.33,0,0,0,1.33,6.75q1.35,3.19,4.27,3.19l1.57-.06,1.5-.07c.15,0,.62,0,1.4.07l1.4.06a2.46,2.46,0,0,0,2.46-1.78A11.26,11.26,0,0,0,489,142.92Z"/><path class="cls-4" d="M516.88,111.19a5.25,5.25,0,1,1-5.2-5.11A5.14,5.14,0,0,1,516.88,111.19Zm-9.19,0a4,4,0,0,0,4,4.08,3.9,3.9,0,0,0,3.89-4,3.94,3.94,0,1,0-7.88,0Zm3.15,2.65h-1.19v-5.11a14.53,14.53,0,0,1,2-.15,2.71,2.71,0,0,1,1.74.4,1.29,1.29,0,0,1,.53,1.09,1.33,1.33,0,0,1-1.06,1.22v.06c.5.15.75.56.91,1.24a4.6,4.6,0,0,0,.37,1.25h-1.25a4.06,4.06,0,0,1-.4-1.25c-.1-.52-.41-.77-1.06-.77h-.56Zm0-2.87h.56c.65,0,1.18-.21,1.18-.74s-.34-.78-1.09-.78a2.87,2.87,0,0,0-.65.06Z"/></g></g></svg>