<svg xmlns="http://www.w3.org/2000/svg" viewBox="0 0 993.33 474.4"><defs><style>.cls-1{fill:#ebdc21;}.cls-2{fill:#fff;}</style></defs><g id="Capa_2" data-name="Capa 2"><g id="Capa_1-2" data-name="Capa 1"><path class="cls-1" d="M39.49,273.8q-15.2,0-24.3-7.9T2.49,244.6q-3.6-13.4-2-31.1A180.64,180.64,0,0,1,8.29,176a272.27,272.27,0,0,1,41.2-80,399.18,399.18,0,0,1,29.4-35.1,275.18,275.18,0,0,1,33.9-30.8A183.88,183.88,0,0,1,149,8.3,89.15,89.15,0,0,1,185.69,0a36.81,36.81,0,0,1,11.6,1.5,13.17,13.17,0,0,1,6.6,4.5,15.91,15.91,0,0,1,2.8,7.4,43.29,43.29,0,0,1,0,10.2,83.06,83.06,0,0,1-6.1,24.5,114.36,114.36,0,0,1-12.2,22,149.58,149.58,0,0,1-16.3,19.3,203.49,203.49,0,0,1-18.6,16.5q-9.6,7.5-18.8,13.5t-16.9,10.3q-7.7,4.31-13.2,7t-7.3,3.7q-4,1.8-5.7,2.4a3.85,3.85,0,0,1-2.1.4c-.4,0-.4-.27,0-.8q2.2-1.4,7.9-5.4t13.4-9.8q7.69-5.81,16.8-13.4T146,97.4q9.3-8.81,18.1-18.7a213.35,213.35,0,0,0,16-20.3,92.58,92.58,0,0,0,9.8-18.2,78.5,78.5,0,0,0,4-13.8,40.58,40.58,0,0,0,.2-12q-7.2-2-16.9-.5a84.31,84.31,0,0,0-21,6.5,170.91,170.91,0,0,0-23.9,13.2,226.79,226.79,0,0,0-25.5,19.5,290.15,290.15,0,0,0-25.6,25.6A333.08,333.08,0,0,0,56.69,110a266.67,266.67,0,0,0-17.6,30.2,284,284,0,0,0-13.7,32.1,235.87,235.87,0,0,0-8.8,31.2,150.43,150.43,0,0,0-3.3,27.3q-.19,12.19,2.9,20.6t10.1,10.8a29.94,29.94,0,0,0,16.7.9,66.86,66.86,0,0,0,18.3-7.1,135.46,135.46,0,0,0,18.8-12.7q9.41-7.5,18.2-15.9t16.5-17q7.69-8.6,13.6-15.7t9.6-12q3.7-4.9,4.5-6.1a20.31,20.31,0,0,1,2.4-2.9,1.48,1.48,0,0,1,1.4-.5,1.87,1.87,0,0,1,1,1.2q.41,3-3.6,11.6a147.33,147.33,0,0,1-11.5,19.7,245.59,245.59,0,0,1-17.9,23.1,189.17,189.17,0,0,1-22.5,22,126.88,126.88,0,0,1-25.5,16.5A61,61,0,0,1,39.49,273.8Z"/><path class="cls-1" d="M202.69,168.2a7.56,7.56,0,0,1,1.8.2q1.6.4,1.2,1.8-5,11-12.7,17.3t-20.7,6.7a54.67,54.67,0,0,1-4.6,7.6,38.24,38.24,0,0,1-5.8,6.4,29.07,29.07,0,0,1-6.8,4.5,18.08,18.08,0,0,1-7.8,1.7,15.32,15.32,0,0,1-10.5-3.6,14.27,14.27,0,0,1-4.8-9.3q-.7-5.7,2.6-12.7t11.7-13.6q-.19-1.2-.3-2.4c-.06-.8-.1-1.53-.1-2.2a12.9,12.9,0,0,1,1.7-6.8,13.84,13.84,0,0,1,4.3-4.5,17.36,17.36,0,0,1,5.7-2.4,26.61,26.61,0,0,1,5.9-.7,13.48,13.48,0,0,1,4.5.9,12.44,12.44,0,0,1,4.6,3,17.85,17.85,0,0,1,3.6,5.5,20.83,20.83,0,0,1,1.5,8.4,31.72,31.72,0,0,1-.5,5.3,46.58,46.58,0,0,1-1.5,6.1,36.42,36.42,0,0,0,14.1-4.4Q196.89,177.21,202.69,168.2Zm-59.4,35.4a26,26,0,0,0,5.6-1.6,29.47,29.47,0,0,0,5.5-3.2,25.2,25.2,0,0,0,5.9-6.2,20.09,20.09,0,0,1-8-5,57.13,57.13,0,0,0-6,7.2A14.91,14.91,0,0,0,143.29,203.6Zm24.4-39c-.27-.27-1.07-.23-2.4.1a15.76,15.76,0,0,0-4.3,1.9,16,16,0,0,0-4.2,3.8,9,9,0,0,0-1.9,5.8q0,2.4,2.7,4.7a18.22,18.22,0,0,0,7.3,3.5q4-9.41,3.8-14.2C168.56,167,168.22,165.13,167.69,164.6Z"/><path class="cls-1" d="M288.09,168.4a1.69,1.69,0,0,1,1.6-.3,3.78,3.78,0,0,1,1,.7,3.64,3.64,0,0,1,.4,1.6q-13.6,18-23.3,27T251.69,210q-7.6,4.2-12.6,3.4a12.85,12.85,0,0,1-6.7-3.5,9.33,9.33,0,0,1-3.1-7.1q0-4,2.9-9.2t6.1-10.2c1.07-1.6,2-3,2.7-4.3s1.37-2.43,1.9-3.5,1.06-2.07,1.6-3a89.88,89.88,0,0,0-14.1,11.8q-6.9,7-12.7,13.5t-10,11.1q-4.2,4.6-6,4.6a7.69,7.69,0,0,1-3.7-1.2,20.57,20.57,0,0,1-3.9-2.9,18.51,18.51,0,0,1-3-3.6,6.67,6.67,0,0,1-1.2-3.5,23.07,23.07,0,0,1,1.7-7.6,95.29,95.29,0,0,1,6.5-13,40.13,40.13,0,0,0,3.4-7.3,30.94,30.94,0,0,0,1.3-5.4,15.88,15.88,0,0,0,.1-3.9,21.72,21.72,0,0,1-.2-2.8,3.67,3.67,0,0,1,3.2-1.4,9.06,9.06,0,0,1,4.5,1.3,11.86,11.86,0,0,1,4,3.9,11.09,11.09,0,0,1,1.7,6.2,23.14,23.14,0,0,1-.7,5.2q-.7,3-1.8,6.3c-.73,2.2-1.57,4.43-2.5,6.7s-1.87,4.4-2.8,6.4q9.6-11.59,16.6-19a163.9,163.9,0,0,1,11.9-11.6,43.08,43.08,0,0,1,8.1-5.8,12.37,12.37,0,0,1,5.2-1.6,10.66,10.66,0,0,1,7.4,2.7q3,2.7,3,8.1a16.88,16.88,0,0,1-1.6,6.5q-1.61,3.7-3.7,7.6t-4.5,7.5q-2.4,3.6-3.8,6a36.35,36.35,0,0,0-3.6,6.4,56.58,56.58,0,0,0,14.4-8,166.85,166.85,0,0,0,14-11.5q6.39-5.9,10.9-10.6A48.94,48.94,0,0,1,288.09,168.4Z"/><path class="cls-1" d="M342.09,168.2a7.69,7.69,0,0,1,1.8.2q1.59.4,1.2,1.8-5,11-12.7,17.3t-20.7,6.7a55.65,55.65,0,0,1-4.6,7.6,38.68,38.68,0,0,1-5.8,6.4,29.27,29.27,0,0,1-6.8,4.5,18.08,18.08,0,0,1-7.8,1.7,15.32,15.32,0,0,1-10.5-3.6,14.27,14.27,0,0,1-4.8-9.3q-.7-5.7,2.6-12.7t11.7-13.6q-.19-1.2-.3-2.4c-.07-.8-.1-1.53-.1-2.2a12.9,12.9,0,0,1,1.7-6.8,13.74,13.74,0,0,1,4.3-4.5,17.36,17.36,0,0,1,5.7-2.4,26.54,26.54,0,0,1,5.9-.7,13.48,13.48,0,0,1,4.5.9,12.52,12.52,0,0,1,4.6,3,17.85,17.85,0,0,1,3.6,5.5,20.83,20.83,0,0,1,1.5,8.4,31.72,31.72,0,0,1-.5,5.3,50,50,0,0,1-1.5,6.1,36.52,36.52,0,0,0,14.1-4.4Q336.29,177.21,342.09,168.2Zm-59.4,35.4a26,26,0,0,0,5.6-1.6,29.47,29.47,0,0,0,5.5-3.2,25.38,25.38,0,0,0,5.9-6.2,20,20,0,0,1-8-5,57.13,57.13,0,0,0-6,7.2A14.91,14.91,0,0,0,282.69,203.6Zm24.4-39c-.27-.27-1.07-.23-2.4.1a16.3,16.3,0,0,0-8.5,5.7,9,9,0,0,0-1.9,5.8q0,2.4,2.7,4.7a18.22,18.22,0,0,0,7.3,3.5q4-9.41,3.8-14.2T307.09,164.6Z"/><path class="cls-1" d="M397.48,170a220.21,220.21,0,0,1-16.8,20.4,147.73,147.73,0,0,1-13.5,12.8,55.78,55.78,0,0,1-10.2,6.9,34.37,34.37,0,0,1-6.9,2.7,17,17,0,0,1-8.3,1.5,18,18,0,0,1-7.9-2.4,16.26,16.26,0,0,1-5.9-6.1,19,19,0,0,1-2.3-9.6,24.69,24.69,0,0,1,3.6-12,63,63,0,0,1,18.2-20.3q5-3.5,7.8-3.5a14.75,14.75,0,0,1,5.4,1.1,20,20,0,0,1,5.1,2.9,14.09,14.09,0,0,1,3.7,4.3,10.61,10.61,0,0,1,1.4,5.3,8.13,8.13,0,0,1-1.2,4.6,9.89,9.89,0,0,1-2.9,2.9,10.9,10.9,0,0,1-3.4,1.5c-1.13.27-2.1.47-2.9.6a.85.85,0,0,1-.6-.2c-.13-.13-.06-.47.2-1s.67-1.4,1.2-2.6a23.2,23.2,0,0,0,1.3-3.7,13.24,13.24,0,0,0,.5-3.4c0-1-.4-1.57-1.2-1.7s-2.46.6-5,2.2a42.89,42.89,0,0,0-7.9,6.7,53.63,53.63,0,0,0-7.5,10.2,28.57,28.57,0,0,0-3.8,12.7,1.87,1.87,0,0,0,1,1,5.88,5.88,0,0,0,1.7.7,10.13,10.13,0,0,0,3.3.1,25.23,25.23,0,0,0,10.2-2.9,72.92,72.92,0,0,0,10.8-6.7q5.4-4,10.5-8.6t9.1-8.5q4-3.9,6.7-6.7a35.67,35.67,0,0,1,3.3-3.2,1.69,1.69,0,0,1,1.6-.3,3.63,3.63,0,0,1,1,.7A7.45,7.45,0,0,1,397.48,170Z"/><path class="cls-1" d="M450.48,170q-8,10.6-14.7,18a162.94,162.94,0,0,1-12.1,12.2,75.35,75.35,0,0,1-9.7,7.5,47.85,47.85,0,0,1-7.3,3.9c-.53.27-1.67.73-3.4,1.4a44.22,44.22,0,0,1-6.1,1.8,43,43,0,0,1-7.4,1,15.3,15.3,0,0,1-7.2-1.3,12.15,12.15,0,0,1-5.4-5q-2.1-3.5-2.1-10.1a30,30,0,0,1,5.1-17.3,52.54,52.54,0,0,1,11.7-12.5,59.74,59.74,0,0,1,12.8-7.6c4.13-1.73,6.87-2.6,8.2-2.6a14.91,14.91,0,0,1,4.1.6,12.39,12.39,0,0,1,3.9,1.9,10.65,10.65,0,0,1,3,3.4,9.7,9.7,0,0,1,1.2,4.9,18.49,18.49,0,0,1-2,7.2,37.75,37.75,0,0,1-5.3,8.4,35.37,35.37,0,0,1-7.6,6.9,15.47,15.47,0,0,1-8.7,2.9q-5.21,0-7.9-1.8a12.55,12.55,0,0,1-3.9-3.8,14.93,14.93,0,0,0-2.5,5.7c-.2,1.53-.3,2.5-.3,2.9a21.38,21.38,0,0,0,.5,3.7,3.51,3.51,0,0,0,3.3,2.9,23.53,23.53,0,0,0,6.2,0,35,35,0,0,0,6.8-2.2,52.68,52.68,0,0,0,9.5-5,105.41,105.41,0,0,0,9.5-7q4.6-3.8,8.9-7.8t7.6-7.2q3.3-3.19,5.5-5.4a29,29,0,0,1,2.8-2.6,1.69,1.69,0,0,1,1.6-.3,3.78,3.78,0,0,1,1,.7A3.51,3.51,0,0,1,450.48,170Zm-37.6,2a94.47,94.47,0,0,0-12.5,7.3,45,45,0,0,0-7.7,6.7,9.91,9.91,0,0,0,8.4-.5,23.24,23.24,0,0,0,6.4-5.1A43.31,43.31,0,0,0,412.88,172Z"/><path class="cls-1" d="M608.28,168.4a1.69,1.69,0,0,1,1.6-.3,3.78,3.78,0,0,1,1,.7,3.51,3.51,0,0,1,.4,1.6q-13.6,18-23.3,27T571.88,210q-7.61,4.2-12.6,3.4a12.89,12.89,0,0,1-6.7-3.5,9.33,9.33,0,0,1-3.1-7.1q0-4,2.9-9.2t6.1-10.2c1.07-1.6,2-3,2.7-4.3s1.37-2.43,1.9-3.5,1.07-2.07,1.6-3a89.88,89.88,0,0,0-14.1,11.8q-6.9,7-12.7,13.5t-10,11.1q-4.2,4.6-6,4.6a7.69,7.69,0,0,1-3.7-1.2,20.57,20.57,0,0,1-3.9-2.9,18.51,18.51,0,0,1-3-3.6,6.67,6.67,0,0,1-1.2-3.5,23.07,23.07,0,0,1,1.7-7.6,95.29,95.29,0,0,1,6.5-13,40.13,40.13,0,0,0,3.4-7.3,30.94,30.94,0,0,0,1.3-5.4,15.88,15.88,0,0,0,.1-3.9,21.72,21.72,0,0,1-.2-2.8,3.67,3.67,0,0,1,3.2-1.4,9.06,9.06,0,0,1,4.5,1.3,11.86,11.86,0,0,1,4,3.9,11.09,11.09,0,0,1,1.7,6.2,23.14,23.14,0,0,1-.7,5.2q-.71,3-1.8,6.3c-.73,2.2-1.57,4.43-2.5,6.7s-1.87,4.4-2.8,6.4q9.6-11.59,16.6-19A163.9,163.9,0,0,1,557,166.4a43.08,43.08,0,0,1,8.1-5.8,12.37,12.37,0,0,1,5.2-1.6,10.66,10.66,0,0,1,7.4,2.7q3,2.7,3,8.1a16.7,16.7,0,0,1-1.6,6.5q-1.61,3.7-3.7,7.6t-4.5,7.5q-2.4,3.6-3.8,6a36.35,36.35,0,0,0-3.6,6.4,56.58,56.58,0,0,0,14.4-8,166.85,166.85,0,0,0,14-11.5q6.4-5.9,10.9-10.6A48.94,48.94,0,0,1,608.28,168.4Z"/><path class="cls-1" d="M690.28,168.2a1.69,1.69,0,0,1,1.6-.3,3.78,3.78,0,0,1,1,.7,8.68,8.68,0,0,1,.6,1.6q-11.81,15.8-20.8,24.5a116.2,116.2,0,0,1-15.3,12.9q-6.3,4.2-10.1,5a31.25,31.25,0,0,1-5.2.8,10.93,10.93,0,0,1-6.2-1.6,15.45,15.45,0,0,1-4-3.8,15.87,15.87,0,0,1-2.8-5.4,16.06,16.06,0,0,1,1.2-7.6,82.42,82.42,0,0,1-8.8,8.7,59.94,59.94,0,0,1-7,5.1,23.46,23.46,0,0,1-5,2.4,11.65,11.65,0,0,1-2.8.6,10.2,10.2,0,0,1-3.2-.7,16.77,16.77,0,0,1-3.9-2,11.71,11.71,0,0,1-3.2-3.3,8.22,8.22,0,0,1-1.3-4.6,35,35,0,0,1,2.9-12.8,116.15,116.15,0,0,1,6.5-13.6,134.69,134.69,0,0,1,9.4-15.2,8,8,0,0,1,5.4.9,9.71,9.71,0,0,1,3,2.9,16,16,0,0,1,1.8,4.4,149.85,149.85,0,0,0-9.7,16.3q-3.3,6.71-4.9,10.9a31.19,31.19,0,0,0-2,8,34.81,34.81,0,0,0,8-4.7,110.4,110.4,0,0,0,8.8-7.4q4.4-4.1,8.5-8.5t7.1-7.8c1.06-1.87,2.1-3.6,3.1-5.2s1.9-3,2.7-4.2a31.46,31.46,0,0,1,2.4-3.8q4.59.79,6.3,2.4a6.87,6.87,0,0,1,2.1,3.2,7.64,7.64,0,0,1-.6,4.4q-6.21,11.6-9.1,18.2t-4,9.9c-.74,2.2-.9,3.9-.5,5.1a31.31,31.31,0,0,0,9.9-3.8,90.89,90.89,0,0,0,10.4-6.9q5.1-3.9,9.8-8.3t8.5-8.1q3.79-3.7,6.3-6.3A31.91,31.91,0,0,1,690.28,168.2Z"/><path class="cls-1" d="M746.68,170q-8,10.6-14.7,18a162.94,162.94,0,0,1-12.1,12.2,76,76,0,0,1-9.7,7.5,47.85,47.85,0,0,1-7.3,3.9c-.54.27-1.67.73-3.4,1.4a44.64,44.64,0,0,1-6.1,1.8,43.17,43.17,0,0,1-7.4,1,15.3,15.3,0,0,1-7.2-1.3,12.15,12.15,0,0,1-5.4-5q-2.1-3.5-2.1-10.1a30,30,0,0,1,5.1-17.3,52.54,52.54,0,0,1,11.7-12.5,59.5,59.5,0,0,1,12.8-7.6q6.2-2.59,8.2-2.6a14.91,14.91,0,0,1,4.1.6,12.39,12.39,0,0,1,3.9,1.9,10.65,10.65,0,0,1,3,3.4,9.7,9.7,0,0,1,1.2,4.9,18.49,18.49,0,0,1-2,7.2,38.12,38.12,0,0,1-5.3,8.4,35.61,35.61,0,0,1-7.6,6.9,15.47,15.47,0,0,1-8.7,2.9q-5.2,0-7.9-1.8a12.55,12.55,0,0,1-3.9-3.8,14.78,14.78,0,0,0-2.5,5.7c-.2,1.53-.3,2.5-.3,2.9a20.42,20.42,0,0,0,.5,3.7,3.49,3.49,0,0,0,3.3,2.9,23.53,23.53,0,0,0,6.2,0,35.17,35.17,0,0,0,6.8-2.2,53,53,0,0,0,9.5-5,106.85,106.85,0,0,0,9.5-7q4.59-3.8,8.9-7.8t7.6-7.2q3.3-3.19,5.5-5.4a27.81,27.81,0,0,1,2.8-2.6,1.69,1.69,0,0,1,1.6-.3,3.78,3.78,0,0,1,1,.7A3.64,3.64,0,0,1,746.68,170Zm-37.6,2a93.82,93.82,0,0,0-12.5,7.3,44.63,44.63,0,0,0-7.7,6.7,9.91,9.91,0,0,0,8.4-.5,23.38,23.38,0,0,0,6.4-5.1A43.31,43.31,0,0,0,709.08,172Z"/><path class="cls-1" d="M794.27,170a158,158,0,0,1-13.5,16.3,102.57,102.57,0,0,1-11.9,10.7,66.62,66.62,0,0,1-19.4,10.4c-.13,1.6-.26,3.2-.4,4.8s-.26,3.2-.4,4.8a31.4,31.4,0,0,1-2.6,10.1,30.77,30.77,0,0,1-4.4,7.1,20.3,20.3,0,0,1-4.9,4.3,8.57,8.57,0,0,1-4.1,1.5,28.81,28.81,0,0,1-3.8-.3,11.06,11.06,0,0,1-4.2-1.5,10.41,10.41,0,0,1-3.4-3.4,11.57,11.57,0,0,1-1.4-6.2q0-10,4.9-15.5a38,38,0,0,1,11.9-8.9q.6-9,.6-18.4a26,26,0,0,1,2.8-12.3,33.35,33.35,0,0,1,14.5-14.4,15.39,15.39,0,0,1,6.3-1.9,15.06,15.06,0,0,1,7.3,1.5,11,11,0,0,1,3.9,3.3,7,7,0,0,1,1.3,3.5q.11,1.69-.3,2.1a.9.9,0,0,1-1,.2c-.4-.13-.86-.3-1.4-.5l-1.9-.7a8.57,8.57,0,0,0-2.9-.4,10.76,10.76,0,0,0-6.4,2,19,19,0,0,0-4.7,4.8,25.91,25.91,0,0,0-3,6,24.11,24.11,0,0,0-1.3,5.8,50.8,50.8,0,0,0-.2,5.4q0,3.8-.4,9,4-1.39,7.6-2.7a37.88,37.88,0,0,0,6.6-3.1,71.06,71.06,0,0,0,9.2-7.1q4.8-4.31,8.8-8.3,4.8-4.8,9.2-10a2.72,2.72,0,0,1,2.6.8A2.13,2.13,0,0,1,794.27,170Zm-67.4,62.2q3.81-1.6,5.9-6.9a54.16,54.16,0,0,0,3.1-12.7l-2,1.2a6.91,6.91,0,0,0-1.8,1.6,16.44,16.44,0,0,0-4.2,5.8,19.26,19.26,0,0,0-1.4,5.4A13.48,13.48,0,0,0,726.87,232.2Z"/><path class="cls-1" d="M821.67,150.2c-1.87,1.47-3.77,2.93-5.7,4.4s-4,2.93-6.1,4.4q-4.61,8.4-8.7,16.5t-6.6,14.5a38,38,0,0,0-2.8,10.4q-.3,4,2.7,4a36.32,36.32,0,0,0,9.8-3.9,85,85,0,0,0,10.3-6.8q5.1-3.9,9.8-8.3t8.5-8.1q3.79-3.7,6.3-6.2a34.55,34.55,0,0,1,3.1-2.9,1.69,1.69,0,0,1,1.6-.3,3.78,3.78,0,0,1,1,.7,3.51,3.51,0,0,1,.4,1.6q-12.4,16.8-21.8,25.6t-15.8,12.7q-6.4,3.9-9.9,4.4a16.76,16.76,0,0,1-4.3.3c-.4,0-1.3-.07-2.7-.2a13.74,13.74,0,0,1-4.6-1.4,13.16,13.16,0,0,1-4.6-3.9,13.93,13.93,0,0,1-2.5-7.5,24.37,24.37,0,0,1,1.4-10,86.45,86.45,0,0,1,4.9-11.2q3.11-6,7.3-13t8.6-15.2c-6.27.67-11.16,1.37-14.7,2.1a29.26,29.26,0,0,1-7.3.9,5.15,5.15,0,0,1-3-1.3,12.82,12.82,0,0,1-2-2.3,11.56,11.56,0,0,1-1.2-3.2,177.71,177.71,0,0,1,17.7-4,141.94,141.94,0,0,1,15.5-1.8q2.21-4.6,5.5-10.8t7.1-12.8q3.79-6.6,8-13a131.66,131.66,0,0,1,8.4-11.5,60.13,60.13,0,0,1,8.1-8.3q3.9-3.19,7.3-3.2a11.69,11.69,0,0,1,5.7,1.6,12.64,12.64,0,0,1,4.8,4.9,16.42,16.42,0,0,1,1.9,8.3q0,5-3,11.7a73.42,73.42,0,0,1-9.8,15.2,146.7,146.7,0,0,1-18.6,18.7,45.47,45.47,0,0,1,9.2,2.4q3.4,1.4,4.2,2.6a4.91,4.91,0,0,1,.7,2.5,1.89,1.89,0,0,1-2.1,1.9Q831.27,150.2,821.67,150.2Zm32.6-57.6a58.94,58.94,0,0,0-6.6,5.8,107.34,107.34,0,0,0-7,8.5,110.7,110.7,0,0,0-8.4,13.3q-2.21,3.6-5.3,9t-6.7,11.8h.4q4.4-3.8,9.3-8.9a133.79,133.79,0,0,0,9.6-11.2,103,103,0,0,0,8.6-13.2A69.71,69.71,0,0,0,854.27,92.6Z"/><path class="cls-1" d="M903.27,168.2a1.69,1.69,0,0,1,1.6-.3,3.78,3.78,0,0,1,1,.7,3.51,3.51,0,0,1,.4,1.6q-11.4,15.41-20.3,24.1a119.43,119.43,0,0,1-15.2,13q-6.3,4.3-10.2,5.2a28.67,28.67,0,0,1-5.5.9h-.8a.18.18,0,0,1-.2-.2V213a11.09,11.09,0,0,1-3-1.1,16.62,16.62,0,0,1-3.6-2.5,14.18,14.18,0,0,1-3.1-4.1,13.06,13.06,0,0,1-1.3-6.1,21.66,21.66,0,0,1,3.1-11.5,60,60,0,0,1,5.9-8.3,29.53,29.53,0,0,1-6.1.2,18.5,18.5,0,0,1-6.9-1.8,66.82,66.82,0,0,1-6,6.6,2.55,2.55,0,0,1-1.4,0,2.28,2.28,0,0,1-1.1-.9,6.28,6.28,0,0,1-.7-2.7,32.85,32.85,0,0,0,1.9-2.7q1.11-1.69,2.7-3.9a21.85,21.85,0,0,1-4-5.9,20.7,20.7,0,0,1-1.8-9.1,29.79,29.79,0,0,1,2.9-13.8,31.36,31.36,0,0,1,6.7-9,28.14,28.14,0,0,1,7.2-4.9,14.77,14.77,0,0,1,4.6-1.5,9.39,9.39,0,0,1,3.1.7,19.52,19.52,0,0,1,3.9,2,11.38,11.38,0,0,1,3.4,3.5,9.51,9.51,0,0,1,1.4,5.2,13.62,13.62,0,0,1-1.5,5.1,78.15,78.15,0,0,1-3.8,7.2q-2.3,3.9-5.3,8.2t-6,8.3a18.44,18.44,0,0,0,5.6-.5,31.1,31.1,0,0,0,6-2.1,36.73,36.73,0,0,0,5.7-3.3,28.27,28.27,0,0,0,4.7-4.1,7.45,7.45,0,0,1,3,.2,6.89,6.89,0,0,1,2.4,1.5,8.15,8.15,0,0,1,2,3.5q-5.59,8.21-9.8,15.8-1.8,3.2-3.6,6.6c-1.2,2.27-2.23,4.43-3.1,6.5a55.61,55.61,0,0,0-2.1,5.8,16.58,16.58,0,0,0-.8,4.5,37.64,37.64,0,0,0,9.9-3.9,75.52,75.52,0,0,0,10.4-6.9q5.1-4,9.8-8.3t8.5-8.1l6.3-6.3A34.55,34.55,0,0,1,903.27,168.2Zm-64.8-5.6a7.75,7.75,0,0,0,.8,4.2q2.4-3.2,4.9-6.8a83.38,83.38,0,0,0,4.5-7.2,59.31,59.31,0,0,0,3.3-6.9,20.61,20.61,0,0,0,1.5-6.1,17.94,17.94,0,0,0-7.2,4.2,26.7,26.7,0,0,0-5.2,7.1A26,26,0,0,0,838.47,162.6Z"/><path class="cls-1" d="M978.27,170.2A238.41,238.41,0,0,1,961,191.4a159.65,159.65,0,0,1-13.7,13.2,62,62,0,0,1-10.2,7.2,30.46,30.46,0,0,1-6.8,2.8h-.2c-.67.13-1.24.23-1.7.3a10.21,10.21,0,0,1-1.5.1h-.2a7.34,7.34,0,0,1-6.5-4,15.92,15.92,0,0,1-2.1-7.8,7.08,7.08,0,0,1,.2-1.8,13.5,13.5,0,0,1,.6-1.8q-5.61,5-10.9,8.9t-7.5,3.9a13.66,13.66,0,0,1-3.9-.7,11.21,11.21,0,0,1-4.4-2.7,16.41,16.41,0,0,1-3.6-5.5,23.35,23.35,0,0,1-1.5-9.1,26,26,0,0,1,4.4-14.9,46.48,46.48,0,0,1,10.3-11,50.23,50.23,0,0,1,11.6-6.8q5.7-2.3,8.5-2.3,8.19,0,12.7,2.7t4.5,7.1c0,2.93-.5,4.87-1.5,5.8s-1.84,1.67-2.5,2.2a1.35,1.35,0,0,1-2-.2,3,3,0,0,1-.6-.8,9.42,9.42,0,0,0,2.4-4,2.72,2.72,0,0,0-.9-2.8q-1.31-1.2-5.7-1.6-4.8-.2-10.2,3.5a45.82,45.82,0,0,0-9.7,9,52,52,0,0,0-6.9,10.9q-2.6,5.6-1.8,8.8,2.8.6,7.6-2.1a95.92,95.92,0,0,0,9.7-6.3q4.89-3.6,8.8-6.8a31,31,0,0,1,4.9-3.6,3.35,3.35,0,0,1,2.5.2,10.3,10.3,0,0,1,2.8,1.7,10.44,10.44,0,0,1,2.2,2.6,5.65,5.65,0,0,1,.9,2.9A8.53,8.53,0,0,1,938,192q-1.11,2.2-2.5,4.6c-.94,1.6-1.9,3.13-2.9,4.6a23.12,23.12,0,0,0-2.1,3.6,47.35,47.35,0,0,0,14.5-8,180.86,180.86,0,0,0,14-12q6.49-6.2,10.9-11.2t5.4-5.4a1.69,1.69,0,0,1,1.6-.3,3.78,3.78,0,0,1,1,.7A3.64,3.64,0,0,1,978.27,170.2Z"/><path class="cls-2" d="M26,281.62,39.42,281q6.8-.29,13.17-.29a71.15,71.15,0,0,1,18.38,2q7.38,2,7.38,8.69c0,1.16.09,4.15.29,9s.33,10.67.43,17.51.19,14.29.29,22.29,0,15.78-.43,23.3H97.74c2.51,0,5.16,0,8-.14s6.42-.24,10.86-.43V340.23q0-12.87-.15-24.6t-.29-20.12c-.1-5.59-.14-8.68-.14-9.26a5.1,5.1,0,0,1,2.6-4.34,21.47,21.47,0,0,1,6.23-2.75,46.74,46.74,0,0,1,7.52-1.45,61.09,61.09,0,0,1,6.52-.44,51.56,51.56,0,0,1,6.36.44,28.15,28.15,0,0,1,6.52,1.59,13.23,13.23,0,0,1,5.06,3.33,7.56,7.56,0,0,1,2,5.35q0,41.68-.58,83.37T157.66,455q0,9.84-6.37,12.73a36.87,36.87,0,0,1-15.34,2.9,36.29,36.29,0,0,1-5.5-.58,25.63,25.63,0,0,1-6.8-2.17,16.8,16.8,0,0,1-5.79-4.63,12.27,12.27,0,0,1-2.46-8q0-3.76-.14-11T115,428.38q-.15-8.69-.15-17.81t.29-16.93l-36.47.58v20.12q0,9.69.14,17.94t.15,14.77v10.27q0,13.32-24.61,13.32c-1.35,0-3-.1-5.06-.29a17.56,17.56,0,0,1-5.79-1.59,11.23,11.23,0,0,1-4.63-4.2q-1.89-2.9-1.89-8.11V413.9l.29-84.81V316.93H26.53q-6.36,0-8.1-4.78a35.43,35.43,0,0,1-1.74-12q0-10.69,2.61-14.47A8.59,8.59,0,0,1,26,281.62Z"/><path class="cls-2" d="M210.63,470.06H201.8a23.6,23.6,0,0,1-5.06-.58l-18-.58a9,9,0,0,1-6.8-4q-2.76-3.77-2.46-11a64.89,64.89,0,0,1,.43-8.4,13.52,13.52,0,0,1,1.45-4.92,4.34,4.34,0,0,1,2.89-2.17,23.45,23.45,0,0,1,5.07-.43H184q0-7.81.14-15.63t.15-15.35l.58-62.52q0-7.53.14-15.34t.15-15.63h-4.34q-13,0-9.85-21.71a30.75,30.75,0,0,1,3-10.86,7.48,7.48,0,0,1,6.23-4.2l52.1-1.73a5.37,5.37,0,0,1,4,1.88,13.43,13.43,0,0,1,2.75,4.92,33.58,33.58,0,0,1,1.45,6.66,55.05,55.05,0,0,1,.43,6.51,28.2,28.2,0,0,1-2.75,12q-2.75,5.94-8.83,5.94h-2.6q0,7.81-.14,15.63t-.15,15.63l-.58,63.1c0,5.22-.05,10.42-.14,15.63s-.15,10.43-.15,15.64h3.76q11.58,0,11.58,12.15a51.33,51.33,0,0,1-.43,6.37,36.63,36.63,0,0,1-1.45,6.66,13.42,13.42,0,0,1-2.75,5.07,5.37,5.37,0,0,1-4,1.88Z"/><path class="cls-2" d="M285.31,429q1.74,5.51,9,9.56a33.18,33.18,0,0,0,16.5,4.05q9.27,0,14.33-5.5a18.57,18.57,0,0,0,5.07-13q0-6.36-6.08-11.43a110.65,110.65,0,0,0-15.05-10.28q-9-5.2-19.69-11.29a110.92,110.92,0,0,1-19.68-14.18,73.83,73.83,0,0,1-15.05-19q-6.09-10.86-6.08-25.62a57,57,0,0,1,4.77-23.44,57.58,57.58,0,0,1,13-18.53A58.48,58.48,0,0,1,286,278.14a69.23,69.23,0,0,1,24.75-4.34q15.35,0,26.63,5.5a60.46,60.46,0,0,1,18.53,13.46,48,48,0,0,1,10.28,17.08q3,9.12,1.88,16.35l-3.77,23.74a7.47,7.47,0,0,1-2.75,4.78,21.16,21.16,0,0,1-5.93,3.61,25.21,25.21,0,0,1-15,1.16,26.3,26.3,0,0,1-9-4.63q-4-3.18-3.47-7.24l2.9-21.42a11.94,11.94,0,0,0-.87-6.8,18.05,18.05,0,0,0-4.2-5.93,24.64,24.64,0,0,0-6.37-4.34,18.1,18.1,0,0,0-8-1.74A19.86,19.86,0,0,0,296,314.76q-6.37,7.38-6.37,18.38a23.2,23.2,0,0,0,6.23,16.5,67.52,67.52,0,0,0,15.34,12q9.12,5.37,20,10.42a119.33,119.33,0,0,1,20,11.73,65.78,65.78,0,0,1,15.35,15.63q6.21,9,6.22,22.29a45.46,45.46,0,0,1-5.21,21.85,51.17,51.17,0,0,1-14,16.5,67.06,67.06,0,0,1-20.41,10.57,78.82,78.82,0,0,1-41.83,1.73,79.78,79.78,0,0,1-16.21-5.5,49.18,49.18,0,0,1-12.44-8.1,23.56,23.56,0,0,1-6.8-9.84l-8.11-26.06a25.43,25.43,0,0,1-1-6.36,20.13,20.13,0,0,1,.87-6.81A17.89,17.89,0,0,1,270,398.27q5.79,2,6.95,5.21Z"/><path class="cls-2" d="M382.57,314.33a6.13,6.13,0,0,1-4.34-1.6,13.73,13.73,0,0,1-3-4.34,23.15,23.15,0,0,1-1.88-6.37,44.3,44.3,0,0,1-.58-7.09,35.91,35.91,0,0,1,1.88-12q1.88-5.35,5.93-5.36h10.71q7.23,0,16.36-.14l19.1-.29,19.11-.29q9.12-.13,16.35-.29c4.82-.09,8.4-.14,10.71-.14q5.22-.29,8,5.64a30.87,30.87,0,0,1,2.75,13.17,28.85,28.85,0,0,1-2.89,13Q477.8,314,472,314q-4,0-8.68-.29a121.42,121.42,0,0,0-13.89.29q-.58,35.59-.58,70.34v70.34q0,9.84-5.65,12.59t-14.62,2.75q-9.25,0-15-3.91t-5.79-11.43q0-34.16.58-70.05t0-70.34Z"/><path class="cls-2" d="M551.61,474.4q-18.52,0-31.84-6.22a54,54,0,0,1-21.56-17.81q-8.25-11.56-12.16-28.22a166.08,166.08,0,0,1-3.91-37.77,332.11,332.11,0,0,1,2.61-42.7q2.6-20.12,10-35.17a59.43,59.43,0,0,1,20.7-23.88q13.3-8.82,34.74-8.83t34.88,7.09a53.07,53.07,0,0,1,21.13,19.83q7.67,12.73,10.42,30.25a248.41,248.41,0,0,1,2.75,38.35q0,25.77-3.62,45.45t-11.58,32.85a53,53,0,0,1-20.84,20Q570.43,474.4,551.61,474.4Zm-26.05-90.89q0,12.45.73,22.58a61.06,61.06,0,0,0,3.47,17.36,24.28,24.28,0,0,0,8,11.15q5.21,3.9,14.18,3.91t13.9-4.63q4.92-4.63,7.38-13a83.78,83.78,0,0,0,2.89-20.26q.43-11.86.44-26.63,0-11.29-.87-22.44A89,89,0,0,0,572,331.69a35,35,0,0,0-8-14q-5.2-5.34-13.6-5.35a16.1,16.1,0,0,0-13.32,6.22q-4.92,6.24-7.53,16.36a119.71,119.71,0,0,0-3.32,22.86Q525.55,370.49,525.56,383.51Z"/><path class="cls-2" d="M634.4,313.17v-2.32l-4.92.58q-6.37.58-8.83-5.79t-1-17.08q1.73-13.6,9.26-13.6l35.89-.29a119.84,119.84,0,0,1,15.35-.87A157.11,157.11,0,0,1,705.75,276a68,68,0,0,1,23.88,8.54,50.08,50.08,0,0,1,17.52,17.8q6.79,11.44,6.8,30.25,0,21.72-10.71,37.78A64.58,64.58,0,0,1,716,393.93q6.08,12.15,12.16,23.45a122.87,122.87,0,0,0,12.15,18.81L754,437.64q5.49.58,6.8,3a18.61,18.61,0,0,1,1.59,7.38,36,36,0,0,1-.72,6.66A24.72,24.72,0,0,1,759,462a16,16,0,0,1-5.35,5.79,13.86,13.86,0,0,1-8.68,2,105.44,105.44,0,0,0-13.46-.29,22.38,22.38,0,0,1-11.15-2q-4.64-2.31-10-10.56t-10.85-18.82q-5.5-10.56-10.28-21.27T681,398.85l-5.79.29q0,7.23.15,16.06t.29,17.08q.14,8.25.14,14.62v8.69a17.7,17.7,0,0,1-1.44,7.81,10.12,10.12,0,0,1-3.91,4.34,14.77,14.77,0,0,1-5.5,1.88,43.89,43.89,0,0,1-6.22.44q-24.9,0-24.9-15.05V419.69l.58-71.21Zm41.1-5.79q0,6.94-.14,15.34t-.29,16.93q-.15,8.55-.29,16.79t-.14,15.2h12.44q7.53,0,12.3-2.6a20.2,20.2,0,0,0,7.53-7,29.69,29.69,0,0,0,3.91-10.28,64.15,64.15,0,0,0,1.16-12.3q0-15-6.52-24.32t-19-9.26A45.67,45.67,0,0,0,675.5,307.38Z"/><path class="cls-2" d="M839.63,276.41a5.54,5.54,0,0,1,4,1.73,12.29,12.29,0,0,1,2.75,4.49,27.91,27.91,0,0,1,1.45,6.08,48.22,48.22,0,0,1,.43,6.22,28.34,28.34,0,0,1-2.75,12q-2.74,5.94-8.83,5.94H829.5V331.4q0,9.27-.29,18.53l-.58,42q-.3,10.71-.29,21.13v21.13h9.55c4.05,0,7,2,8.83,5.94a28.38,28.38,0,0,1,2.75,12,48,48,0,0,1-.43,6.22,28.21,28.21,0,0,1-1.45,6.08,12.21,12.21,0,0,1-2.75,4.49,5.55,5.55,0,0,1-4.05,1.74L777.1,468.9q-7.53,0-9.26-13.6-3.18-21.72,9.84-21.71h9V413.76q0-9.7.29-19.83l.57-43.42q.3-9.27.29-18.53V313.46H776.53q-13,0-9.85-21.71,1.74-13.61,9.27-13.61Z"/><path class="cls-2" d="M876.1,472.08a46.62,46.62,0,0,1-17.8-3q-7.38-3-7.39-7.09a69.38,69.38,0,0,1,1.6-9.84q1.57-7.82,4.34-19.54t6.22-26.48q3.48-14.77,7.38-30.25T878.27,345q3.9-15.35,7.38-28.37l-13.89-.58c-5.79-.38-10-2-12.45-4.92s-3.76-7.43-3.76-13.6a48,48,0,0,1,.86-9.27,30,30,0,0,1,2.46-7.52,14.35,14.35,0,0,1,3.77-4.92,6.28,6.28,0,0,1,4.77-1.45l75,5.21a4.22,4.22,0,0,1,3.47,2,21,21,0,0,1,2.6,5.5c.77,2.31,1.5,4.92,2.18,7.81s1.3,5.89,1.88,9q2,9.54,5.21,25t6.94,33.29q3.76,17.81,7.68,35.9t6.8,32.85l7,.87c2.69.39,4.58,2.75,5.64,7.09a60.41,60.41,0,0,1,1.59,14.33,21.24,21.24,0,0,1-1.45,8.68,10.15,10.15,0,0,1-4.19,4.78,15.19,15.19,0,0,1-6.52,1.88q-3.76.28-8.39.29a76.08,76.08,0,0,1-9.55-.58,60.38,60.38,0,0,1-9.56-2,13.08,13.08,0,0,1-7.09-4.63,31.47,31.47,0,0,1-4.63-8.39,64.75,64.75,0,0,1-3-10.86q-1.15-5.93-2.6-12-6.66,0-13.61-.14t-17.08-.15h-5.21a25.6,25.6,0,0,0-3.47.29c-.39,2.13-.77,4.59-1.16,7.38s-.82,5.7-1.3,8.69-1,5.84-1.45,8.54a47.84,47.84,0,0,1-1.59,6.65q-1.74,6.09-4.78,8.25C884.64,471.36,881.11,472.08,876.1,472.08ZM932,400c-1.15-6.75-2.27-13.22-3.32-19.4s-2.13-12.2-3.19-18.09-2.12-11.87-3.18-17.95-2.17-12.49-3.33-19.24q-2.61,12.74-4.92,22.86T909.68,367q-2,8.69-3.77,16.64T902.73,400Z"/></g></g></svg>