<svg xmlns="http://www.w3.org/2000/svg" viewBox="0 0 228.6 257.52"><defs><style>.cls-1{fill:#ebdc21;}.cls-2{fill:#170d0e;}.cls-3{fill:#faf6f5;}.cls-4{fill:#e32b29;}.cls-5{fill:#87181e;}.cls-6{fill:#aa1a20;}.cls-7{fill:#94171d;}.cls-8{fill:#9f171d;}.cls-9{fill:#b31b21;}.cls-10{fill:#6b2005;}.cls-11{fill:#be1920;}.cls-12{fill:#cc1c23;}.cls-13{fill:#e02d2a;}.cls-14{fill:#db3534;}.cls-15{fill:#131112;}.cls-16{fill:#bb191f;}.cls-17{fill:#ecd824;}.cls-18{fill:#fefffd;}.cls-19{fill:#e31e27;}</style></defs><g id="Capa_2" data-name="Capa 2"><g id="Capa_1-2" data-name="Capa 1"><path class="cls-1" d="M131.52,106.77h0Zm0,0h0Zm0,0h0Zm0,0h0Zm0,0h0Zm0,0h0Zm0,0h0Zm0,0h0Zm0,0h0Zm0,0h0Zm0,0h0Zm0,0h0Zm0,0h0Zm41.91,15.52c-3.21-25.5-33.36-31.18-49.87-46.05-2.28-2.12-11.9-10.3-8-13.27,3.27-2.56,6.52-5.5,8-9.41.86-2.19,2.18-9.3-1.45-9.46-2.23.31-1.2,2.93-1.75,4.44-1.16,9.22-14.33,8.89-15.42-.17-.46-5.11,7.3-6,11.28-7.28,3.54-.93,3.09-6.37-.61-6.62-7.18-1.6-14.18-.33-15.15,8.24-2.89,17.66-4.07,36.18,4.7,52.49C88.78,101.4,85,120.05,72.73,131c-9.07,7.75-20.14,8.5-36.1,5.72a31.62,31.62,0,0,0-6.38.36l-.2.55c2.87,1.44,5.68,2.92,7.35,5.35,2.22,3.76,2.87,7.92-2.9,9.37,3.65,6.28,19.29,5.19,25.32,3.23a61.72,61.72,0,0,0,12.26-5c6.46-3.1,18.13-13.16,25.26-9.32,1,4.39-6.83,5.79-6.06,16.15.65,6.87-.35,13.78,1.81,20.46,2.84,9.27,2.85,19.64,1.17,29.12,6.46,9.86,15.82-1.71,21.3-6.73,9.82-9.18,15.68-21.49,22.36-33.1.36-.57,1.38-.72,2.09-1.07,1.53,2.41-.49,4.79-1.25,7.12-4.19,9.16-9.29,18.26-8.58,28.7,0,1.58.34,2.68,2.24,2.75,3.23-.44,9.72,2.49,10.89-1.64,2.25-6.39,4.7-12.71,7.39-18.91C158.39,163.38,177,146,173.43,122.29Zm-19.05,6.77a13,13,0,0,1-2.56,3.67c-.06,1-.52,1.5-1.56,1.38l-.74.61c0,1-.58,1.31-1.5,1.16l0,0-.75.41,0,0c-.6.38-1.18,1.07-1.8,1.11-2.92-.21-6.55.93-9.05-.82h0c-1.43,1.05-8.75.73-9.59-.59-1.34-.3-.49-1.14-.35-1.7,1-4.43,3.15-9.2,1.91-13.75l0-.07a16.73,16.73,0,0,0-2.76-2.36c-.81-.1-1.33,0-1.48,1a70.63,70.63,0,0,1-3,12.52l0,0,.39.48c0,.23.29.39.41.6h0c.27.43.89,1.08.77,1.27-.44.72-1,1.63-1.74,1.81s-1.78-.31-2.67-.51c-1.37-.4-2.9-.59-4.32-.91v0L113,134l0,0c-2.11.36-.81-1.2-2.09-1.68.95-.46,1.6-1.59,2.55-1.9,4-1.13,2.83-9,3.87-12.49,1-4.3-4-4.64-6.27-6.88-2.44-1,.37-4,1.67-4.29,5.86-.51,13.56-3.75,18.77,0l0-.09v.1l1.27.27c.33-.48.66-1,1-1.5.83-.35,1.71-1.09,2.49-1,4,.51,8,1.19,12,1.89,2.62,1,5.64,3.22,2.72,5.79-.42.38-.46,1.19-.84,2.25-8.43-.9-.1-6.45-10.71-5.61,0,.26-.06.66-.1,1.07a13.6,13.6,0,0,0,2.55,1.85q0,.12.15.06l.56.35h0a42,42,0,0,1,4.92,3.11c.31,0,.55.19.82.31l0,0a12.24,12.24,0,0,1,2.33,1.27C153.77,120,158.18,125,154.38,129.06Zm-22.85-22.28h0Zm0,0h0Zm0,0h0Zm0,0h0Zm0,0h0Zm0,0h0Zm0,0h0Zm0,0h0Zm0,0h0Zm0,0h0Zm0,0h0Zm0,0h0Zm0,0h0Z"/><path class="cls-2" d="M228.33,78.1c-.3-3.06-1.36-6-2-9-.23-.64-.46-1.29-.7-1.94h0c-.1-.33-.41-.65-.39-1s-.22-.57-.32-.85h0c-.4-.8-.84-1.64-1.17-2.46s-1.06-1.69-1.45-2.57c-.68-1-1.38-2.06-2.14-3h0c-4.42-5.35-9-10.53-14.63-14.66h0c-1.12-.83-2.31-1.56-3.37-2.47h-.07c-5.43-2.2-9.26-6.37-13.06-10.68h0c-.72-.63-1.5-1.17-2.26-1.74h0a18.22,18.22,0,0,0-15.56-.33c-3.5.6-6.28-1.71-9.23,1.74h0l-1.29,1.2h0l-.48.64h0c-2.75,4.16-5.22,8.56-9.4,11.47-4-6.23-5.51-7.07-11.42-10.84-.32-.23-.25-1.46,0-2,2.84-4.82,2.81-10.28,1.2-15.49-.07,0-.09-.11,0-.17-.46-.67-.91-1.34-1.37-2h0l-.48-.7c-1-1-1.91-2.17-2.89-3.21V7.89l-.35-.35h0c-1.6-1.19-3.13-2.48-4.72-3.7h0l-.39-.36,0,0c-1.2-.62-2.36-1.32-3.59-1.87a26.94,26.94,0,0,0-17.6,1.19l-.08,0c-1.09.67-2.21,1.22-3.35,1.79-1.24,1.7-2.75-1.28-4.37-1l0-.14a.36.36,0,0,1-.19-.21l-.87-.42-.09,0C98.62,2.09,97,1.56,95.35.86v0c-9.53-3-20.1,2.3-21.19,12.74-.57,4.65-1,9.32-1.52,14-1.51,3.92-4,7.58-5.83,11.38-1.42,8.64,1.47,16.17,7,23.26a50.81,50.81,0,0,0-28.19,1.67c-9,4.09-15.52,11.59-21.31,19.36-5.47,5.85-3,13.75,6.18,13.68-4.67,11.52,0,21.4,13.25,15.26-3,14.93,12.8,10.8,20.51,5.77.13.24.27.48.41.72C51,128,38.46,125.8,26.11,115.56a50.83,50.83,0,0,1-4-3.74v0c-2.1-2.9-5.56-2.35-8.73-2.59l0,0-1.42.76a8.17,8.17,0,0,0-1.89,1.77h0c-2.49,3.78-2.1,8.71-2.48,13.07.55,4,2.74,7.07,4.28,11-3.94.92-8.22-.58-11.85,1.19,1.55,3.66,2.76,7.42,4.58,10.95,1.53,2.93,3.92,5.35,5.89,8C29,173,56.81,174.27,78.29,162.3c.72,5.58,1.46,11,2.15,16.39.75,3,1.58,5.94,2.4,8.9a57.26,57.26,0,0,1-.23,13.91,14.48,14.48,0,0,1-.73,4.75C81.53,216.79,73.72,217.91,65,219,54.2,220.09,52,212.7,38.66,216.63v0c-.3.14-.61.25-.9.41l-.08-.05c-11.13,5.43-17.25,13.57-14.1,26.28l0,0c4.31,16.73,35.34,9.26,47.65,7,12.51-.13,27.77,10.74,36.27-4.59,12.35,14.71,25.73-1.3,48.48,8.42,3.22,1,6.35,2.51,9.64,3.23h0c7,.56,14.06.39,20.88-1.55l.32-.36c-.11-4.9,4-6.6,8-7.76l0,0c.93-.73,2.07-1,3-1.75-1.38-4.22-2.86-8.54-4.52-12.63l-3.92-6.73,0,0c-.12-.18-.36-.32-.4-.54,0,0,0-.05,0-.07a3.37,3.37,0,0,0-.72-.74c-2.16-1.68-4.06-3.74-6.61-4.83v0l-2.2-1.12,0,0-.75-.39v0l-2.3-.75-.12,0a5.88,5.88,0,0,0-1.33-.11h0l-7.09-.31a23,23,0,0,0-8.5,1.84h0c-8.83,3.27-12-1.38-8.26-9.85,8.86-18.82,20.19-36.23,31.11-53.87,6-9.4,7.29-21.07,5.42-31.91a58.87,58.87,0,0,0-4.12-12.43c-.55-1.2-1.77-2.07-.76-3.47,1.22-2.1,3.32.71,4.78,1.24s2.93,1.23,4.4,1.84c5.47,1.2,11-.18,16-2.58.23-.13.43-.4.71-.39a128.31,128.31,0,0,0,9.65-8.71h0c.2-.16.35-.42.63-.42C225.83,93.36,229.68,87.14,228.33,78.1Zm-6.89,15.28c-12.1,11.66-21,22.61-38,10.78-1.29,1.82-4.16,3.49-2.85,6,7.62,14.5,8.32,32.63-1.28,46.41-10.13,15.51-20,31.2-28.09,47.9-1.88,3.62-4.05,7.39-3.55,11.7.29,5.22,4,7.79,9.11,6.41,12.12-4.44,26.75-4.44,33.14,8.8,1.88,4.41,3.82,8.71,5.76,13.14-4,2.31-9.43,2.77-10.34,7.86-1.36,4.83-22.69,3.09-26.64.42-11.3-4.9-22.95-5.23-34.95-3-10.16,1.89-16.8-4.71-15.8-15,.76-8.07,6.8-14.08,7.3-22.37-8.28,7.72-7.81,19.1-8.89,29.42-2.54,13.22-18.31,10.27-27.71,6.94a17.21,17.21,0,0,0-10.05-.23c-11.77,3.2-24.15,4.34-36.1,1.37-3.31-.64-5.18-3-6.33-6-7.3-17.57,15.78-32.78,30.75-23.38,6.52,1.86,13.85.47,20.12-2.12,9.35-4.26,8.34-21.92,8-30.69a129.92,129.92,0,0,1-4.23-29c-4,1.79-7.8,3.69-11.73,5.26-23.87,10.26-59.58,1.53-65.87-26.12H16c-1.19-1.79-2-3-2.85-4.28-5.82-6-4.73-30.08,7.25-20.22,11.21,12.49,30.24,18.7,44.42,7.49,1.91-1.33,3.09-3.24,2.25-5.65-5.59.49-10.22,4.84-15.88,5.32-4.37.4-7-3.05-5.31-7.11,1.14-2.51,2.8-4.57,4.18-7-4.92,1.95-9.06,5.38-14.25,5.57-8.88-1.38-4.35-13.61-.7-18.51-3.81.72-8.84,2.47-11.09-1.35-1.11-1.84-.89-3.94.85-6.08,3.51-4.28,6.91-8.67,10.7-12.69C46,62.4,62.4,61,76.28,65.23a7.31,7.31,0,0,0-1.58-5.45c-7-8.14-8.65-20.72-1.07-29.1,2.62-5.36,1.44-12,2.81-17.79,3.42-14.55,16.86-11.84,27-6a2.71,2.71,0,0,0,3,0C115,1,126.36,1.06,133.57,9c14.69,12.74-2,21.64,4.61,24.49,5.2,2.46,9.37,5.87,11,11.7,10.77-2.07,13-22,20.4-14.45,9.08-5.68,16.19-2.88,22.48,5a32.3,32.3,0,0,0,8,5.94c5,2.58,9,6.61,13,10.56C222.63,62,232.83,81.68,221.44,93.38Z"/><path class="cls-3" d="M226.27,79.45c-1.53-16.17-12.65-29.63-26.22-37.8a32.3,32.3,0,0,1-8-5.94c-6.26-7.86-13.44-10.67-22.48-5-7.35-7.53-9.61,12.36-20.4,14.45-1.59-5.83-5.76-9.24-11-11.7-6.62-2.81,10.08-11.76-4.61-24.49C126.35,1.07,115,1,106.44,6.87a2.71,2.71,0,0,1-3,0c-10.13-5.83-23.61-8.55-27,6-1.37,5.78-.18,12.43-2.81,17.79-7.57,8.37-5.9,21,1.07,29.1a7.31,7.31,0,0,1,1.58,5.45C62.4,61,46,62.4,35.61,73.34c-3.79,4-7.19,8.41-10.7,12.69-1.74,2.14-2,4.24-.85,6.08,2.25,3.82,7.28,2.07,11.09,1.35-3.66,4.89-8.18,17.13.7,18.51,5.19-.19,9.33-3.62,14.25-5.57-1.38,2.46-3,4.52-4.18,7-1.66,4.06.94,7.51,5.31,7.11,5.66-.48,10.29-4.83,15.88-5.32.83,2.41-.32,4.32-2.25,5.65-14.18,11.21-33.21,5-44.42-7.49-12-9.86-13.07,14.18-7.25,20.22.86,1.23,1.66,2.49,2.85,4.28H3.17c6.3,27.66,42,36.38,65.86,26.12,3.94-1.57,7.76-3.47,11.74-5.26a130,130,0,0,0,4.23,29c.39,8.72,1.38,26.46-8,30.68-6.27,2.6-13.6,4-20.12,2.13-15-9.4-38,5.81-30.75,23.39,1.15,3,3,5.36,6.33,6,12,3,24.33,1.83,36.1-1.37a17.21,17.21,0,0,1,10.05.23c9.4,3.34,25.18,6.28,27.71-6.94,1.07-10.32.62-21.71,8.89-29.42-.5,8.29-6.54,14.3-7.3,22.37-1,10.32,5.64,16.92,15.8,15,12-2.23,23.65-1.9,34.95,3,4,2.69,25.27,4.4,26.64-.42.92-5.09,6.38-5.55,10.34-7.86-1.94-4.43-3.88-8.73-5.76-13.14-6.42-13.27-21-13.22-33.14-8.8-5.07,1.38-8.82-1.19-9.11-6.41-.5-4.32,1.67-8.08,3.55-11.7,8.11-16.7,18-32.39,28.09-47.9,9.6-13.78,8.9-31.91,1.28-46.41-1.31-2.55,1.56-4.19,2.85-6,8,5.74,18.61,7.42,26.24.21C216.57,97.13,228.28,91,226.27,79.45ZM217,91.68h0l-6.22,5.87c-8.36,9.12-16,9.84-25.81,2.45-2.75-2-5.33,3.15-7.51,4.49-2.17,3.39-2.43,4.73-.35,8.34h0c14.68,27.07-4.38,44.73-17.47,67.22v0h0q-5.55,10-11.08,20h0c-.14.25-.27.51-.4.76h0c-1.14,2.62-2.26,5.25-3.44,7.85-4.34,8.55,1.6,20.88,12.24,18.16,6.9-1.37,14.77-5.57,21.27-1v0c7.45,2.12,8.72,10.52,12.27,16.49-3.77,1.66-7,3.17-8.66,7.09-3,3.3-16.94,1.87-21-.23a60.53,60.53,0,0,0-37.05-3.53c-7.83,1.6-12.24-2.29-11.63-10.23,1.57-10,9.43-18.75,7.9-29.38l.06-.05-.06,0h0a4.76,4.76,0,0,0-5.23,1.2c-10.75,9.69-11.93,18.67-12.21,32.4C101.42,251.22,88.23,247,80.71,245a25.73,25.73,0,0,0-14.37-.21c-9.51,2.43-19.16,3.62-29,2.13-8.85-.68-9.44-9-7-15.41,1.79-4.49,6.75-7.31,11-9a15.44,15.44,0,0,1,13.1,1.56v0c8.63,2.92,18,1.18,25.94-2.8,10-5.81,9.47-24.43,8.69-34.66-.49-4.14-2-8.14-2.87-12.26-1.62-7.71-1.23-15.39-.83-23.22-9,5.06-17.8,10.19-28.08,12-18.21,3.27-40-3-48.3-20.73,5-.17,15.57-.89,9.86-8.06A51.09,51.09,0,0,1,15.41,129c-2.11-3.81-1.72-7.9-.87-11.94.62-4,3.37-.2,4.72,1.25a69.43,69.43,0,0,0,6.9,5.57h0l2,1.31v.14l0-.14c13.59,7.34,27.55,8.57,40-1.67,2.56-1.93,4.22-4.56,3.47-8.08-1.89-8.61-10.72-2.59-15.75-.63l0,0c-9.88,4.08-5.9-.42-2.11-5.72l.09.1-.08-.1c1.66-2.65,4.22-5.85,2.11-8.87-3.69-1.6-7.62,2.88-11,4.14-2.38.71-10.41,6.69-10,1.15A18.07,18.07,0,0,1,42.61,92h0l4.92-3.45h0c1-6.79-7.75-.76-10.71-.11v0c-3,.43-6.08,2.33-9.09,1.55.37-1.72,1.67-2.9,2.71-4.25h0l4.75-5.88h0C40.46,74.31,46.31,69,54.18,68c9-2.16,17.55.09,26.25,2.92,2-13.74-5.66-13.53-7.58-24.85A14.92,14.92,0,0,1,77.36,33c2.35-2,1.42-4.85,1.79-7.33.56-3.73.72-7.51,1.25-11.24C81.3,7.94,86.91,4.57,93,6.84c5.15,1.07,10.34,7.18,15.49,3.62,8.59-5.21,14.41-5.13,22.09,1.63h0c8.52,6.43,4,10.85,1.68,18.86-.34,5.5,6,6.69,9.33,9.71s4.42,6.88,3.49,11.25a1.94,1.94,0,0,1-1.5,1c-4.46.1-9,0-13.45.05.9,1.41,1.56,2.46,2.23,3.5h0l3.93,5.18a.15.15,0,0,1,.11.2l.37.5v0l4.52,5.35c-3.91,3.09-8.28,2.85-13,2.78a20.75,20.75,0,0,0,4.86,6.14h0l.42.37s0,0,0,0c4.75,3.64,22.46,11.94,22.56.84a2.94,2.94,0,0,0-1.11-1.5c-1.74-1.5-3.42-3.12-3.51-5.54.29-4.3,3.69-8.46-.7-12a10.8,10.8,0,0,1-2.33-3.22A4.89,4.89,0,0,1,151,49.09c7.25-2.64,10.91-8.63,14.78-14.75,1,5.43-1,9.35-5.12,12.61,2.51.83,5.33-.42,7.28,2.16-4.76,2.52-8.83,5.84-14.23,6.38a1.52,1.52,0,1,0,.66,2.9c1.82-.56,4.25-1.86,5.08.82.69,2-1.08,2.15-2.33,2.64-2.12,2.83,2,4.15,4.09,4.68,4.87,1.33,6.31-2.81,6.21-6.89.31-5.65,5.53-7.79,10.06-4.68v0c2.9,3.19,1.65,8.58,7.42,4.27,3.34-5.2-4.41-6.25-2-14.94-11.53,3.62-3.95-2-5.67-6.47a9.82,9.82,0,0,0-2.7,1.55h0l-3.6,3.51C165.06,33,181.27,28,186.25,35.92h0l2.88,3h0l.4.37,0,0c.48.5,1,1,1.5,1.46,0,0,0,0,0,0,5.42,4.11,11.66,7.31,16.5,12.09h0l.78.76,0,0a76.54,76.54,0,0,1,7.34,8.44h0c3.21,3.87,4.6,8.57,5.76,13.32C223,81.22,222.78,88.07,217,91.68ZM151.41,79a25.56,25.56,0,0,1-14.17-4.57c13.38-4.75,7.55-8.91,1-17.22,2.64.31,5-.87,6.75.87,1,2,4.76,4.24,3.7,6.58C146,70.05,147.08,74.73,151.41,79ZM171.83,49.4c.14-.89.26-1.66.42-2.71l3.18,2.71Zm2.68-10ZM217,91.69h0v0Z"/><path class="cls-4" d="M221,77.34a82.59,82.59,0,0,0-5.5-15.43c-1.42-.5-4.1-3.84-4.18-5.23l-.09-.08c-1.71.32-1.95-.77-2-2.06-.38-.34-.73-.7-1.08-1.06l0,0-.78-.76h0c-6.21-4.3-13.17-7.56-18-13.53l0,0-.4-.37a2.87,2.87,0,0,1-2.88-3c-1.28-.54-3-.63-2.78-2.68-4.26.1-5.77-1.93-10.27,1.35-2.85,2.09-3.61,3.55-2.15,6.66,2.14-1,4-2.5,6.16-3.45,1.72,4.48-5.86,10.09,5.67,6.47-2.41,8.73,5.34,9.71,2,14.94-5.77,4.3-4.52-1.08-7.42-4.27v0c-4.54-3.11-9.74-1-10.06,4.68.1,4.08-1.34,8.23-6.21,6.89-2.09-.52-6.21-1.85-4.09-4.68,1.25-.49,3-.6,2.33-2.64-.83-2.68-3.26-1.38-5.08-.82a1.52,1.52,0,1,1-.66-2.9c5.4-.54,9.47-3.86,14.23-6.38-1.95-2.58-4.77-1.33-7.28-2.16,4.12-3.26,6.13-7.18,5.12-12.61-3.87,6.12-7.53,12.11-14.78,14.75a4.89,4.89,0,0,0-2.55,6.42,10.8,10.8,0,0,0,2.33,3.22c4.39,3.52,1,7.68.7,12,.09,2.42,1.77,4,3.51,5.54.46.4,1.05,1,1.11,1.49-.12,11.12-17.78,2.8-22.56-.83,0,0,0,0,0,0l-.4-.36c-1.91.24-2.47-.92-2.6-2.53-1.7-.79-2.09-1.91-3.08-3.67,4.24-1,8.77-.06,12.64-2.81-1.44-1.72-2.76-3.09-3.3-5.24l-.37-.5c-1.42-.74-4-3.36-4-5.38l-3.54-3.35c2.78-2.09,10.25-.33,14.1-.85s.5-6.62-.13-8.83c-4.1-7.18-12.92-3.93-11.17-15.6,5.42-5.87,3.06-10.15-1-15.72l-.07.06.06-.07C118.41,5.48,122,7.32,109.81,9.8c-.11.49-.13,1.37-.32,1.4-2.31.46-4.49,2.06-7,.71a56,56,0,0,0-11-4.8c-11.52-2.35-11,11.46-11.85,19-.73,2.19,1.61,7.65-2.3,6.9-1,3.13-3.76,5.27-3.3,8.77-2.42,2.25.06,4.15.52,6.36-.3,4.54,4,7.51,5.55,11.38.93,1.61,3,13.82-.75,12.2C77,70.55,73.83,70.4,72,68.49c-3.65,0-7.4-.29-11.11-.62-6.66-.39-12.34,3.44-18.46,5.28.19,1.21-.51,1.26-1.4,1.06l-.06,0c0,.28.12.69,0,.83-1.58,1.18-3.89,4.76-5.7,4.76l.06.09-.06-.09c-1,2.45-2.26,4.65-4.75,5.87l0,.09,0-.08c-.24.9-.95,2.49-.71,3.29,2.25.86,4.77-.42,7.09-.59.17-1.87,5.44-2.92,7.12-4,2.71-1.06,6,1.88,3.59,4.09h.11l-.13,0h0C47.27,90.27,45,91.87,42.61,92c-.07,2.17-2.51,3.54-3.67,5.26-2.69,2.29-2.47,5.59-3,8.79,4.09,1,7-2,10.35-3.67a42.55,42.55,0,0,1,6.95-3.25c6.61-2,5.05,8.48.55,9.92l.08.1-.09-.1c-.52,2.52-2.63,3.92-2.95,6.54l5.06-.82,0,0c2.18-2.62,5.47-3.11,8.46-4.32,9.77-2.86,11.08,11.22,1.28,15.94-1.89,1.1-3.44,2.79-6.05,2.89-4.29,1-8.53,2.45-12.86,2.71-2.43.15-5.43.32-7.77-1.46-3.71-1.25-8.32-2.09-10.77-5.38l0,.14v-.14l-2-1.31h0c-1.74-.44-3.66-.63-4-3a3,3,0,0,1-2.9-2.58l-2.52-.38c-.22-.53-.46-1.09-.69-1.66h-.72c-.31,3.85-1.79,7.76.86,11.11,0,3.51,2.73,5.5,4.42,8,3.8,6.49-5.78,6.95-10,8.46.59,2.71,3.4,4.14,3.87,6.9a3.15,3.15,0,0,1,.38.35h0l.07.12c.56.21,1.27.27,1.66.66,7.72,7,20.08,12,30.53,10.79,10.6,1.37,20.52-3.38,29.83-7.79,2.33-.85,9.4-7.93,9.29-1.94-.49,2.26-1.06,4.52-.11,6.82-1.25,8.35,1.41,16.27,3,24.38,2,10.16.77,20.56-2.11,30.42-4.41,12-19.89,11.66-30.48,11.37-1,0-2.3-.25-2.16-1.86-4.81-1.22-9-2.47-13.85-.5l-10.78,14.9c.45,2.19.94,5.58,3.38,6.48C39,246.91,45,246.64,51,246.55c7.41,0,14.66-2.57,21.77-3.94a45.46,45.46,0,0,1,8.32,2c7.48.73,16.17,6.3,20.41-3.47,1-2.8.71-5.61.81-8.4a39.23,39.23,0,0,1,3.67-15.65c.34-.73,1.14-1.23,1.74-1.85.33-.92.59-1.88,1-2.78a15.83,15.83,0,0,1,8.92-7.29c1-.35,2.15-.75,2.51.89l.06,0-.06.05c2.31.92.36,7.83,0,9.92-1.55,4.05-2.71,8.45-4.83,12.19a20.59,20.59,0,0,0-2.44,6.52c-1.63,5.35,3.85,12.39,9,10.2,10.07-.68,20.2-2.66,30,.59,7.12,2.23,14,5.47,21.62,5.36,11.44-.18,4.32-3.17,14.54-8.24,2.81-.93-1.94-6.41-2.44-8.31-.34,1.63-2,2.52-4,3,.41.81.81,1.63,1.22,2.46a16.53,16.53,0,0,0-5.2,5.36c-4.53.6-10.39.59-14.3-1.27a65.23,65.23,0,0,0-26-5.41c-5.37-.16-11.13,1-16.65,1.76-4.15.42-2.45-6.64-1.13-9.19,4.32-9.09,7.37-16.81,6.49-25.48l-5.51.53-.21-.29,1.84-5.21a10.72,10.72,0,0,0-6.48-.28,105.33,105.33,0,0,1-9.07,8.14c-8.37,6.06-9.36,20-9.62,30.19-.2,2.56-1.36,3.19-2.31,3a52.32,52.32,0,0,1-12.15-2.21,31.44,31.44,0,0,0-17.52-.29c-9.84,2.44-17.56,3.3-26.66,2a5.57,5.57,0,0,1-2.84-.93c-.69-.85-.36-4.75.34-6.45,2.43-4.66,10.65-8.14,15.51-4.72l2-1.9-.92,2.45c9.76,3.57,21.91,1.58,30.82-3.14C90.53,222.79,93,214.59,94.26,207c2.33-11.33.85-23.24-2.41-34.19.45-9.42-3.57-20.86,4.44-28,5.58-7.89-9.65-3.17-12.4-1.15-7.72,4.48-15.36,9.73-24.07,12-8.9,2.34-19.65,2.65-27.74-2.58,1.6-.27,7.35-2,6.86-4.37.24-5.94-4.06-8.66-8.89-11l.2-.55a31.62,31.62,0,0,1,6.38-.36c15.94,2.79,27,2,36.1-5.72,12.29-11,16.06-29.62,32.48-35.82-9-17.34-8.08-37.7-3.64-56.17,1.47-3.76,4.57-5.07,8.29-5.12,3,.32,8.24-.46,8.86,3.51.29,4.39-5.27,4.19-8.26,5.23-15.6,5.36,6.16,22.09,10,5.89.55-1.52-.48-4.13,1.75-4.44,1.85-.17,2,1.67,2.25,3,1,6.74-3.81,12.11-8.84,15.88-4.59,4,10.4,15.38,13.65,17.67l.78-.82-.64.91.52.37,1.76-1.53-1.3,1.84C145,91.39,164.7,98,172,115.42l-.07,0c4.29,14.1.83,28.78-6.86,40.93A228.48,228.48,0,0,0,145,198.24l.17.09-.17-.09c-1.3,2.49-1.31,7.63-5.16,6.95-6.2,11.1,0,28.15,14.42,27.84,4.74-.12,9.41-2.2,14-3l-1.93-4.65c-5.82,1.09-11.48,3.37-17.42,1.32-3.63-1-4.39-4-5.52-6.69-2.58-6.69,1.21-14.72,5.13-19.94-.44-2.17,1.21-3.57,2.06-5.21,2.36-4.54,4.91-9,7.45-13.42.33-.58,1.05-.93,1.59-1.39h0v0c13.09-22.47,32.15-40.18,17.47-67.22a4.5,4.5,0,0,1-2-5.48c.53-1.07.45-2.81,2.31-2.85.4-3.2,3.09-4.3,5.42-5.57,2.4-1,4.45,1.54,6.25,2.78,4.5,3.35,10.22,3.8,15,.37a7.71,7.71,0,0,1,2.7-.85c.84-1.77,1.9-3.29,4-3.67.81-2.16,4-5.26,6.22-5.87C220.28,86.35,223.17,84.4,221,77.34ZM50.09,94.81c-1.79.83-3.39,1.76-5,2.67.52-.53,3.63-2.63,4.29-3.1l1.87,0A8.92,8.92,0,0,0,50.09,94.81ZM16.89,121l-.49.08,1.67-1.41Zm140.23-52.9c-.18-.08,0-.23,0-.34a2.11,2.11,0,0,0,.19.23A1.28,1.28,0,0,1,157.12,68.07ZM145.43,225.68c.11.16,0,.26-.1.4C145.24,225.88,145.14,225.76,145.43,225.68ZM183.15,93.57c-1.82.5-3.44.59-5.14,2.37a8.81,8.81,0,0,1-1.68,4.83c-1.48,2.08-1.71,2.2-4,1-5.88-3.2-10.38-8.22-11.27-15.06,3.76-.6,12,.17,10.55-5.6-.12-1.22-.11-3.14.59-3.61,1.39-.92,2.37.81,3.14,1.75C177.15,82.13,186.21,90.58,183.15,93.57Zm10.72-9.71c-.1,1-.89,1.42-1.61.68-3.46-4.6-6.87-9.23-10.28-13.87-.44-1.14.1-2.5.06-3.72,1.17.38,2.82.4,3.41,1.21,3,4.73,7.45,9,8.61,14.57l-.17,0A4.41,4.41,0,0,1,193.87,83.86Z"/><path class="cls-5" d="M224.25,93.82l-3.67,3.67Z"/><path class="cls-6" d="M210.21,46.32l3.41,3.25Z"/><path class="cls-5" d="M225.37,92.39l-1.13,1.44Z"/><path class="cls-5" d="M220.58,97.49,219,98.92Z"/><path class="cls-7" d="M83.05,189.83l-.21-2.24C82.9,188.34,83,189.09,83.05,189.83Z"/><path class="cls-6" d="M221.31,58.71l1.05,1.58Z"/><path class="cls-8" d="M40.35,123.56l2.27.62Z"/><path class="cls-6" d="M220.22,57.24l1.09,1.48Z"/><path class="cls-8" d="M33.14,120.56l1.77.84Z"/><path class="cls-9" d="M20.91,110.75c.38.37.77.73,1.16,1.09C21.68,111.48,21.29,111.12,20.91,110.75Z"/><path class="cls-5" d="M186.51,119.11l.39,1.47Z"/><path class="cls-5" d="M218.41,99.35l-1.1,1.09Z"/><path class="cls-5" d="M193.87,111.41l-1.11-.28Z"/><path class="cls-6" d="M55.78,61.4l1.49-.21Z"/><path class="cls-5" d="M209.6,107.38l-.84.68Z"/><path class="cls-6" d="M188.26,28.74l.83.69Z"/><path class="cls-10" d="M58,122.3l.83-.54Z"/><path class="cls-6" d="M189.08,29.42l.75.72Z"/><path class="cls-8" d="M159.47,219.49l1.06-.41Z"/><path class="cls-6" d="M66.73,40l.09-1.09Z"/><path class="cls-7" d="M81.1,181.36l-.3-1.19Z"/><path class="cls-5" d="M226.28,91.23l.21.2-.51.15Z"/><path class="cls-8" d="M26.23,115.81l.62.46Z"/><path class="cls-5" d="M185.72,116.58c.13.28.26.55.38.82C186,117.13,185.85,116.86,185.72,116.58Z"/><path class="cls-8" d="M29.15,118l.64.46Z"/><path class="cls-6" d="M155.05,38.56l.48-.72Z"/><path class="cls-5" d="M186.17,118l.31.84Z"/><path class="cls-7" d="M81.43,182.46l-.27-.82Z"/><path class="cls-9" d="M22.08,111.82l.37.41Z"/><path class="cls-5" d="M185.39,115.46c.09.14.27.24.05.36Z"/><path class="cls-8" d="M27.86,117l.46.37Z"/><path class="cls-9" d="M20.09,110.05l.5.43Z"/><path class="cls-5" d="M208.52,108.12l-.48.33Z"/><path class="cls-7" d="M80.61,179.18c-.06-.17-.12-.33-.17-.49C80.5,178.85,80.55,179,80.61,179.18Z"/><path class="cls-5" d="M218.77,99l-.36.34Z"/><path class="cls-8" d="M31.83,119.55l.5.4Z"/><path class="cls-8" d="M25.62,115.15l.49.41Z"/><path class="cls-11" d="M188.69,225.33l.38.46Z"/><path class="cls-11" d="M189.16,226.05l.31.35Z"/><path class="cls-10" d="M56.91,122.74l.41-.27Z"/><path class="cls-10" d="M55.81,123.12l.43-.25Z"/><path class="cls-6" d="M154.71,39l.34-.41Z"/><path class="cls-10" d="M59.82,120.2l-.35.07A.61.61,0,0,1,59.82,120.2Z"/><path class="cls-10" d="M58.75,120.61l-.41.28Z"/><path class="cls-8" d="M159.08,219.64l.4-.15Z"/><path class="cls-12" d="M191.3,30.51l-.73-.37Z"/><path class="cls-4" d="M217,91.69h0v0Zm-10.23,9.54h0ZM185.52,234.31a17.41,17.41,0,0,0-6.87-7.69,2.06,2.06,0,0,1-.4-.73c-6.85-1.15-3.83-2.17-11.91-.47l1.93,4.65c-4.56.76-9.23,2.84-14,3-14.44.31-20.62-16.74-14.42-27.84-2.49-.18-5-.42-7.46-.52-1.9-.07-2.21-1.17-2.24-2.75-.71-10.44,4.39-19.54,8.58-28.7.76-2.34,2.78-4.71,1.25-7.12-.71.35-1.73.5-2.09,1.07-6.68,11.61-12.54,23.92-22.36,33.1a10.72,10.72,0,0,1,6.48.28l-1.84,5.21.21.29,5.51-.53c.88,8.67-2.17,16.39-6.49,25.48-1.33,2.55-3,9.61,1.13,9.19,5.52-.75,11.28-1.92,16.65-1.76a65.23,65.23,0,0,1,26,5.41c3.9,1.86,9.77,1.87,14.3,1.27a16.53,16.53,0,0,1,5.2-5.36c-.41-.83-.81-1.65-1.22-2.46C183.54,236.83,185.18,235.94,185.52,234.31ZM179.76,93.68a10.93,10.93,0,0,1-2-.52,11.25,11.25,0,0,1,.24,2.78,8.21,8.21,0,0,1,3.62-2.08C181,93.83,180.35,93.72,179.76,93.68Zm-2.34,10.82h0Zm-.34,8.33Zm-2.57-73.48Zm-2.64,75.85.09.27.07,0C172,115.35,171.92,115.27,171.87,115.2Zm-26.83,83h0l.17.09ZM133.11,76.57s0,0,0,0Zm-3.23,4.53.46.31,1.3-1.84Zm.73-69h0l-.06.07.08-.06Zm-1.39,68.55.14.09.64-.91Zm-9.13,125.43h0l0,0Zm-24.3,2.74A11.38,11.38,0,0,1,94.26,207c-1.25,7.59-3.73,15.8-11.08,19.45-8.91,4.72-21.06,6.71-30.82,3.14l.92-2.45-2,1.9c-4.82-3.41-12.79,0-15.42,4.47-.72,1.7-1.23,5.8-.43,6.7,2.36,1.41,7.69,1.42,10.83,1.52,8,.56,18.3-3.37,27-3.71,7.12-.1,14.24,3.56,21.3,3.6.89,0,1.91,0,2.28-2.73.37-10.72,1-21.55,8.06-29.35C101.52,211.59,98.44,211.35,95.79,208.81ZM37.67,155.25a5.83,5.83,0,0,1-3.17-2.88,21,21,0,0,1-2.42.65c3.74,2.62,8.39,3.68,12.8,4A74.13,74.13,0,0,1,37.67,155.25Zm16.75,68.86h0Zm-5-129.73c-.68.48-3.75,2.56-4.29,3.1a36.7,36.7,0,0,1,6.16-3.13Zm-1.87-5.83h0l.13,0ZM42.6,92h0Zm-5.76-3.58a0,0,0,0,1,0,0v0Zm-1.63-8.58h0a.31.31,0,0,1,.07.09Zm-4.71,6,0-.09h0Zm-8.33,35.08h0Zm-2.91-2.58s0,0,0,0Z"/><path class="cls-13" d="M97.13,143.83c-8.93,7.75-4.95,18.59-5.28,29-1.89-8.29-.33-21.75-.64-31.48-11.49,5.76-21.51,13.46-35,16.07C43.11,159.77,29,156.8,19,147c10.54-3.77,8.16-11.95,2.4-19.36.79.64,2.64,1.89,3.51,2.45l3-4.49H28l-2,5c5.57,2.34,11.26,5.34,17.51,6.07-4.39.2-8.85-.28-13.2.43l-.2.55c4.83,2.34,9.13,5.06,8.89,11,.5,2.41-5.27,4.11-6.86,4.37,12.3,7.53,28,4,40-2.43,4-2.14,7.79-4.79,11.81-7C86.55,142.07,99.5,136.83,97.13,143.83Z"/><path class="cls-14" d="M159.43,59.21c.69,2-1.08,2.15-2.33,2.64l1.75-2L155.9,60l1.85-1.29c0-.14-.06-.27-.1-.41l-4.74,1.25c3.06,6.14-4.7,11.1,2.53,16.06a3,3,0,0,1,1.29,3.46c-.28,1,0,2.55-.62,3A8.65,8.65,0,0,1,149.89,84c-4.8-.72-14-2.71-16.37-7.11,4.75,3.64,22.46,11.94,22.56.84a2.94,2.94,0,0,0-1.11-1.5c-1.74-1.5-3.42-3.12-3.51-5.54.29-4.3,3.69-8.46-.7-12a10.8,10.8,0,0,1-2.33-3.22A4.89,4.89,0,0,1,151,49.09c7.25-2.64,10.91-8.63,14.78-14.75,1,5.43-1,9.35-5.12,12.61,2.51.83,5.33-.42,7.28,2.16-4.76,2.52-8.83,5.84-14.23,6.38a1.52,1.52,0,1,0,.66,2.9C156.17,57.83,158.6,56.53,159.43,59.21Z"/><path class="cls-14" d="M89.72,201.6c-.17,4.37-1.54,8.72-2.66,13-1.31,5-5.4,7.3-9.72,9.15-6.66,2.85-13.75,2.31-20.76,2.22-1,0-2.31-.25-2.16-1.87,8.63,2.92,18,1.18,25.94-2.8,10-5.81,9.47-24.43,8.69-34.66-.49-4.14-2-8.14-2.87-12.26-1.62-7.71-1.23-15.39-.83-23.22-21,14.17-50.85,19.46-70.39.1.56.21,1.27.27,1.66.66,7.73,7,20.08,12,30.53,10.79,13.51,1.55,25.81-5.72,37.12-12,4.31-.74,0,6.7,1.89,9.13a2.38,2.38,0,0,1,0,1.27c-1.42,7.93,1.73,15.42,3,23.11C90.66,190,89.94,195.82,89.72,201.6Z"/><path class="cls-15" d="M138.2,57.16c2.64.31,5-.87,6.75.87,1,2,4.76,4.24,3.7,6.58C146,70.05,147.08,74.73,151.41,79a25.56,25.56,0,0,1-14.17-4.57C150.61,69.63,144.79,65.47,138.2,57.16Zm7.1,15.67-3,1.63V75l4.46,1.52C146.16,74.94,145.78,74,145.3,72.83Zm-2-13.54-.66.57L146.26,64l.61-.53Z"/><path class="cls-14" d="M190.5,242.36c-3.77,1.66-7,3.17-8.66,7.09-3,3.3-16.94,1.87-21-.23a60.53,60.53,0,0,0-37.05-3.53c-7.83,1.6-12.24-2.29-11.63-10.23,1.57-10,9.43-18.75,7.9-29.38,2.31.92.36,7.83,0,9.92-1.55,4.05-2.71,8.45-4.83,12.19a20.59,20.59,0,0,0-2.44,6.52c-1.63,5.35,3.85,12.39,9,10.2,10.07-.68,20.21-2.66,30,.59,7.12,2.23,14,5.47,21.62,5.36,11.44-.18,4.32-3.17,14.54-8.24,1-.52,1.25-1.13.79-2-1.47-2.84-2.9-5.72-4.43-8.52-1.46-3.12-4.46-3.76-6.07-6.18h0s0,0,0,0C185.68,228,187,236.39,190.5,242.36Z"/><path class="cls-14" d="M102.92,236.39c.35,14.8-12.44,11.33-22.21,8.62a25.73,25.73,0,0,0-14.37-.21c-9.51,2.43-19.16,3.62-29,2.13-8.77-.72-9.34-8.64-7.19-15.16.7,2.35-.8,4.53-.38,6.75s.93,5.58,3.38,6.48c11.77,3.42,24.11,1.2,35.79-1.41,3.78-1.92,7.44-.18,11.25.68.29.07.56.35.83.35,3.86,0,7.27,2,11.12,2.32,8.4.6,10.75-7.36,10.1-14.19.56-6,1-13.05,5.41-17.5A40.2,40.2,0,0,0,102.92,236.39Z"/><path class="cls-14" d="M72.35,116.26c.18,7.06-5.9,9.37-10.81,12.77-4.88.55-9.94,2.77-14.86,3-2.43.15-5.43.32-7.77-1.46-3.71-1.25-8.32-2.09-10.77-5.38,13.59,7.34,27.55,8.57,40-1.67,2.56-1.93,4.22-4.56,3.47-8.08-1.89-8.61-10.72-2.59-15.75-.63,2.18-2.62,5.47-3.11,8.46-4.32C68.74,108.66,72.2,112.05,72.35,116.26Z"/><path class="cls-14" d="M145.11,51.91a1.94,1.94,0,0,1-1.5,1c-4.46.1-9,0-13.45.05.9,1.41,1.56,2.46,2.23,3.5h0l-3.54-3.35c2.78-2.09,10.25-.33,14.1-.85s.5-6.62-.13-8.83c-4.1-7.18-12.92-3.93-11.17-15.6,5.42-5.88,3.05-10.15-1-15.73,8.52,6.42,4,10.86,1.68,18.86-.09,2.79,1.4,4.79,3.84,6.17C142,39.81,147,45,145.11,51.91Z"/><path class="cls-14" d="M178.24,225.89h0c-1.08-.19-2.35-.09-3.21-.64-7.7-2.69-17.49,4.87-26.11,1.49-3.63-1-4.39-4-5.52-6.69-1.76-4.29-.67-8.45,1-12.51,1.2-2.22,1.69-5.21,3.8-6.71-1.14,2.62-2.26,5.25-3.44,7.85-4.34,8.55,1.6,20.88,12.24,18.16C163.87,225.47,171.74,221.27,178.24,225.89Z"/><path class="cls-14" d="M18.93,141.43c-2.63,1-5.39,1.62-8.3,2.47.59,2.71,3.4,4.14,3.87,6.9-2.5-2.23-4-5.08-5.53-8.37,5-.17,15.57-.89,9.86-8.06A51.09,51.09,0,0,1,15.41,129c-2.11-3.81-1.72-7.9-.87-11.94.62-4,3.37-.2,4.72,1.25h0l0,0h0l-2.52-.38c-.22-.53-.46-1.09-.69-1.66h-.72c-.31,3.85-1.79,7.76.86,11.11C15.76,132.51,26.25,137.68,18.93,141.43Z"/><path class="cls-14" d="M57.59,103c-.44,2.47-1,5-3.82,6.1,1.66-2.65,4.22-5.85,2.11-8.87-3.69-1.6-7.62,2.88-11,4.14-2.38.71-10.41,6.69-10,1.15A18.07,18.07,0,0,1,42.61,92c-.06,2.18-2.51,3.54-3.67,5.27-2.69,2.29-2.47,5.59-3,8.79,4.09,1,7-2,10.35-3.67C49.59,100.48,58.33,95.48,57.59,103Z"/><path class="cls-14" d="M109.81,9.8c-.11.49-.13,1.37-.32,1.4-2.31.46-4.49,2.06-7,.71a56,56,0,0,0-11-4.8c-11.52-2.35-11,11.46-11.85,19-.73,2.19,1.61,7.65-2.3,6.9,2.35-2,1.42-4.85,1.79-7.33,1-9,.67-22.81,13.87-18.83a62.66,62.66,0,0,1,8.5,3.78C104.53,12.51,107.08,11.44,109.81,9.8Z"/><path class="cls-14" d="M81.31,70.45a1.31,1.31,0,0,1-1.93,1.26C77,70.54,73.83,70.4,72,68.49L80.43,71c.17-4.73.9-9.5-2.43-13.7-5.86-6.74-7.79-17.67-.64-24.26-.79,3-3.87,5-3.2,8.46-1.81,2.12-1.08,3.68.11,5.68C75.64,57.76,82.56,55.55,81.31,70.45Z"/><path class="cls-14" d="M175.31,155a2.33,2.33,0,0,1-.4.36c.35-1.11.42-2.46,1.11-3.29,4.77-6.18,5.82-14.09,5.4-21.67a27.75,27.75,0,0,0-3.32-12.6c-.78-1.43-.71-3.33-1-5C184.05,126.21,184.61,142,175.31,155Z"/><path class="cls-14" d="M184.88,59.21c3.34-5.19-4.41-6.26-2-14.94-11.53,3.62-3.95-2-5.67-6.47a9.43,9.43,0,0,0-2.7,1.55c.1-.77.19-1.53.3-2.41,1.46.32,3.24-.82,3.76.92,1.29,2-4,7.78.39,7,1.47-.88,5.26-2.29,4.33.88C180.87,50.39,190.56,56,184.88,59.21Z"/><path class="cls-14" d="M177.46,55c-3.87-.93-9.37-.92-9.24,4.5a7.13,7.13,0,0,1-2.68,7.17c-2.91,1.75-10.78.57-9.64-4.13,0-.24.76-.42,1.17-.63-2,2.85,2,4.12,4.12,4.66,4.87,1.33,6.31-2.81,6.21-6.89C167.71,54,172.93,51.85,177.46,55Z"/><path class="cls-14" d="M206.75,101.23h0C200.08,107.67,191.37,105,185,100c-2.68-2-5.37,3.16-7.51,4.49h0c.4-3.21,3.09-4.3,5.42-5.58,2.4-1,4.45,1.54,6.25,2.78,4.5,3.35,10.22,3.8,15,.37C204.73,101.52,205.84,101.5,206.75,101.23Z"/><path class="cls-14" d="M217,91.68v0c3.3-5.35,6.2-7.29,4.06-14.36a70.39,70.39,0,0,0-3.64-11.17A4.46,4.46,0,0,1,216.3,63c2.89,3.56,3.84,7.93,5,12.19C223,81.22,222.78,88.07,217,91.68Z"/><path class="cls-14" d="M174.45,156.1c-4.85,7.83-9.67,15.67-14.59,23.46,1.43-4.06,4-7.51,6.17-11.22A57,57,0,0,1,174.45,156.1Z"/><path class="cls-14" d="M71.18,68.27c-3.42.67-6.88-.37-10.33-.4-6.64-.41-12.28,3.43-18.39,5.24C50.4,66.94,61.63,66.12,71.18,68.27Z"/><path class="cls-14" d="M54.42,224.12c-12.17-3.64-15.37-.62-24.11,7.4,1.79-4.49,6.75-7.31,11-9A15.46,15.46,0,0,1,54.42,224.12Z"/><path class="cls-14" d="M183.38,33.22c-.48.05-1,.28-1.42.13a8.61,8.61,0,0,0-8.76,1.24c-2.85,2.09-3.61,3.55-2.15,6.66l3.46-1.9h0l-3.6,3.51C165.75,35,177.19,29.16,183.38,33.22Z"/><path class="cls-14" d="M159.63,180.09q-5.55,10-11.08,20l0,0h0c-.44-2.17,1.21-3.57,2.06-5.21,2.36-4.54,4.91-9,7.45-13.42C158.37,180.9,159.09,180.55,159.63,180.09Z"/><path class="cls-14" d="M128.29,70.44c.89,1.42,1.56,2.52,2.24,3.61-1.7-.79-2.09-1.91-3.08-3.67,4.24-1,8.77-.06,12.64-2.81-1.44-1.72-2.76-3.09-3.3-5.24v0l4.52,5.35C137.39,70.75,133,70.51,128.29,70.44Z"/><path class="cls-14" d="M207.49,52.77C202,48.7,195.27,46.11,191,40.68,196.41,44.79,202.65,48,207.49,52.77Z"/><path class="cls-14" d="M120.09,206.07h0c-5.46-1.83-8.86,6.12-12.4,9.16a14.72,14.72,0,0,1,9.89-10C118.53,204.83,119.73,204.43,120.09,206.07Z"/><path class="cls-14" d="M48.44,87c0,.53-.59,1-.91,1.54,1-6.8-7.73-.77-10.7-.12.13-1.87,5.45-2.94,7.13-4C45.9,83.65,48.61,85.17,48.44,87Z"/><path class="cls-14" d="M55.87,114.77c-9.88,4.08-5.9-.42-2.11-5.72-.52,2.52-2.63,3.92-2.95,6.54Z"/><polygon class="cls-14" points="177.47 54.95 177.47 54.95 177.46 54.95 177.47 54.95"/><path class="cls-14" d="M184.86,59.25a2.65,2.65,0,0,1-3.35,2.45c-3.39-.62-2.94-4.2-4-6.74C180.36,58.17,179.15,63.45,184.86,59.25Z"/><path class="cls-14" d="M36.84,88.42c-3,.43-6.08,2.33-9.09,1.55.37-1.72,1.67-2.9,2.71-4.25-.24.9-.95,2.49-.71,3.29C32,89.87,34.52,88.59,36.84,88.42Z"/><path class="cls-14" d="M177.15,105.14c-2.23,2.66-1.68,4.87-.06,7.7h0a4.5,4.5,0,0,1-2-5.48c.53-1.07.45-2.82,2.33-2.85A3.12,3.12,0,0,1,177.15,105.14Z"/><path class="cls-14" d="M217,91.69l-6.22,5.87C211.57,95.4,214.74,92.3,217,91.69Z"/><path class="cls-14" d="M40.91,75.08c-1.58,1.18-3.89,4.77-5.7,4.76h0l5.72-5.58C40.93,74.53,41.05,74.94,40.91,75.08Z"/><path class="cls-14" d="M35.21,79.84c-1,2.45-2.27,4.65-4.76,5.88l4.75-5.88Z"/><path class="cls-15" d="M171.83,49.4c.14-.89.26-1.66.42-2.71l3.18,2.71Z"/><path class="cls-14" d="M136.31,61.63c-1.61-.45-3.86-3.42-3.93-5.18Z"/><path class="cls-14" d="M215.56,61.92c-1.44-.49-4.12-3.84-4.21-5.24Z"/><path class="cls-14" d="M47.53,88.55C47.27,90.28,45,91.88,42.6,92h0Z"/><path class="cls-14" d="M26.16,123.86c-1.74-.44-3.67-.64-4-3Z"/><path class="cls-14" d="M210.76,97.56l-4,3.68C207.58,99.47,208.65,97.94,210.76,97.56Z"/><path class="cls-14" d="M186.25,35.92h0c-1.28-.54-3-.63-2.78-2.68Z"/><path class="cls-14" d="M189.13,38.89a2.87,2.87,0,0,1-2.88-3h0Z"/><path class="cls-14" d="M133.15,76.58c-1.92.25-2.49-.91-2.62-2.53Z"/><path class="cls-14" d="M22.18,120.89a3,3,0,0,1-2.92-2.59h0Z"/><path class="cls-14" d="M211.26,56.6c-1.71.32-1.95-.77-2-2.06Z"/><path class="cls-14" d="M41,74.21l1.4-1.06C42.58,74.36,41.88,74.41,41,74.21Z"/><path class="cls-16" d="M78.9,175.13c.24.49.48,1,.71,1.47C79.38,176.11,79.14,175.62,78.9,175.13Z"/><path class="cls-17" d="M183.15,93.57c-1.73.68-3.52.1-5.38-.41a9.27,9.27,0,0,1-1.44,7.61c-1.48,2.08-1.71,2.2-4,1-5.88-3.2-10.38-8.22-11.27-15.06,3.76-.6,12,.17,10.55-5.6-.12-1.22-.11-3.14.59-3.61,1.39-.92,2.37.81,3.14,1.75C177.15,82.13,186.21,90.58,183.15,93.57Z"/><path class="cls-17" d="M194.76,83.76c.43,8.78-12.18-12.67-13.84-14.42C180.8,57.46,195.37,80.16,194.76,83.76Z"/><path class="cls-17" d="M208.56,73.8c1,9.2-13.59-12.57-15.45-14.32C192.25,47,209,70,208.56,73.8Z"/><path class="cls-14" d="M157.36,68c-.29.2-.44,0-.19-.23A2.11,2.11,0,0,0,157.36,68Z"/><path class="cls-14" d="M145.48,225.83a1.38,1.38,0,0,1-.15.25c-.09-.2-.19-.32.1-.4C145.44,225.73,145.49,225.79,145.48,225.83Z"/><path class="cls-2" d="M143.31,59.29l3.56,4.2-.61.53-3.61-4.16Z"/><path class="cls-2" d="M156.9,220.23c13.42-6.28,33.34-1.75,37.8,16.36,1.08,3-2.18.8-2.18.8l-2-7.59L186,224.27l-6.47-3.89-7.65-1.3Z"/><path class="cls-13" d="M185.52,234.31c-.72,4.78-14.07,3.18-14.22,3.08L166,224.5C172.14,222.31,185.23,224.75,185.52,234.31Z"/><path class="cls-13" d="M41.33,222.57l-12.15,16.8C27.77,230.11,36.19,223.35,41.33,222.57Z"/><path class="cls-1" d="M103.38,102.82l6,35.94s27.18,12.46,28.27,12.32,20.67-8.2,20.67-8.2l8.34-19.27c-7.1-20.37-3.81-15.15-23.34-24.14L120.5,96.38Z"/><path class="cls-3" d="M187.85,35.92c-19.53,4.53-1.24,16-17,15.1l-2.91-11.55,2.91-7.6,5.28-2.09,8.74.36"/><path class="cls-3" d="M186.73,33.9l-3.26-.66-4.56.66-5.11,4.3,1.63,9.74,7.45-3.67s-.31-8.12,3.85-2.82c5.6,7.14,11.36,4.16,11.36,4.16"/><path class="cls-4" d="M185.29,40s-8.64-3.24-2.1,11.46l3.06-.67"/><path class="cls-1" d="M93.06,149s-4.84,8.83-.53,26.84,16.55,0,16.55,0"/><path class="cls-1" d="M59.82,155.6l-.1,0-.09,0A52.34,52.34,0,0,1,44.88,157c-4.41-.3-9.06-1.36-12.8-4a21,21,0,0,0,2.42-.65c2-.68,4.63-1.9,4.44-3.72Z"/><path class="cls-1" d="M28.12,134.41a3.62,3.62,0,0,1-1.58-.88C26.44,133.32,27.08,133.69,28.12,134.41Z"/><path class="cls-1" d="M63.14,136.32a32.7,32.7,0,0,0,5.39-2.19L67,135l-20.1,12s-6.95,0-9.5-4.06a30.57,30.57,0,0,0-6-6.1c-1.22-1-2.39-1.87-3.27-2.49a24.66,24.66,0,0,0,2.37.72c2.12.65,4.17,1.18,6.13,1.61C48.63,139.34,57.5,138.05,63.14,136.32Z"/><path class="cls-1" d="M68.54,134.12l1.79-1.07-.08.06A15.37,15.37,0,0,1,68.54,134.12Z"/><path class="cls-13" d="M74.46,129.28s-14.84,16.81-42.13,6.39"/><path class="cls-13" d="M34,136.12s-3.35-.82-2.2,1.13,0,7.77,0,7.77l-6.48-11.08-3.17-4.3h7.29"/><path class="cls-13" d="M35.64,141.18s-3.22-4-5-5.26-3.3,3.15-3.3,3.15l4.8,4.06"/><rect class="cls-1" x="175.63" y="75.87" width="4.6" height="19.32" rx="0.18" transform="translate(-15.38 125.59) rotate(-37.38)"/><path class="cls-3" d="M165.42,40.68s-4.7,8.66-14,12.09c0,0-1.11,1,1,4.9l9-.53L166.18,54l7.45-10.48"/><path class="cls-17" d="M193.6,60s-1.86-2.33,0-3.75"/><path class="cls-17" d="M207.32,70.2s2.89,4,.93,5.7c0,0-1.17,1.72-5.88-3.85a141.31,141.31,0,0,1-9.6-13.33"/><path class="cls-17" d="M181.8,65.93s-3,1.63.61,5.49"/><path class="cls-17" d="M186.9,69.35s9.43,12,9.74,13.86-1.54,3.28-2.73,2.65c-2.75-1.45,0-5.31,0-5.31"/><path class="cls-17" d="M180.6,67.73s-1,1.3,6.3,10.36"/><path class="cls-3" d="M152.93,64s-2.06,3,7,13S146,82.73,146,82.73l6.81-5.68"/><polyline class="cls-3" points="151.41 64.47 152.73 65.13 154.01 70.72 154.4 75.75 152.91 76.62 149.93 75.9 149.36 70.54"/><path class="cls-4" d="M209.3,54.54S225.55,68.78,222,84.07"/><path class="cls-1" d="M103.5,36.2S93,44.34,99,75.34"/><path class="cls-18" d="M135.71,140.51a3.54,3.54,0,0,1-.57,0,10.25,10.25,0,0,1-1.1-.28c-.67-.18-.85-.21-.86-.21s-.19,0-1,0-1,0-1.1,0c-.62-.08-2.06-.51-2.06-2.9v-1.38c0-3.85-.16-7.89-1.91-11.4a4,4,0,0,0-1.2-1.39c-.3-.2-.88-.56-1.85-1.09l.25,10.33a5.46,5.46,0,0,0,.12,1.28h0a3.23,3.23,0,0,0,.58.53,7.78,7.78,0,0,1,1.21,1,2.77,2.77,0,0,1,.91,1.9,2.17,2.17,0,0,1-1.66,2.09,5.54,5.54,0,0,1-1.36.27h-.48a9.41,9.41,0,0,1-1.5-.28,7.88,7.88,0,0,0-.9-.19h-.07l-.76.08c-.38,0-.69.07-1,.09H119a7.26,7.26,0,0,1-2-.42,2.37,2.37,0,0,1-1.9-2,1.94,1.94,0,0,1,.36-1.3,3.36,3.36,0,0,1,.66-.71,5.52,5.52,0,0,1,.72-.52l.4-.25a2.16,2.16,0,0,0,.66-.54h0a1.59,1.59,0,0,0,0-.52l-.81-14.3-.08,0a26.28,26.28,0,0,1-3.64-2.06,3.27,3.27,0,0,1-1.53-2.41c-.1-1.11.29-3,4.09-3.46,3.64-.42,7.38-.73,11.09-.92,1.15-.06,2.31-.1,3.46-.14a10,10,0,0,1,3.84.57,3.27,3.27,0,0,1,2.18,3.52,6.23,6.23,0,0,1-2.65,4.51,23.35,23.35,0,0,1-2.35,1.62l.8.41.39.19a4.15,4.15,0,0,1,1.69,1.61,5.13,5.13,0,0,1,.69,2.18c0,.35.06.78.11,1.3s.11,1.2.17,1.94c.12,1.44.23,2.95.35,4.52.08,1.11.16,2.37.16,2.53a1.46,1.46,0,0,0,.05.35l.7.56a6.51,6.51,0,0,1,1.2,1.21,3,3,0,0,1,.8,2.05,2.21,2.21,0,0,1-1.68,1.89A4.86,4.86,0,0,1,135.71,140.51ZM124,117a7.13,7.13,0,0,0,2.36.48h.07a3.64,3.64,0,0,0,2.5-1.56,3.12,3.12,0,0,0,.81-1.65v0a.73.73,0,0,0-.2-.07,11.3,11.3,0,0,0-3-.17h-.07a8.73,8.73,0,0,0-2.27.31.49.49,0,0,0-.16.07,3.64,3.64,0,0,0,0,.84Z"/><path class="cls-19" d="M128,118.93l.89.57,1.06.54c.52.25,1,.48,1.28.65a2.83,2.83,0,0,1,1.15,1.08,3.69,3.69,0,0,1,.49,1.59c0,.7.16,1.77.28,3.18s.23,2.88.34,4.42.16,2.33.16,2.39a1.53,1.53,0,0,0,.48,1.29l.75.6a4.85,4.85,0,0,1,1,1,1.82,1.82,0,0,1,.52,1.09c0,.35-.3.61-.79.77a2.62,2.62,0,0,1-1.19.17c-.08,0-.39-.09-.92-.24s-.87-.22-1-.24-.52,0-1.09,0h-.94q-.9-.11-.9-1.59c0-.54,0-.81,0-1.35,0-3.87-.18-8.07-2-11.75a5.14,5.14,0,0,0-1.59-1.82,33.71,33.71,0,0,0-3.23-1.82c-1.12-.57-1.68-.84-2.82-1.37s-1.7-.85-2.85-1.39a24.79,24.79,0,0,1-3.36-1.91,2,2,0,0,1-1-1.44c-.1-1.1.85-1.79,2.88-2,4.65-.54,9.43-.88,14.14-1a8.52,8.52,0,0,1,3.28.47,2,2,0,0,1,1.32,2.18,4.92,4.92,0,0,1-2.12,3.5A20.39,20.39,0,0,1,128,118.93Zm-5.93.59q.15,5.91.28,11.81a5.41,5.41,0,0,0,.22,1.71,3,3,0,0,0,1,1.07,6,6,0,0,1,1,.87,1.59,1.59,0,0,1,.54,1c0,.41-.25.69-.74.85A3.66,3.66,0,0,1,123,137a9.1,9.1,0,0,1-1.26-.24,8.86,8.86,0,0,0-1.1-.22,8.13,8.13,0,0,0-1,.08,8.17,8.17,0,0,1-1.24.09,6.18,6.18,0,0,1-1.58-.35c-.64-.21-1-.51-1-.9a.72.72,0,0,1,.14-.45,2.15,2.15,0,0,1,.42-.44,4.56,4.56,0,0,1,.55-.4l.44-.28a3.34,3.34,0,0,0,1-.88,2.19,2.19,0,0,0,.23-1.28q-.41-7.12-.8-14.25Q119.83,118.57,122,119.52Zm-.06-2.76a45.52,45.52,0,0,1-4.39-2.16l0-.5c0-.7-.36-1-1-1a1,1,0,0,0-.53.22.53.53,0,0,0-.23.47c0,.33.54.75,1.53,1.29s1.92,1,2.79,1.43a12.65,12.65,0,0,0,5.41,1.68,4.65,4.65,0,0,0,3.47-2,4.13,4.13,0,0,0,1.09-2.38,1.3,1.3,0,0,0-1.17-1.37,12.46,12.46,0,0,0-3.33-.19,10.15,10.15,0,0,0-2.64.37,1.35,1.35,0,0,0-.91.73,4.23,4.23,0,0,0-.15,1.39Z"/><path class="cls-18" d="M148.6,142.87a6.32,6.32,0,0,1-1.77-.16c-.15,0-.32-.1-1.11-.38s-.82-.29-.82-.29h0l-1-.13-1.12-.13a6.11,6.11,0,0,1-3.29-2,9,9,0,0,1-1.87-3.59,11.58,11.58,0,0,1-.38-4.24,12.61,12.61,0,0,1,1.09-4,8.11,8.11,0,0,1,2.51-3.14,5.42,5.42,0,0,1,3-1.06,5.06,5.06,0,0,1,1,0,6,6,0,0,1,5,4l1-.29-.09-.29a6.86,6.86,0,0,0-1.43-2.41,21.73,21.73,0,0,0-2.75-2.4c-1.09-.85-1.63-1.25-2.75-2.05-2.89-2-4.22-4.36-3.93-7a4,4,0,0,1,2.05-3.29,6.86,6.86,0,0,1,2.9-.78c.18,0,.37,0,.56,0,4.27.18,6.45.34,10.67.76,2.09.21,3.43.77,4.11,1.73a2.57,2.57,0,0,1,.4,2.17,4.08,4.08,0,0,1-2.3,2.86l-1.53.74-.06,0-.15.07a2.65,2.65,0,0,1,.2.75l.07,1.23-1.23.13-.4,0a6.43,6.43,0,0,1-.9,0,2.32,2.32,0,0,1-1-.35,17.84,17.84,0,0,1,2.08,2.33,11.64,11.64,0,0,1,2.07,5.12,18.46,18.46,0,0,1-2.55,11.71,10,10,0,0,1-3.46,3.43A6,6,0,0,1,148.6,142.87Zm-4.18-11.36a.78.78,0,0,0-.13.34c-.12.86-.06,1.73,2,2.12a5,5,0,0,0,1.19.09,2.73,2.73,0,0,0,1.59-.56,4.59,4.59,0,0,0,1.39-2.32,7.57,7.57,0,0,1-.49.9,2.64,2.64,0,0,1-2.12,1.24,3,3,0,0,1-.66,0,3.36,3.36,0,0,1-1.31-.51A6.24,6.24,0,0,1,145,132,4.14,4.14,0,0,0,144.42,131.51Zm2-17.36a7.44,7.44,0,0,0,1.82,1.52c1.28.88,1.93,1.35,3.15,2.26.43.33.84.66,1.23,1a3.54,3.54,0,0,1-.37-.59,3.45,3.45,0,0,1-.28-2.21,3.56,3.56,0,0,1,.69-1.52,8.06,8.06,0,0,0-1-.14c-1.75-.16-2.61-.22-4.38-.34h-.63Z"/><path class="cls-19" d="M153.92,118a4.13,4.13,0,0,1-1,0,1.14,1.14,0,0,1-.88-.73,2.07,2.07,0,0,1-.18-1.36,2.38,2.38,0,0,1,.54-1.09,2.12,2.12,0,0,0,.49-.76c.14-.69-.68-1.14-2.45-1.29s-2.59-.22-4.31-.33c-1.47-.1-2.24.22-2.34.91s.74,1.75,2.47,2.91c1.23.85,1.84,1.28,3,2.17a17.75,17.75,0,0,1,3.56,3.52,10.19,10.19,0,0,1,1.8,4.47A17,17,0,0,1,152.34,137a8.77,8.77,0,0,1-2.94,2.94,4.74,4.74,0,0,1-3.51.51l-.94-.33c-.54-.2-.85-.3-.93-.32s-.56-.09-1.16-.16l-1-.11a4.67,4.67,0,0,1-2.53-1.55,7.46,7.46,0,0,1-1.55-3,9.74,9.74,0,0,1-.33-3.67,10.8,10.8,0,0,1,.95-3.5,6.6,6.6,0,0,1,2.06-2.59,4.06,4.06,0,0,1,2.94-.78,4.66,4.66,0,0,1,3.89,3.17c.24.54.49.84.77.89a1.56,1.56,0,0,0,.52-.1,8.22,8.22,0,0,1-.93,2.18,1.36,1.36,0,0,1-1.45.63,2.09,2.09,0,0,1-.8-.31,4.62,4.62,0,0,1-.73-.61,5.09,5.09,0,0,0-.72-.61,1.68,1.68,0,0,0-.76-.29,1,1,0,0,0-.84.41,2.15,2.15,0,0,0-.5,1.08c-.27,1.94.74,3.08,3,3.5a4.44,4.44,0,0,0,3.74-.72,6.42,6.42,0,0,0,2-3.83,6.78,6.78,0,0,0-.15-3.71,7.88,7.88,0,0,0-1.67-2.8,24,24,0,0,0-2.85-2.5c-1.07-.83-1.61-1.23-2.72-2-2.41-1.68-3.56-3.51-3.33-5.66a2.67,2.67,0,0,1,1.35-2.24,5.5,5.5,0,0,1,2.77-.62c4.13.18,6.2.33,10.34.74,2.5.25,3.6,1,3.31,2.27a2.73,2.73,0,0,1-1.56,1.94l-1.52.73a1.56,1.56,0,0,0-1,1,2,2,0,0,0,.14.56C153.86,117.79,153.92,118,153.92,118Z"/></g></g></svg>