<?xml version="1.0" encoding="utf-8"?>
<!-- Generator: Adobe Illustrator 26.0.1, SVG Export Plug-In . SVG Version: 6.00 Build 0)  -->
<svg version="1.1" id="Capa_1" xmlns="http://www.w3.org/2000/svg" xmlns:xlink="http://www.w3.org/1999/xlink" x="0px" y="0px"
	 viewBox="0 0 516.9 197.1" style="enable-background:new 0 0 516.9 197.1;" xml:space="preserve">
<style type="text/css">
	.st0{opacity:0.32;}
	.st1{opacity:0.29;}
	.st2{fill:#94171D;}
	.st3{fill:#170D0E;}
	.st4{fill:#EBDC21;}
	.st5{fill:#FAF6F5;}
	.st6{fill:#E32B29;}
	.st7{fill:#87181E;}
	.st8{fill:#AA1A20;}
	.st9{fill:#9F171D;}
	.st10{fill:#B31B21;}
	.st11{fill:#6B2005;}
	.st12{fill:#BE1920;}
	.st13{fill:#CC1C23;}
	.st14{fill:#E02D2A;}
	.st15{fill:#DB3534;}
	.st16{fill:#131112;}
	.st17{fill:#BB191F;}
	.st18{fill:#ECD824;}
	.st19{fill:#FEFFFD;}
	.st20{fill:#E31E27;}
</style>
<g id="Capa_2_00000079470914927591988500000017085580021490566291_" class="st0">
	<g id="Capa_1-2">
		<g id="Capa_2-2" class="st1">
			<g id="Capa_1-2-2">
				<path class="st2" d="M140,118.8l-1,1.7L140,118.8z"/>
				<path class="st2" d="M142,116.9l-0.9,0.7L142,116.9z"/>
				<path class="st2" d="M140.4,118.1l-0.5,0.7L140.4,118.1z"/>
				<path class="st2" d="M141.1,117.6l-0.6,0.5L141.1,117.6z"/>
				<path class="st2" d="M174.4,175.2c0.5,1.2,1,2.4,1.5,3.6C175.4,177.6,174.9,176.4,174.4,175.2z"/>
				<path class="st3" d="M172.8,189.1c0,0,4.8-1.7,5.9-2l-1-3l-1,2.2l-2.3,1.1L172.8,189.1z"/>
				<path class="st4" d="M132.7,93.6c-2.5-19.5-25.5-23.9-38.2-35.2c-1.7-1.6-9.1-7.9-6.1-10.2c2.5-2,5-4.2,6.2-7.2
					c0.7-1.7,1.7-7.1-1.1-7.2c-1.7,0.2-0.9,2.2-1.3,3.4c-0.9,7.1-11,6.8-11.8-0.1c-0.3-3.9,5.6-4.6,8.7-5.6c1.4-0.4,2.1-1.9,1.7-3.2
					c-0.3-1-1.2-1.7-2.2-1.8c-5.5-1.2-10.9-0.2-11.6,6.3c-2.2,13.5-3.2,27.7,3.6,40.2c-12.6,4.8-15.4,19-24.8,27.4
					c-6.9,5.9-15.4,6.5-27.6,4.4c-1.6-0.1-3.3,0-4.9,0.3l-0.1,0.4c2.2,1.1,4.3,2.2,5.6,4.1c1.7,2.9,2.2,6.1-2.2,7.2
					c2.8,4.8,14.8,4,19.4,2.5c3.3-0.9,6.4-2.2,9.4-3.8c4.9-2.4,13.9-10.1,19.3-7.1c0.8,3.4-5.2,4.4-4.6,12.4
					c0.5,5.3-0.3,10.6,1.4,15.7c2.2,7.1,2.2,15,0.9,22.3c4.9,7.5,12.1-1.3,16.3-5.2c7.5-7,12-16.4,17.1-25.3c0.3-0.4,1-0.6,1.6-0.8
					c1.2,1.8-0.4,3.7-1,5.4c-3.2,7-7.1,14-6.6,22c0,1.2,0.3,2.1,1.7,2.1c2.5-0.3,7.4,1.9,8.3-1.3c1.7-4.9,3.6-9.7,5.7-14.5
					C121.2,125,135.4,111.7,132.7,93.6z M118.1,98.7c-0.5,1-1.2,2-2,2.8c0.1,0.5-0.2,1-0.7,1c-0.2,0-0.3,0-0.5,0l-0.6,0.5
					c0,0.8-0.4,1-1.1,0.9l0,0l-0.6,0.3l0,0c-0.5,0.3-0.9,0.8-1.4,0.8c-2.2-0.2-5,0.7-6.9-0.6l0,0c-1.1,0.8-6.7,0.6-7.3-0.4
					c-1-0.2-0.4-0.9-0.3-1.3c0.8-3.4,2.4-7,1.5-10.5l0,0c-0.6-0.7-1.3-1.3-2.1-1.8c-0.6-0.1-1,0-1.1,0.8c-0.5,3.3-1.2,6.5-2.3,9.6
					l0,0c0.1,0.1,0.2,0.2,0.3,0.4c0.1,0.1,0.2,0.3,0.3,0.5l0,0c0.2,0.3,0.7,0.8,0.6,1c-0.3,0.5-0.8,1.2-1.3,1.4
					c-0.7,0-1.4-0.1-2-0.4c-1-0.3-2.2-0.4-3.3-0.7l0,0l-0.9-0.3l0,0c-1.6,0.3-0.6-0.9-1.6-1.3c0.7-0.4,1.2-1.2,2-1.5
					c3.1-0.9,2.2-6.9,3-9.6c0.8-3.3-3.1-3.6-4.8-5.3c-1.9-0.7,0.3-3.1,1.3-3.3c4.5-0.4,10.4-2.9,14.4,0l0,0l1,0.2l0.8-1.2
					c0.6-0.3,1.3-0.8,1.9-0.8c3.1,0.4,6.1,0.9,9.2,1.4c2,0.8,4.3,2.5,2.1,4.4c-0.3,0.3-0.3,0.9-0.6,1.7c-6.4-0.7-0.1-4.9-8.2-4.3
					c0,0.3,0,0.6-0.1,0.8c0.6,0.6,1.3,1,2,1.4c0,0,0.1,0,0.1,0l0,0l0.4,0.3l0,0c1.3,0.7,2.6,1.5,3.8,2.4c0.2,0,0.4,0.1,0.6,0.2l0,0
					c0.6,0.3,1.2,0.6,1.8,1C117.7,91.8,121,95.7,118.1,98.7z"/>
				<path class="st3" d="M174.7,59.8c-0.4-2.3-0.9-4.6-1.5-6.9c-0.2-0.5-0.4-1-0.5-1.5l0,0c-0.1-0.3-0.3-0.5-0.3-0.8l-0.2-0.7l0,0
					c-0.3-0.6-0.6-1.3-0.9-1.9s-0.8-1.3-1.1-2c-0.5-0.8-1-1.6-1.6-2.3l0,0c-3.2-4.2-7-8-11.2-11.2l0,0c-0.9-0.6-1.8-1.2-2.6-1.9
					h-0.1c-4.1-1.7-7.1-4.9-10-8.2l0,0c-0.6-0.5-1.1-0.9-1.7-1.3l0,0c-3.7-1.8-8.1-1.9-11.9-0.2c-2.7,0.5-4.8-1.3-7.1,1.3l0,0
					l-1,0.9l0,0l-0.4,0.5l0,0c-2.1,3.2-4,6.5-7.2,8.8c-3-4.8-4.2-5.4-8.7-8.3c-0.2-0.2-0.2-1.1,0-1.5c2.2-3.7,2.2-7.9,0.9-11.9
					c0,0-0.1-0.1,0-0.1l-1-1.6l0,0l-0.4-0.5c-0.8-0.7-1.5-1.7-2.2-2.5l0,0l-0.3-0.3l0,0c-1.2-0.9-2.4-1.9-3.6-2.8l0,0l-0.3-0.3l0,0
					c-0.9-0.5-1.8-1-2.7-1.4C92.6,0,87.9,0.3,83.6,2.1h-0.1C82.7,2.6,81.9,3,81,3.5c-0.9,1.3-2.1-1-3.3-0.8V2.6
					c-0.1,0-0.1-0.1-0.1-0.2l-0.7-0.3h-0.1c-1.3-0.5-2.6-0.9-3.8-1.4l0,0c-7.3-2.3-15.4,1.8-16.2,9.7c-0.4,3.6-0.7,7.1-1.2,10.7
					c-1.2,3-3,5.8-4.5,8.7c-1.2,6.6,1.1,12.4,5.3,17.8c-7.2-1.6-14.7-1.2-21.6,1.3C28,52,23,57.7,18.6,63.7
					c-4.2,4.5-2.3,10.5,4.7,10.5c-3.6,8.8,0,16.4,10.1,11.7c-2.3,11.4,9.8,8.3,15.7,4.4l0.3,0.5C39,98,29.4,96.2,20,88.4
					c-1.1-0.9-2.1-1.9-3.1-2.9l0,0c-1.6-2.2-4.2-1.8-6.7-2l0,0l-1.1,0.6c-0.6,0.4-1,0.8-1.4,1.3l0,0c-1.9,2.9-1.6,6.7-1.9,10
					c0.4,3,2.1,5.4,3.3,8.4c-3,0.7-6.3-0.4-9.1,0.9c1.2,2.8,2.1,5.7,3.5,8.4c1.2,2.2,3,4.1,4.5,6.1c14.2,12.9,35.5,14,51.9,4.8
					c0.6,4.3,1.1,8.4,1.7,12.5c0.6,2.3,1.2,4.6,1.8,6.8c0.4,3.5,0.3,7.1-0.2,10.6c0,1.2-0.2,2.5-0.6,3.6c-0.3,8.1-6.2,8.9-12.9,9.8
					c-8.2,0.8-9.9-4.9-20.1-1.9l0,0c-0.2,0.1-0.5,0.2-0.7,0.3h-0.1c-8.5,4.2-13.2,10.4-10.8,20.1l0,0c3.3,12.8,27,7.1,36.5,5.3
					c9.6-0.1,21.2,8.2,27.7-3.5c9.5,11.3,19.7-1,37.1,6.4c2.5,0.8,4.9,1.9,7.4,2.5l0,0c5.4,0.6,10.8,0.2,16-1.2l0.3-0.3
					c-0.1-3.8,3.1-5.1,6.1-5.9l0,0c0.7-0.6,1.6-0.8,2.3-1.3c-1.1-3.2-2.2-6.5-3.5-9.7l-3-5.1l0,0c-0.1-0.1-0.3-0.2-0.3-0.4v-0.1
					c-0.1-0.2-0.3-0.4-0.6-0.6c-1.7-1.3-3.1-2.9-5.1-3.7l0,0l-1.7-0.9l0,0l-0.6-0.3l0,0l-1.8-0.6h-0.1c-0.3-0.1-0.7-0.1-1-0.1l0,0
					l-5.4-0.2c-2.2,0.1-4.4,0.6-6.5,1.5l0,0c-6.8,2.5-9.2-1.1-6.3-7.5c6.8-14.4,15.4-27.7,23.8-41.2c4.6-7.2,5.6-16.1,4.1-24.4
					c-0.7-3.3-1.8-6.5-3.1-9.5c-0.4-0.9-1.4-1.6-0.6-2.7c0.9-1.6,2.6,0.5,3.7,0.9s2.2,1,3.4,1.4c4.2,0.9,8.5-0.1,12.2-2
					c0.2-0.1,0.3-0.3,0.5-0.3c2.6-2.1,5.1-4.4,7.4-6.7l0,0c0.1-0.1,0.3-0.3,0.5-0.3C172.8,71.4,175.7,66.7,174.7,59.8z M169.4,71.4
					c-9.3,8.9-16,17.3-29.1,8.2c-1,1.4-3.2,2.7-2.2,4.6c5.8,11.1,6.4,25-1,35.5c-7.8,11.9-15.3,23.9-21.5,36.6
					c-1.4,2.8-3.1,5.6-2.7,9c0.2,4,3.1,5.9,7,4.9c9.3-3.4,20.5-3.4,25.4,6.7c1.4,3.4,2.9,6.7,4.4,10.1c-3,1.8-7.2,2.1-7.9,6
					c-1,3.7-17.4,2.4-20.4,0.3c-8.7-3.8-17.6-4-26.7-2.3c-7.8,1.4-12.9-3.6-12.1-11.5c0.6-6.2,5.2-10.8,5.6-17.1
					c-6.3,5.9-6,14.6-6.8,22.5c-1.9,10.1-14,7.9-21.2,5.3c-2.5-0.8-5.2-0.9-7.7-0.2c-9,2.4-18.5,3.3-27.6,1c-2.5-0.5-4-2.3-4.8-4.6
					c-5.6-13.4,12.1-25.1,23.5-17.9c5,1.4,10.6,0.4,15.4-1.6c7.2-3.3,6.4-16.8,6.1-23.5c-1.9-7.2-3-14.7-3.2-22.2c-3,1.4-6,2.8-9,4
					c-18.3,7.9-45.6,1.2-50.4-20h9.8c-0.9-1.4-1.5-2.3-2.2-3.3c-4.4-4.6-3.6-23,5.6-15.5c8.6,9.6,23.1,14.3,34,5.7
					c1.5-1,2.4-2.5,1.7-4.3c-4.3,0.4-7.8,3.7-12.2,4.1c-3.3,0.3-5.3-2.3-4-5.4c0.9-1.9,2.1-3.5,3.2-5.4c-3.8,1.5-6.9,4.1-10.9,4.3
					c-6.8-1.1-3.3-10.4-0.5-14.2c-2.9,0.6-6.8,1.9-8.5-1c-0.9-1.4-0.7-3,0.6-4.6c2.7-3.3,5.3-6.6,8.2-9.7c8-8.4,20.5-9.4,31.1-6.2
					c0.2-1.5-0.3-3-1.2-4.2c-5.3-6.2-6.6-15.9-0.8-22.3c2-4.1,1.1-9.2,2.2-13.6c2.6-11.1,12.8-9,20.6-4.6c0.7,0.5,1.6,0.5,2.3,0
					c6.6-4.5,15.2-4.5,20.8,1.6c11.2,9.8-1.5,16.6,3.5,18.7c4,1.9,7.2,4.5,8.4,9c8.2-1.6,10-16.8,15.6-11.1
					c6.9-4.3,12.4-2.2,17.2,3.8c1.8,1.8,3.9,3.4,6.1,4.5c3.9,2,6.9,5,10,8.1C170.3,47.4,178.1,62.5,169.4,71.4z"/>
				<path class="st5" d="M173.1,60.8c-1.2-12.4-9.7-22.7-20.1-28.9c-2.3-1.2-4.3-2.7-6.1-4.5c-4.8-6-10.3-8.2-17.2-3.8
					c-5.6-5.8-7.4,9.5-15.6,11.1c-1.2-4.5-4.4-7.1-8.4-9c-5.1-2.1,7.7-9-3.5-18.7c-5.5-6-14.2-6-20.8-1.6c-0.7,0.5-1.6,0.5-2.3,0
					c-7.8-4.4-18.1-6.5-20.7,4.6c-1,4.4-0.1,9.5-2.2,13.6c-5.8,6.4-4.5,16,0.8,22.3c1,1.2,1.4,2.7,1.2,4.2
					c-10.6-3.2-23.2-2.2-31.1,6.2c-2.9,3.1-5.5,6.4-8.2,9.7c-1.3,1.6-1.5,3.2-0.6,4.6c1.7,2.9,5.6,1.6,8.5,1
					c-2.8,3.7-6.2,13.1,0.5,14.2c4-0.1,7.1-2.8,10.9-4.3c-1.1,1.9-2.3,3.5-3.2,5.4c-1.3,3.1,0.7,5.7,4,5.4c4.3-0.4,7.9-3.7,12.2-4.1
					c0.6,1.8-0.2,3.3-1.7,4.3c-10.8,8.6-25.4,3.8-34-5.7c-9.2-7.5-10,10.9-5.6,15.5c0.7,0.9,1.3,1.9,2.2,3.3H2.4
					c4.8,21.2,32.1,27.8,50.4,20c3-1.2,5.9-2.7,9-4c0.2,7.5,1.3,14.9,3.2,22.2c0.3,6.7,1,20.2-6.1,23.5c-4.8,2-10.4,3-15.4,1.6
					c-11.5-7.2-29.1,4.4-23.5,17.9c0.9,2.3,2.3,4.1,4.8,4.6c9.1,2.3,18.6,1.4,27.6-1.1c2.5-0.7,5.2-0.6,7.7,0.2
					c7.2,2.6,19.3,4.8,21.2-5.3c0.8-7.9,0.5-16.6,6.8-22.5c-0.4,6.3-5,10.9-5.6,17.1c-0.8,7.9,4.3,13,12.1,11.5
					c9.2-1.7,18.1-1.5,26.7,2.3c3,2.1,19.3,3.4,20.4-0.3c0.7-3.9,4.9-4.2,7.9-6c-1.5-3.4-3-6.7-4.4-10.1
					c-4.9-10.1-16.1-10.1-25.4-6.7c-3.9,1-6.8-0.9-7-4.9c-0.4-3.3,1.3-6.2,2.7-9c6.2-12.8,13.7-24.8,21.5-36.7
					c7.4-10.5,6.8-24.4,1-35.5c-1-2,1.2-3.2,2.2-4.6c6.1,4.4,14.2,5.7,20.1,0.2C165.7,74.3,174.6,69.7,173.1,60.8z M166,70.1
					L166,70.1l-4.8,4.5c-6.4,7-12.2,7.5-19.7,1.9c-2.1-1.5-4.1,2.4-5.8,3.4c-1.6,2.6-1.9,3.6-0.3,6.4l0,0
					c11.2,20.7-3.4,34.2-13.4,51.4l0,0l-8.5,15.3l0,0c-0.1,0.2-0.2,0.4-0.3,0.6l0,0c-0.9,2-1.7,4-2.6,6c-3.3,6.5,1.2,16,9.4,13.9
					c5.3-1,11.3-4.3,16.3-0.7l0,0c5.7,1.6,6.7,8.1,9.4,12.6c-2.9,1.3-5.4,2.4-6.6,5.4c-2.3,2.5-13,1.4-16-0.2
					c-8.9-3.9-18.9-4.8-28.4-2.7c-6,1.2-9.4-1.8-8.9-7.8c1.2-7.7,7.2-14.3,6-22.5l0,0c-1.4-0.6-3-0.2-4,0.9
					c-8.2,7.4-9.1,14.3-9.3,24.8c-0.9,8.8-11,5.6-16.8,4.1c-3.6-1.1-7.4-1.2-11-0.2c-7.3,1.9-14.7,2.8-22.2,1.6
					c-6.8-0.5-7.2-6.9-5.4-11.8c1.4-3.4,5.2-5.6,8.4-6.9c3.3-1.1,7-0.7,10,1.2l0,0c6.6,2.2,13.8,0.9,19.8-2.1
					c7.7-4.4,7.3-18.7,6.7-26.5c-0.4-3.2-1.6-6.2-2.2-9.4c-1.2-5.9-0.9-11.8-0.6-17.8c-6.9,3.9-13.6,7.8-21.5,9.2
					c-13.9,2.5-30.5-2.3-36.9-15.9c3.8-0.1,11.9-0.7,7.5-6.2c-1-1.3-1.8-2.7-2.6-4.1c-1.6-2.9-1.3-6-0.7-9.1c0.5-3,2.6-0.2,3.6,1
					c1.7,1.5,3.4,2.9,5.3,4.2l0,0l1.5,1l0,0c10.4,5.6,21.1,6.6,30.6-1.3c2-1.5,3.2-3.5,2.7-6.2c-1.4-6.6-8.2-2-12-0.5l0,0
					c-7.6,3.1-4.5-0.3-1.6-4.4c0,0,0,0,0.1,0.1l-0.1-0.1c1.3-2,3.2-4.5,1.6-6.8c-2.8-1.2-5.8,2.2-8.4,3.2c-1.8,0.5-8,5.1-7.6,0.9
					c0.3-4.2,2.5-8,5.9-10.3l0,0l3.8-2.6l0,0c0.8-5.2-5.9-0.6-8.2-0.1l0,0c-2.3,0.3-4.7,1.8-7,1.2c0.3-1.3,1.3-2.2,2.1-3.2l0,0
					l3.6-4.5l0,0c4-4.2,8.5-8.3,14.5-9c6.9-1.7,13.4,0.1,20.1,2.2c1.6-10.5-4.3-10.4-5.8-19c-0.6-3.7,0.7-7.4,3.5-10
					c1.8-1.5,1.1-3.7,1.4-5.6c0.4-2.9,0.5-5.8,1-8.6c0.7-5,5-7.5,9.6-5.8c4,0.8,7.9,5.5,11.9,2.8c6.6-4,11-3.9,16.9,1.2l0,0
					c6.5,4.9,3.1,8.3,1.3,14.4c-0.3,4.2,4.6,5.1,7.1,7.4c2.5,2.1,3.5,5.4,2.7,8.5c-0.2,0.4-0.7,0.7-1.2,0.8c-3.4,0.1-6.9,0-10.3,0
					l1.7,2.7l0,0l3,4c0.1,0,0.1,0.1,0.1,0.1c0,0,0,0,0,0l0,0l0.3,0.4l0,0l3.5,4.1c-3,2.4-6.3,2.2-10,2.1c0.9,1.8,2.2,3.4,3.7,4.7
					l0,0l0.3,0.3l0,0c3.6,2.8,17.2,9.1,17.3,0.6c-0.1-0.5-0.4-0.9-0.8-1.1c-1.3-1.2-2.6-2.4-2.7-4.2c0.2-3.3,2.8-6.5-0.5-9.2
					c-0.8-0.7-1.4-1.5-1.8-2.5c-0.8-1.9,0.1-4.1,2-4.9c0,0,0,0,0,0l0,0c5.6-2,8.3-6.6,11.3-11.3c0.8,4.1-0.8,7.2-3.9,9.6
					c1.9,0.6,4.1-0.3,5.6,1.7c-3.6,1.9-6.8,4.5-10.9,4.9c-0.6,0-1.1,0.5-1.1,1.2c0,0,0,0,0,0c0,0.6,0.6,1.1,1.2,1.1
					c0.2,0,0.3,0,0.4-0.1c1.4-0.4,3.2-1.4,3.9,0.6c0.5,1.5-0.8,1.6-1.8,2c-1.6,2.2,1.5,3.2,3.1,3.6c3.7,1,4.8-2.1,4.8-5.3
					c0.2-4.3,4.2-6,7.7-3.6l0,0c2.2,2.4,1.3,6.6,5.7,3.3c2.6-4-3.4-4.8-1.5-11.4c-8.8,2.8-3-1.5-4.3-5c-0.7,0.3-1.4,0.7-2.1,1.2l0,0
					l-2.8,2.7c-4.5-7.6,7.9-11.4,11.7-5.3l0,0c0.7,0.8,1.5,1.5,2.2,2.3l0,0L145,30l0,0c0.4,0.4,0.8,0.8,1.1,1.1l0,0
					c4.1,3.1,8.9,5.6,12.6,9.2l0,0c0.2,0.2,0.4,0.4,0.6,0.6l0,0c2,2,3.9,4.2,5.6,6.5l0,0c2.5,3,3.5,6.6,4.4,10.2
					C170.6,62.1,170.4,67.4,166,70.1z M115.8,60.4c-3.9-0.1-7.6-1.3-10.8-3.5c10.2-3.6,5.8-6.8,0.7-13.2c2,0.2,3.8-0.7,5.2,0.7
					c0.8,1.5,3.6,3.2,2.8,5C111.7,53.6,112.5,57.2,115.8,60.4L115.8,60.4z M131.5,37.8c0.1-0.7,0.2-1.3,0.3-2.1l2.4,2.1H131.5z"/>
				<path class="st6" d="M169.1,59.2c-1-4.1-2.4-8-4.2-11.8c-1.1-0.4-3.1-2.9-3.2-4l-0.1-0.1c-1.3,0.2-1.5-0.6-1.5-1.6
					c-0.3-0.3-0.6-0.5-0.8-0.8l0,0c-0.2-0.2-0.4-0.4-0.6-0.6l0,0c-4.7-3.2-10-5.7-13.7-10.3l0,0l-0.3-0.3c-1.2,0-2.2-1-2.2-2.2
					c0,0,0,0,0,0v-0.1c-1-0.4-2.3-0.5-2.1-2c-3.3,0.1-4.4-1.5-7.9,1c-2.2,1.6-2.8,2.7-1.6,5.1c1.6-0.8,3.1-1.9,4.7-2.6
					c1.3,3.4-4.5,7.7,4.3,5c-1.8,6.7,4.1,7.4,1.5,11.4c-4.4,3.3-3.5-0.8-5.7-3.3l0,0c-3.5-2.4-7.5-0.7-7.7,3.6
					c0.1,3.1-1,6.3-4.8,5.3c-1.6-0.4-4.8-1.4-3.1-3.6c1-0.4,2.3-0.5,1.8-2c-0.6-2.1-2.5-1.1-3.9-0.6c-0.6,0.3-1.3,0-1.5-0.5
					c-0.3-0.6,0-1.3,0.5-1.5c0,0,0,0,0.1,0c0.1-0.1,0.3-0.1,0.4-0.1c4.1-0.4,7.2-3,10.9-4.9c-1.5-2-3.7-1-5.6-1.7
					c3.2-2.5,4.7-5.5,3.9-9.6c-3,4.7-5.8,9.3-11.3,11.3c-1.9,0.8-2.8,3-2,4.9l0,0c0.4,0.9,1,1.8,1.8,2.5c3.3,2.7,0.8,5.9,0.5,9.2
					c0.1,1.8,1.3,3.1,2.7,4.2c0.4,0.3,0.7,0.7,0.8,1.1c-0.1,8.5-13.6,2.1-17.3-0.6l0,0l-0.3-0.3c-1.5,0.2-1.9-0.7-2-1.9
					c-1.3-0.6-1.6-1.5-2.4-2.8c3.2-0.8,6.7,0,9.7-2.2c-1.1-1.1-2-2.5-2.5-4l-0.3-0.4c-1.1-0.6-3.1-2.6-3.1-4.1l-2.7-2.6
					c2.1-1.6,7.8-0.2,10.8-0.7s0.4-5.1-0.1-6.8c-3.1-5.5-9.9-3-8.5-11.9c4.1-4.5,2.3-7.8-0.8-12l-0.1,0.1V9.3
					C90.6,4.2,93.3,5.6,84,7.5c-0.1,0.4-0.1,1-0.2,1.1c-1.8,0.4-3.4,1.6-5.4,0.6c-2.7-1.5-5.5-2.8-8.4-3.7c-8.8-1.8-8.4,8.8-9,14.6
					c-0.6,1.7,1.2,5.9-1.8,5.3c-0.8,2.4-2.9,4-2.5,6.7c-1.9,1.7,0,3.2,0.4,4.9c-0.2,3.5,3,5.7,4.2,8.7c0.7,1.2,2.3,10.6-0.6,9.3
					c-1.8-0.9-4.2-1-5.7-2.5c-2.8,0-5.7-0.2-8.5-0.5c-5.1-0.3-9.4,2.6-14.1,4c0.1,0.9-0.4,1-1.1,0.8h0c0,0.2,0.1,0.5,0,0.6
					c-1.2,0.9-3,3.6-4.4,3.6l0,0c-0.6,1.9-1.9,3.5-3.6,4.5l0,0c-0.2,0.7-0.7,1.9-0.5,2.5c1.7,0.7,3.6-0.3,5.4-0.5
					c0.1-1.4,4.2-2.2,5.4-3c2.1-0.8,4.6,1.4,2.8,3.1l0,0c-0.2,1.3-1.9,2.5-3.8,2.6c0,1.7-1.9,2.7-2.8,4c-2,1.8-1.9,4.3-2.3,6.7
					c3.1,0.8,5.3-1.5,7.9-2.8c1.7-1,3.5-1.8,5.3-2.5c5.1-1.5,3.9,6.5,0.4,7.6l0.1,0.1c0,0,0,0-0.1-0.1c-0.4,1.9-2,3-2.3,5l3.9-0.6
					l0,0c1.7-2,4.2-2.4,6.5-3.3c7.5-2.2,8.5,8.6,1,12.2c-1.5,0.8-2.6,2.1-4.6,2.2c-3.3,0.7-6.5,1.9-9.8,2.1c-1.9,0.1-4.1,0.2-6-1.1
					c-2.8-1-6.4-1.6-8.2-4.1l0,0l-1.5-1l0,0c-1.3-0.3-2.8-0.5-3.1-2.3c-1.1,0-2.1-0.9-2.2-2l-1.9-0.3L12.3,89h-0.6
					c-0.2,2.9-1.4,5.9,0.6,8.5c0,2.7,2.1,4.2,3.4,6.2c2.9,5-4.4,5.3-7.7,6.5c0.5,2.1,2.6,3.2,3,5.3c0.1,0.1,0.2,0.2,0.3,0.3l0,0
					l0.1,0.1c0.4,0.2,1,0.2,1.3,0.5c5.9,5.4,15.4,9.2,23.4,8.3c8.1,1,15.7-2.6,22.8-6c1.8-0.7,7.2-6.1,7.1-1.5
					c-0.4,1.7-0.8,3.5-0.1,5.2c-1,6.4,1.1,12.4,2.3,18.7c1.5,7.8,0.6,15.7-1.6,23.3c-3.4,9.1-15.2,8.9-23.3,8.7
					c-0.7,0-1.8-0.2-1.7-1.4c-3.7-0.9-6.9-1.9-10.6-0.4l-8.2,11.4c0.4,1.7,0.7,4.3,2.6,5c4.4,1.5,9,1.3,13.6,1.2
					c5.7,0,11.2-2,16.7-3c2.2,0.3,4.3,0.8,6.3,1.5c5.7,0.6,12.4,4.8,15.6-2.7c0.8-2.1,0.6-4.3,0.6-6.4c0.1-4.2,1.1-8.2,2.8-12
					c0.3-0.6,0.9-0.9,1.3-1.4c0.3-0.7,0.5-1.4,0.8-2.1c1.5-2.6,4-4.6,6.9-5.5c0.7-0.3,1.6-0.6,1.9,0.7l0,0c1.8,0.7,0.3,6,0,7.6
					c-1.2,3.1-2.1,6.5-3.7,9.3c-0.9,1.6-1.5,3.2-1.9,5c-1.2,4.1,3,9.5,6.9,7.8c7.7-0.5,15.5-2,23,0.4c5.4,1.7,10.7,4.2,16.5,4.1
					c8.8-0.1,3.3-2.4,11.1-6.3c2.1-0.7-1.5-4.9-1.9-6.4c-0.3,1.2-1.5,1.9-3.1,2.3l0.9,1.9c-1.6,1-3,2.5-4,4.1c-3.5,0.4-8,0.4-10.9-1
					c-6.3-2.7-13.1-4.1-19.9-4.1c-4.1-0.1-8.5,0.8-12.7,1.3c-3.2,0.3-1.9-5.1-0.9-7c3.3-7,5.6-12.9,5-19.5l-4.2,0.4l-0.2-0.2l1.4-4
					c-1.6-0.6-3.4-0.7-5-0.2c-2.2,2.2-4.5,4.3-6.9,6.2c-6.4,4.6-7.2,15.3-7.4,23.1c-0.2,2-1,2.4-1.8,2.3c-3.2-0.2-6.3-0.8-9.3-1.7
					c-4.4-1.3-9-1.4-13.4-0.2c-7.5,1.9-13.4,2.5-20.4,1.6c-0.8,0-1.5-0.3-2.2-0.7c-0.5-0.7-0.3-3.6,0.3-4.9
					c1.9-3.6,8.1-6.2,11.9-3.6l1.6-1.4l-0.7,1.9c7.5,2.7,16.8,1.2,23.6-2.4c5.6-2.8,7.5-9.1,8.5-14.9c1.8-8.7,0.7-17.8-1.8-26.2
					c0.3-7.2-2.7-16,3.4-21.4c4.3-6-7.4-2.4-9.5-0.9c-5.9,3.4-11.8,7.4-18.4,9.2s-15,2-21.2-2c1.2-0.2,5.6-1.5,5.2-3.3
					c0.2-4.5-3.1-6.6-6.8-8.4l0.1-0.4c1.6-0.3,3.2-0.4,4.9-0.3c12.2,2.1,20.7,1.6,27.6-4.4c9.3-8.4,12.3-22.7,24.8-27.4
					c-6.9-13.3-6.2-28.8-2.8-43c1.1-2.8,3.5-3.8,6.4-3.9c2.3,0.2,6.3-0.3,6.8,2.7c0.2,3.4-4,3.2-6.3,4c-11.9,4.1,4.7,16.9,7.6,4.5
					c0.4-1.2-0.4-3.2,1.3-3.4c1.4-0.1,1.5,1.3,1.7,2.3c0.8,5.2-2.9,9.3-6.8,12.2c-3.5,3,8,11.8,10.4,13.5l0.6-0.6L99,61.7l0.4,0.3
					l1.3-1.2l-1,1.4c11.2,7.6,26.3,12.7,31.9,26h-0.1c3.3,10.8,0.6,22-5.2,31.3c-6.2,10.1-11.3,20.8-15.3,32l0.1,0.1l-0.1-0.1
					c-1,1.9-1,5.8-4,5.3c-4.7,8.5,0,21.5,11,21.3c3.6-0.1,7.2-1.7,10.7-2.3l-1.5-3.6c-4.5,0.8-8.8,2.6-13.3,1
					c-2.8-0.8-3.4-3-4.2-5.1c-2-5.1,0.9-11.3,3.9-15.2c-0.3-1.7,0.9-2.7,1.6-4c1.8-3.5,3.8-6.9,5.7-10.3c0.3-0.4,0.8-0.7,1.2-1.1
					l0,0c10-17.2,24.6-30.7,13.4-51.4c-1.5-0.8-2.1-2.7-1.5-4.2c0.4-0.8,0.3-2.2,1.8-2.2c0.3-2.4,2.4-3.3,4.1-4.3
					c1.8-0.8,3.4,1.2,4.8,2.1c3.3,2.7,8,2.8,11.4,0.3c0.6-0.3,1.3-0.6,2.1-0.7c0.6-1.3,1.5-2.5,3.1-2.8c1-2,2.7-3.6,4.8-4.5
					C168.5,66.1,170.8,64.6,169.1,59.2z M38.3,72.5c-1.4,0.6-2.6,1.3-3.8,2c0.4-0.4,2.8-2,3.3-2.4h1.4
					C38.9,72.3,38.6,72.4,38.3,72.5z M12.9,92.5l-0.4,0.1l1.3-1.1L12.9,92.5z M120.2,52c-0.1-0.1,0-0.2,0-0.2l0.2,0.2L120.2,52z
					 M111.2,172.6c0.1,0.1,0,0.2-0.1,0.3C111.1,172.8,111.1,172.7,111.2,172.6L111.2,172.6z M140.1,71.6c-1.4,0.4-2.6,0.4-3.9,1.8
					c0,1.3-0.5,2.6-1.3,3.7c-1.1,1.6-1.3,1.7-3,0.8c-4.5-2.4-7.9-6.3-8.6-11.5c2.9-0.5,9.2,0.1,8.1-4.3c-0.1-0.9-0.1-2.4,0.4-2.8
					c1.1-0.7,1.8,0.6,2.4,1.3C135.5,62.8,142.5,69.3,140.1,71.6z M148.3,64.2c-0.1,0.8-0.7,1.1-1.2,0.5c-2.6-3.5-5.3-7.1-7.9-10.6
					c-0.3-0.9,0.1-1.9,0-2.9c0.9,0.3,2.1,0.3,2.6,0.9c2.3,3.6,5.7,6.9,6.6,11.2h-0.1C148.3,63.6,148.4,63.9,148.3,64.2z"/>
				<path class="st7" d="M171.6,71.8l-2.8,2.8L171.6,71.8z"/>
				<path class="st8" d="M160.8,35.4l2.6,2.5L160.8,35.4z"/>
				<path class="st7" d="M172.4,70.7l-0.9,1.1L172.4,70.7z"/>
				<path class="st7" d="M168.8,74.6l-1.2,1.1L168.8,74.6z"/>
				<path class="st2" d="M63.5,145.2c0-0.6-0.1-1.1-0.2-1.7C63.4,144.1,63.5,144.7,63.5,145.2z"/>
				<path class="st8" d="M169.3,44.9l0.8,1.2L169.3,44.9z"/>
				<path class="st9" d="M30.9,94.5l1.7,0.5L30.9,94.5z"/>
				<path class="st8" d="M168.5,43.8l0.8,1.1L168.5,43.8z"/>
				<path class="st9" d="M25.4,92.2l1.4,0.6L25.4,92.2z"/>
				<path class="st10" d="M16,84.7l0.9,0.8L16,84.7z"/>
				<path class="st7" d="M142.7,91.1l0.3,1.1L142.7,91.1z"/>
				<path class="st7" d="M167.1,76l-0.9,0.8L167.1,76z"/>
				<path class="st7" d="M148.3,85.2l-0.9-0.2L148.3,85.2z"/>
				<path class="st8" d="M42.7,47l1.1-0.2L42.7,47z"/>
				<path class="st7" d="M160.4,82.2l-0.6,0.5L160.4,82.2z"/>
				<path class="st8" d="M144,22l0.6,0.5L144,22z"/>
				<path class="st11" d="M44.3,93.6l0.6-0.4L44.3,93.6z"/>
				<path class="st8" d="M144.7,22.5l0.6,0.6L144.7,22.5z"/>
				<path class="st9" d="M122,167.9l0.8-0.3L122,167.9z"/>
				<path class="st8" d="M51,30.6c0-0.3,0-0.6,0.1-0.8C51.1,30,51.1,30.3,51,30.6z"/>
				<path class="st2" d="M62,138.8c-0.1-0.3-0.2-0.6-0.2-0.9C61.9,138.1,62,138.4,62,138.8z"/>
				<path class="st7" d="M173.1,69.8l0.2,0.2l-0.4,0.1C173,70,173.1,69.9,173.1,69.8z"/>
				<path class="st9" d="M20.1,88.6l0.5,0.3L20.1,88.6z"/>
				<path class="st7" d="M142.1,89.2l0.3,0.6L142.1,89.2z"/>
				<path class="st9" d="M22.3,90.3l0.5,0.3L22.3,90.3z"/>
				<path class="st8" d="M118.6,29.5L119,29L118.6,29.5z"/>
				<path class="st7" d="M142.4,90.3c0.1,0.2,0.2,0.4,0.2,0.6C142.6,90.7,142.5,90.5,142.4,90.3z"/>
				<path class="st2" d="M62.3,139.6l-0.2-0.6L62.3,139.6z"/>
				<path class="st10" d="M16.9,85.6l0.3,0.3L16.9,85.6z"/>
				<path class="st7" d="M141.8,88.3c0.1,0.1,0.2,0.2,0,0.3V88.3z"/>
				<path class="st9" d="M21.3,89.5l0.4,0.3L21.3,89.5z"/>
				<path class="st10" d="M15.4,84.2l0.4,0.3L15.4,84.2z"/>
				<path class="st7" d="M159.5,82.7l-0.4,0.3L159.5,82.7z"/>
				<path class="st2" d="M61.7,137.1c0-0.1-0.1-0.3-0.1-0.4C61.6,136.8,61.6,137,61.7,137.1z"/>
				<path class="st7" d="M167.4,75.7l-0.3,0.3L167.4,75.7z"/>
				<path class="st9" d="M24.3,91.5l0.4,0.3L24.3,91.5z"/>
				<path class="st9" d="M19.6,88.1l0.4,0.3L19.6,88.1z"/>
				<path class="st12" d="M144.4,172.4c0.1,0.1,0.2,0.2,0.3,0.4C144.6,172.6,144.5,172.5,144.4,172.4z"/>
				<path class="st12" d="M144.7,173l0.2,0.3L144.7,173z"/>
				<path class="st11" d="M43.5,93.9l0.3-0.2L43.5,93.9z"/>
				<path class="st11" d="M42.7,94.2L43,94L42.7,94.2z"/>
				<path class="st8" d="M118.4,29.8l0.3-0.3L118.4,29.8z"/>
				<path class="st11" d="M45.8,92h-0.3C45.6,92,45.7,92,45.8,92z"/>
				<path class="st11" d="M45,92.3l-0.3,0.2L45,92.3z"/>
				<path class="st9" d="M121.7,168.1l0.3-0.1L121.7,168.1z"/>
				<path class="st13" d="M146.4,23.3l-0.6-0.3L146.4,23.3z"/>
				<path class="st6" d="M142,179.3c-1.1-2.4-3-4.5-5.3-5.9c-0.1-0.2-0.2-0.4-0.3-0.6c-5.2-0.9-2.9-1.7-9.1-0.4l1.5,3.6
					c-3.5,0.6-7.1,2.2-10.7,2.3c-11,0.2-15.8-12.8-11-21.3c-1.9-0.1-3.8-0.3-5.7-0.4c-1.4,0-1.7-0.9-1.7-2.1c-0.5-8,3.4-15,6.6-22
					c0.6-1.8,2.1-3.6,1-5.4c-0.6,0.3-1.3,0.4-1.6,0.8c-5.1,8.9-9.6,18.3-17.1,25.3c1.6-0.4,3.4-0.4,5,0.2l-1.4,4l0.2,0.2l4.2-0.4
					c0.7,6.6-1.7,12.5-5,19.5c-1,1.9-2.3,7.4,0.9,7c4.2-0.6,8.6-1.5,12.7-1.3c6.8,0,13.6,1.4,19.9,4.1c3,1.4,7.5,1.4,10.9,1
					c1-1.7,2.4-3.1,4-4.1l-0.9-1.9C140.4,181.2,141.7,180.5,142,179.3z M137.6,71.7c-0.5-0.1-1-0.2-1.5-0.4c0.1,0.7,0.2,1.4,0.2,2.1
					c0.8-0.8,1.7-1.3,2.8-1.6C138.5,71.8,138,71.7,137.6,71.7L137.6,71.7z M131.5,88.1c0,0.1,0.1,0.1,0.1,0.2h0.1
					C131.6,88.3,131.5,88.2,131.5,88.1L131.5,88.1z M111,151.7L111,151.7l0.1,0.1L111,151.7z M99.4,62l0.3,0.2l1-1.4L99.4,62z
					 M99.9,9.2L99.9,9.2L99.9,9.2L99.9,9.2L99.9,9.2z M98.9,61.7l0.1,0.1l0.5-0.7L98.9,61.7z M73.3,159.8c-0.4-0.4-0.8-0.9-1.2-1.4
					c-1,5.8-2.9,12.1-8.5,14.9c-6.8,3.6-16.1,5.1-23.6,2.4l0.7-1.9l-1.6,1.4c-3.7-2.6-9.8,0-11.8,3.4c-0.6,1.3-0.9,4.4-0.3,5.1
					c1.8,1.1,5.9,1.1,8.3,1.2c6.1,0.4,14-2.6,20.7-2.8c5.5-0.1,10.9,2.7,16.3,2.8c0.7,0,1.5,0,1.7-2.1c0.3-8.2,0.8-16.5,6.2-22.5
					C77.7,161.9,75.3,161.7,73.3,159.8L73.3,159.8z M28.8,118.8c-1.1-0.4-1.9-1.2-2.4-2.2c-0.6,0.2-1.2,0.4-1.8,0.5
					c2.9,1.9,6.3,2.9,9.8,3C32.5,119.7,30.6,119.3,28.8,118.8L28.8,118.8z M37.8,72.2c-0.5,0.4-2.9,2-3.3,2.4
					c1.5-0.9,3.1-1.7,4.7-2.4L37.8,72.2z M26.9,61.1L26.9,61.1L26.9,61.1L26.9,61.1z M23.3,65.6L23.3,65.6L23.3,65.6L23.3,65.6z"/>
				<path class="st14" d="M74.3,110c-6.8,5.9-3.8,14.2-4,22.2c-1.4-6.3-0.2-16.7-0.5-24.1c-8.8,4.5-16.5,10.3-26.8,12.3
					c-10,1.8-20.8-0.4-28.5-8c8.1-2.9,6.2-9.1,1.8-14.8c0.6,0.5,2,1.4,2.7,1.9l2.3-3.5h0.1l-1.6,3.8c4.3,1.8,8.6,4.1,13.4,4.7
					c-3.4,0.2-6.8-0.2-10.1,0.3l-0.1,0.4c3.7,1.8,7,3.9,6.8,8.4c0.4,1.8-4,3.2-5.2,3.3c9.4,5.8,21.4,3,30.6-1.9c3.1-1.6,6-3.7,9-5.3
					C66.2,108.7,76.1,104.7,74.3,110z"/>
				<path class="st15" d="M122,45.3c0.5,1.5-0.8,1.6-1.8,2l1.3-1.5l-2.2,0.1l1.4-1c0-0.1-0.1-0.2-0.1-0.3l-3.6,1
					c2.3,4.7-3.6,8.5,1.9,12.3c0.9,0.5,1.3,1.6,1,2.6c-0.2,0.7,0,2-0.5,2.3c-1.3,1.1-3,1.6-4.8,1.5c-3.7-0.5-10.7-2.1-12.5-5.4
					c3.6,2.8,17.2,9.1,17.3,0.6c-0.1-0.5-0.4-0.9-0.8-1.1c-1.3-1.2-2.6-2.4-2.7-4.2c0.2-3.3,2.8-6.5-0.5-9.2
					c-0.8-0.7-1.4-1.5-1.8-2.5c-0.8-1.9,0.1-4.1,2-4.9c0,0,0,0,0,0l0,0c5.6-2,8.3-6.6,11.3-11.3c0.8,4.1-0.8,7.2-3.9,9.6
					c1.9,0.6,4.1-0.3,5.6,1.7c-3.6,1.9-6.8,4.5-10.9,4.9c-0.6,0-1.1,0.5-1.1,1.2c0,0,0,0,0,0c0,0.6,0.6,1.1,1.2,1.1
					c0.2,0,0.3,0,0.4-0.1C119.5,44.2,121.3,43.2,122,45.3z"/>
				<path class="st15" d="M68.6,154.2c-0.1,3.3-1.2,6.7-2,10c-1,3.8-4.1,5.6-7.4,7c-5.1,2.2-10.5,1.8-15.9,1.7
					c-0.7,0-1.8-0.2-1.7-1.4c6.6,2.2,13.8,0.9,19.8-2.1c7.7-4.4,7.2-18.7,6.7-26.5c-0.4-3.2-1.6-6.2-2.2-9.4
					c-1.2-5.9-0.9-11.8-0.6-17.8c-16,10.8-38.9,14.9-53.8,0.1c0.4,0.2,1,0.2,1.3,0.5c5.9,5.4,15.4,9.2,23.4,8.3
					c10.3,1.2,19.7-4.4,28.4-9.2c3.3-0.6,0,5.1,1.4,7c0.1,0.3,0.1,0.7,0,1c-1.1,6.1,1.3,11.8,2.3,17.7
					C69.4,145.3,68.8,149.8,68.6,154.2z"/>
				<path class="st16" d="M105.7,43.7c2,0.2,3.8-0.7,5.2,0.7c0.8,1.5,3.6,3.2,2.8,5c-2.1,4.2-1.2,7.7,2.1,11
					c-3.9-0.1-7.7-1.3-10.8-3.5C115.2,53.3,110.8,50.1,105.7,43.7z M111.2,55.7l-2.3,1.3v0.4l3.4,1.2L111.2,55.7z M109.6,45.4
					l-0.5,0.4l2.8,3.2l0.5-0.4L109.6,45.4z"/>
				<path class="st15" d="M145.8,185.4c-2.9,1.3-5.4,2.4-6.6,5.4c-2.3,2.5-13,1.4-16-0.2c-8.9-3.9-18.9-4.8-28.4-2.7
					c-6,1.2-9.4-1.8-8.9-7.8c1.2-7.7,7.2-14.3,6-22.5c1.8,0.7,0.3,6,0,7.6c-1.2,3.1-2.1,6.5-3.7,9.3c-0.9,1.6-1.5,3.2-1.9,5
					c-1.2,4.1,3,9.5,6.9,7.8c7.7-0.5,15.5-2,23,0.4c5.4,1.7,10.7,4.2,16.5,4.1c8.8-0.1,3.3-2.4,11.1-6.3c0.8-0.4,1-0.9,0.6-1.6
					c-1.1-2.2-2.2-4.4-3.4-6.5c-1.1-2.4-3.4-2.9-4.6-4.7l0,0C142.1,174.4,143,180.9,145.8,185.4z"/>
				<path class="st15" d="M78.7,180.9c0.3,11.3-9.5,8.7-17,6.6c-3.6-1.1-7.4-1.2-11-0.2c-7.3,1.9-14.7,2.8-22.2,1.6
					c-6.7-0.6-7.1-6.6-5.5-11.6c0.5,1.8-0.6,3.5-0.3,5.2s0.7,4.3,2.6,5c9,2.6,18.4,0.9,27.4-1.1c2.9-1.5,5.7-0.1,8.6,0.5
					c0.2,0.1,0.4,0.3,0.6,0.3c2.9,0,5.6,1.6,8.5,1.8c6.4,0.5,8.2-5.6,7.7-10.9c0.4-4.6,0.8-10,4.1-13.4
					C79.7,169.7,78.4,175.3,78.7,180.9z"/>
				<path class="st15" d="M55.3,89c0.1,5.4-4.5,7.2-8.3,9.8c-3.7,0.4-7.6,2.1-11.4,2.3c-1.9,0.1-4.1,0.2-6-1.1
					c-2.8-1-6.4-1.6-8.2-4.1c10.4,5.6,21.1,6.6,30.6-1.3c2-1.5,3.2-3.5,2.7-6.2c-1.4-6.6-8.2-2-12-0.5c1.7-2,4.2-2.4,6.5-3.3
					C52.6,83.1,55.2,85.7,55.3,89z"/>
				<path class="st15" d="M111,39.7c-0.2,0.4-0.7,0.7-1.2,0.8c-3.4,0.1-6.9,0-10.3,0l1.7,2.7l0,0l-2.7-2.6c2.1-1.6,7.8-0.2,10.8-0.7
					s0.4-5.1-0.1-6.8c-3.1-5.5-9.9-3-8.5-11.9c4.1-4.5,2.3-7.8-0.8-12c6.5,4.9,3.1,8.3,1.3,14.4c0,2,1.1,3.9,2.9,4.7
					C108.7,30.5,112.5,34.4,111,39.7z"/>
				<path class="st15" d="M136.4,172.8L136.4,172.8c-0.8,0-1.7-0.2-2.5-0.5c-5.9-2.1-13.4,3.7-20,1.1c-2.8-0.8-3.4-3-4.2-5.1
					c-1.3-3.3-0.5-6.5,0.8-9.6c0.9-1.7,1.3-4,2.9-5.1c-0.9,2-1.7,4-2.6,6c-3.3,6.5,1.2,16,9.4,13.9
					C125.4,172.5,131.4,169.3,136.4,172.8z"/>
				<path class="st15" d="M14.5,108.2c-2,0.8-4.1,1.2-6.4,1.9c0.5,2.1,2.6,3.2,3,5.3c-1.9-1.8-3.3-4-4.3-6.4
					c3.8-0.1,11.9-0.7,7.5-6.2c-1-1.3-1.8-2.7-2.6-4.1c-1.6-2.9-1.3-6-0.7-9.1c0.5-3,2.6-0.2,3.6,1l0,0l-1.9-0.3L12.3,89h-0.6
					c-0.2,2.9-1.4,5.9,0.6,8.5C12.1,101.4,20.1,105.3,14.5,108.2z"/>
				<path class="st15" d="M44,78.8c-0.3,1.9-0.8,3.9-2.9,4.7c1.3-2,3.2-4.5,1.6-6.8c-2.8-1.2-5.8,2.2-8.4,3.2
					c-1.8,0.5-8,5.1-7.6,0.9c0.3-4.1,2.5-7.9,5.9-10.3c0,1.7-1.9,2.7-2.8,4c-2,1.8-1.9,4.3-2.3,6.7c3.1,0.8,5.3-1.5,7.9-2.8
					S44.6,73.1,44,78.8z"/>
				<path class="st15" d="M84,7.5c-0.1,0.4-0.1,1-0.2,1.1c-1.8,0.4-3.4,1.6-5.4,0.6c-2.7-1.5-5.5-2.8-8.4-3.7
					c-8.8-1.8-8.4,8.8-9,14.6c-0.6,1.7,1.2,5.9-1.8,5.3c1.8-1.5,1.1-3.7,1.4-5.6c0.7-6.9,0.5-17.5,10.6-14.4
					c2.2,0.8,4.4,1.8,6.5,2.9C80,9.6,81.9,8.8,84,7.5z"/>
				<path class="st15" d="M62.2,53.9c0.1,0.5-0.3,1-0.9,1.1c-0.2,0-0.4,0-0.6-0.1c-1.8-0.9-4.2-1-5.7-2.5l6.5,1.9
					c0.1-3.6,0.7-7.3-1.9-10.5c-4.5-5.2-6-13.5-0.5-18.6c-0.6,2.3-3,3.9-2.5,6.5c-1.4,1.6-0.8,2.8,0.1,4.3
					C57.9,44.2,63.2,42.5,62.2,53.9z"/>
				<path class="st15" d="M134.1,118.6c-0.1,0.1-0.2,0.2-0.3,0.3c0.1-0.9,0.4-1.7,0.9-2.5c3.6-4.7,4.4-10.8,4.1-16.6
					c-0.1-3.4-0.9-6.7-2.5-9.6c-0.6-1.1-0.5-2.5-0.8-3.8C140.8,96.6,141.2,108.7,134.1,118.6z"/>
				<path class="st15" d="M141.4,45.3c2.6-4-3.4-4.8-1.5-11.4c-8.8,2.8-3-1.5-4.3-5c-0.7,0.3-1.4,0.7-2.1,1.2
					c0.1-0.6,0.1-1.2,0.2-1.9c1.1,0.2,2.5-0.6,2.9,0.7c1,1.5-3.1,6,0.3,5.4c1.1-0.7,4-1.8,3.3,0.7C138.4,38.5,145.8,42.9,141.4,45.3
					z"/>
				<path class="st15" d="M135.8,42c-3-0.7-7.2-0.7-7.1,3.4c0.5,2.1-0.3,4.2-2,5.5c-2.2,1.3-8.2,0.4-7.4-3.2c0-0.2,0.6-0.3,0.9-0.5
					c-1.6,2.2,1.6,3.2,3.2,3.6c3.7,1,4.8-2.1,4.7-5.3C128.3,41.3,132.3,39.7,135.8,42z"/>
				<path class="st15" d="M158.2,77.4L158.2,77.4c-5.1,4.9-11.8,2.9-16.7-0.9c-2-1.6-4.1,2.4-5.8,3.4l0,0c0.3-2.4,2.4-3.3,4.1-4.3
					c1.8-0.8,3.4,1.2,4.8,2.1c3.3,2.7,8,2.8,11.4,0.3C156.8,77.8,157.5,77.5,158.2,77.4z"/>
				<path class="st15" d="M166,70.1L166,70.1c2.5-4.1,4.7-5.6,3.1-11c-0.7-2.9-1.6-5.8-2.8-8.5c-0.6-0.7-0.9-1.5-0.8-2.4
					c2.2,2.7,2.9,6.1,3.8,9.3C170.6,62.1,170.4,67.4,166,70.1z"/>
				<path class="st15" d="M133.5,119.4c-3.7,6-7.4,12-11.2,18c1.1-3.1,3.1-5.8,4.7-8.6C128.8,125.4,130.9,122.3,133.5,119.4z"/>
				<path class="st15" d="M54.5,52.2c-2.6,0.5-5.3-0.3-7.9-0.3c-5.1-0.3-9.4,2.6-14.1,4C38.5,51.2,47.2,50.6,54.5,52.2z"/>
				<path class="st15" d="M41.6,171.5c-9.3-2.8-11.8-0.5-18.5,5.7c1.4-3.4,5.2-5.6,8.4-6.9C35,169.2,38.6,169.6,41.6,171.5z"/>
				<path class="st15" d="M140.3,25.4c-0.4,0-0.8,0.2-1.1,0.1c-2.2-1-4.8-0.6-6.7,0.9c-2.2,1.6-2.8,2.7-1.6,5.1l2.6-1.5l0,0
					l-2.8,2.7C126.8,26.8,135.6,22.3,140.3,25.4z"/>
				<path class="st15" d="M122.1,137.8l-8.5,15.3l0,0c-0.3-1.7,0.9-2.7,1.6-4c1.8-3.5,3.8-6.9,5.7-10.3
					C121.3,138.4,121.7,138.1,122.1,137.8z"/>
				<path class="st15" d="M98.2,53.9l1.7,2.8c-1.3-0.6-1.6-1.5-2.4-2.8c3.2-0.8,6.7,0,9.7-2.2c-1.1-1.1-2-2.5-2.5-4l0,0l3.5,4.1
					C105.1,54.1,101.8,54,98.2,53.9z"/>
				<path class="st15" d="M158.8,40.4c-4.2-3.1-9.4-5.1-12.6-9.2C150.3,34.3,155.1,36.7,158.8,40.4z"/>
				<path class="st15" d="M91.9,157.7L91.9,157.7c-4.2-1.4-6.8,4.7-9.5,7c1.1-3.7,3.9-6.6,7.6-7.7C90.7,156.7,91.6,156.4,91.9,157.7
					z"/>
				<path class="st15" d="M37,66.6c0,0.4-0.5,0.8-0.7,1.2c0.8-5.2-5.9-0.6-8.2-0.1c0.1-1.4,4.2-2.2,5.5-3C35.1,64,37.2,65.2,37,66.6
					z"/>
				<path class="st15" d="M42.7,87.8c-7.6,3.1-4.5-0.3-1.6-4.4c-0.4,1.9-2,3-2.3,5L42.7,87.8z"/>
				<polygon class="st15" points="135.8,42 135.8,42 135.8,42 				"/>
				<path class="st15" d="M141.4,45.3c0,1.1-0.9,2-2,2c0,0,0,0-0.1,0c-0.2,0-0.3,0-0.5-0.1c-2.6-0.5-2.2-3.2-3.1-5.2
					C138,44.5,137.1,48.5,141.4,45.3z"/>
				<path class="st15" d="M28.2,67.6c-2.3,0.3-4.6,1.8-7,1.2c0.3-1.3,1.3-2.2,2.1-3.2c-0.2,0.7-0.7,1.9-0.5,2.5
					C24.5,68.8,26.4,67.8,28.2,67.6z"/>
				<path class="st15" d="M135.5,80.4c-1.7,2-1.3,3.7,0,5.9l0,0c-1.5-0.8-2.1-2.6-1.5-4.2c0.4-0.8,0.3-2.2,1.8-2.2
					C135.7,80.1,135.6,80.3,135.5,80.4z"/>
				<path class="st15" d="M166,70.1l-4.8,4.5C162.2,72.6,163.9,71,166,70.1z"/>
				<path class="st15" d="M31.3,57.4c-1.2,0.9-3,3.6-4.4,3.6l0,0l4.4-4.3C31.3,57,31.4,57.3,31.3,57.4z"/>
				<path class="st15" d="M26.9,61.1c-0.6,1.9-1.9,3.5-3.6,4.5L26.9,61.1L26.9,61.1z"/>
				<path class="st16" d="M131.5,37.8c0.1-0.7,0.2-1.3,0.3-2.1l2.4,2.1H131.5z"/>
				<path class="st15" d="M104.3,47.2c-1.6-0.8-2.7-2.3-3-4L104.3,47.2z"/>
				<path class="st15" d="M164.9,47.4c-1.1-0.4-3.1-2.9-3.2-4C162.8,44.7,163.9,46,164.9,47.4z"/>
				<path class="st15" d="M36.4,67.7c-0.2,1.3-2,2.6-3.8,2.6l0,0L36.4,67.7z"/>
				<path class="st15" d="M20,94.8c-1.3-0.3-2.8-0.5-3.1-2.3L20,94.8z"/>
				<path class="st15" d="M161.2,74.6l-3.1,2.8C158.8,76.1,159.6,74.9,161.2,74.6z"/>
				<path class="st15" d="M142.5,27.5L142.5,27.5c-1-0.4-2.3-0.5-2.1-2L142.5,27.5z"/>
				<path class="st15" d="M144.7,29.8c-1.2,0-2.2-1-2.2-2.2v-0.1l0,0C143.2,28.2,144,29,144.7,29.8z"/>
				<path class="st15" d="M101.9,58.6c-1.5,0.2-1.9-0.7-2-1.9L101.9,58.6z"/>
				<path class="st15" d="M17,92.5c-1.1,0-2.1-0.9-2.2-2l0,0L17,92.5z"/>
				<path class="st15" d="M161.6,43.3c-1.3,0.2-1.5-0.6-1.5-1.6L161.6,43.3z"/>
				<path class="st15" d="M31.4,56.8l1.1-0.8C32.6,56.9,32,56.9,31.4,56.8z"/>
				<path class="st17" d="M60.4,134l0.5,1.1L60.4,134z"/>
				<path class="st18" d="M140.1,71.6c-1.3,0.5-2.7,0.1-4.1-0.3c0.5,2,0.1,4.1-1.1,5.8c-1.1,1.6-1.3,1.7-3,0.8
					c-4.5-2.4-7.9-6.3-8.6-11.5c2.9-0.5,9.2,0.1,8.1-4.3c-0.1-0.9-0.1-2.4,0.4-2.8c1.1-0.7,1.8,0.6,2.4,1.3
					C135.5,62.8,142.5,69.3,140.1,71.6z"/>
				<path class="st18" d="M149,64.1c0.3,6.7-9.3-9.7-10.6-11C138.3,44,149.5,61.3,149,64.1z"/>
				<path class="st18" d="M159.6,56.5c0.8,7-10.4-9.6-11.8-11C147.1,36,159.9,53.5,159.6,56.5z"/>
				<path class="st15" d="M120.4,52c-0.2,0.2-0.3,0-0.2-0.2L120.4,52z"/>
				<path class="st15" d="M111.3,172.8c0,0.1-0.1,0.1-0.1,0.2c-0.1-0.1-0.1-0.2,0.1-0.3C111.3,172.7,111.3,172.8,111.3,172.8z"/>
				<path class="st3" d="M109.6,45.3l2.7,3.2l-0.5,0.4l-2.8-3.2L109.6,45.3z"/>
				<path class="st3" d="M120,168.5c10.3-4.8,25.5-1.3,28.9,12.5c0.8,2.3-1.7,0.6-1.7,0.6l-1.5-5.8l-3.4-4.2l-5-3l-5.9-1L120,168.5z
					"/>
				<path class="st14" d="M142,179.3c-0.6,3.7-10.8,2.4-10.9,2.4l-4.1-9.9C131.7,170.1,141.7,172,142,179.3z"/>
				<path class="st14" d="M31.6,170.3c-0.6,0.9-8.6,12-9.3,12.9C21.2,176.1,27.7,170.9,31.6,170.3z"/>
				<path class="st4" d="M79.1,78.7l4.6,27.5c0,0,20.8,9.5,21.6,9.4s15.8-6.3,15.8-6.3l6.4-14.8c-5.4-15.6-2.9-11.6-17.8-18.5
					l-17.5-2.4L79.1,78.7z"/>
				<path class="st5" d="M143.7,27.5c-14.9,3.5-0.9,12.2-13,11.5l-2.2-8.8l2.2-5.8l4-1.6l6.7,0.3"/>
				<path class="st5" d="M142.9,25.9l-2.5-0.5l-3.5,0.5l-3.9,3.3l1.2,7.4l5.7-2.8c0,0-0.2-6.2,2.9-2.1c4.3,5.5,8.7,3.2,8.7,3.2"/>
				<path class="st6" d="M141.8,30.6c0,0-6.6-2.5-1.6,8.8l2.3-0.5"/>
				<path class="st4" d="M71.2,114c0,0-3.7,6.8-0.4,20.5s12.7,0,12.7,0"/>
				<path class="st4" d="M45.8,119h-0.2c-3.7,0.9-7.5,1.2-11.3,1c-3.5-0.1-6.9-1.1-9.8-3c0.6-0.1,1.2-0.3,1.8-0.5
					c1.6-0.5,3.5-1.5,3.4-2.8L45.8,119z"/>
				<path class="st4" d="M21.5,102.8c-0.5-0.1-0.9-0.4-1.2-0.7C20.2,102,20.7,102.3,21.5,102.8z"/>
				<path class="st4" d="M48.3,104.3c1.4-0.4,2.8-1,4.1-1.7l-1.2,0.7l-15.4,9.2c0,0-5.3,0-7.3-3.1c-1.3-1.8-2.9-3.3-4.6-4.7
					c-0.9-0.8-1.8-1.4-2.5-1.9c0.6,0.2,1.2,0.4,1.8,0.6c1.6,0.5,3.2,0.9,4.7,1.2C37.2,106.6,44,105.6,48.3,104.3z"/>
				<path class="st4" d="M52.4,102.6l1.4-0.8h-0.1C53.3,102.1,52.9,102.4,52.4,102.6z"/>
				<path class="st14" d="M57,98.9c0,0-11.3,12.9-32.2,4.9"/>
				<path class="st14" d="M26,104.1c0,0-2.6-0.6-1.7,0.9s0,5.9,0,5.9l-5-8.5L17,99.2h5.6"/>
				<path class="st14" d="M27.3,108c-1.1-1.5-2.4-2.8-3.8-4c-1.4-1-2.5,2.4-2.5,2.4l3.7,3.1"/>
				<path class="st4" d="M130.4,60.5l2.5-1.9c0.1-0.1,0.2,0,0.3,0l8.8,11.5c0.1,0.1,0,0.2,0,0.3l-2.5,1.9c-0.1,0.1-0.2,0-0.3,0
					l-8.8-11.5C130.3,60.7,130.3,60.6,130.4,60.5z"/>
				<path class="st5" d="M126.6,31.1c0,0-3.6,6.6-10.7,9.3c0,0-0.8,0.7,0.7,3.8l6.9-0.4l3.7-2.4l5.7-8"/>
				<path class="st18" d="M148.1,45.9c0,0-1.4-1.8,0-2.9"/>
				<path class="st18" d="M158.6,53.7c0,0,2.2,3,0.7,4.3c0,0-0.9,1.3-4.5-2.9c-2.6-3.3-5.1-6.7-7.3-10.2"/>
				<path class="st18" d="M139.1,50.4c0,0-2.3,1.2,0.5,4.2"/>
				<path class="st18" d="M143,53.1c0,0,7.2,9.2,7.4,10.6s-1.2,2.5-2.1,2c-2.1-1.1,0-4.1,0-4.1"/>
				<path class="st18" d="M138.2,51.8c0,0-0.8,1,4.8,7.9"/>
				<path class="st5" d="M117,49c0,0-1.6,2.3,5.3,10c6.9,7.7-10.7,4.3-10.7,4.3l5.2-4.3"/>
				<polyline class="st5" points="115.8,49.3 116.8,49.8 117.8,54.1 118.1,58 117,58.6 114.7,58.1 114.3,54 				"/>
				<path class="st6" d="M160.1,41.7c0,0,12.4,10.9,9.7,22.6"/>
				<path class="st4" d="M79.2,27.7c0,0-8,6.2-3.4,29.9"/>
				<path class="st19" d="M103.8,107.5c-0.1,0-0.3,0-0.4,0c-0.3,0-0.6-0.1-0.8-0.2c-0.2-0.1-0.4-0.1-0.7-0.2c-0.2,0-0.5,0-0.7,0
					h-0.8c-0.5-0.1-1.6-0.4-1.6-2.2v-1.1c0-2.9-0.1-6-1.5-8.7c-0.2-0.4-0.5-0.8-0.9-1.1c-0.2-0.2-0.7-0.4-1.4-0.8l0.2,7.9
					c0,0.3,0,0.7,0.1,1l0,0c0.1,0.2,0.3,0.3,0.4,0.4c0.3,0.2,0.7,0.5,0.9,0.8c0.4,0.4,0.7,0.9,0.7,1.4c0,0.8-0.5,1.4-1.3,1.6
					c-0.3,0.1-0.7,0.2-1,0.2h-0.4c-0.4,0-0.8-0.1-1.2-0.2c-0.5-0.1-0.7-0.2-0.7-0.2l0,0l-0.6,0.1c-0.3,0-0.5,0.1-0.7,0.1
					c-0.1,0-0.3,0-0.4,0c-0.5,0-1-0.1-1.5-0.3c-0.8-0.2-1.3-0.8-1.4-1.6c0-0.4,0.1-0.7,0.3-1c0.1-0.2,0.3-0.4,0.5-0.6
					c0.2-0.1,0.4-0.3,0.6-0.4l0.3-0.2c0.2-0.1,0.4-0.2,0.5-0.4l0,0c0-0.1,0-0.3,0-0.4l-0.6-10.9h-0.1c-1-0.4-1.9-0.9-2.8-1.5
					c-0.7-0.4-1.1-1.1-1.2-1.8c-0.1-0.8,0.2-2.3,3.1-2.7s5.6-0.6,8.5-0.7c0.9,0,1.8-0.1,2.6-0.1c1,0,2,0.1,2.9,0.4
					c1.1,0.4,1.8,1.5,1.7,2.7c-0.1,1.4-0.9,2.6-2,3.4c-0.6,0.4-1.2,0.9-1.8,1.2l0.6,0.3l0.3,0.2c0.5,0.3,1,0.7,1.3,1.2
					c0.3,0.5,0.5,1.1,0.5,1.7c0,0.3,0,0.7,0.1,1c0.1,0.5,0.1,1,0.1,1.5c0.1,1.1,0.2,2.3,0.3,3.5c0.1,0.8,0.1,1.8,0.1,1.9
					c0,0.1,0,0.2,0,0.3c0.2,0.2,0.3,0.3,0.5,0.4c0.3,0.3,0.6,0.6,0.9,0.9c0.4,0.4,0.6,1,0.6,1.6c-0.1,0.7-0.6,1.3-1.3,1.4
					C104.5,107.5,104.2,107.5,103.8,107.5z M94.8,89.5c0.6,0.2,1.2,0.4,1.8,0.4h0.1c0.8-0.1,1.5-0.6,1.9-1.2
					c0.3-0.4,0.5-0.8,0.6-1.3l0,0c0,0-0.1,0-0.2,0c-0.8-0.2-1.5-0.2-2.3-0.1l0,0c-0.6,0-1.2,0.1-1.7,0.2h-0.1c0,0.2,0,0.4,0,0.7
					L94.8,89.5z"/>
				<path class="st20" d="M97.9,91l0.7,0.4l0.8,0.4l1,0.5c0.4,0.2,0.7,0.5,0.9,0.8c0.2,0.4,0.4,0.8,0.4,1.2c0,0.5,0.1,1.3,0.2,2.4
					s0.2,2.2,0.3,3.4s0.1,1.8,0.1,1.8c0,0.4,0.1,0.7,0.4,1c0.2,0.2,0.3,0.3,0.6,0.5c0.3,0.2,0.5,0.5,0.7,0.7
					c0.2,0.2,0.4,0.5,0.4,0.8c0,0.3-0.2,0.5-0.6,0.6c-0.3,0.1-0.6,0.1-0.9,0.1l-0.7-0.2c-0.3-0.1-0.5-0.1-0.8-0.2
					c-0.3,0-0.6,0-0.8,0h-0.7c-0.5-0.1-0.7-0.5-0.7-1.2v-1c0-3-0.1-6.2-1.5-9c-0.3-0.6-0.7-1-1.2-1.4c-0.5-0.3-1.3-0.8-2.5-1.4
					c-0.9-0.4-1.3-0.6-2.2-1s-1.3-0.7-2.2-1.1c-0.9-0.4-1.8-0.9-2.6-1.5c-0.4-0.2-0.7-0.6-0.7-1.1c-0.1-0.8,0.7-1.4,2.2-1.5
					c3.6-0.4,7.2-0.7,10.8-0.8c0.9,0,1.7,0.1,2.5,0.4c0.7,0.2,1.1,0.9,1,1.7c-0.1,1.1-0.7,2.1-1.6,2.7C100.1,89.9,99,90.5,97.9,91z
					 M93.4,91.4l0.2,9c0,0.4,0,0.9,0.2,1.3c0.2,0.3,0.4,0.6,0.8,0.8c0.3,0.2,0.5,0.4,0.8,0.7c0.2,0.2,0.4,0.5,0.4,0.8
					c0,0.3-0.2,0.5-0.6,0.7c-0.3,0.1-0.7,0.2-1,0.2c-0.3,0-0.7-0.1-1-0.2c-0.3-0.1-0.6-0.1-0.8-0.2c-0.3,0-0.5,0-0.8,0.1
					c-0.3,0-0.7,0.1-1,0.1c-0.4,0-0.8-0.1-1.2-0.3c-0.5-0.2-0.7-0.4-0.8-0.7c0-0.1,0-0.3,0.1-0.3c0.1-0.1,0.2-0.2,0.4-0.3
					c0.1-0.1,0.3-0.2,0.4-0.3l0.3-0.2c0.3-0.2,0.6-0.4,0.8-0.7c0.2-0.3,0.2-0.7,0.2-1c-0.2-3.6-0.4-7.3-0.6-10.9
					C91.2,90.4,92.2,91,93.4,91.4L93.4,91.4z M93.4,89.3c-1.2-0.5-2.3-1-3.4-1.7v-0.4c0-0.5-0.3-0.8-0.7-0.7c-0.1,0-0.3,0.1-0.4,0.2
					c-0.1,0.1-0.2,0.2-0.2,0.4c0,0.2,0.4,0.6,1.2,1s1.5,0.8,2.1,1.1c1.3,0.7,2.7,1.2,4.1,1.3c1.1-0.1,2-0.6,2.6-1.5
					c0.5-0.5,0.8-1.1,0.8-1.8c0-0.5-0.4-0.9-0.9-1C97.9,86,97,86,96.2,86c-0.7,0-1.3,0.1-2,0.3c-0.3,0.1-0.6,0.3-0.7,0.6
					c-0.1,0.3-0.1,0.7-0.1,1.1C93.3,88.4,93.3,88.9,93.4,89.3L93.4,89.3z"/>
				<path class="st19" d="M113.7,109.3c-0.5,0-0.9,0-1.3-0.1c-0.3-0.1-0.6-0.2-0.8-0.3l-0.6-0.2l0,0l-0.8-0.1
					c-0.3,0-0.6-0.1-0.9-0.1c-1-0.2-1.9-0.7-2.5-1.5c-0.7-0.8-1.2-1.7-1.4-2.8c-0.3-1.1-0.4-2.2-0.3-3.2c0.1-1,0.4-2.1,0.8-3
					c0.4-1,1.1-1.8,1.9-2.4c0.7-0.5,1.4-0.8,2.3-0.8c0.2,0,0.5,0,0.7,0c1.8,0.2,3.3,1.4,3.8,3.1l0.7-0.2l-0.1-0.2
					c-0.2-0.7-0.6-1.3-1.1-1.8c-0.6-0.7-1.3-1.3-2.1-1.8c-0.8-0.7-1.2-1-2.1-1.6c-2.2-1.5-3.2-3.3-3-5.3c0-1.1,0.6-2,1.6-2.5
					c0.7-0.4,1.4-0.6,2.2-0.6h0.4c3.3,0.1,4.9,0.3,8.2,0.6c1.6,0.2,2.6,0.6,3.2,1.3c0.3,0.5,0.5,1.1,0.3,1.7
					c-0.2,0.9-0.9,1.7-1.8,2.1l-1.2,0.6h-0.1c0.1,0.2,0.1,0.4,0.2,0.6l0.1,0.9l-0.9,0.1h-0.3c-0.2,0-0.5,0-0.7,0
					c-0.3,0-0.5-0.1-0.7-0.3c0.6,0.5,1.1,1.1,1.6,1.8c0.8,1.2,1.4,2.5,1.6,3.9c0.2,1.7,0.1,3.5-0.3,5.1c-0.3,1.4-0.9,2.6-1.6,3.8
					c-0.7,1.1-1.6,2-2.6,2.6C115.2,109,114.5,109.2,113.7,109.3z M110.5,100.6c0,0.1-0.1,0.2-0.1,0.3c-0.1,0.7,0,1.3,1.6,1.6
					c0.3,0.1,0.6,0.1,0.9,0.1c0.4,0,0.9-0.2,1.2-0.4c0.5-0.5,0.9-1.1,1.1-1.8c-0.1,0.2-0.2,0.5-0.4,0.7c-0.3,0.6-0.9,1-1.6,1
					c-0.2,0-0.3,0-0.5,0c-0.4-0.1-0.7-0.2-1-0.4c-0.3-0.2-0.5-0.4-0.7-0.6C110.8,100.9,110.7,100.7,110.5,100.6z M112,87.3
					c0.4,0.5,0.9,0.8,1.4,1.2c1,0.7,1.5,1,2.4,1.7c0.3,0.2,0.6,0.5,0.9,0.8c-0.8-1-0.8-2.3,0-3.3c-0.2-0.1-0.5-0.1-0.8-0.1
					c-1.3-0.1-2-0.2-3.3-0.3L112,87.3L112,87.3z"/>
				<path class="st20" d="M117.8,90.3c-0.2,0-0.5,0-0.8,0c-0.3-0.1-0.6-0.3-0.7-0.6c-0.2-0.3-0.2-0.7-0.1-1c0.1-0.3,0.2-0.6,0.4-0.8
					c0.2-0.2,0.3-0.4,0.4-0.6c0.1-0.5-0.5-0.9-1.9-1s-2-0.2-3.3-0.3c-1.1-0.1-1.7,0.2-1.8,0.7s0.6,1.3,1.9,2.2
					c0.9,0.7,1.4,1,2.3,1.7c1.1,0.7,2,1.7,2.8,2.7c0.7,1,1.2,2.2,1.4,3.4c0.2,1.6,0.1,3.1-0.3,4.6c-0.3,1.2-0.8,2.4-1.4,3.4
					c-0.6,0.9-1.3,1.7-2.2,2.2c-0.8,0.5-1.8,0.6-2.7,0.4c-0.2-0.1-0.5-0.2-0.7-0.2c-0.4-0.2-0.7-0.2-0.7-0.2s-0.4-0.1-0.9-0.1
					l-0.8-0.1c-0.8-0.2-1.4-0.6-1.9-1.2c-0.6-0.7-1-1.5-1.2-2.3c-0.3-0.9-0.3-1.9-0.2-2.8c0.1-0.9,0.3-1.8,0.7-2.7
					c0.3-0.8,0.9-1.5,1.6-2c0.6-0.5,1.5-0.7,2.2-0.6c1.4,0.2,2.6,1.1,3,2.4c0.2,0.4,0.4,0.7,0.6,0.7c0.1,0,0.3,0,0.4-0.1
					c-0.2,0.6-0.4,1.1-0.7,1.7c-0.2,0.4-0.7,0.6-1.1,0.5c-0.2,0-0.4-0.1-0.6-0.2c-0.2-0.1-0.4-0.3-0.6-0.5c-0.2-0.2-0.3-0.3-0.6-0.5
					c-0.2-0.1-0.4-0.2-0.6-0.2c-0.3,0-0.5,0.1-0.6,0.3c-0.2,0.2-0.3,0.5-0.4,0.8c-0.2,1.5,0.6,2.4,2.3,2.7c1,0.3,2,0.1,2.9-0.5
					c0.8-0.8,1.4-1.8,1.6-2.9c0.2-0.9,0.2-1.9-0.1-2.8c-0.3-0.8-0.7-1.5-1.3-2.2c-0.7-0.7-1.4-1.3-2.2-1.9c-0.8-0.6-1.2-0.9-2.1-1.6
					c-1.8-1.3-2.7-2.7-2.5-4.3c0-0.7,0.4-1.4,1-1.7c0.6-0.3,1.4-0.5,2.1-0.5c3.2,0.1,4.7,0.2,7.9,0.6c1.9,0.2,2.8,0.8,2.5,1.7
					c-0.1,0.7-0.6,1.2-1.2,1.5l-1.2,0.6c-0.5,0.2-0.7,0.4-0.8,0.8c0,0.1,0,0.3,0.1,0.4C117.7,90,117.7,90.1,117.8,90.3z"/>
				<path class="st5" d="M227.1,107.8c-0.3,0-0.9,0-5.9-0.2c-3.4-0.1-5.9-0.2-7.4-0.2c-1.7,0-3.6,0-5.8,0.2l-3.3,0.2h-0.1
					c-1.9-0.1-3.8-0.4-5.6-1c-5.6-1.6-6.4-5-6.4-6.9c0-2.4,1.4-4.6,3.6-5.6l2.6-1.7v-25c-3.2-1.8-6.2-3.8-6.2-7.4v-0.3
					c0.1-1.6,0.9-5.4,6.8-6.6c1.9-0.4,3.8-0.6,5.7-0.6h21.2c2.1-0.1,4.3,0.2,6.4,0.8c4.8,1.5,5.5,4.8,5.5,6.6c0,2.8-1.6,5.4-4.9,7.8
					c-1.1,0.8-2.2,1.6-3.4,2.3c1.9,1.6,3,4.1,3,6.6c0.1,2.9-1.4,5.7-3.8,7.3l4.6,2.4c5.6,2.9,6.4,7.4,6.4,9.7c0.2,3.5-1.4,6.9-4.2,9
					C233.3,107.1,230.2,108,227.1,107.8z M217.2,88.8c1.5,0.4,3,0.5,4.6,0.5h2.7c0.7,0,1.4,0,2.1-0.1l1-4.2
					c-0.3,0.1-0.6,0.2-0.9,0.3l-6.6,2.1v-2.4l-0.5,0.1c-0.8,0.2-1.7,0.4-2.6,0.5v0.1C217.1,87.1,217.1,88.1,217.2,88.8z"/>
				<path class="st5" d="M247.1,107.5c-0.7,0-1.4-0.1-2.1-0.2l-0.9-0.1l-0.8,0.1c-0.7,0.1-1.4,0.2-2.1,0.2c-2.2,0-4.3-0.6-6.2-1.8
					c-2.2-1-3.5-3.2-3.6-5.6c0-3,2.2-4.7,3.7-5.7V64.3c-0.4-0.3-0.8-0.7-1.2-1.1c-1.1-1.1-1.7-2.7-1.7-4.2c0-1.1,0.4-6.3,8.2-6.3
					h6.6c2-0.1,3.8,0.9,5,2.5c0.9,1.2,1.3,2.6,1.3,4v35.3c1.8,1,3.2,2.8,3.6,4.8l0.1,0.4v0.4c0,2.4-1.4,4.6-3.6,5.6
					C251.5,106.9,249.4,107.5,247.1,107.5z"/>
				<path class="st5" d="M282.9,107.5c-0.7,0-1.4-0.1-2.1-0.2l-0.8-0.1l-0.9,0.1c-0.7,0.1-1.4,0.2-2.1,0.2c-2.2,0-4.3-0.6-6.2-1.8
					c-2.1-1-3.5-3.1-3.5-5.5c0-3,2.1-4.8,3.7-5.8V76.4c-1.7-1.2-2.8-3.2-2.9-5.4c0-1,0.4-6.3,8.2-6.3h7.8c1.7-0.1,3.3,0.3,4.8,1
					c1.3-0.7,2.8-1,4.2-1c2.1,0,4.1,0.6,5.8,1.8c1.7,1.1,3,2.7,3.8,4.5c0.8,1.8,1.3,3.8,1.3,5.8c0,2.7-0.8,5.4-2.3,7.6
					c-1.2,1.9-2.9,3.5-5,4.4l-0.1,1.2l-3.5,0.9c-0.6,0.1-1.3,0.2-1.9,0.2c-0.7,0-1.4-0.1-2-0.3v3.7c1.6,1,3.8,2.8,3.8,5.8
					c0,2.3-1.3,4.4-3.4,5.4h-0.1C287.3,106.8,285.1,107.5,282.9,107.5z"/>
				<path class="st5" d="M310.6,107.5c-0.7,0-1.4-0.1-2.1-0.2l-0.8-0.1l-0.8,0.1c-0.7,0.1-1.4,0.2-2.1,0.2c-2.2,0-4.4-0.7-6.3-1.8
					l-0.1-0.1l-0.1-0.1c-2-1.1-3.3-3.2-3.4-5.5v-0.6l0.1-0.6c0.6-1.9,1.9-3.5,3.6-4.5V76.4c-1.8-1.2-2.8-3.2-2.9-5.4
					c0-2.1,1.1-4.1,2.9-5.1c-0.5-1.1-0.7-2.2-0.7-3.4c0-3.6,2.5-7.8,9.7-7.8s9.8,4.2,9.8,7.8c0,1.2-0.3,2.3-0.7,3.4
					c1.8,1.1,2.9,3,2.9,5.1c0,2.2-1.1,4.2-2.9,5.4v18c1.7,1,3,2.5,3.6,4.4l0.2,0.6v0.7c0,2.4-1.5,4.6-3.6,5.6
					C314.9,106.9,312.8,107.5,310.6,107.5z"/>
				<path class="st5" d="M347.5,107.5c-0.7,0-1.4-0.1-2.1-0.2c-0.4-0.1-0.6-0.1-0.8-0.1l-0.9,0.1c-0.7,0.1-1.4,0.2-2.1,0.2
					c-2.1-0.1-4.2-0.6-6.1-1.7c-0.2-0.1-0.5-0.3-0.7-0.4l-0.4,0.3l-0.2,0.1l-0.2,0.1c-1.9,1-4,1.6-6.1,1.6c-0.7,0-1.4-0.1-2.1-0.2
					l-0.8-0.1l-0.9,0.1c-0.7,0.1-1.4,0.2-2.2,0.2c-2.1-0.1-4.2-0.6-6.1-1.7c-2.2-1-3.6-3.2-3.6-5.7c0-1.8,0.8-3.5,2.2-4.7
					c0.5-0.4,1-0.8,1.5-1.1V76.6c-0.5-0.3-1-0.7-1.4-1.1c-1.3-1.2-2-2.9-2-4.6c0-2.7,1.9-5.1,4.6-5.7c1.3-0.3,2.7-0.5,4.1-0.4h7.9
					c1.7-0.1,3.4,0.3,5,1.1c1.9-1,4.1-1.5,6.2-1.5c2.3,0,4.6,0.6,6.7,1.7c2.1,1.1,3.8,2.9,4.9,5c1.1,2.1,1.6,4.4,1.6,6.8v16.7
					l0.3,0.2c0.6,0.4,1.2,0.9,1.8,1.5c1.1,1.1,1.6,2.6,1.7,4.1c-0.1,2.2-1.3,4.3-3.2,5.4l-0.2,0.1l-0.2,0.1
					C351.7,106.9,349.6,107.5,347.5,107.5z M334,94.5c0.2,0.2,0.5,0.3,0.7,0.5c0.2-0.2,0.5-0.3,0.7-0.5V81.4l-1.4,0.6V94.5z"/>
				<path class="st5" d="M376.9,107.5c-1,0-2-0.1-3.1-0.2c-1.5-0.1-1.9-0.2-2-0.2s-0.8,0-2,0.1c-1.7,0.1-2.1,0.2-2.3,0.2
					c-2.8,0-5.6-0.7-8-2.2c-2.2-1.4-4.1-3.2-5.5-5.4c-1.3-2.1-2.4-4.3-3-6.7c-0.6-2.3-1-4.7-1-7.1c-0.1-3.9,0.7-7.7,2.4-11.2
					c1.6-3.4,4.2-6.3,7.5-8.2c3.5-2,7.4-2.9,11.4-2.8c2.1,0,4.2,0.3,6.2,0.8c2.4,0.5,4.6,1.6,6.5,3.2c3.8,3.2,4.8,8.6,2.4,12.9
					l0.8,7.2c1.6,2,2.5,4.5,2.5,7.1c0,2.3-0.6,4.5-1.8,6.4c-1.1,1.9-2.8,3.4-4.7,4.5C381.3,107,379.1,107.5,376.9,107.5z
					 M366.3,82.6c0,4.4,1.4,5.8,6.1,5.8h1.7c0.9,0,1.9-0.1,2.8-0.2l0.6-1.3l0.6-0.7c-0.4,0-0.7,0.1-1.1,0.1c-1,0-2.1-0.1-3.1-0.3
					l-0.7,2.3l-5.8-4.7c-0.4-0.4-0.8-0.8-1.2-1.2V82.6z"/>
				<path class="st5" d="M406.6,107.5c-0.8,0-1.5-0.1-2.3-0.2l-1.3-0.1l-1.1,0.1c-1.3,0.1-1.6,0.1-1.9,0.1c-2.6,0-5.2-0.8-7.5-2.2
					c-2.1-1.3-4-2.9-5.5-4.9c-1.6-2.2-2.8-4.6-3.5-7.2c-0.8-2.5-1.2-5.1-1.2-7.7c-0.1-3.7,0.6-7.4,2-10.9c1.4-3.5,3.8-6.4,7-8.4
					c0.8-0.5,1.7-1,2.6-1.3c0.5-2.2,2-4,4-5l5.6-3c0.5-0.3,0.9-0.6,1.4-0.9c1-0.6,1.7-1.1,2.2-1.4l0.2-0.1l0.2-0.1
					c1.3-0.9,2.8-1.4,4.4-1.5c1.8,0,3.6,0.7,4.8,2.1c1.1,1.2,1.6,2.7,1.6,4.3c0,1.3-0.4,2.7-1.2,3.8c-0.6,0.9-1.4,1.7-2.4,2.2
					l-1,0.6c1.7,0.9,3.2,2.1,4.4,3.5c2,2.2,3.5,4.8,4.3,7.7c0.8,2.8,1.2,5.6,1.2,8.5c0,2.3-0.3,4.6-0.9,6.9
					c-0.6,2.4-1.5,4.7-2.7,6.8c-1.3,2.3-3.1,4.3-5.3,5.8C412.3,106.7,409.5,107.5,406.6,107.5z M402.8,76.7c-0.5,0-1.1,0.1-1.5,0.4
					c-0.5,0.4-0.9,1-1.1,1.6c-0.4,1-0.5,2-0.5,3c-0.1,1.5,0.2,3,1.1,4.3c0.5,0.6,1.2,0.9,2,0.8c0.7,0,1.4-0.1,2-0.5
					c0.5-0.4,0.9-0.9,1.2-1.5c0.3-0.8,0.5-1.7,0.5-2.7c0-2.7-0.6-4-1.1-4.5C405.1,77.3,404.7,76.7,402.8,76.7L402.8,76.7z"/>
				<path class="st5" d="M451.6,107.5c-0.7,0-1.4-0.1-2.1-0.2c-0.4-0.1-0.6-0.1-0.8-0.1c-0.3,0-0.6,0.1-0.9,0.1
					c-0.7,0.1-1.4,0.2-2.1,0.2c-2.1-0.1-4.2-0.6-6-1.7c-0.2-0.1-0.5-0.3-0.7-0.4l-0.4,0.3l-0.2,0.1l-0.2,0.1c-1.9,1-4,1.6-6.1,1.6
					c-0.7,0-1.4-0.1-2.1-0.2l-0.8-0.1l-0.8,0.1c-0.7,0.1-1.4,0.2-2.2,0.2c-2.1,0-4.2-0.6-6.1-1.7c-2.2-1-3.6-3.2-3.7-5.7
					c0-1.8,0.8-3.5,2.2-4.7c0.5-0.4,0.9-0.8,1.5-1.1V76.6c-0.5-0.3-1-0.7-1.4-1.1c-1.3-1.2-2-2.9-2-4.6c0.1-2.7,2-5,4.6-5.7
					c1.3-0.3,2.7-0.5,4.1-0.4h7.9c1.7-0.1,3.4,0.3,5,1.1c1.9-1,4.1-1.5,6.2-1.5c2.3,0,4.7,0.6,6.7,1.7c2.1,1.1,3.8,2.9,4.9,5
					c1.1,2.1,1.6,4.4,1.6,6.8v16.7l0.3,0.2c0.6,0.4,1.2,0.9,1.7,1.5c1.1,1.1,1.6,2.6,1.7,4.1c-0.1,2.2-1.3,4.3-3.2,5.4l-0.2,0.1
					l-0.2,0.1C455.9,106.9,453.8,107.5,451.6,107.5z M438.2,94.5c0.2,0.2,0.5,0.3,0.7,0.5c0.2-0.2,0.4-0.3,0.7-0.5V81.4l-1.4,0.6
					L438.2,94.5z"/>
				<path class="st20" d="M227.1,105.7c-0.2,0-1.1,0-5.8-0.2c-3.4-0.1-6-0.2-7.5-0.2c-1.7,0-3.7,0-5.9,0.2l-3.3,0.2h-0.1
					c-1.7-0.1-3.4-0.4-5-0.9c-4-1.1-4.8-3.2-4.8-4.8c0-1.1,0.4-2.6,2.5-3.8l3.5-2.3h0.1c0.1-1,0.2-1.9,0.1-2.9V68
					c0-0.6,0-1.2-0.2-1.8c-0.2-0.1-0.4-0.3-0.6-0.4h-0.1c-3.4-1.9-5.3-3.4-5.3-5.6V60c0.1-1.3,0.8-3.7,5-4.5
					c1.7-0.4,3.5-0.5,5.3-0.5h21.2c2.4,0,9.7,0,9.7,5.2c0,2.1-1.3,4.1-4,6.1c-1.8,1.4-3.8,2.7-5.8,3.8l-0.6,0.3
					c0.7,0.3,1.3,0.6,1.9,1c2,1.2,3.2,3.3,3.2,5.7c0.1,2.9-1.8,5.5-4.6,6.3l-3.8,1.2V82l-3.3,0.9c-1.2,0.4-2.5,0.6-3.7,0.6h-0.5v2.2
					c-0.1,1.5,0,3.1,0.3,4.6c0.4,0.3,1.8,1.2,6.6,1.2h2.7c1.3,0.1,2.6-0.1,3.9-0.5c0.1-0.2,0.2-0.3,0.2-0.5l0.9-3.6l3.3,1.7
					c4.3,2.3,5.2,5.5,5.2,7.8c0.2,2.8-1.1,5.5-3.3,7.2C232.4,105,229.7,105.8,227.1,105.7z M215,64.1c-0.1,0.7-0.1,1.3-0.1,2v0.6
					l3.4-2.7h-2.5C215.5,64,215.2,64,215,64.1z"/>
				<path class="st5" d="M223.2,163c-6.7,0-11.8-2.4-15.1-7v-0.1c-2.9-4.2-4.3-9.3-4.2-14.4c0.1-3,0.6-5.9,1.6-8.7
					c1.1-3.4,3-6.5,5.6-8.9c3-2.9,7-4.5,11.2-4.3c0.8,0,1.6,0,2.4,0.1c-1.6-1.3-2.5-3.2-2.5-5.3c0-2.2,1.3-4.9,5-5.8
					c1.5-0.3,3.1-0.5,4.6-0.4h6.7c1.4,0,2.8,0.3,3.9,1.1c1.6,1.2,2.5,3.1,2.5,5.1v35c2.1,1.3,3.9,2.9,4.2,5.4v0.7
					c0,2.2-1.2,4.1-3.6,5.6l-0.3,0.2l-0.3,0.1c-2.1,1-4.5,1.6-6.9,1.6c-0.2,0-0.5,0-3.5-0.2c-2.3-0.2-3.1-0.2-3.4-0.2s-1.4,0-4,0.2
					C223.7,163,223.5,163,223.2,163z M222.7,143.9h1.6c0.7-0.1,1.3-0.1,1.7-0.1h0.7v-9.4c-0.4-0.2-0.7-0.4-1.1-0.6h-0.1
					c-0.5-0.3-1.1-0.4-1.6-0.4c-0.6,0-1.2,0.4-1.4,1c-0.8,1.6-1.3,3.3-1.2,5.1c0,1.4,0.3,2.8,1,4
					C222.6,143.8,222.7,143.9,222.7,143.9L222.7,143.9z"/>
				<path class="st20" d="M247.1,105.3c-0.6,0-1.2-0.1-1.8-0.2l-1.1-0.1l-1.1,0.1c-0.6,0.1-1.2,0.2-1.9,0.2c-1.8,0-3.6-0.6-5.1-1.5
					c-1.5-0.7-2.4-2.1-2.4-3.7c0-2.2,2.1-3.5,3.2-4.2l0.4-0.2V63.3L237,63c-0.5-0.4-1-0.8-1.4-1.2c-0.7-0.8-1.1-1.8-1.1-2.8
					c0-1.2,0.6-4.1,6-4.1h6.6c1.3,0,2.4,0.6,3.2,1.6c0.6,0.8,0.9,1.7,0.9,2.7v36.6c2,1.1,3.4,2.3,3.6,3.9v0.5c0,1.6-1,3-2.4,3.7
					C250.7,104.8,249,105.3,247.1,105.3z"/>
				<path class="st20" d="M282.9,105.3c-0.6,0-1.2-0.1-1.8-0.2c-0.7-0.1-1-0.1-1.1-0.1c-0.4,0-0.8,0-1.2,0.1
					c-0.6,0.1-1.2,0.2-1.8,0.2c-1.8,0-3.6-0.5-5.1-1.5c-1.4-0.6-2.4-2-2.4-3.6c0-2.2,1.7-3.5,3.7-4.6V75.3c-0.2-0.2-0.5-0.4-0.7-0.6
					c-1.2-0.8-2-2.2-2.1-3.7c0-1.2,0.6-4.1,6-4.1h7.8c2.4,0,3.9,0.6,4.7,1.4c1.3-0.9,2.8-1.4,4.4-1.4c1.6,0,3.2,0.5,4.5,1.4
					c1.3,0.9,2.4,2.2,3.1,3.6c0.7,1.5,1.1,3.1,1,4.8c0,2.3-0.7,4.5-2,6.4c-1.2,1.9-3,3.4-5.2,4.1l-0.1,1l-2,0.5
					c-0.5,0.1-0.9,0.2-1.4,0.2c-1.3,0-2.6-0.6-3.4-1.7c-0.3-0.4-0.6-0.8-0.8-1.3v9.8c1.9,1.1,3.8,2.4,3.8,4.5
					c-0.1,1.5-1,2.9-2.3,3.6l0,0C286.6,104.8,284.7,105.3,282.9,105.3z M286.7,81.9L286.7,81.9c0.2-0.5,0.5-0.9,0.7-1.4l0.2-0.3
					l-0.3,0.1h-0.1c-0.2,0.1-0.4,0.1-0.6,0.2L286.7,81.9z"/>
				<path class="st5" d="M268.4,163c-1,0-2-0.1-3-0.2c-1.5-0.1-2-0.2-2.2-0.2s-0.6,0-2.3,0.1c-2.1,0.1-2.8,0.2-3.2,0.2
					c-3.4,0-6.6-1.1-9.2-3.2c-2.5-1.9-4.4-4.5-5.6-7.4c-1.2-2.7-1.9-5.7-1.9-8.6c0-2.3,0.2-4.5,0.6-6.8c0.5-2.3,1.2-4.5,2.2-6.7
					c1.1-2.2,2.6-4.2,4.4-5.9c3.2-2.9,7.6-4.3,12.8-4.3h6.9c1.5,0,2.9,0.2,4.4,0.5c1.8,0.4,3.6,1.1,5.1,2.2c2.1,1.5,3.4,4,3.4,6.7
					c-0.1,3.5-1.6,6.9-4.3,9.2h0c-0.6,0.5-1.1,1-1.8,1.5c4,1.3,6.7,5.1,6.8,9.3v0.1c0,2.4-0.6,4.8-1.9,6.9
					C277.5,160.5,273.1,163,268.4,163z"/>
				<path class="st20" d="M310.6,105.3c-0.6,0-1.2-0.1-1.8-0.2c-0.7-0.1-1-0.1-1.1-0.1c-0.4,0-0.7,0-1.1,0.1
					c-0.6,0.1-1.2,0.2-1.8,0.2c-1.8-0.1-3.6-0.6-5.2-1.5h-0.1c-1.4-0.7-2.3-2.1-2.3-3.6v-0.3l0.1-0.3c0.4-1.6,1.7-2.7,3.7-3.8V75.3
					l-0.8-0.6c-1.3-0.8-2-2.2-2.1-3.7c0-1.1,0.5-3.5,4.3-4c-1.4-1.1-2.1-2.7-2.1-4.5c0-1.3,0.5-5.6,7.5-5.6s7.6,4.3,7.6,5.6
					c0,1.7-0.8,3.4-2.2,4.5c3.8,0.5,4.3,2.9,4.3,4c0,1.6-0.8,3-2.2,3.8l-0.7,0.5v20.4c2.2,1.3,3.3,2.4,3.7,3.7l0.1,0.4v0.4
					c-0.1,1.6-1,3.1-2.5,3.7C314.2,104.8,312.4,105.3,310.6,105.3z"/>
				<path class="st20" d="M347.5,105.3c-0.6,0-1.2-0.1-1.8-0.2c-0.7-0.1-1-0.1-1.1-0.1c-0.4,0-0.8,0.1-1.2,0.1
					c-0.6,0.1-1.2,0.2-1.9,0.2c-1.8-0.1-3.5-0.5-5-1.4c-0.7-0.4-1.3-0.9-1.7-1.5c-0.4,0.6-0.9,1-1.5,1.4l-0.1,0.1h-0.1
					c-1.6,0.8-3.3,1.3-5.1,1.4c-0.6,0-1.2-0.1-1.8-0.2l-1.1-0.1l-1.1,0.1c-0.6,0.1-1.2,0.2-1.9,0.2c-1.8,0-3.5-0.5-5.1-1.4
					c-1.5-0.6-2.5-2.1-2.5-3.7c0-1.2,0.6-2.3,1.5-3c0.5-0.4,1.1-0.8,1.7-1.1l0.4-0.2V75.4l-0.4-0.3c-0.6-0.4-1.2-0.8-1.7-1.2
					c-0.8-0.8-1.3-1.9-1.3-3c0-1.7,1.3-3.2,3-3.6c1.1-0.3,2.3-0.4,3.5-0.4h7.8c2.5,0,4,0.6,4.8,1.4c1.9-1.2,4.1-1.8,6.4-1.8
					c2,0,3.9,0.4,5.7,1.4c1.7,0.9,3.2,2.4,4.1,4.1c0.9,1.8,1.4,3.8,1.3,5.8v18l0.1,0.1c0.4,0.2,0.8,0.5,1.1,0.7c0.5,0.3,1,0.6,1.4,1
					c0.7,0.7,1,1.7,1,2.6c-0.1,1.5-0.9,2.8-2.2,3.6l-0.1,0.1l-0.1,0.1C351,104.8,349.3,105.3,347.5,105.3z M331.8,95.7
					c1.1,0.5,2.1,1.3,2.9,2.3c0.2-0.3,0.4-0.5,0.7-0.8c0.5-0.5,1.1-0.9,1.7-1.2l0.5-0.3V80.2c0.1-0.5,0-1-0.2-1.4
					c-0.2,0-0.3-0.1-0.5-0.1c-0.9,0.1-1.7,0.3-2.5,0.7l-1.6,0.7c-0.2,0.1-0.5,0.2-1,0.4L331.8,95.7z"/>
				<path class="st5" d="M289.9,163c-0.7,0-1.4-0.1-2.1-0.2l-0.9-0.1l-0.8,0.1c-0.7,0.1-1.4,0.2-2.1,0.2c-2.2,0-4.3-0.6-6.2-1.8
					c-2.1-1-3.5-3.2-3.5-5.6c0-3,2.2-4.7,3.7-5.7v-30.1c-0.4-0.3-0.8-0.7-1.2-1.1c-1.1-1.2-1.7-2.7-1.7-4.3c0-1,0.4-6.3,8.2-6.3h6.6
					c2,0,3.8,0.9,4.9,2.5c0.9,1.2,1.3,2.6,1.3,4V150c1.8,1,3.2,2.8,3.6,4.8l0.1,0.4v0.4c0,2.4-1.4,4.6-3.6,5.6
					C294.2,162.4,292.1,163,289.9,163z"/>
				<path class="st20" d="M376.9,105.3c-1,0-1.9-0.1-2.9-0.2c-1.7-0.2-2.1-0.2-2.2-0.2c-0.7,0-1.5,0-2.2,0.1c-1.6,0.1-2,0.1-2.2,0.1
					c-2.4,0-4.8-0.6-6.9-1.8c-2-1.2-3.6-2.8-4.9-4.7c-1.2-1.9-2.1-3.9-2.7-6.1c-0.6-2.1-0.9-4.3-0.9-6.5c-0.1-3.5,0.7-7,2.1-10.2
					c1.4-3.1,3.8-5.6,6.7-7.3c3.1-1.7,6.7-2.6,10.2-2.5c1.9,0,3.8,0.2,5.7,0.7c2.1,0.5,4,1.4,5.6,2.7c1.9,1.5,3,3.9,2.9,6.3
					c0,2.2-0.9,4.3-2.5,5.8c-2.6,2.5-6.5,3.2-9.9,1.7c-0.1-0.1-0.3-0.2-0.4-0.2l-0.5,1.5l-3.3-2.7c-1.3-0.9-2-2.4-2.1-3.9
					c0-0.6,0.1-1.2,0.3-1.8c-0.4,0.3-0.8,0.5-1.1,0.8c-1.3,1.1-1.9,3-1.9,5.7c0,5.7,2.4,8,8.3,8h1.7c3.2,0,4.2-0.6,4.4-0.7l0.9-1.7
					l5.1-5.2l0.6,5.7c1.5,1.7,2.4,3.9,2.4,6.2c0,1.9-0.5,3.7-1.5,5.3c-0.9,1.6-2.3,2.8-3.9,3.7C380.5,104.8,378.8,105.3,376.9,105.3
					z"/>
				<path class="st20" d="M406.6,105.3c-0.7,0-1.4-0.1-2.1-0.2c-1-0.1-1.4-0.1-1.5-0.1l-1.3,0.1c-1.3,0.1-1.5,0.1-1.7,0.1
					c-2.2,0-4.4-0.7-6.3-1.8c-1.9-1.1-3.5-2.6-4.8-4.3c-1.4-2-2.5-4.1-3.2-6.5c-0.7-2.3-1.1-4.6-1.1-7c-0.1-3.4,0.6-6.9,1.8-10.1
					c1.2-3,3.4-5.6,6.2-7.3c1.1-0.7,2.3-1.2,3.5-1.6v-0.2c0-2,1.2-3.7,3-4.5l5.6-3c0,0,0.3-0.2,1.5-1l2.2-1.5l0.1-0.1h0.1
					c1-0.7,2.1-1.1,3.3-1.2c1.2,0,2.2,0.5,3,1.4c0.7,0.8,1,1.8,1,2.9c0,0.9-0.3,1.8-0.8,2.5c-0.4,0.6-1,1.2-1.7,1.6l-4.8,2.8
					c5.6,1.4,10,5.8,11.5,11.4c0.7,2.6,1.1,5.2,1.1,7.9c0,2.1-0.3,4.3-0.8,6.3c-0.5,2.2-1.4,4.3-2.5,6.2c-1.2,2-2.7,3.7-4.6,5.1
					C411.4,104.6,409,105.3,406.6,105.3z M402.8,74.5c-1-0.1-2.1,0.2-2.9,0.9c-0.8,0.7-1.5,1.5-1.8,2.6c-0.4,1.2-0.7,2.5-0.7,3.7
					c-0.1,2,0.4,4,1.5,5.6c0.9,1.1,2.3,1.7,3.7,1.6c1.2,0.1,2.3-0.3,3.3-0.9c0.9-0.6,1.5-1.5,1.9-2.5c0.4-1.1,0.7-2.3,0.7-3.5
					c0-2.7-0.5-4.7-1.5-5.9C406.5,75.5,405.4,74.6,402.8,74.5L402.8,74.5z"/>
				<path class="st5" d="M336.3,163c-0.3,0-0.8,0-3.9-0.3c-2.5-0.3-3.1-0.3-3.1-0.3c-1.4,0-2.7,0.1-4.1,0.2
					c-2.4,0.2-2.9,0.3-3.2,0.3c-2,0-4-0.5-5.8-1.5c-1.8-1-3.3-2.3-4.5-4c-1.2-1.8-1.9-3.9-1.9-6.1c-0.1-1.7,0.3-3.3,1-4.8
					c0.2-0.4,0.5-0.9,0.9-1.5l-4.2-3.3l7.4-3.6c0.3-0.1,0.6-0.3,0.9-0.4c-0.3-0.3-0.7-0.6-1-0.9c-2.2-1.8-3.4-4.5-3.5-7.3
					c0-3.9,2.5-7,6.6-8.3c2.6-0.8,5.2-1.1,7.9-1.1h9.4c2.6-0.1,5.1,0.1,7.6,0.7c3.9,1,6.4,3.9,6.4,7.5c0,2.8-1.4,5.4-3.8,6.9
					c0.6,0.5,1.2,1.1,1.7,1.6c2.6,2.8,4,6.5,4,10.4c0,2.6-0.5,5.3-1.7,7.7c-1.1,2.4-3,4.5-5.3,5.9C341.8,162.3,339,163.1,336.3,163z
					"/>
				<path class="st20" d="M451.6,105.3c-0.6,0-1.2-0.1-1.8-0.2c-0.7-0.1-1-0.1-1.1-0.1c-0.4,0-0.8,0.1-1.2,0.1
					c-0.6,0.1-1.2,0.2-1.9,0.2c-1.8-0.1-3.5-0.5-5-1.4c-0.7-0.4-1.3-0.8-1.7-1.5c-0.4,0.6-0.9,1-1.5,1.4l-0.1,0.1h-0.1
					c-1.6,0.8-3.3,1.3-5.1,1.4c-0.6,0-1.2-0.1-1.8-0.2l-1.1-0.1l-1.1,0.1c-0.6,0.1-1.2,0.2-1.9,0.2c-1.8,0-3.5-0.5-5.1-1.4
					c-1.5-0.6-2.5-2.1-2.5-3.7c0-1.2,0.6-2.3,1.5-3c0.5-0.4,1.1-0.8,1.7-1.1l0.4-0.2V75.4l-0.4-0.3c-0.6-0.4-1.2-0.8-1.7-1.2
					c-0.8-0.8-1.3-1.9-1.3-3c0-1.7,1.3-3.2,3-3.6c1.1-0.3,2.3-0.4,3.5-0.4h7.9c2.5,0,4,0.6,4.8,1.4c1.9-1.2,4.1-1.8,6.4-1.8
					c2,0,3.9,0.4,5.7,1.4c1.7,0.9,3.1,2.4,4,4.1c0.9,1.8,1.4,3.8,1.3,5.8v18l0.1,0.1c0.4,0.2,0.8,0.4,1.1,0.7
					c0.5,0.3,0.9,0.7,1.3,1.1c0.7,0.7,1.1,1.6,1.1,2.6c-0.1,1.5-0.9,2.9-2.2,3.6l-0.1,0.1l-0.1,0.1
					C455.1,104.8,453.4,105.3,451.6,105.3z M436,95.7c1.1,0.6,2.1,1.3,2.9,2.3c0.2-0.3,0.4-0.5,0.7-0.8c0.5-0.5,1.1-0.9,1.7-1.2
					l0.5-0.3V80.2c0-0.5,0-1-0.2-1.4c-0.2-0.1-0.3-0.1-0.5-0.1c-0.9,0.1-1.7,0.3-2.5,0.7l-1.6,0.7c-0.3,0.1-0.7,0.3-1,0.4L436,95.7z
					"/>
				<path class="st4" d="M230.4,90.2c2.4,1.3,3.7,3,3.7,5.2c0.1,1.9-0.7,3.7-2.1,4.9c-1.7,1.2-3.8,1.7-5.9,1.6
					c-0.3,0-2.2-0.1-5.7-0.2s-6-0.2-7.6-0.2c-1.8,0-3.8,0-6,0.2l-3.2,0.2c-1.4-0.1-2.8-0.3-4.2-0.8c-1.8-0.5-2.7-1.2-2.7-2
					c0-0.4,0.4-0.8,1.1-1.3l3.5-2.3c0.7-0.4,1.2-1,1.4-1.8c0.2-1.2,0.3-2.4,0.3-3.6v-23c0.1-1.1-0.1-2.1-0.5-3.1
					c-0.4-0.8-1.1-1.3-1.9-1.7c-2.5-1.4-3.8-2.4-3.8-3.1c0-0.9,0.9-1.5,2.6-1.8c1.6-0.3,3.1-0.5,4.7-0.5h21.2c4.5,0,6.7,0.8,6.8,2.3
					c0,1.1-1,2.3-2.8,3.8c-1.7,1.3-3.5,2.5-5.4,3.5l-7,3.9c-2.1,1.2-3.1,2-3.1,2.4s0.2,0.5,0.7,0.5c0.2,0,0.4,0,0.5-0.1
					c1.9-0.8,3.9-1.3,6-1.5c1.4,0,2.9,0.4,4.1,1.2c1.2,0.6,1.9,1.9,1.9,3.2c0.1,1.6-1,3.1-2.6,3.5V79c0-0.7-0.4-1-1.1-1
					c-0.9,0-1.8,0.1-2.6,0.4l-3.2,0.9c-1,0.3-2,0.4-2.9,0.5c-1.2,0-2.4-0.4-3.4-1.2c-1-0.6-1.6-1.7-1.6-2.9c0-1.6,1-3.1,2.9-4.6
					l7.7-6.1l1.2-0.8c0.4-0.3,0.7-0.6,0.9-0.9c0.3-0.4,0.4-0.8,0.4-1.2c0-0.7-0.5-1.3-1.2-1.3c-1.4-0.2-2.8-0.3-4.1-0.2h-2.2
					c-1.7,0-2.7,0.3-3.1,0.8c-0.6,1.3-0.8,2.8-0.7,4.2v5.5c-1.7,1.5-2.5,3-2.5,4.4s0.9,3,2.5,4.3v5.3c0,3.3,0.2,5.4,0.7,6.2
					c1.2,1.7,4.2,2.5,9.1,2.5h2.7c1.7,0.1,3.5-0.2,5.1-0.8C229.6,92.2,230.3,91.3,230.4,90.2z"/>
				<path class="st5" d="M359.6,174.6c-0.7,0-1.4-0.1-2.1-0.2l-0.8-0.1l-0.9,0.1c-0.7,0.1-1.5,0.2-2.2,0.2c-2.2,0-4.3-0.6-6.1-1.8
					c-2.2-1-3.6-3.2-3.6-5.6c0-2.9,2.1-4.7,3.7-5.7v-29.3c-0.5-0.3-1-0.6-1.4-1c-1.4-1.2-2.2-2.9-2.1-4.8c0-2.7,1.8-5,4.3-5.7
					c1.4-0.4,2.8-0.6,4.3-0.6h7.4c1.7-0.1,3.4,0.3,4.9,1c1.4-0.6,2.8-1,4.3-1.1h0.5c3.9,0,7.7,1.4,10.6,4c1.4,1.2,2.5,2.6,3.4,4.1
					c2.2,3.6,3.4,8.4,3.4,14.2c0.1,4.8-1.2,9.5-3.9,13.5c-1.6,2.4-3.8,4.4-6.3,5.8c-2.6,1.5-5.5,2.3-8.5,2.4l0,0c0.6,1,1,2.1,1,3.2
					c0,2.4-1.4,4.6-3.6,5.6C364,173.9,361.8,174.5,359.6,174.6z M365.6,140.6c1.1,0.4,2.1,1,2.9,1.8c0.6,0.5,1,1.1,1.4,1.8
					c0.7-1.5,1-3.1,0.9-4.6c0.1-1.3-0.3-2.6-1.1-3.7c-0.3-0.5-0.9-0.8-1.6-0.7c-0.2,0-0.4,0-0.6,0c-0.2,0.1-0.9,0.4-2.1,1.2
					L365.6,140.6z"/>
				<path class="st20" d="M223.2,160.8c-5.9,0-10.4-2.1-13.3-6.1v-0.1c-2.6-3.9-4-8.5-3.9-13.1c0.1-2.7,0.6-5.4,1.5-8
					c1-3.1,2.7-5.8,5.1-8.1c2.6-2.5,6.1-3.8,9.7-3.7c2.3-0.1,4.6,0.3,6.7,1.1v-3.2l-2.2-1.3c-1.5-0.8-2.4-2.3-2.4-4
					c0-0.7,0.2-2.9,3.3-3.7c1.3-0.3,2.7-0.4,4.1-0.4h6.7c0.9,0,1.9,0.2,2.7,0.7c1,0.8,1.6,2,1.5,3.3v36.2c2.5,1.4,4,2.6,4.2,4.5v0.4
					c0,2.1-1.9,3.3-2.6,3.7l-0.2,0.1l-0.2,0.1c-1.9,0.9-3.9,1.4-5.9,1.4c-0.2,0-0.4,0-3.3-0.2c-2.2-0.2-3.2-0.2-3.6-0.2
					c-1.4,0-2.8,0.1-4.2,0.3C223.6,160.8,223.4,160.8,223.2,160.8z M226,146c0.5,0,1.1,0,1.6,0.1c0.3,0,0.6,0.1,0.9,0.1h0.2
					c0.1-0.5,0.1-0.9,0.1-1.4V133c-0.7-0.3-1.4-0.7-2.2-1.2h-0.1c-0.8-0.5-1.8-0.7-2.8-0.7c-1.4,0-2.7,0.9-3.2,2.1
					c-1,1.9-1.5,4-1.5,6.2c0,1.8,0.4,3.6,1.3,5.2c0.4,0.9,1.4,1.5,2.4,1.5c0.5,0,1,0,1.6-0.1C225,146,225.5,146,226,146z"/>
				<path class="st4" d="M247.2,96.6c0.3,0.1,0.6,0.3,0.9,0.5c1.8,0.9,2.7,1.7,2.8,2.2s-0.3,0.8-1,1.2c-1.5,1-3.4,1.4-5.2,1
					c-0.5-0.1-1-0.2-1.5-0.2c-0.2,0-0.7,0.1-1.5,0.2s-1.3,0.2-1.5,0.2c-1.3,0-2.6-0.4-3.7-1.1c-0.6-0.3-0.9-0.7-0.9-1.2
					s0.6-0.9,1.8-1.7s1.8-1.1,1.8-1.1V61.8c0-0.4-0.1-0.7-0.4-1c-0.4-0.4-0.7-0.7-1.2-1c-0.4-0.3-0.7-0.6-1.1-0.9
					c-0.2-0.2-0.3-0.5-0.3-0.8c0-0.8,1-1.2,3.1-1.2h6.6c0.3,0,0.6,0.2,0.8,0.4c0.2,0.3,0.3,0.6,0.3,1L247.2,96.6z"/>
				<path class="st5" d="M395.5,163c-0.7,0-1.4-0.1-2.1-0.2l-0.8-0.1l-0.9,0.1c-0.7,0.1-1.4,0.2-2.1,0.2c-2.2,0-4.3-0.6-6.2-1.8
					c-2.1-1-3.5-3.1-3.5-5.5c0-3,2.1-4.8,3.7-5.8v-18.1c-1.7-1.3-2.8-3.3-2.9-5.4c0-1,0.4-6.3,8.2-6.3h7.7c1.7-0.1,3.3,0.3,4.9,1
					c1.3-0.6,2.8-1,4.2-1c2.1,0,4.1,0.6,5.8,1.8c1.7,1.1,3,2.7,3.8,4.5c0.8,1.8,1.3,3.8,1.3,5.8c0,2.7-0.8,5.4-2.3,7.6
					c-1.2,1.9-2.9,3.5-5,4.4l-0.1,1.2l-3.5,0.9c-0.6,0.1-1.3,0.2-1.9,0.2c-0.7,0-1.4-0.1-2-0.3v3.7c1.6,1,3.8,2.8,3.8,5.8
					c0,1.5-0.6,3.7-3.4,5.4h-0.1C399.9,162.3,397.7,162.9,395.5,163z"/>
				<path class="st20" d="M268.4,160.8c-0.9,0-1.9-0.1-2.8-0.2c-1.9-0.2-2.3-0.2-2.4-0.2s-0.5,0-2.4,0.1c-2.1,0.1-2.7,0.2-3,0.2
					c-2.9,0-5.6-0.9-7.9-2.7c-2.2-1.7-3.9-4-5-6.5c-1.1-2.4-1.7-5.1-1.7-7.8c0-2.1,0.2-4.3,0.6-6.3c0.4-2.1,1.1-4.2,2.1-6.1
					c1-2,2.3-3.7,3.9-5.2c2.8-2.5,6.7-3.8,11.4-3.8h6.9c1.3,0,2.7,0.2,4,0.4c1.5,0.3,3,0.9,4.2,1.8c1.6,1.1,2.5,3,2.5,4.9
					c-0.1,3-1.4,5.7-3.6,7.7l0,0c-0.9,0.8-1.8,1.5-2.8,2.1c-0.8,0.5-2.1,1.1-3.8,2l-2.2,1.1c-2,0.9-3.8,2.2-5.3,3.8
					c2.6,0.7,5.4,0.6,7.9-0.4c0.7-0.2,1.2-0.7,1.3-1.4l0.7-3.3l3.2,1.2c3.5,1.3,5.4,3.9,5.5,7.3v0.1c0,2-0.5,4-1.6,5.7
					c-1,1.7-2.4,3-4.1,4C272.3,160.3,270.4,160.8,268.4,160.8z M262.1,131.2c-1.6,0-3.6,0.2-4.5,1.3l-0.1,0.1
					c-1.2,1.7-1.9,3.7-1.9,5.8c1.2-1.1,2.6-2.1,4-2.9l3.4-1.9c0.8-0.4,1.6-1,2.4-1.5c0-0.1,0-0.2,0-0.3h0
					C264.3,131.4,263.2,131.2,262.1,131.2L262.1,131.2z"/>
				<path class="st4" d="M290.6,85c-0.2,0-0.4,0.1-0.7,0.1c-0.4,0-0.8-0.2-1.1-0.6c-0.3-0.3-0.5-0.8-0.5-1.2c0-0.3,0-0.7,0.1-1
					c0.1-0.2,0.3-0.6,0.6-1.1c0.3-0.4,0.5-0.9,0.6-1.3c0.1-0.5,0.2-1,0.2-1.5c0-0.6-0.2-1.1-0.6-1.5c-0.4-0.4-1-0.7-1.6-0.7
					c-0.5,0-1,0.1-1.4,0.3l-0.9,0.4c-0.8,0.2-1.6,0.4-2.5,0.5v19.3c0.3,0.2,0.6,0.3,1,0.5c1.9,1,2.8,1.8,2.8,2.3
					c0,0.3-0.3,0.7-1,1.1c-1.1,0.7-2.4,1.1-3.7,1.1c-0.5,0-1-0.1-1.4-0.2c-0.5-0.1-1-0.2-1.5-0.2c-0.2,0-0.7,0.1-1.5,0.2
					s-1.3,0.2-1.5,0.2c-1.3,0-2.6-0.4-3.7-1.1c-0.6-0.3-0.9-0.7-0.9-1c0-0.7,0.9-1.4,2.8-2.3c0.3-0.2,0.6-0.4,0.9-0.5V73.9
					c0-0.3,0-0.7-0.1-1c-0.6-0.4-1.2-0.8-1.7-1.2c-0.7-0.6-1-1-1-1.5c0-0.8,1-1.2,3.1-1.2h7.9c2,0,3,0.4,3,1.2
					c0,0.3-0.1,0.7-0.4,0.9c-0.4,0.3-0.7,0.6-1.2,0.8c-0.4,0.2-0.8,0.5-1.2,0.8c-0.3,0.2-0.4,0.5-0.4,0.9v0.8
					c1.6-0.6,3.1-1.5,4.3-2.7c1.7-1.8,3.4-2.7,4.9-2.7c1,0,2,0.3,2.9,0.9c0.9,0.6,1.6,1.5,2.1,2.5c0.5,1.1,0.8,2.3,0.8,3.6
					c0,1.7-0.6,3.4-1.5,4.8c-1,1.5-2.5,2.6-4.3,3C291.1,84,290.6,84.4,290.6,85z"/>
				<path class="st5" d="M423.2,163c-0.7,0-1.4-0.1-2.1-0.2l-0.8-0.1l-0.8,0.1c-0.7,0.1-1.4,0.2-2.1,0.2c-2.2,0-4.4-0.7-6.3-1.8
					l-0.1-0.1l-0.1-0.1c-2-1.1-3.3-3.2-3.4-5.5V155l0.1-0.6c0.6-1.9,1.9-3.5,3.6-4.5v-18.1c-1.8-1.2-2.9-3.2-2.9-5.4
					c0-2.1,1.1-4.1,2.9-5.1c-0.5-1.1-0.7-2.2-0.7-3.4c0-3.6,2.5-7.8,9.7-7.8s9.8,4.2,9.8,7.8c0,1.2-0.3,2.3-0.7,3.4
					c1.8,1.1,2.9,3,2.9,5.1c0,2.2-1.1,4.2-2.9,5.4v18.1c1.7,1,3,2.5,3.6,4.4l0.2,0.6v0.6c0,2.4-1.5,4.6-3.6,5.6
					C427.6,162.4,425.4,163,423.2,163z"/>
				<path class="st20" d="M289.9,160.8c-0.6,0-1.2-0.1-1.8-0.2c-0.7-0.1-1-0.1-1.1-0.1c-0.4,0-0.7,0-1.1,0.1
					c-0.6,0.1-1.2,0.2-1.9,0.2c-1.8,0-3.6-0.5-5.2-1.5c-1.5-0.7-2.4-2.1-2.4-3.7c0-2.2,2.1-3.5,3.2-4.2l0.4-0.2v-32.4
					c-0.1-0.1-0.2-0.2-0.4-0.3c-0.5-0.4-1-0.8-1.4-1.2c-0.7-0.8-1.1-1.8-1.1-2.8c0-1.2,0.6-4.1,6-4.1h6.6c1.3,0,2.4,0.6,3.2,1.6
					c0.6,0.8,0.9,1.7,0.9,2.7v36.6c2,1.1,3.4,2.3,3.6,3.9v0.5c0,1.6-1,3-2.4,3.7C293.5,160.3,291.7,160.8,289.9,160.8z"/>
				<path class="st4" d="M310.7,96.6c0.3,0.2,0.6,0.3,0.9,0.5c1.7,0.9,2.7,1.7,2.8,2.2s-0.3,0.8-1,1.2c-1.1,0.7-2.5,1.1-3.8,1.1
					c-0.5,0-1-0.1-1.4-0.2c-0.5-0.1-1-0.2-1.5-0.2c-0.2,0-0.7,0.1-1.5,0.2s-1.3,0.2-1.4,0.2c-1.3-0.1-2.6-0.4-3.8-1.1
					c-0.6-0.4-0.9-0.8-0.9-1.2c0.1-0.5,1.1-1.3,2.8-2.2c0.3-0.2,0.6-0.4,1-0.5V73.9c0.1-0.4-0.1-0.9-0.4-1.2l-1.6-1.2
					c-0.5-0.3-0.8-0.8-0.9-1.3c0-0.8,1-1.2,3.1-1.2h7.5c2,0,3.1,0.4,3.1,1.2c0,0.6-0.4,1.1-0.9,1.4l-1.7,1.3c-0.2,0.3-0.2,0.7-0.2,1
					L310.7,96.6z M306.8,59c3.1,0,4.7,0.9,4.7,2.7c0,2-1.6,3-4.7,3c-3.1,0-4.6-1-4.6-3C302.1,59.9,303.7,59,306.8,59z"/>
				<path class="st5" d="M460.1,163c-0.7,0-1.4-0.1-2.1-0.2l-0.8-0.1l-0.9,0.1c-0.7,0.1-1.4,0.2-2.1,0.2c-2.1-0.1-4.2-0.6-6.1-1.6
					c-0.2-0.1-0.5-0.3-0.7-0.4c-0.1,0.1-0.3,0.2-0.4,0.3l-0.2,0.1l-0.2,0.1c-1.9,1-4,1.6-6.1,1.6c-0.7,0-1.4-0.1-2.1-0.2l-0.8-0.1
					l-0.9,0.1c-0.7,0.1-1.4,0.2-2.2,0.2c-2.1-0.1-4.2-0.6-6.1-1.6c-2.2-1-3.6-3.2-3.6-5.7c0-1.8,0.8-3.5,2.2-4.7
					c0.5-0.4,0.9-0.8,1.5-1.1V132c-0.5-0.3-1-0.7-1.4-1.1c-1.3-1.2-2-2.9-2-4.6c0-2.7,1.9-5.1,4.6-5.7c1.3-0.3,2.7-0.5,4.1-0.4h7.9
					c1.7-0.1,3.4,0.3,5,1.1c1.9-1,4.1-1.5,6.2-1.5c2.4,0,4.7,0.5,6.8,1.6c2.1,1.1,3.8,2.9,4.9,5c1.1,2.1,1.6,4.4,1.6,6.8v16.7
					l0.3,0.2c0.6,0.4,1.2,0.9,1.8,1.5c1.1,1.1,1.6,2.6,1.7,4.1c-0.1,2.2-1.3,4.3-3.2,5.4l-0.2,0.1l-0.2,0.1
					C464.4,162.4,462.3,162.9,460.1,163z M446.7,150c0.2,0.1,0.5,0.3,0.7,0.5c0.2-0.2,0.5-0.3,0.7-0.5v-13.1l-1.4,0.6V150z"/>
				<path class="st20" d="M336.3,160.8c-0.2,0-0.6,0-3.7-0.3c-2.5-0.3-3.2-0.3-3.4-0.3c-1.4,0-2.9,0.1-4.3,0.2
					c-2.3,0.2-2.7,0.2-3,0.2c-1.7,0-3.3-0.4-4.7-1.2c-1.5-0.8-2.7-1.9-3.7-3.3c-1-1.4-1.5-3.1-1.5-4.9c-0.1-1.3,0.2-2.6,0.8-3.8
					c0.5-0.9,1-1.8,1.6-2.6l0.2-0.4l-3-2.3l4.2-2c1.1-0.5,2.2-0.8,3.4-0.8c1.9,0,3.8,0.6,5.3,1.9c1.6,1.3,2.6,3.2,2.6,5.3
					c0.8,0.2,1.6,0.3,2.4,0.3c3.1,0,4-0.6,4.1-0.7V146c0-0.2,0-0.7-0.9-1.4c-1.1-0.9-2.4-1.7-3.7-2.2l-3.6-1.6c-2-0.9-3.7-1.7-5-2.4
					c-1.6-0.8-3-1.9-4.3-3.1c-1.7-1.4-2.7-3.5-2.8-5.7c0-3,1.8-5.2,5-6.2c2.4-0.7,4.8-1,7.2-1h9.4c2.4-0.1,4.7,0.1,7.1,0.6
					c3,0.7,4.7,2.8,4.7,5.4c0,1.7-0.7,3.3-2,4.4c-1.2,1-2.7,1.6-4.2,1.5h-0.5c2,1,3.8,2.4,5.3,4c2.2,2.4,3.5,5.6,3.4,8.9
					c0,2.3-0.5,4.6-1.5,6.7c-1,2.1-2.5,3.8-4.5,5C340.9,160.2,338.6,160.8,336.3,160.8z M332.1,131c0.7,0.3,1.4,0.6,2.2,0.9l2,0.8
					c-0.5-0.5-0.8-1-1.1-1.6c-0.2,0-0.4,0-0.6,0L332.1,131z"/>
				<path class="st4" d="M328,77.7v18.9c0.3,0.2,0.6,0.4,0.9,0.5c1.9,1,2.8,1.7,2.8,2.3s-0.3,0.8-0.9,1.1c-1.2,0.6-2.5,1-3.8,1.1
					c-0.5,0-0.9-0.1-1.4-0.2c-0.5-0.1-1-0.2-1.5-0.2c-0.2,0-0.7,0.1-1.5,0.2s-1.3,0.2-1.5,0.2c-1.3,0-2.6-0.4-3.7-1.1
					c-0.6-0.3-0.9-0.7-0.9-1.1c0-0.3,0.2-0.6,0.5-0.8c0.4-0.3,0.8-0.6,1.2-0.8l1.1-0.6c0.3-0.2,0.6-0.3,0.9-0.5V74.1
					c0-0.5-0.2-0.9-0.5-1.2c-0.4-0.4-0.9-0.7-1.3-1c-0.4-0.3-0.9-0.6-1.2-0.9c-0.2-0.2-0.4-0.6-0.4-0.9c0-0.7,1.2-1,3.5-1h7.9
					c2,0,3,0.4,3,1.2c0,0.5-0.4,1-1.1,1.5c-0.6,0.4-1.2,0.8-1.8,1.2c-0.2,0.3-0.3,0.6-0.3,1v0.7c1.4-0.5,2.7-1.4,3.8-2.5
					c2.4-2.3,5-3.5,7.6-3.5c1.5,0,3,0.3,4.3,1c1.2,0.6,2.2,1.6,2.8,2.9c0.7,1.4,1,2.9,1,4.4v19.6c0.1,0.1,0.3,0.2,0.4,0.3
					c0.2,0.1,0.3,0.2,0.5,0.3l0.7,0.4c0.3,0.2,0.6,0.4,1,0.6c0.3,0.2,0.6,0.4,0.8,0.7c0.2,0.2,0.3,0.4,0.3,0.7
					c0,0.3-0.3,0.7-0.9,1.1c-1.1,0.6-2.4,1-3.7,1.1c-0.5,0-0.9-0.1-1.4-0.2c-0.5-0.1-1-0.2-1.5-0.2c-0.2,0-0.7,0.1-1.6,0.2
					s-1.4,0.2-1.5,0.2c-1.3-0.1-2.6-0.4-3.7-1.1c-0.6-0.3-0.9-0.7-0.9-1.1c0-0.3,0.2-0.6,0.5-0.8c0.4-0.3,0.7-0.6,1.2-0.8l1.1-0.6
					c0.3-0.1,0.6-0.3,0.9-0.5V79.4c0-2.9-1.2-4.4-3.7-4.4c-1.3,0.1-2.5,0.4-3.7,1l-1.6,0.7C330.3,76.9,329.4,77.2,328,77.7z"/>
				<path class="st5" d="M476.7,174.3c-2.8,0-5.7-0.5-8.3-1.7c-3.4-1.5-5.6-4.8-5.6-8.6c0-0.4,0-0.9,0.1-1.3l-5.8-4.4l8.7-2.7
					c-0.6-1.1-1.1-2.2-1.5-3.3c-1-3-1.6-6.1-1.5-9.2c-0.1-3.9,0.7-7.9,2.2-11.5c1.5-3.6,4.2-6.6,7.6-8.6c3.7-2,7.9-3,12.2-2.9h13.4
					c4.4,0,6.4,2.6,6.9,5l0.1,0.4v0.4c0,2.2-1,4.2-2.6,5.6v15.5c0,1.4,0.2,2.8,0.5,4.1v0.1l0.4,1.4c0.5,2,0.9,4,0.9,6.1
					c0,2-0.5,3.9-1.3,5.7c-0.8,1.9-2,3.6-3.4,5c-3,3-7.4,4.5-13,4.5h-4.3c-1.4,0-2.6,0-3.6,0.1C477,174.3,476.8,174.3,476.7,174.3z
					 M483.4,133.7c-0.4,0-0.8,0.1-1.1,0.4c-0.6,0.5-1,1.2-1.3,2c-0.4,1.1-0.6,2.3-0.6,3.6c0,1.6,0.3,3.3,0.9,4.8h0.8l1.8-0.1h0.8
					v-9.7c0-0.2,0-0.5-0.1-0.7C484.3,133.7,483.8,133.6,483.4,133.7L483.4,133.7z"/>
				<path class="st20" d="M359.6,172.4c-0.6,0-1.2-0.1-1.8-0.2c-0.7-0.1-1-0.1-1.1-0.1c-0.4,0-0.8,0.1-1.2,0.1
					c-0.6,0.1-1.3,0.2-1.9,0.2c-1.8,0-3.6-0.5-5.1-1.5c-1.5-0.6-2.4-2.1-2.5-3.7c0-2.1,1.8-3.4,3.7-4.4v-31.8l-0.2-0.1
					c-0.7-0.3-1.3-0.7-1.9-1.2c-0.9-0.8-1.4-1.9-1.4-3.1c0-1.7,1.2-3.2,2.8-3.7c1.2-0.4,2.4-0.5,3.6-0.5h7.4c2.4,0,3.9,0.6,4.7,1.4
					c1.4-0.8,3-1.3,4.7-1.4h0.3c1.7,0,3.5,0.3,5.1,0.9c1.5,0.6,2.9,1.4,4.1,2.5c1.2,1,2.2,2.2,3,3.6c2,3.2,3,7.6,3,13.1
					c0.1,4.3-1.1,8.6-3.5,12.2c-1.4,2.1-3.4,3.9-5.6,5.1c-2.2,1.3-4.8,2-7.4,2.1c-1.7,0-3.4-0.3-5-1.1v2c0.6,0.3,1.1,0.6,1.6,0.9
					c1.9,1.1,2.7,3.5,1.6,5.4c-0.4,0.8-1.1,1.4-2,1.8C363.1,171.8,361.4,172.3,359.6,172.4z M363.4,142.4c1.4,0.1,2.6,0.7,3.6,1.6
					c0.9,0.8,1.5,1.9,1.7,3.1v0.1c1.2,0.1,2.4-0.6,2.9-1.6c0.9-1.9,1.4-3.9,1.4-6c0.1-1.8-0.5-3.5-1.5-5c-0.8-1.1-2-1.7-3.3-1.6
					c-0.5,0-0.9,0-1.4,0.2c-0.9,0.5-1.9,1-2.8,1.6l-0.7,0.4L363.4,142.4z"/>
				<path class="st4" d="M381.3,88.6c0.1,0.5,0.3,0.9,0.7,1.3c1.1,1.2,1.7,2.7,1.7,4.3c0,1.3-0.3,2.7-1,3.8
					c-0.7,1.1-1.6,2.1-2.8,2.7c-1.2,0.7-2.5,1-3.8,1c-0.3,0-1.2-0.1-2.6-0.2s-2.2-0.2-2.4-0.2c-0.8,0-1.6,0-2.5,0.1
					c-0.6,0.1-1.3,0.1-1.9,0.1c-1.9,0-3.8-0.5-5.4-1.5c-1.6-0.9-2.9-2.2-3.9-3.8c-1-1.6-1.8-3.4-2.3-5.2c-0.5-1.9-0.8-3.8-0.8-5.8
					c-0.1-3.1,0.6-6.2,1.9-9c1.2-2.5,3.1-4.6,5.5-6c2.7-1.5,5.7-2.2,8.8-2.1c1.7,0,3.4,0.2,5,0.6c1.6,0.4,3.1,1.1,4.4,2.1
					c1.2,1,1.9,2.5,1.8,4.1c0,1.4-0.6,2.8-1.6,3.7c-1,1-2.4,1.6-3.8,1.6c-0.9,0.1-1.8-0.1-2.6-0.4c-0.6-0.3-1.1-0.7-1.6-1.2
					c-0.3-0.4-0.8-0.7-1.3-0.8c-0.4,0-0.6,0.3-0.8,0.8c-0.6-0.4-0.9-1-1-1.7c0-0.6,0.3-1.2,0.8-1.6c0.4-0.4,1-0.7,1.7-0.7
					c0.5,0,1,0.1,1.5,0.2c0.3,0.1,0.7,0.1,1,0.2c0.5,0,0.8-0.3,0.8-0.9c0-0.7-0.3-1.3-0.9-1.6c-0.6-0.4-1.4-0.8-2.1-0.9
					c-0.7-0.2-1.4-0.3-2.1-0.3c-2.3,0-4.6,0.9-6.3,2.5c-2,1.7-2.9,4.3-2.9,7.9c0,7.3,3.7,10.9,11.2,10.9h1.7c4,0,6.3-0.8,7-2.4
					l0.6-1.2L381.3,88.6z"/>
				<path class="st20" d="M395.5,160.8c-0.6,0-1.2-0.1-1.8-0.2l-1.1-0.1l-1.2,0.1c-0.6,0.1-1.2,0.2-1.8,0.2c-1.8,0-3.6-0.5-5.1-1.5
					c-1.4-0.6-2.4-2-2.4-3.6c0-2.2,1.7-3.5,3.7-4.6v-20.4l-0.7-0.6c-1.3-0.9-2-2.3-2.1-3.8c0-1.2,0.6-4.1,6-4.1h7.8
					c2.4,0,3.9,0.6,4.7,1.4c1.3-0.9,2.8-1.3,4.3-1.4c1.6,0,3.2,0.5,4.5,1.4c1.3,0.9,2.4,2.2,3.1,3.7c0.7,1.5,1.1,3.1,1,4.8
					c0,2.3-0.7,4.5-2,6.4c-1.2,1.9-3,3.4-5.2,4.1l-0.1,1l-2,0.5c-0.5,0.1-0.9,0.2-1.4,0.1c-1.3,0-2.6-0.6-3.4-1.7
					c-0.3-0.4-0.6-0.8-0.8-1.3v9.8c1.9,1.1,3.8,2.4,3.8,4.5c-0.1,1.5-1,2.9-2.3,3.6l0,0C399.2,160.2,397.4,160.8,395.5,160.8z
					 M399.3,137.4L399.3,137.4c0.2-0.5,0.5-1,0.7-1.4c0.1-0.1,0.1-0.2,0.2-0.3l-0.3,0.1h-0.1l-0.6,0.2L399.3,137.4z"/>
				<path class="st4" d="M417.6,84.7c0,1.9-0.3,3.8-0.7,5.6c-0.5,1.9-1.2,3.8-2.2,5.5c-0.9,1.6-2.2,3.1-3.8,4.2
					c-1.5,1.1-3.3,1.6-5.2,1.6c-0.6,0-1.2-0.1-1.8-0.2c-0.6-0.1-1.2-0.2-1.8-0.2c-0.5,0-1,0-1.5,0.1c-0.5,0.1-1,0.1-1.5,0.1
					c-1.7,0-3.4-0.5-4.8-1.4c-1.6-0.9-2.9-2.1-4-3.6c-1.2-1.7-2.1-3.6-2.7-5.6c-0.6-2-1-4.1-1-6.2c-0.1-3.1,0.5-6.1,1.6-8.9
					c1-2.5,2.7-4.6,5-6c2.6-1.5,5.6-2.3,8.6-2.1c5,0,8.9,1.5,11.7,4.4c1.5,1.6,2.5,3.5,3.1,5.6C417.2,79.9,417.6,82.3,417.6,84.7z
					 M410.6,81.3c0-3.4-0.7-6-2.2-7.8c-1.6-1.9-4-2.9-6.5-2.7c-1.7-0.1-3.4,0.5-4.7,1.5c-1.2,1-2.2,2.3-2.7,3.8
					c-0.6,1.5-0.8,3.1-0.8,4.8c-0.1,2.6,0.6,5.3,2.2,7.4c1.4,1.8,3.7,2.8,6,2.7c1.8,0.1,3.6-0.5,5.1-1.5c1.3-0.9,2.3-2.2,2.9-3.7
					C410.3,84.4,410.6,82.8,410.6,81.3L410.6,81.3z M411.2,60L401,66c-0.5,0.3-1,0.6-1.6,0.7c-0.3,0-0.7-0.2-0.9-0.4
					c-0.3-0.2-0.4-0.5-0.4-0.9c0-0.8,0.5-1.4,1.5-1.9l5.5-2.9c0.2-0.1,0.8-0.5,1.8-1.1s1.7-1.1,2.3-1.5c0.6-0.4,1.2-0.7,1.9-0.8
					c0.3,0,0.7,0.1,0.9,0.4c0.2,0.3,0.4,0.6,0.3,1c0,0.3-0.1,0.6-0.3,0.9C411.8,59.6,411.5,59.8,411.2,60L411.2,60z"/>
				<path class="st20" d="M423.2,160.8c-0.6,0-1.2-0.1-1.8-0.2l-1.1-0.1c-0.4,0-0.7,0-1.1,0.1c-0.6,0.1-1.2,0.2-1.8,0.2
					c-1.8,0-3.6-0.6-5.2-1.5H412c-1.4-0.7-2.3-2.1-2.3-3.6v-0.4l0.1-0.3c0.4-1.6,1.7-2.7,3.7-3.8v-20.5l-0.8-0.6
					c-1.3-0.8-2.1-2.2-2.1-3.7c0-1.1,0.5-3.5,4.3-4c-1.3-1.1-2.1-2.7-2.1-4.4c0-1.3,0.5-5.6,7.5-5.6s7.6,4.3,7.6,5.6
					c0,1.7-0.8,3.4-2.2,4.5c3.8,0.5,4.3,2.9,4.3,4c0,1.6-0.8,3-2.2,3.8l-0.7,0.5v20.4c2.2,1.2,3.3,2.4,3.7,3.7l0.1,0.4v0.4
					c0,1.6-1,3.1-2.5,3.7C426.8,160.3,425,160.8,423.2,160.8z"/>
				<path class="st4" d="M432.1,77.7v18.9c0.3,0.2,0.6,0.4,0.9,0.5c1.9,1,2.8,1.7,2.8,2.3s-0.3,0.8-0.9,1.1c-1.2,0.6-2.5,1-3.8,1.1
					c-0.5,0-0.9-0.1-1.4-0.2c-0.5-0.1-1-0.2-1.5-0.2c-0.2,0-0.7,0.1-1.5,0.2s-1.3,0.2-1.5,0.2c-1.3,0-2.6-0.4-3.7-1.1
					c-0.6-0.3-0.9-0.7-0.9-1.1c0-0.3,0.2-0.6,0.5-0.8c0.4-0.3,0.8-0.6,1.2-0.8l1.1-0.6c0.3-0.1,0.6-0.3,0.9-0.5V74.1
					c0-0.5-0.2-0.9-0.5-1.2c-0.4-0.4-0.9-0.7-1.3-1c-0.4-0.3-0.8-0.6-1.2-0.9c-0.2-0.2-0.4-0.6-0.4-0.9c0-0.7,1.2-1,3.5-1h7.9
					c2,0,3,0.4,3,1.2c0,0.5-0.4,1-1.1,1.5c-0.6,0.4-1.2,0.8-1.8,1.2c-0.2,0.3-0.3,0.6-0.3,1v0.7c1.4-0.5,2.7-1.4,3.8-2.5
					c2.4-2.3,5-3.5,7.6-3.5c1.5,0,3,0.3,4.3,1c1.2,0.6,2.2,1.6,2.9,2.9c0.7,1.4,1,2.9,1,4.4v19.6c0.2,0.1,0.3,0.2,0.4,0.3
					c0.2,0.1,0.3,0.2,0.5,0.3l0.7,0.4c0.3,0.2,0.6,0.4,1,0.6c0.3,0.2,0.6,0.4,0.8,0.7c0.2,0.2,0.3,0.4,0.3,0.7c0,0.3-0.3,0.7-1,1.1
					c-1.1,0.6-2.4,1-3.7,1.1c-0.5,0-0.9-0.1-1.4-0.2c-0.5-0.1-1-0.2-1.5-0.2c-0.2,0-0.7,0.1-1.6,0.2s-1.4,0.2-1.5,0.2
					c-1.3-0.1-2.5-0.4-3.7-1.1c-0.6-0.3-0.9-0.7-0.9-1.1c0-0.3,0.2-0.6,0.5-0.8c0.4-0.3,0.8-0.6,1.2-0.8l1.1-0.6
					c0.3-0.1,0.6-0.3,0.9-0.5V79.4c0-2.9-1.2-4.4-3.7-4.4c-1.3,0.1-2.5,0.4-3.7,1l-1.6,0.7C434.4,76.9,433.5,77.2,432.1,77.7z"/>
				<path class="st20" d="M460.1,160.8c-0.6,0-1.2-0.1-1.8-0.2c-0.7-0.1-1-0.1-1.1-0.1l-1.2,0.1c-0.6,0.1-1.2,0.2-1.9,0.2
					c-1.8-0.1-3.5-0.5-5-1.4c-0.7-0.4-1.3-0.8-1.7-1.4c-0.4,0.5-0.9,1-1.5,1.4l-0.1,0.1h-0.1c-1.6,0.8-3.3,1.3-5.1,1.4
					c-0.6,0-1.2-0.1-1.8-0.2c-0.7-0.1-1-0.1-1.1-0.1c-0.4,0-0.8,0-1.1,0.1c-0.6,0.1-1.3,0.2-1.9,0.2c-1.8,0-3.5-0.5-5.1-1.4
					c-1.5-0.6-2.5-2.1-2.5-3.7c0-1.2,0.6-2.3,1.5-3c0.5-0.5,1.1-0.9,1.8-1.2l0.4-0.2v-20.3l-0.4-0.3c-0.6-0.4-1.2-0.8-1.7-1.2
					c-0.8-0.8-1.3-1.9-1.3-3c0-1.7,1.3-3.2,3-3.6c1.1-0.3,2.3-0.4,3.5-0.4h7.9c2.5,0,4,0.6,4.8,1.4c1.9-1.2,4.1-1.8,6.4-1.8
					c2,0,3.9,0.4,5.7,1.4c1.7,0.9,3.1,2.4,4,4.1c0.9,1.8,1.4,3.8,1.3,5.8v18l0.1,0.1c0.4,0.2,0.8,0.5,1.1,0.7
					c0.5,0.3,0.9,0.7,1.3,1.1c0.7,0.7,1.1,1.6,1.1,2.6c-0.1,1.5-0.9,2.8-2.2,3.6l-0.1,0.1l-0.1,0.1
					C463.6,160.3,461.9,160.8,460.1,160.8z M444.5,151.2c1.1,0.5,2.1,1.3,2.9,2.2c0.2-0.3,0.4-0.5,0.7-0.8c0.5-0.5,1.1-0.8,1.7-1.2
					l0.5-0.3v-15.5c0-0.5,0-1-0.2-1.4c-0.2,0-0.3-0.1-0.5-0.1c-0.9,0.1-1.7,0.3-2.5,0.8l-1.6,0.7c-0.2,0.1-0.5,0.2-1,0.4
					L444.5,151.2z"/>
				<path class="st4" d="M238.8,151.4l0.9,0.5c2.1,1.1,3.3,2,3.3,2.6c0,0.3-0.4,0.7-1.2,1.2c-1.5,0.7-3.1,1.1-4.7,1.1
					c-0.2,0-1.2-0.1-3.1-0.2s-3.1-0.2-3.8-0.2s-2.3,0.1-4.4,0.3s-3.3,0.3-3.5,0.3c-5,0-8.6-1.6-10.9-4.9c-2.3-3.4-3.4-7.4-3.3-11.5
					c0.1-2.4,0.5-4.8,1.3-7.1c0.9-2.6,2.3-5,4.3-6.9c2.1-2,4.8-3,7.6-2.9c2.1-0.1,4.2,0.3,6.1,1.1l1.9,0.9c0.1,0.1,0.6,0.3,1.5,0.6
					v-8.6c0-0.3,0-0.6-0.2-0.9c-0.3-0.2-0.6-0.4-0.9-0.6l-2.5-1.5c-0.6-0.3-0.9-0.9-0.9-1.5c0-0.8,1.5-1.1,4.5-1.1h6.7
					c0.3,0,0.7,0,1,0.2c0.2,0.1,0.3,0.4,0.3,0.9V151.4z M230.9,130.2c-1.3-0.5-2.5-1.1-3.7-1.8c-1.3-0.7-2.8-1.1-4.3-1.1
					c-2.4,0.1-4.7,1.5-5.7,3.7c-1.2,2.3-1.9,4.9-1.8,7.5c-0.1,2.4,0.6,4.7,1.8,6.7c1,1.8,2.9,2.9,4.9,2.9c0.6,0,1.2,0,1.8-0.1
					c0.4-0.1,0.9-0.1,1.3-0.1c0.5,0,0.9,0,1.4,0.1c0.4,0,0.8,0.1,1.2,0.1c1.4,0,2.3-0.4,2.7-1.1c0.4-1,0.6-2.1,0.6-3.2V130.2z"/>
				<path class="st20" d="M476.7,172.1c-2.5,0-5-0.5-7.4-1.5c-2.7-1.1-4.4-3.7-4.3-6.6c0-0.7,0.2-1.5,0.4-2.1l-3.5-2.7l5.5-1.7
					c0.8-0.2,1.6-0.3,2.5-0.2l0,0c-1.5-1.6-2.7-3.6-3.4-5.7c-1-2.7-1.4-5.6-1.4-8.5c-0.1-3.6,0.6-7.3,2-10.6
					c1.4-3.1,3.7-5.8,6.7-7.4c3.4-1.8,7.2-2.7,11.1-2.6h13.4c3.7,0,4.5,2.2,4.7,3.1v0.4c0,1.9-1,3.6-2.6,4.6v16.6
					c0,1.6,0.2,3.2,0.6,4.7v0.1l0.3,1.3c0.5,1.8,0.8,3.7,0.8,5.5c0,1.7-0.4,3.3-1.1,4.8c-0.7,1.6-1.7,3.1-3,4.3
					c-2.6,2.6-6.4,3.9-11.5,3.9h-4.3c-1.4,0-2.7,0-3.7,0.1L476.7,172.1z M478.3,161.2c1.2,0.9,2.7,1.4,4.2,1.2
					c1.7,0.1,3.3-0.2,4.9-0.9c0.2-0.1,0.4-0.2,0.6-0.4c-0.3,0-0.5,0.1-0.8,0.1c-0.9,0-1.8-0.1-2.7-0.2c-0.9-0.1-1.1-0.1-1.2-0.1
					c-0.6,0-1.2,0.1-1.8,0.1c-0.9,0.1-1.8,0.1-2.6,0.1L478.3,161.2z M483.4,131.5c-1,0-1.9,0.3-2.6,0.9c-0.9,0.8-1.5,1.9-1.9,3
					c-0.5,1.4-0.7,2.8-0.7,4.3c0,1.9,0.4,3.8,1.1,5.6c0.6,1.4,1.2,1.4,1.6,1.4c0,0,0.3,0,1.4-0.1l1.6-0.1l1.6,0.1h1
					c0.3-0.9,0.5-1.9,0.5-2.9v-9.1c0.1-0.9-0.2-1.7-0.8-2.3C485.4,131.7,484.4,131.4,483.4,131.5L483.4,131.5z"/>
				<path class="st4" d="M272.2,144.1c2.4,0.9,3.5,2.4,3.6,4.7c0,1.5-0.4,2.9-1.1,4.2c-1.5,2.5-4.2,4.1-7.1,4.1
					c-0.2,0-1.1-0.1-2.5-0.2s-2.3-0.2-2.6-0.2s-1.1,0.1-2.6,0.2s-2.4,0.2-2.8,0.2c-2.2,0-4.4-0.7-6.1-2.1c-1.8-1.4-3.2-3.3-4.1-5.4
					c-0.9-2.1-1.4-4.3-1.4-6.6c0-1.9,0.2-3.9,0.6-5.8c0.4-1.9,1-3.7,1.8-5.4c0.8-1.6,1.9-3.1,3.2-4.3c2.3-2,5.4-3,9.4-3h6.9
					c1.1,0,2.3,0.1,3.4,0.3c1.1,0.2,2.2,0.7,3.1,1.3c0.8,0.6,1.3,1.5,1.3,2.5c-0.1,2.2-1.1,4.2-2.7,5.6c-0.7,0.7-1.4,1.2-2.2,1.7
					c-0.8,0.4-2,1.1-3.7,1.9l-2.2,1.1c-2.4,1.1-4.5,2.6-6.3,4.5c-0.8,1.1-1.4,2.3-1.5,3.7c2.2,1,4.5,1.6,7,1.6c1.9,0,3.9-0.3,5.7-1
					C270.7,147.1,271.8,145.8,272.2,144.1z M253.6,145.1c0.5-1.8,1.4-3.5,2.7-4.9c1.2-1.1,2.5-2.1,3.9-2.9l3.3-1.9c1-0.6,2-1.2,3-2
					c0.6-0.6,1-1.5,0.9-2.4c0.1-1.2-0.7-2.3-1.8-2.8c-1.4-0.6-2.9-0.8-4.4-0.8c-3.2,0-5.5,0.8-6.8,2.5c-1.8,2.4-2.7,5.3-2.5,8.3
					C251.8,140.6,252.4,143,253.6,145.1L253.6,145.1z"/>
				<path class="st4" d="M289.9,152.1c0.3,0.1,0.6,0.3,0.9,0.5c1.8,0.9,2.7,1.7,2.8,2.2s-0.3,0.8-1,1.1c-1.1,0.7-2.4,1.1-3.7,1.1
					c-0.1,0-0.6-0.1-1.4-0.2s-1.3-0.2-1.5-0.2c-0.5,0-1,0.1-1.5,0.2c-0.5,0.1-1,0.2-1.5,0.2c-1.3,0-2.6-0.4-3.7-1.1
					c-0.6-0.3-0.9-0.7-0.9-1.1c0-0.4,0.6-0.9,1.8-1.7s1.8-1.1,1.8-1.1v-34.6c0-0.4-0.1-0.7-0.4-1c-0.3-0.4-0.7-0.7-1.2-1
					c-0.4-0.3-0.7-0.6-1.1-0.9c-0.2-0.2-0.3-0.5-0.3-0.8c0-0.8,1-1.2,3.1-1.2h6.6c0.3,0,0.6,0.2,0.8,0.4c0.2,0.3,0.3,0.6,0.3,1
					V152.1z"/>
				<path class="st4" d="M316.1,141.8c0.7-0.3,1.4-0.5,2.1-0.5c1.3,0,2.5,0.4,3.5,1.2c1,0.8,1.6,1.9,1.6,3.2c-0.1,0.7,0.2,1.5,0.7,2
					c1.4,0.9,3,1.2,4.6,1.1c4.7,0,7.1-1.2,7.1-3.7c-0.1-1.5-0.8-2.8-2-3.7c-1.3-1.1-2.8-2-4.4-2.7l-3.5-1.6c-2-0.9-3.6-1.7-4.9-2.3
					c-1.3-0.7-2.6-1.6-3.7-2.6c-1.1-0.9-1.7-2.1-1.8-3.5c0-1.7,1-2.8,3-3.4c2.1-0.6,4.2-0.9,6.4-0.9h9.4c2.1-0.1,4.3,0.1,6.3,0.5
					c1.7,0.4,2.5,1.3,2.5,2.6c0,0.9-0.3,1.7-1,2.2c-0.7,0.6-1.5,0.9-2.3,0.8c-1.4,0.2-2.8-0.8-3-2.2c0-0.3,0-0.5,0-0.8
					c-0.5,0-1-0.1-1.5-0.2c-0.5-0.1-1-0.1-1.5-0.2h-4.1c-3.1,0-4.6,0.5-4.6,1.5c0,1,0.8,1.9,2.4,2.8c1.6,0.9,3.2,1.6,4.9,2.3
					l3.1,1.2c2.6,0.9,5,2.4,6.9,4.5c1.8,1.9,2.7,4.4,2.6,6.9c0,1.9-0.4,3.7-1.2,5.4c-0.7,1.6-1.9,2.9-3.4,3.8
					c-1.6,0.9-3.3,1.4-5.1,1.4c-0.3,0-1.5-0.1-3.4-0.3s-3.2-0.3-3.7-0.3c-1.5,0-3.1,0.1-4.6,0.2c-1.5,0.1-2.5,0.2-2.7,0.2
					c-1.2,0-2.3-0.3-3.3-0.9c-1.1-0.6-2-1.4-2.7-2.4c-0.7-1-1-2.1-1-3.2c0-0.8,0.1-1.7,0.4-2.4c0.4-0.8,0.9-1.6,1.4-2.3
					c0.5-0.7,0.9-1.5,1-2.3C316.8,142.7,316.5,142.2,316.1,141.8z"/>
				<path class="st4" d="M359.6,132.6v14.3c-0.7,1-1.1,2.2-1.1,3.5c0,1.5,0.4,2.9,1.3,4.1v9.2c0.1,0.1,0.2,0.2,0.4,0.3
					c0.1,0.1,0.3,0.1,0.5,0.3c0.7,0.3,1.4,0.7,2,1.1c0.5,0.3,0.8,0.7,0.8,1.1s-0.3,0.8-1,1.1c-1.1,0.7-2.4,1.1-3.7,1.1
					c-0.1,0-0.6-0.1-1.4-0.2c-0.5-0.1-1-0.1-1.5-0.2c-0.5,0-1.1,0.1-1.6,0.2c-0.9,0.1-1.4,0.2-1.5,0.2c-1.3,0-2.6-0.4-3.7-1.1
					c-0.6-0.3-0.9-0.7-0.9-1.1s0.9-1.3,2.8-2.2l0.5-0.2c0.3-0.1,0.4-0.2,0.4-0.3v-34.5c0-0.4-0.2-0.8-0.5-1
					c-0.4-0.3-0.9-0.6-1.4-0.8c-0.5-0.2-0.9-0.5-1.3-0.8c-0.3-0.2-0.4-0.6-0.4-0.9c0-0.8,1.1-1.2,3.5-1.2h7.5c2,0,3,0.4,3,1.2
					c0,0.4-0.2,0.7-0.4,1c-0.3,0.3-0.8,0.7-1.4,1.2s-1,0.8-1,1v0.6l5.3-3.5c1.3-0.8,2.7-1.3,4.2-1.5c2.7,0,5.3,0.9,7.3,2.7
					c1,0.8,1.8,1.8,2.4,2.9c1.7,2.8,2.6,6.6,2.6,11.6c0.1,3.7-0.9,7.4-2.9,10.6c-1.2,1.8-2.8,3.2-4.6,4.3c-1.8,1.1-3.8,1.6-5.9,1.7
					c-2.1,0-4.2-0.7-5.9-2.1c-1.7-1.2-2.6-3.2-2.6-5.2c0-0.6,0.1-1.3,0.3-1.9c0.3-0.5,0.6-1.1,1-1.6c0.3-0.4,0.6-0.9,0.6-1.5
					c0-0.4-0.2-0.8-0.5-1.1c0.4-0.1,0.7-0.2,1.1-0.2c0.9,0,1.8,0.3,2.5,0.9c0.4,0.5,0.7,1.1,0.9,1.7c0.1,0.6,0.4,1.2,0.7,1.7
					c0.3,0.4,0.8,0.5,1.7,0.5c2.8,0,4.8-1.1,5.9-3.2c1.2-2.3,1.8-4.8,1.7-7.4c0.1-2.4-0.6-4.8-2.1-6.8c-1.3-1.8-3.4-2.9-5.7-2.8
					c-0.9,0-1.8,0.1-2.6,0.5c-1.1,0.5-2.1,1.1-3.1,1.7L359.6,132.6z"/>
				<path class="st4" d="M403.2,140.5c-0.2,0-0.4,0.1-0.7,0.1c-0.4,0-0.8-0.2-1.1-0.6c-0.3-0.4-0.5-0.8-0.5-1.3c0-0.3,0-0.7,0.1-1
					c0.2-0.4,0.4-0.7,0.6-1.1c0.2-0.4,0.5-0.9,0.6-1.3c0.1-0.5,0.2-1,0.2-1.5c0-0.6-0.2-1.1-0.6-1.5c-0.4-0.4-1-0.7-1.6-0.7
					c-0.5,0-1,0.1-1.4,0.3l-0.9,0.4c-0.8,0.2-1.6,0.4-2.5,0.5v19.3c0.3,0.2,0.6,0.3,1,0.5c1.9,1,2.8,1.8,2.8,2.3
					c0,0.3-0.3,0.7-1,1.1c-1.1,0.7-2.4,1.1-3.7,1.1c-0.1,0-0.6-0.1-1.4-0.2s-1.3-0.2-1.5-0.2c-0.5,0-1,0.1-1.5,0.2
					c-0.5,0.1-1,0.2-1.5,0.2c-1.3,0-2.6-0.4-3.7-1.1c-0.6-0.3-0.9-0.7-0.9-1c0-0.6,0.9-1.4,2.8-2.3c0.3-0.2,0.6-0.4,0.9-0.5v-22.8
					c0-0.3,0-0.7-0.1-1c-0.6-0.4-1.2-0.8-1.7-1.2c-0.7-0.6-1-1-1-1.5c0-0.8,1-1.2,3.1-1.2h7.8c2,0,3,0.4,3,1.2
					c0,0.3-0.1,0.7-0.4,0.9c-0.4,0.3-0.7,0.6-1.2,0.8c-0.4,0.2-0.8,0.5-1.2,0.8c-0.3,0.2-0.4,0.5-0.4,0.9v0.8
					c1.6-0.6,3.1-1.5,4.3-2.7c1.7-1.8,3.4-2.7,4.9-2.7c1,0,2,0.3,2.9,0.9c0.9,0.6,1.6,1.5,2.1,2.5c0.5,1.1,0.8,2.3,0.8,3.6
					c0,1.7-0.6,3.4-1.5,4.9c-1,1.5-2.5,2.6-4.3,3C403.7,139.5,403.3,139.9,403.2,140.5z"/>
				<path class="st4" d="M423.3,152.1c0.3,0.2,0.6,0.3,0.9,0.5c1.7,0.9,2.7,1.6,2.8,2.2c0,0.4-0.3,0.8-1,1.1
					c-1.1,0.7-2.5,1.1-3.8,1.1c-0.1,0-0.6-0.1-1.4-0.2s-1.3-0.2-1.5-0.2c-0.5,0-1,0.1-1.5,0.2c-0.5,0.1-0.9,0.2-1.4,0.2
					c-1.3-0.1-2.6-0.4-3.8-1.1c-0.6-0.4-0.9-0.8-0.9-1.1c0.1-0.6,1.1-1.3,2.8-2.2c0.3-0.2,0.6-0.4,1-0.5v-22.7
					c0.1-0.4-0.1-0.9-0.4-1.2l-1.6-1.2c-0.5-0.3-0.8-0.8-0.9-1.3c0-0.8,1-1.2,3.1-1.2h7.5c2,0,3.1,0.4,3.1,1.2
					c0,0.6-0.4,1.1-0.9,1.4l-1.7,1.3c-0.2,0.3-0.2,0.7-0.2,1L423.3,152.1z M419.4,114.5c3.1,0,4.7,0.9,4.7,2.7c0,2-1.6,3-4.7,3
					c-3.1,0-4.6-1-4.6-3C414.8,115.3,416.3,114.5,419.4,114.5z"/>
				<path class="st4" d="M440.6,133.2v18.9c0.3,0.2,0.6,0.4,0.9,0.5c1.9,1,2.8,1.7,2.8,2.3s-0.3,0.8-0.9,1.1c-1.2,0.6-2.5,1-3.8,1.1
					c-0.1,0-0.6-0.1-1.4-0.2s-1.3-0.2-1.5-0.2c-0.5,0-1,0.1-1.5,0.2c-0.5,0.1-1,0.2-1.5,0.2c-1.3,0-2.6-0.4-3.7-1
					c-0.6-0.3-0.9-0.7-0.9-1.1c0-0.3,0.2-0.6,0.5-0.8c0.4-0.3,0.8-0.6,1.2-0.8l1.1-0.6c0.3-0.1,0.6-0.3,0.9-0.5v-22.5
					c0-0.5-0.2-0.9-0.5-1.2c-0.4-0.4-0.8-0.7-1.3-1c-0.4-0.3-0.8-0.6-1.2-0.9c-0.2-0.2-0.4-0.6-0.4-0.9c0-0.7,1.2-1,3.5-1h7.9
					c2,0,3,0.4,3,1.2c0,0.5-0.4,1-1.1,1.5c-0.6,0.4-1.2,0.8-1.8,1.2c-0.2,0.3-0.3,0.6-0.3,1v0.7c1.4-0.5,2.7-1.4,3.8-2.5
					c2.4-2.4,5-3.5,7.6-3.5c1.5,0,3,0.3,4.3,1c1.2,0.6,2.2,1.7,2.8,2.9c0.7,1.4,1,2.9,1,4.4v19.7c0.1,0.1,0.3,0.2,0.4,0.3
					c0.2,0.1,0.3,0.2,0.5,0.3l0.7,0.4c0.3,0.2,0.6,0.4,1,0.6c0.3,0.2,0.6,0.4,0.8,0.7c0.2,0.2,0.3,0.4,0.3,0.6
					c0,0.3-0.3,0.7-0.9,1.1c-1.1,0.6-2.4,1-3.7,1.1c-0.1,0-0.6-0.1-1.4-0.2s-1.3-0.2-1.5-0.2c-0.5,0-1.1,0.1-1.6,0.2
					c-1.8,0.4-3.6,0.1-5.2-0.9c-0.6-0.3-0.9-0.7-0.9-1.1c0-0.3,0.2-0.6,0.5-0.8c0.4-0.3,0.8-0.6,1.2-0.8l1.1-0.6
					c0.3-0.1,0.6-0.3,0.9-0.5v-17.2c0-2.9-1.2-4.4-3.7-4.4c-1.3,0.1-2.5,0.4-3.7,1l-1.6,0.7C442.4,132.6,441.5,132.9,440.6,133.2z"
					/>
				<path class="st4" d="M496.4,128.4v18c0,1.9,0.2,3.7,0.7,5.5l0.3,1.3c0.4,1.6,0.7,3.2,0.7,4.8c0,1.3-0.3,2.5-0.8,3.7
					c-0.5,1.3-1.3,2.4-2.3,3.4c-2,2-5.1,3-9.4,3h-4.3c-1.5,0-2.7,0-3.8,0.1l-1.8,0.1c-2.1,0-4.2-0.4-6.1-1.2
					c-1.6-0.6-2.7-2.2-2.6-3.9c0-0.5,0.2-1.1,0.4-1.6c0.2-0.4,0.3-0.8,0.4-1.2c0-0.4-0.2-0.8-0.5-1c0.5-0.1,1.1-0.1,1.6-0.1
					c2.1-0.1,4.2,0.8,5.7,2.3l0.7,0.7c1.4,1.5,3.5,2.2,6.3,2.2c2.1,0,4.1-0.3,6-1.1c2.2-1.1,3.2-3.7,2.1-6c0,0,0,0,0,0
					c-0.2-0.4-0.4-0.7-0.6-1c-0.8,0.5-1.8,0.8-2.8,0.9c-0.8,0-1.6-0.1-2.4-0.1c-0.8-0.1-1.3-0.1-1.5-0.1c-0.4,0-1.1,0-2.1,0.1
					s-1.8,0.1-2.4,0.1c-2.2,0-4.3-0.7-5.9-2.1c-1.7-1.5-3-3.4-3.7-5.6c-0.8-2.4-1.3-4.9-1.2-7.5c-0.1-3.2,0.5-6.5,1.7-9.5
					c1.1-2.6,3-4.8,5.5-6.2c2.9-1.6,6.3-2.3,9.6-2.2h13.4c1.1,0,1.7,0.2,1.8,0.7c-0.1,1-0.7,1.9-1.5,2.3l-0.3,0.2
					c-0.1,0.1-0.3,0.2-0.4,0.3L496.4,128.4z M489,142.9v-9.1c0.1-1.7-0.6-3.3-1.8-4.5c-1.3-1.1-3-1.7-4.7-1.6
					c-1.7-0.1-3.3,0.5-4.5,1.7c-1.3,1.1-2.2,2.6-2.7,4.2c-0.6,1.7-0.9,3.4-0.9,5.2c0,2.3,0.4,4.6,1.3,6.8c0.9,2.1,2.3,3.2,4.3,3.2
					l1.6-0.1l1.5-0.1c0.1,0,0.6,0,1.4,0.1l1.4,0.1c1.1,0,2.1-0.7,2.4-1.8C488.8,145.7,489,144.3,489,142.9z"/>
				<path class="st5" d="M516.9,111.2c0.1,2.9-2.2,5.3-5.1,5.4s-5.3-2.2-5.4-5.1c-0.1-2.9,2.2-5.3,5.1-5.4h0.2
					C514.5,106,516.8,108.3,516.9,111.2C516.9,111.1,516.9,111.1,516.9,111.2L516.9,111.2z M507.7,111.2c0,2.2,1.7,4,3.9,4.1
					c0,0,0,0,0,0h0.1c2.2,0,3.9-1.8,3.9-3.9v-0.1c0-2.2-1.8-3.9-3.9-3.9C509.5,107.3,507.7,109.1,507.7,111.2L507.7,111.2
					L507.7,111.2L507.7,111.2z M510.8,113.8h-1.2v-5.1c0.7-0.1,1.3-0.2,2-0.2c0.6-0.1,1.2,0.1,1.7,0.4c0.3,0.3,0.5,0.7,0.5,1.1
					c0,0.6-0.5,1.1-1.1,1.2v0.1c0.5,0.2,0.8,0.6,0.9,1.2c0.1,0.4,0.2,0.9,0.4,1.2h-1.2c-0.2-0.4-0.3-0.8-0.4-1.2
					c-0.1-0.5-0.4-0.8-1.1-0.8h-0.6L510.8,113.8z M510.8,111h0.6c0.6,0,1.2-0.2,1.2-0.7s-0.3-0.8-1.1-0.8c-0.2,0-0.4,0-0.6,0.1
					L510.8,111z"/>
			</g>
		</g>
	</g>
</g>
</svg>
