<svg xmlns="http://www.w3.org/2000/svg" viewBox="0 0 1947.25 856.95"><defs><style>.cls-1{fill:#fff;}.cls-2{fill:#ebdc21;}.cls-3{fill:#272727;}.cls-4{fill:#e40925;}</style></defs><g id="Capa_2" data-name="Capa 2"><g id="Capa_1-2" data-name="Capa 1"><rect class="cls-1" x="364.3" y="668.36" width="649.29" height="188.59" rx="94.29"/><path class="cls-2" d="M85.6,130.09a86.54,86.54,0,0,1-18.1,6.2,49.24,49.24,0,0,1-18,1,23.84,23.84,0,0,1-13.7-6.5q-5.4-5.29-5-16.3A64.32,64.32,0,0,1,39,85.69a123.11,123.11,0,0,1,19.2-25.9,199,199,0,0,1,25.7-22.5Q98,26.9,111.8,18.49a138.38,138.38,0,0,1,28.1-13.2Q153.79.69,164.5.09T181.6,3q6.39,3.5,5.6,10.9a20.24,20.24,0,0,1-4.1,9.7,53.63,53.63,0,0,1-8.5,8.9,82.33,82.33,0,0,1-10.7,7.6q-5.7,3.4-10.7,6t-8.5,4c-2.34.93-3.7,1.47-4.1,1.6-.67.27-1.07.3-1.2.1s-.07-.43.2-.7a3.27,3.27,0,0,1,1-1A191.76,191.76,0,0,0,163,34.49a87.24,87.24,0,0,0,11.4-11.1q3.6-4.5,4-7.1a12.51,12.51,0,0,0,.2-3.6q-.6-2.2-5.4-3.1t-13.7,1.1a126.56,126.56,0,0,0-21.8,7.6,197.83,197.83,0,0,0-29.3,16.4,207.65,207.65,0,0,0-27.3,20.9,194.38,194.38,0,0,0-20.2,21.2,112.46,112.46,0,0,0-13,19.6q-4.71,9.3-5.7,16.2t1.7,10.9q2.7,4,9.1,3.6a54.13,54.13,0,0,0,10.8-1.7q6-1.5,12.4-3.8t13.1-5.2q6.69-2.9,12.9-5.9,14.6-7,30-16a11.52,11.52,0,0,1,.3,4.4,13.89,13.89,0,0,1-.9,3.2,10.24,10.24,0,0,1-1.8,2.6A197.4,197.4,0,0,0,109.2,123q-10.61,10.7-20.8,23t-19.7,25.6q-9.51,13.31-17.2,26t-13.2,24.2a115.73,115.73,0,0,0-7.8,20.3q-2.31,8.79-1,14.2t7.1,5.8a60,60,0,0,0,23.6-2.8,108.16,108.16,0,0,0,23.1-10.7,164.32,164.32,0,0,0,22.1-16.3q10.8-9.4,20.6-19.4t16-17.4q6.19-7.4,10-12.5t5.6-8.1q1.8-3,2.8-4.4c1.06-1.33,1.86-2,2.4-2a1.29,1.29,0,0,1,1.2.8,5.92,5.92,0,0,1,.8,2.8,112.17,112.17,0,0,1-11.8,22.6,201.69,201.69,0,0,1-17.8,23,234,234,0,0,1-21.6,21.2,237.45,237.45,0,0,1-23,17.6,130.67,130.67,0,0,1-22,12q-10.6,4.39-18.8,4.4a45.85,45.85,0,0,1-10.9-1.4,33,33,0,0,1-10.6-4.7,26.43,26.43,0,0,1-8.1-8.8Q17,252.49,17,244.09a51.71,51.71,0,0,1,3.6-17.6A156.06,156.06,0,0,1,30,206a251.78,251.78,0,0,1,13.2-21.6q7.39-10.9,15-20.9T73,144.89Q80.2,136.3,85.6,130.09Z"/><path class="cls-2" d="M224.2,162.89c1.2-.53,2.06-.4,2.6.4a2.89,2.89,0,0,1,.4,1.6q-13.6,18-23.3,27.3t-16.1,13.1q-7.61,4.61-12.6,4.4-10.8,0-14.6-6.4t-2.5-16.8q1.29-10.4,6.7-23.8a271.28,271.28,0,0,1,12.9-27.3q7.5-13.9,16.1-27.3T210,84.29a209.43,209.43,0,0,1,13.4-16.8q5.79-6.4,7.6-6.4a22.15,22.15,0,0,1,4.1.5,11.13,11.13,0,0,1,4.9,2.5,15.71,15.71,0,0,1,4.1,5.9,26.81,26.81,0,0,1,1.7,10.5A41.54,41.54,0,0,1,241.2,99a98.67,98.67,0,0,1-11.6,18,156.08,156.08,0,0,1-15.4,16.5q-8.4,7.8-16,13.8t-13.4,9.9q-5.81,3.9-7.4,4.9A131.66,131.66,0,0,0,172,177a46.62,46.62,0,0,0-2.1,11.9c-.07,3.33.6,6,2,7.9s3.7,2.9,6.9,2.9a34.12,34.12,0,0,0,9.6-4.4,96.33,96.33,0,0,0,9.8-7.2q4.8-4,9.3-8.3t8-7.9q3.5-3.6,5.8-6.1A26.27,26.27,0,0,1,224.2,162.89Zm11-91a170.22,170.22,0,0,0-12.6,14.9q-6.81,8.89-13.7,19.1t-13.5,21.3q-6.6,11.1-11.8,21.7,10.8-8.59,18.8-16.4a177.39,177.39,0,0,0,13.7-14.8,108.07,108.07,0,0,0,9.3-13.1,97,97,0,0,0,5.8-11.3Q236.2,81.29,235.2,71.89Z"/><path class="cls-2" d="M359,162.89c1.19-.53,2.06-.4,2.59.4a2.81,2.81,0,0,1,.41,1.6q-13.61,18-23.31,27.3t-16.1,13.1Q315,209.9,310,209.69q-10.81,0-14.61-6.4t-2.5-16.8q1.31-10.4,6.7-23.8a271.42,271.42,0,0,1,12.91-27.3q7.5-13.9,16.09-27.3t16.2-23.8a214,214,0,0,1,13.4-16.8q5.81-6.4,7.6-6.4a22,22,0,0,1,4.1.5,11.08,11.08,0,0,1,4.9,2.5,15.6,15.6,0,0,1,4.1,5.9,26.62,26.62,0,0,1,1.7,10.5A41.52,41.52,0,0,1,376,99a98.2,98.2,0,0,1-11.61,18A156,156,0,0,1,349,133.49q-8.42,7.8-16,13.8t-13.41,9.9q-5.79,3.9-7.4,4.9a135.68,135.68,0,0,0-5.4,14.9,47.51,47.51,0,0,0-2.1,11.9c-.06,3.33.6,6,2,7.9s3.7,2.9,6.9,2.9a33.87,33.87,0,0,0,9.6-4.4,96.44,96.44,0,0,0,9.81-7.2q4.78-4,9.29-8.3t8-7.9q3.51-3.6,5.8-6.1A26,26,0,0,1,359,162.89Zm11-91a171.92,171.92,0,0,0-12.61,14.9q-6.79,8.89-13.7,19.1t-13.5,21.3q-6.6,11.1-11.8,21.7a249.45,249.45,0,0,0,18.8-16.4,175.69,175.69,0,0,0,13.7-14.8,108.07,108.07,0,0,0,9.3-13.1A97.16,97.16,0,0,0,366,93.29Q371,81.29,370,71.89Z"/><path class="cls-2" d="M441,162.89a1.69,1.69,0,0,1,1.6-.3,3.63,3.63,0,0,1,1,.7,7.45,7.45,0,0,1,.6,1.6q-11.79,15.8-20.8,24.5a116.2,116.2,0,0,1-15.3,12.9q-6.3,4.2-10.1,5a31,31,0,0,1-5.2.8,11,11,0,0,1-6.2-1.6,15.61,15.61,0,0,1-4-3.8,16,16,0,0,1-2.8-5.4,16.31,16.31,0,0,1,1.2-7.6,81.5,81.5,0,0,1-8.8,8.7,59.11,59.11,0,0,1-7,5.1,23.24,23.24,0,0,1-5,2.4,11.55,11.55,0,0,1-2.8.6,10.26,10.26,0,0,1-3.2-.7,16.77,16.77,0,0,1-3.9-2,11.85,11.85,0,0,1-3.2-3.3,8.31,8.31,0,0,1-1.3-4.6,35,35,0,0,1,2.9-12.8,117.78,117.78,0,0,1,6.5-13.6,134.69,134.69,0,0,1,9.4-15.2,8,8,0,0,1,5.4.9,9.49,9.49,0,0,1,3,2.9,16,16,0,0,1,1.8,4.4,151.5,151.5,0,0,0-9.7,16.3q-3.3,6.71-4.9,10.9a31.62,31.62,0,0,0-2,8,34.6,34.6,0,0,0,8-4.7,108.66,108.66,0,0,0,8.8-7.4q4.41-4.09,8.5-8.5t7.1-7.8q1.61-2.81,3.1-5.2t2.7-4.2a31.46,31.46,0,0,1,2.4-3.8q4.6.79,6.3,2.4a6.72,6.72,0,0,1,2.1,3.2,7.48,7.48,0,0,1-.6,4.4q-6.19,11.6-9.1,18.2t-4,9.9q-1.1,3.3-.5,5.1a31.13,31.13,0,0,0,9.9-3.8,90,90,0,0,0,10.4-6.9q5.1-3.9,9.8-8.3t8.5-8.1c2.53-2.47,4.64-4.57,6.3-6.3A33.22,33.22,0,0,1,441,162.89Z"/><path class="cls-2" d="M516.59,164.89a204.59,204.59,0,0,1-25.6,30.5q-14.21,13.91-27.8,25.9c-.67,1.73-1.23,3.43-1.7,5.1s-1,3.43-1.7,5.3a199.93,199.93,0,0,1-10,27,83.87,83.87,0,0,1-9,15.3q-4.2,5.29-7.5,6.8a13.94,13.94,0,0,1-5.5,1.5,14.45,14.45,0,0,1-4.9-1,17.53,17.53,0,0,1-5.1-3,18.73,18.73,0,0,1-4.1-4.9,13.06,13.06,0,0,1-1.7-6.7,21.73,21.73,0,0,1,2.8-10.1,55.64,55.64,0,0,1,7.8-10.9,163.79,163.79,0,0,1,11.8-11.8q6.81-6.21,14.6-12.8,1.39-3.41,2.6-6.9c.8-2.33,1.73-4.77,2.8-7.3.53-1.47,1.07-2.9,1.6-4.3s1.07-2.77,1.6-4.1a59.48,59.48,0,0,1-8.6,8.2q-4,3-6,3a14.45,14.45,0,0,1-4.9-1.1,20.12,20.12,0,0,1-5.5-3.2,20.92,20.92,0,0,1-4.5-5.1,12.85,12.85,0,0,1-1.9-7,32.29,32.29,0,0,1,3.7-15.1,59.63,59.63,0,0,1,8.6-12.5,50.21,50.21,0,0,1,9.7-8.5q4.8-3.1,7.2-3.1a22.52,22.52,0,0,1,6.3.9,51.21,51.21,0,0,1,5.9,2.1c1.87.8,3.53,1.6,5,2.4s2.6,1.47,3.4,2c1.07-1.33,2-2.4,2.7-3.2a14.75,14.75,0,0,1,1.9-1.8,2.32,2.32,0,0,1,1.6-.8,5.19,5.19,0,0,1,3.5.8,9.7,9.7,0,0,1,2.5,2.4,15.67,15.67,0,0,1,2,3.6q-2.6,3-8.2,12.7t-13,29.1q11.2-9.4,22.6-19.6a309.52,309.52,0,0,0,22-21.8,1.81,1.81,0,0,1,2.4.6A4.33,4.33,0,0,1,516.59,164.89Zm-95.2,107.2a8,8,0,0,0,4.8-1.6,18.42,18.42,0,0,0,4.5-5.4,85.48,85.48,0,0,0,4.9-9.7q2.61-5.91,6-14.7a132.72,132.72,0,0,0-14.6,16.5Q421.4,264.89,421.39,272.09Zm17.6-72.6q1.8,0,5.7-3.5t8.5-8.3q4.6-4.8,9.1-10t7.5-8.8q-1-.79-1.8-1.5c-.53-.47-1.07-.9-1.6-1.3a6.43,6.43,0,0,0-1.6-1.2,13.88,13.88,0,0,0-7.7,2.6,38.49,38.49,0,0,0-7.3,6.4,49.17,49.17,0,0,0-6,8.3,76.39,76.39,0,0,0-4.2,8.3,24.69,24.69,0,0,0-1.9,6.4C437.49,198.62,437.93,199.49,439,199.49Z"/><path class="cls-2" d="M588.59,164.89a238.41,238.41,0,0,1-17.3,21.2,158.2,158.2,0,0,1-13.7,13.2,62,62,0,0,1-10.2,7.2,30.27,30.27,0,0,1-6.8,2.8h-.2c-.67.13-1.23.23-1.7.3a10.21,10.21,0,0,1-1.5.1H537a7.36,7.36,0,0,1-6.5-4,15.92,15.92,0,0,1-2.1-7.8,7.56,7.56,0,0,1,.2-1.8,13.5,13.5,0,0,1,.6-1.8q-5.6,5-10.9,8.9t-7.5,3.9a13.77,13.77,0,0,1-3.9-.7,11.21,11.21,0,0,1-4.4-2.7,16.41,16.41,0,0,1-3.6-5.5,23.35,23.35,0,0,1-1.5-9.1,26,26,0,0,1,4.4-14.9,46.69,46.69,0,0,1,10.3-11,50.44,50.44,0,0,1,11.6-6.8c3.8-1.53,6.64-2.3,8.5-2.3q8.2,0,12.7,2.7t4.5,7.1c0,2.93-.5,4.87-1.5,5.8s-1.83,1.67-2.5,2.2a1.35,1.35,0,0,1-2-.2,3,3,0,0,1-.6-.8,9.42,9.42,0,0,0,2.4-4,2.69,2.69,0,0,0-.9-2.8c-.87-.8-2.76-1.33-5.7-1.6q-4.8-.19-10.2,3.5a46.06,46.06,0,0,0-9.7,9,52.83,52.83,0,0,0-6.9,10.9q-2.6,5.6-1.8,8.8,2.81.6,7.6-2.1a94.81,94.81,0,0,0,9.7-6.3q4.9-3.6,8.8-6.8a31.46,31.46,0,0,1,4.9-3.6,3.35,3.35,0,0,1,2.5.2,10.39,10.39,0,0,1,5,4.3,5.65,5.65,0,0,1,.9,2.9,8.37,8.37,0,0,1-1.1,3.4c-.73,1.47-1.57,3-2.5,4.6s-1.9,3.13-2.9,4.6a23.12,23.12,0,0,0-2.1,3.6,47.24,47.24,0,0,0,14.5-8,179,179,0,0,0,14-12q6.5-6.19,10.9-11.2t5.4-5.4a1.69,1.69,0,0,1,1.6-.3,3.78,3.78,0,0,1,1,.7A3.51,3.51,0,0,1,588.59,164.89Z"/><path class="cls-2" d="M646.39,162.89a1.69,1.69,0,0,1,1.6-.3,3.78,3.78,0,0,1,1,.7,3.51,3.51,0,0,1,.4,1.6Q638,180.3,629.09,189a119.43,119.43,0,0,1-15.2,13q-6.3,4.31-10.2,5.2a28.67,28.67,0,0,1-5.5.9h-.8a.18.18,0,0,1-.2-.2v-.2a11.09,11.09,0,0,1-3-1.1,16.62,16.62,0,0,1-3.6-2.5,14.18,14.18,0,0,1-3.1-4.1,13.06,13.06,0,0,1-1.3-6.1,21.66,21.66,0,0,1,3.1-11.5,60,60,0,0,1,5.9-8.3,29.53,29.53,0,0,1-6.1.2,18.5,18.5,0,0,1-6.9-1.8,66.82,66.82,0,0,1-6,6.6,2.55,2.55,0,0,1-1.4,0,2.28,2.28,0,0,1-1.1-.9,6.14,6.14,0,0,1-.7-2.7,32.85,32.85,0,0,0,1.9-2.7c.73-1.13,1.64-2.43,2.7-3.9a21.62,21.62,0,0,1-4-5.9,20.7,20.7,0,0,1-1.8-9.1,29.79,29.79,0,0,1,2.9-13.8,31.18,31.18,0,0,1,6.7-9,28,28,0,0,1,7.2-4.9,14.77,14.77,0,0,1,4.6-1.5,9.39,9.39,0,0,1,3.1.7,19.52,19.52,0,0,1,3.9,2,11.38,11.38,0,0,1,3.4,3.5,9.51,9.51,0,0,1,1.4,5.2,13.62,13.62,0,0,1-1.5,5.1,78.15,78.15,0,0,1-3.8,7.2q-2.3,3.9-5.3,8.2t-6,8.3a18.44,18.44,0,0,0,5.6-.5,31.1,31.1,0,0,0,6-2.1,36.73,36.73,0,0,0,5.7-3.3,28.27,28.27,0,0,0,4.7-4.1,7.45,7.45,0,0,1,3,.2,6.89,6.89,0,0,1,2.4,1.5,8.15,8.15,0,0,1,2,3.5q-5.6,8.21-9.8,15.8-1.8,3.2-3.6,6.6c-1.2,2.27-2.23,4.43-3.1,6.5a55.61,55.61,0,0,0-2.1,5.8,16.58,16.58,0,0,0-.8,4.5,37.64,37.64,0,0,0,9.9-3.9,75.52,75.52,0,0,0,10.4-6.9q5.1-4,9.8-8.3t8.5-8.1l6.3-6.3A34.55,34.55,0,0,1,646.39,162.89Zm-64.8-5.6a7.75,7.75,0,0,0,.8,4.2q2.4-3.19,4.9-6.8a83.38,83.38,0,0,0,4.5-7.2,59.31,59.31,0,0,0,3.3-6.9,20.61,20.61,0,0,0,1.5-6.1,17.94,17.94,0,0,0-7.2,4.2,26.7,26.7,0,0,0-5.2,7.1A26,26,0,0,0,581.59,157.29Z"/><path class="cls-2" d="M812,162.89a1.69,1.69,0,0,1,1.6-.3,3.78,3.78,0,0,1,1,.7,3.64,3.64,0,0,1,.4,1.6q-13.41,18-23.2,27.3t-16.2,13.1q-7.61,4.61-12.6,4.4-10,0-13.9-5.4t-3.5-14.4a106.76,106.76,0,0,1-12.8,14.2q-6.21,5.59-9,5.6a14,14,0,0,1-5-1.1,22.06,22.06,0,0,1-5.5-3.2,18.37,18.37,0,0,1-4.5-5.1,13.33,13.33,0,0,1-1.8-7,32.17,32.17,0,0,1,3.7-15.1,61.66,61.66,0,0,1,8.5-12.5,46.41,46.41,0,0,1,9.7-8.5c3.26-2.07,5.7-3.1,7.3-3.1a25.63,25.63,0,0,1,9.7,1.9,52.39,52.39,0,0,1,7.9,3.9,228,228,0,0,1,10.6-22.3q6.2-11.51,12.9-22.5t13.5-20.8q6.8-9.8,12.5-17.2a136.52,136.52,0,0,1,9.9-11.7q4.2-4.3,5.8-4.3a21.66,21.66,0,0,1,3.9.5,11.13,11.13,0,0,1,4.9,2.5,15.71,15.71,0,0,1,4.1,5.9,26.81,26.81,0,0,1,1.7,10.5A41.54,41.54,0,0,1,829,99a98.67,98.67,0,0,1-11.6,18,156.08,156.08,0,0,1-15.4,16.5q-8.4,7.8-16,13.8t-13.4,9.9q-5.8,3.9-7.4,4.9a131.66,131.66,0,0,0-5.4,14.9,46.62,46.62,0,0,0-2.1,11.9c-.07,3.33.6,6,2,7.9s3.7,2.9,6.9,2.9a44.78,44.78,0,0,0,14.6-7.8,160.08,160.08,0,0,0,14.1-12.1q6.5-6.3,11.1-11.3A47.9,47.9,0,0,1,812,162.89Zm-92.2,36.8c1.2,0,3.06-1.13,5.6-3.4s5.33-5,8.4-8.3,6.06-6.63,9-10.1,5.4-6.4,7.4-8.8a.18.18,0,0,0,.2-.2c-.54-.53-1.07-1-1.6-1.5s-1.07-.9-1.6-1.3a6.61,6.61,0,0,0-1.6-1.2,13.85,13.85,0,0,0-7.7,2.6,38.19,38.19,0,0,0-7.3,6.4,47.29,47.29,0,0,0-6,8.4,81.92,81.92,0,0,0-4.2,8.4,24.3,24.3,0,0,0-1.9,6.4C718.29,198.82,718.72,199.69,719.79,199.69ZM823,71.69q-5.81,6.19-12.6,15t-13.7,19.1q-6.9,10.3-13.4,21.4t-11.9,21.7a236.23,236.23,0,0,0,18.8-16.5,189.2,189.2,0,0,0,13.7-14.9,108.07,108.07,0,0,0,9.3-13.1,97,97,0,0,0,5.8-11.3Q824,81.09,823,71.69Z"/><path class="cls-2" d="M866,162.89a7.56,7.56,0,0,1,1.8.2q1.61.41,1.2,1.8-5,11-12.7,17.3t-20.7,6.7a53.72,53.72,0,0,1-4.6,7.6,37.81,37.81,0,0,1-5.8,6.4,29.07,29.07,0,0,1-6.8,4.5,18.08,18.08,0,0,1-7.8,1.7,15.35,15.35,0,0,1-10.5-3.6,14.27,14.27,0,0,1-4.8-9.3q-.69-5.7,2.6-12.7t11.7-13.6q-.2-1.2-.3-2.4c-.06-.8-.1-1.53-.1-2.2a12.9,12.9,0,0,1,1.7-6.8,13.94,13.94,0,0,1,4.3-4.5,17.54,17.54,0,0,1,5.7-2.4,26.68,26.68,0,0,1,5.9-.7,13.39,13.39,0,0,1,4.5.9,12.44,12.44,0,0,1,4.6,3,17.85,17.85,0,0,1,3.6,5.5,20.83,20.83,0,0,1,1.5,8.4,30.7,30.7,0,0,1-.5,5.3,46.58,46.58,0,0,1-1.5,6.1,36.42,36.42,0,0,0,14.1-4.4Q860.19,171.9,866,162.89Zm-59.4,35.4a25.82,25.82,0,0,0,5.6-1.6,29.16,29.16,0,0,0,5.5-3.2,25,25,0,0,0,5.9-6.2,20.09,20.09,0,0,1-8-5,57.13,57.13,0,0,0-6,7.2A14.91,14.91,0,0,0,806.58,198.29Zm24.4-39c-.26-.27-1.06-.23-2.4.1a16.3,16.3,0,0,0-8.5,5.7,9.09,9.09,0,0,0-1.9,5.8q0,2.4,2.7,4.7a18.28,18.28,0,0,0,7.3,3.5q4-9.41,3.8-14.2T831,159.29Z"/><path class="cls-2" d="M951.38,163.09a1.69,1.69,0,0,1,1.6-.3,3.78,3.78,0,0,1,1,.7,3.51,3.51,0,0,1,.4,1.6q-13.61,18-23.3,27T915,204.69q-7.61,4.2-12.6,3.4a12.89,12.89,0,0,1-6.7-3.5,9.33,9.33,0,0,1-3.1-7.1q0-4,2.9-9.2t6.1-10.2q1.6-2.4,2.7-4.3c.73-1.27,1.37-2.43,1.9-3.5s1.07-2.07,1.6-3a89.88,89.88,0,0,0-14.1,11.8q-6.9,7-12.7,13.5t-10,11.1q-4.2,4.6-6,4.6a7.72,7.72,0,0,1-3.7-1.2,20.57,20.57,0,0,1-3.9-2.9,18.51,18.51,0,0,1-3-3.6,6.67,6.67,0,0,1-1.2-3.5,23.07,23.07,0,0,1,1.7-7.6,96.5,96.5,0,0,1,6.5-13,39.46,39.46,0,0,0,3.4-7.3,30.94,30.94,0,0,0,1.3-5.4,15.88,15.88,0,0,0,.1-3.9,23.67,23.67,0,0,1-.2-2.8,3.67,3.67,0,0,1,3.2-1.4,9.06,9.06,0,0,1,4.5,1.3,11.77,11.77,0,0,1,4,3.9,11.09,11.09,0,0,1,1.7,6.2,23.14,23.14,0,0,1-.7,5.2q-.7,3-1.8,6.3c-.73,2.2-1.57,4.43-2.5,6.7s-1.87,4.4-2.8,6.4q9.6-11.59,16.6-19a166,166,0,0,1,11.9-11.6,43.73,43.73,0,0,1,8.1-5.8,12.41,12.41,0,0,1,5.2-1.6,10.66,10.66,0,0,1,7.4,2.7q3,2.7,3,8.1a16.7,16.7,0,0,1-1.6,6.5q-1.6,3.7-3.7,7.6t-4.5,7.5q-2.4,3.6-3.8,6a37,37,0,0,0-3.6,6.4,56.58,56.58,0,0,0,14.4-8A165.25,165.25,0,0,0,935,179q6.4-5.9,10.9-10.6A48.94,48.94,0,0,1,951.38,163.09Z"/><path class="cls-2" d="M1041.58,162.89a1.69,1.69,0,0,1,1.6-.3,3.78,3.78,0,0,1,1,.7,3.51,3.51,0,0,1,.4,1.6q-13.39,18-23.2,27.3t-16.2,13.1q-7.6,4.61-12.6,4.4-10,0-13.9-5.4t-3.5-14.4a106.76,106.76,0,0,1-12.8,14.2q-6.2,5.59-9,5.6a14,14,0,0,1-5-1.1,22.06,22.06,0,0,1-5.5-3.2,18.37,18.37,0,0,1-4.5-5.1,13.33,13.33,0,0,1-1.8-7,32.17,32.17,0,0,1,3.7-15.1,61.66,61.66,0,0,1,8.5-12.5,46.41,46.41,0,0,1,9.7-8.5q4.9-3.1,7.3-3.1a25.59,25.59,0,0,1,9.7,1.9,51.92,51.92,0,0,1,7.9,3.9,230.38,230.38,0,0,1,10.6-22.3q6.19-11.51,12.9-22.5t13.5-20.8q6.8-9.8,12.5-17.2a136.52,136.52,0,0,1,9.9-11.7q4.2-4.3,5.8-4.3a21.66,21.66,0,0,1,3.9.5,11.08,11.08,0,0,1,4.9,2.5,15.6,15.6,0,0,1,4.1,5.9,26.81,26.81,0,0,1,1.7,10.5,41.41,41.41,0,0,1-4.6,18.5,98.14,98.14,0,0,1-11.6,18,156.08,156.08,0,0,1-15.4,16.5q-8.4,7.8-16,13.8t-13.4,9.9q-5.8,3.9-7.4,4.9a131.66,131.66,0,0,0-5.4,14.9,47.51,47.51,0,0,0-2.1,11.9c-.07,3.33.6,6,2,7.9s3.7,2.9,6.9,2.9a44.68,44.68,0,0,0,14.6-7.8,157.24,157.24,0,0,0,14.1-12.1q6.49-6.3,11.1-11.3A48.77,48.77,0,0,1,1041.58,162.89Zm-92.2,36.8q1.8,0,5.6-3.4t8.4-8.3q4.61-4.91,9-10.1t7.4-8.8a.18.18,0,0,0,.2-.2c-.53-.53-1.07-1-1.6-1.5s-1.07-.9-1.6-1.3a6.43,6.43,0,0,0-1.6-1.2,13.88,13.88,0,0,0-7.7,2.6,38.49,38.49,0,0,0-7.3,6.4,47.29,47.29,0,0,0-6,8.4,84,84,0,0,0-4.2,8.4,24.3,24.3,0,0,0-1.9,6.4C947.88,198.82,948.31,199.69,949.38,199.69Zm103.2-128q-5.8,6.19-12.6,15t-13.7,19.1q-6.9,10.3-13.4,21.4t-11.9,21.7a234.47,234.47,0,0,0,18.8-16.5,189.2,189.2,0,0,0,13.7-14.9,108.07,108.07,0,0,0,9.3-13.1,97,97,0,0,0,5.8-11.3Q1053.58,81.09,1052.58,71.69Z"/><path class="cls-2" d="M1097.78,164.69q-8,10.6-14.7,18a162.94,162.94,0,0,1-12.1,12.2,76,76,0,0,1-9.7,7.5,47.85,47.85,0,0,1-7.3,3.9c-.54.27-1.67.73-3.4,1.4a44.64,44.64,0,0,1-6.1,1.8,43.17,43.17,0,0,1-7.4,1,15.3,15.3,0,0,1-7.2-1.3,12.15,12.15,0,0,1-5.4-5q-2.1-3.49-2.1-10.1a30,30,0,0,1,5.1-17.3,52.54,52.54,0,0,1,11.7-12.5,59.5,59.5,0,0,1,12.8-7.6q6.19-2.59,8.2-2.6a14.91,14.91,0,0,1,4.1.6,12.39,12.39,0,0,1,3.9,1.9,10.65,10.65,0,0,1,3,3.4,9.7,9.7,0,0,1,1.2,4.9,18.49,18.49,0,0,1-2,7.2,38.12,38.12,0,0,1-5.3,8.4,35.61,35.61,0,0,1-7.6,6.9,15.47,15.47,0,0,1-8.7,2.9q-5.21,0-7.9-1.8a12.55,12.55,0,0,1-3.9-3.8,14.78,14.78,0,0,0-2.5,5.7c-.2,1.53-.3,2.5-.3,2.9a21.38,21.38,0,0,0,.5,3.7,3.49,3.49,0,0,0,3.3,2.9,23.53,23.53,0,0,0,6.2,0,35.17,35.17,0,0,0,6.8-2.2,53,53,0,0,0,9.5-5,106.85,106.85,0,0,0,9.5-7q4.59-3.8,8.9-7.8t7.6-7.2q3.3-3.19,5.5-5.4a27.81,27.81,0,0,1,2.8-2.6,1.69,1.69,0,0,1,1.6-.3,3.78,3.78,0,0,1,1,.7A3.64,3.64,0,0,1,1097.78,164.69Zm-37.6,2a93.82,93.82,0,0,0-12.5,7.3,44.63,44.63,0,0,0-7.7,6.7,9.91,9.91,0,0,0,8.4-.5,23.38,23.38,0,0,0,6.4-5.1A43.31,43.31,0,0,0,1060.18,166.69Z"/><path class="cls-2" d="M1226.38,164.69q-8,10.6-14.7,18a162.94,162.94,0,0,1-12.1,12.2,76,76,0,0,1-9.7,7.5,47.85,47.85,0,0,1-7.3,3.9c-.54.27-1.67.73-3.4,1.4a44.64,44.64,0,0,1-6.1,1.8,43.17,43.17,0,0,1-7.4,1,15.3,15.3,0,0,1-7.2-1.3,12.15,12.15,0,0,1-5.4-5q-2.1-3.49-2.1-10.1a30,30,0,0,1,5.1-17.3,52.54,52.54,0,0,1,11.7-12.5,59.5,59.5,0,0,1,12.8-7.6q6.2-2.59,8.2-2.6a14.91,14.91,0,0,1,4.1.6,12.39,12.39,0,0,1,3.9,1.9,10.65,10.65,0,0,1,3,3.4,9.7,9.7,0,0,1,1.2,4.9,18.49,18.49,0,0,1-2,7.2,38.12,38.12,0,0,1-5.3,8.4,35.61,35.61,0,0,1-7.6,6.9,15.47,15.47,0,0,1-8.7,2.9q-5.2,0-7.9-1.8a12.55,12.55,0,0,1-3.9-3.8,14.78,14.78,0,0,0-2.5,5.7c-.2,1.53-.3,2.5-.3,2.9a20.42,20.42,0,0,0,.5,3.7,3.49,3.49,0,0,0,3.3,2.9,23.53,23.53,0,0,0,6.2,0,35.17,35.17,0,0,0,6.8-2.2,53,53,0,0,0,9.5-5,106.85,106.85,0,0,0,9.5-7q4.59-3.8,8.9-7.8t7.6-7.2q3.3-3.19,5.5-5.4a27.81,27.81,0,0,1,2.8-2.6,1.69,1.69,0,0,1,1.6-.3,3.78,3.78,0,0,1,1,.7A3.64,3.64,0,0,1,1226.38,164.69Zm-37.6,2a93.82,93.82,0,0,0-12.5,7.3,44.63,44.63,0,0,0-7.7,6.7,9.91,9.91,0,0,0,8.4-.5,23.38,23.38,0,0,0,6.4-5.1A43.31,43.31,0,0,0,1188.78,166.69Z"/><path class="cls-2" d="M1282.77,162.89c1.2-.53,2.07-.4,2.6.4a2.81,2.81,0,0,1,.4,1.6q-13.59,18-23.3,27.3t-16.1,13.1q-7.59,4.61-12.6,4.4-10.8,0-14.6-6.4t-2.5-16.8a97.45,97.45,0,0,1,6.7-23.8,271.28,271.28,0,0,1,12.9-27.3q7.5-13.9,16.1-27.3t16.2-23.8a214,214,0,0,1,13.4-16.8q5.8-6.4,7.6-6.4a22.06,22.06,0,0,1,4.1.5,11.08,11.08,0,0,1,4.9,2.5,15.6,15.6,0,0,1,4.1,5.9,26.62,26.62,0,0,1,1.7,10.5,41.41,41.41,0,0,1-4.6,18.5,97.62,97.62,0,0,1-11.6,18,156.08,156.08,0,0,1-15.4,16.5q-8.4,7.8-16,13.8t-13.4,9.9q-5.8,3.9-7.4,4.9a135.68,135.68,0,0,0-5.4,14.9,47.51,47.51,0,0,0-2.1,11.9c-.06,3.33.6,6,2,7.9s3.7,2.9,6.9,2.9a33.87,33.87,0,0,0,9.6-4.4,95.23,95.23,0,0,0,9.8-7.2q4.8-4,9.3-8.3t8-7.9q3.51-3.6,5.8-6.1A27.25,27.25,0,0,1,1282.77,162.89Zm11-91a173.78,173.78,0,0,0-12.6,14.9q-6.8,8.89-13.7,19.1t-13.5,21.3q-6.6,11.1-11.8,21.7a249.45,249.45,0,0,0,18.8-16.4,175.69,175.69,0,0,0,13.7-14.8,108.07,108.07,0,0,0,9.3-13.1,95.44,95.44,0,0,0,5.8-11.3Q1294.78,81.29,1293.77,71.89Z"/><path class="cls-2" d="M1408.77,164.69a158,158,0,0,1-13.5,16.3,103.39,103.39,0,0,1-11.9,10.7,66.62,66.62,0,0,1-19.4,10.4c-.13,1.6-.27,3.2-.4,4.8s-.27,3.2-.4,4.8a31.66,31.66,0,0,1-2.6,10.1,31,31,0,0,1-4.4,7.1,20.51,20.51,0,0,1-4.9,4.3,8.57,8.57,0,0,1-4.1,1.5,28.81,28.81,0,0,1-3.8-.3,11.06,11.06,0,0,1-4.2-1.5,10.51,10.51,0,0,1-3.4-3.4,11.6,11.6,0,0,1-1.4-6.2q0-10,4.9-15.5a38,38,0,0,1,11.9-8.9q.6-9,.6-18.4a26,26,0,0,1,2.8-12.3,33.35,33.35,0,0,1,14.5-14.4,15.39,15.39,0,0,1,6.3-1.9,15.06,15.06,0,0,1,7.3,1.5,11,11,0,0,1,3.9,3.3,7.14,7.14,0,0,1,1.3,3.5q.11,1.69-.3,2.1a.91.91,0,0,1-1,.2c-.4-.13-.87-.3-1.4-.5l-1.9-.7a8.57,8.57,0,0,0-2.9-.4,10.76,10.76,0,0,0-6.4,2,18.8,18.8,0,0,0-4.7,4.8,25.14,25.14,0,0,0-3,6,23.64,23.64,0,0,0-1.3,5.8,50.8,50.8,0,0,0-.2,5.4q0,3.8-.4,9,4-1.39,7.6-2.7a37.88,37.88,0,0,0,6.6-3.1,71.75,71.75,0,0,0,9.2-7.1q4.8-4.31,8.8-8.3,4.8-4.8,9.2-10a2.72,2.72,0,0,1,2.6.8A2.13,2.13,0,0,1,1408.77,164.69Zm-67.4,62.2q3.81-1.6,5.9-6.9a54.16,54.16,0,0,0,3.1-12.7l-2,1.2a6.91,6.91,0,0,0-1.8,1.6,16.44,16.44,0,0,0-4.2,5.8,19.26,19.26,0,0,0-1.4,5.4A13.49,13.49,0,0,0,1341.37,226.89Z"/><path class="cls-2" d="M1480.77,164.89a238.41,238.41,0,0,1-17.3,21.2,158.2,158.2,0,0,1-13.7,13.2,62,62,0,0,1-10.2,7.2,30.46,30.46,0,0,1-6.8,2.8h-.2c-.67.13-1.23.23-1.7.3a10.21,10.21,0,0,1-1.5.1h-.2a7.36,7.36,0,0,1-6.5-4,15.92,15.92,0,0,1-2.1-7.8,7.56,7.56,0,0,1,.2-1.8,13.5,13.5,0,0,1,.6-1.8q-5.59,5-10.9,8.9t-7.5,3.9a13.77,13.77,0,0,1-3.9-.7,11.21,11.21,0,0,1-4.4-2.7,16.41,16.41,0,0,1-3.6-5.5,23.35,23.35,0,0,1-1.5-9.1,26,26,0,0,1,4.4-14.9,46.69,46.69,0,0,1,10.3-11,50.23,50.23,0,0,1,11.6-6.8q5.7-2.29,8.5-2.3,8.2,0,12.7,2.7t4.5,7.1c0,2.93-.5,4.87-1.5,5.8s-1.83,1.67-2.5,2.2a1.35,1.35,0,0,1-2-.2,3,3,0,0,1-.6-.8,9.42,9.42,0,0,0,2.4-4,2.69,2.69,0,0,0-.9-2.8q-1.31-1.2-5.7-1.6-4.8-.19-10.2,3.5a46.06,46.06,0,0,0-9.7,9,52.41,52.41,0,0,0-6.9,10.9q-2.6,5.6-1.8,8.8,2.8.6,7.6-2.1a95.92,95.92,0,0,0,9.7-6.3q4.9-3.6,8.8-6.8a31,31,0,0,1,4.9-3.6,3.35,3.35,0,0,1,2.5.2,10.39,10.39,0,0,1,5,4.3,5.65,5.65,0,0,1,.9,2.9,8.53,8.53,0,0,1-1.1,3.4c-.73,1.47-1.57,3-2.5,4.6s-1.9,3.13-2.9,4.6a23.12,23.12,0,0,0-2.1,3.6,47.24,47.24,0,0,0,14.5-8,179,179,0,0,0,14-12q6.49-6.19,10.9-11.2t5.4-5.4a1.69,1.69,0,0,1,1.6-.3,3.78,3.78,0,0,1,1,.7A3.51,3.51,0,0,1,1480.77,164.89Z"/><path class="cls-2" d="M1556.77,79.69a40.51,40.51,0,0,1-3.6,16.4,82.48,82.48,0,0,1-9.4,16,136.29,136.29,0,0,1-13,15q-7.2,7.2-14.3,13.2t-13.4,10.6q-6.3,4.61-10.3,7.4-4,8-7.5,15.2t-6.3,13.4q16-18.79,25-26.5t11.6-7.7a11.24,11.24,0,0,1,3.3.6,11,11,0,0,1,3.7,2.1,12.81,12.81,0,0,1,3.1,4,13.69,13.69,0,0,1,1.3,6.3,40.11,40.11,0,0,1-3.5,16.2,76.24,76.24,0,0,1-8.1,14.3,55.64,55.64,0,0,1-9.2,10.1q-4.61,3.79-6.8,3.8a16.29,16.29,0,0,1-8-2.1c-2.54-1.4-3.8-3.23-3.8-5.5q0-6.8,5.4-12.8,2-2.4,3.2-1.6a2,2,0,0,1,.8,1.2,9.77,9.77,0,0,0-2,3,19.63,19.63,0,0,0-1.2,3.4,21.19,21.19,0,0,0-.8,3.8c1.06,0,2.9-1.43,5.5-4.3a116.17,116.17,0,0,0,10.3-14.3,81,81,0,0,0,4.9-8.6,34.41,34.41,0,0,0,2.3-6,12.56,12.56,0,0,0,.6-4.6c-.67,0-1.84.67-3.5,2s-3.67,3.07-6,5.2-4.87,4.57-7.6,7.3-5.5,5.5-8.3,8.3q-9.81,10-21.6,22.6a4.9,4.9,0,0,1-3.8-.7,9,9,0,0,1-2.6-2.7,28.49,28.49,0,0,1-2.2-4q15-33.6,26.6-57.1t20.3-39q8.7-15.5,14.7-24.2a110.59,110.59,0,0,1,10-12.9q4-4.2,6.2-5.2a8.94,8.94,0,0,1,3.2-1,21.66,21.66,0,0,1,3.9.5,11.13,11.13,0,0,1,4.9,2.5,16.55,16.55,0,0,1,4.2,5.9Q1556.77,73.09,1556.77,79.69Zm-10.8-8.8a126.71,126.71,0,0,0-10.8,13.6q-5.61,8-11.5,17.5t-11.8,20q-5.91,10.5-11.3,20.9a206.58,206.58,0,0,0,16.7-15.4,161.55,161.55,0,0,0,12.1-14,110.56,110.56,0,0,0,8.2-12.3,77.33,77.33,0,0,0,5-10.5Q1547,79.69,1546,70.89Z"/><path class="cls-2" d="M1599.17,162.89a7.69,7.69,0,0,1,1.8.2q1.59.41,1.2,1.8-5,11-12.7,17.3t-20.7,6.7a55.65,55.65,0,0,1-4.6,7.6,38.68,38.68,0,0,1-5.8,6.4,29.27,29.27,0,0,1-6.8,4.5,18.08,18.08,0,0,1-7.8,1.7,15.32,15.32,0,0,1-10.5-3.6,14.27,14.27,0,0,1-4.8-9.3q-.71-5.7,2.6-12.7t11.7-13.6q-.19-1.2-.3-2.4c-.07-.8-.1-1.53-.1-2.2a12.9,12.9,0,0,1,1.7-6.8,13.74,13.74,0,0,1,4.3-4.5,17.36,17.36,0,0,1,5.7-2.4,26.54,26.54,0,0,1,5.9-.7,13.48,13.48,0,0,1,4.5.9,12.52,12.52,0,0,1,4.6,3,17.85,17.85,0,0,1,3.6,5.5,20.83,20.83,0,0,1,1.5,8.4,31.72,31.72,0,0,1-.5,5.3,50,50,0,0,1-1.5,6.1,36.52,36.52,0,0,0,14.1-4.4Q1593.37,171.9,1599.17,162.89Zm-59.4,35.4a26,26,0,0,0,5.6-1.6,29.47,29.47,0,0,0,5.5-3.2,25.38,25.38,0,0,0,5.9-6.2,20,20,0,0,1-8-5,57.13,57.13,0,0,0-6,7.2A14.91,14.91,0,0,0,1539.77,198.29Zm24.4-39c-.27-.27-1.07-.23-2.4.1a16.3,16.3,0,0,0-8.5,5.7,9,9,0,0,0-1.9,5.8q0,2.4,2.7,4.7a18.22,18.22,0,0,0,7.3,3.5q4-9.41,3.8-14.2T1564.17,159.29Z"/><path class="cls-2" d="M1660,162.89a1.71,1.71,0,0,1,1.61-.3,4,4,0,0,1,1,.7,3.62,3.62,0,0,1,.39,1.6q-11.39,15.41-20.29,24.1a119.41,119.41,0,0,1-15.21,13c-4.2,2.87-7.59,4.6-10.2,5.2a28.56,28.56,0,0,1-5.5.9h-.8a.18.18,0,0,1-.2-.2v-.2a11.09,11.09,0,0,1-3-1.1,16.82,16.82,0,0,1-3.59-2.5,13.84,13.84,0,0,1-3.1-4.1,13.06,13.06,0,0,1-1.31-6.1,21.67,21.67,0,0,1,3.11-11.5,60,60,0,0,1,5.89-8.3,29.43,29.43,0,0,1-6.09.2,18.5,18.5,0,0,1-6.91-1.8,66.82,66.82,0,0,1-6,6.6,2.51,2.51,0,0,1-1.39,0,2.25,2.25,0,0,1-1.11-.9,6.17,6.17,0,0,1-.69-2.7q.79-1,1.89-2.7t2.71-3.9a21.62,21.62,0,0,1-4-5.9,20.56,20.56,0,0,1-1.8-9.1,29.79,29.79,0,0,1,2.89-13.8,31.36,31.36,0,0,1,6.7-9,28.18,28.18,0,0,1,7.21-4.9,14.66,14.66,0,0,1,4.59-1.5,9.38,9.38,0,0,1,3.11.7,19.73,19.73,0,0,1,3.89,2,11.41,11.41,0,0,1,3.41,3.5,9.51,9.51,0,0,1,1.4,5.2,13.62,13.62,0,0,1-1.5,5.1,76,76,0,0,1-3.81,7.2q-2.29,3.9-5.3,8.2t-6,8.3a18.48,18.48,0,0,0,5.61-.5,31.1,31.1,0,0,0,6-2.1,36.64,36.64,0,0,0,5.69-3.3,27.88,27.88,0,0,0,4.7-4.1,7.45,7.45,0,0,1,3,.2,6.92,6.92,0,0,1,2.41,1.5,8.25,8.25,0,0,1,2,3.5q-5.61,8.21-9.8,15.8-1.8,3.2-3.61,6.6c-1.2,2.27-2.23,4.43-3.09,6.5a58.22,58.22,0,0,0-2.11,5.8,16.58,16.58,0,0,0-.8,4.5,37.83,37.83,0,0,0,9.91-3.9,74.84,74.84,0,0,0,10.39-6.9q5.12-4,9.81-8.3t8.5-8.1l6.3-6.3A35.1,35.1,0,0,1,1660,162.89Zm-64.79-5.6a7.65,7.65,0,0,0,.79,4.2c1.61-2.13,3.24-4.4,4.91-6.8s3.16-4.8,4.5-7.2a59.31,59.31,0,0,0,3.3-6.9,21.25,21.25,0,0,0,1.5-6.1,18,18,0,0,0-7.21,4.2,27.14,27.14,0,0,0-5.2,7.1A26,26,0,0,0,1595.17,157.29Z"/><path class="cls-1" d="M31.49,426.05a16.36,16.36,0,0,1-6.93-1.6,21,21,0,0,1-6.14-4.27,21.53,21.53,0,0,1-4.27-6,15.52,15.52,0,0,1-1.61-6.8V284.86c-4.27.71-7.42-.17-9.47-2.67S0,274.36,0,266.18c0-4.81,1.91-8.36,5.74-10.68s10.18-3.82,19.08-4.53l65.66-5.34q3.73-.27,7.07,5.2a30.69,30.69,0,0,1,4.14,12.68q1.34,12.28-10.14,13.61l-41.37,4.27v38.44H82.74q10.94,0,10.94,12,0,7.74-2,12c-1.33,2.84-3.25,4.27-5.74,4.27H50.18V393H74.73q-.8-14.13,16.28-14.14,16.55,0,16.55,12.28a30.79,30.79,0,0,1-.4,4.53q-.41,2.67-.93,5.48t-.94,5.33c-.27,1.7-.49,3.07-.67,4.14q-.8,5.61-3.6,8.67a15.93,15.93,0,0,1-6.67,4.41,35.12,35.12,0,0,1-8.54,1.73q-4.68.4-8.94.4-6.95.27-14.28.27H31.49Z"/><path class="cls-1" d="M145.46,388.15q1.6,5.07,8.27,8.81A30.63,30.63,0,0,0,169,400.7q8.53,0,13.21-5.08a17.13,17.13,0,0,0,4.67-12q0-5.87-5.61-10.54a100.87,100.87,0,0,0-13.87-9.47q-8.28-4.82-18.15-10.41a102.19,102.19,0,0,1-18.15-13.08,68.38,68.38,0,0,1-13.88-17.48q-5.61-10-5.61-23.62A52.54,52.54,0,0,1,128,260.31a53.73,53.73,0,0,1,18.15-11.21,63.68,63.68,0,0,1,22.82-4q14.15,0,24.55,5.07a55.77,55.77,0,0,1,17.08,12.42,44.13,44.13,0,0,1,9.48,15.74q2.81,8.42,1.73,15.08l-3.47,21.89a6.89,6.89,0,0,1-2.53,4.4,19.62,19.62,0,0,1-5.47,3.34,23.34,23.34,0,0,1-13.88,1.07,24.36,24.36,0,0,1-8.28-4.27c-2.49-2-3.56-4.18-3.2-6.68l2.67-19.75a11,11,0,0,0-.8-6.27,16.66,16.66,0,0,0-3.87-5.47,22.72,22.72,0,0,0-5.87-4,16.73,16.73,0,0,0-7.34-1.61,18.3,18.3,0,0,0-14.41,6.81q-5.88,6.81-5.88,16.95A21.4,21.4,0,0,0,155.2,315a62.29,62.29,0,0,0,14.15,11.08q8.4,4.93,18.41,9.61a109.84,109.84,0,0,1,18.42,10.8,60.68,60.68,0,0,1,14.15,14.42q5.73,8.26,5.73,20.55a41.92,41.92,0,0,1-4.8,20.15,47.18,47.18,0,0,1-12.95,15.21,61.67,61.67,0,0,1-18.81,9.74,72.83,72.83,0,0,1-38.57,1.61A73.46,73.46,0,0,1,136,423.11a45.37,45.37,0,0,1-11.48-7.47,21.62,21.62,0,0,1-6.27-9.07l-7.48-24a24.13,24.13,0,0,1-.93-5.88,18.52,18.52,0,0,1,.8-6.27,16.49,16.49,0,0,1,20.68-10.54q5.34,1.88,6.41,4.8Z"/><path class="cls-1" d="M312,412.17q0-32.82.27-65.25t.26-65.53V279l-7.74.8q-5.87.54-8.14-5.34t-.93-15.74q1.61-12.55,8.54-12.55l46.71-.53a26.1,26.1,0,0,1,5.2-.54h5.47c3.21,0,6.94.18,11.21.54a67.08,67.08,0,0,1,13.22,2.53,65.78,65.78,0,0,1,13.47,5.74,40.54,40.54,0,0,1,11.88,10.28,52.3,52.3,0,0,1,8.41,16.14q3.19,9.62,3.2,23.22a120.8,120.8,0,0,1-2.8,26.43,58.17,58.17,0,0,1-9.61,21.88,48.67,48.67,0,0,1-18.15,14.95q-11.34,5.61-28.16,5.6c-1.42,0-3.43-.08-6-.26s-5.12-.44-7.61-.8v12.81l.8,19.48v9.08a16.26,16.26,0,0,1-1.33,7.2,9.5,9.5,0,0,1-3.61,4,13.92,13.92,0,0,1-5.07,1.73,40.09,40.09,0,0,1-5.74.4q-11.47,0-17.61-3.34A11.14,11.14,0,0,1,312,412.17ZM350.43,350a12.85,12.85,0,0,0,2.54.27h2.53q16.29,0,23.36-11.21t7.07-29.89q0-17.61-6.94-26t-16.81-7.88l-12.28.54v15.88q0,8.67.13,17.21t.27,16.55q.13,8,.13,14.15Z"/><path class="cls-1" d="M492.69,425a58.85,58.85,0,0,1-14.55-2.4,48.7,48.7,0,0,1-17.21-8.81,54.36,54.36,0,0,1-14.28-17.48q-6-11.07-6-28.16V283.79l-7.74-.26q-5.86-.27-8.14-6.54t-.93-16.15q1.6-12.54,10.94-12.54h24.56a21.92,21.92,0,0,1,13.47,4.27q5.74,4.27,5.74,15.21v92.08q0,13.08,4.27,20.82t11.48,7.74A18.74,18.74,0,0,0,507,383.35q5.73-5.07,6.8-18.15a441.86,441.86,0,0,0,1.34-51q-.81-25.89-.8-54.18,0-4.53,5.07-8.14t14.14-3.6a48.87,48.87,0,0,1,6.14.4,19.3,19.3,0,0,1,6,1.73,12.39,12.39,0,0,1,4.53,3.6,9.64,9.64,0,0,1,1.74,6v45.51q0,22.82-.27,45.77-.27,17.61-3.47,29.89a73,73,0,0,1-8.41,20.55,43.1,43.1,0,0,1-11.74,12.81,59.16,59.16,0,0,1-12.94,6.94,47.54,47.54,0,0,1-12.41,2.94C498.69,424.8,495.36,425,492.69,425Z"/><path class="cls-1" d="M568.22,281.39v-2.13l-4.54.53q-5.86.54-8.14-5.34t-.93-15.74q1.59-12.55,8.54-12.55l33.09-.27a111.29,111.29,0,0,1,14.15-.8,144.62,144.62,0,0,1,23.62,2A62.65,62.65,0,0,1,656,255a46.17,46.17,0,0,1,16.14,16.41q6.27,10.55,6.28,27.89,0,20-9.88,34.83a59.48,59.48,0,0,1-25.09,21.76q5.61,11.2,11.21,21.61a113.39,113.39,0,0,0,11.21,17.35l12.55,1.34q5.07.54,6.27,2.8a17.27,17.27,0,0,1,1.47,6.81,33.28,33.28,0,0,1-.67,6.13,23.47,23.47,0,0,1-2.4,6.68,15,15,0,0,1-4.94,5.34,12.79,12.79,0,0,1-8,1.86,98,98,0,0,0-12.41-.26,20.75,20.75,0,0,1-10.27-1.87q-4.28-2.14-9.21-9.74t-10-17.35q-5.07-9.74-9.47-19.62t-7.61-16.55l-5.34.27q0,6.68.13,14.81t.27,15.75q.13,7.61.13,13.48v8a16.26,16.26,0,0,1-1.33,7.2,9.41,9.41,0,0,1-3.6,4,14,14,0,0,1-5.07,1.73,40.19,40.19,0,0,1-5.74.4q-23,0-23-13.88V379.61l.54-65.66Zm37.9-5.34q0,6.4-.14,14.15t-.26,15.61q-.13,7.88-.27,15.48t-.13,14h11.47a23.61,23.61,0,0,0,11.35-2.41,18.63,18.63,0,0,0,6.94-6.4,27.31,27.31,0,0,0,3.6-9.48,59.11,59.11,0,0,0,1.07-11.34q0-13.87-6-22.42t-17.48-8.54A42.33,42.33,0,0,0,606.12,276.05Z"/><path class="cls-1" d="M711.54,427.92a43.17,43.17,0,0,1-16.41-2.8q-6.81-2.81-6.81-6.54a64.53,64.53,0,0,1,1.47-9.08q1.46-7.2,4-18t5.74-24.42q3.21-13.62,6.81-27.89t7.2-28.43q3.6-14.14,6.81-26.16l-12.81-.53q-8-.53-11.48-4.54c-2.31-2.67-3.47-6.84-3.47-12.54a43.84,43.84,0,0,1,.8-8.54,27.85,27.85,0,0,1,2.27-6.94,13.27,13.27,0,0,1,3.47-4.54,5.76,5.76,0,0,1,4.4-1.33l69.13,4.8a3.89,3.89,0,0,1,3.2,1.87,19.69,19.69,0,0,1,2.41,5.07q1.05,3.21,2,7.21t1.73,8.27q1.86,8.81,4.81,23.09t6.4,30.69q3.46,16.41,7.07,33.1T806.56,390l6.4.8q3.74.54,5.21,6.54a56.08,56.08,0,0,1,1.46,13.21,19.74,19.74,0,0,1-1.33,8,9.4,9.4,0,0,1-3.87,4.4,14,14,0,0,1-6,1.74q-3.46.25-7.74.26a72,72,0,0,1-8.8-.53,56,56,0,0,1-8.81-1.87,12.06,12.06,0,0,1-6.54-4.27,29,29,0,0,1-4.27-7.74,59.76,59.76,0,0,1-2.8-10c-.72-3.64-1.52-7.34-2.4-11.07q-6.15,0-12.55-.14t-15.75-.13H734a22.79,22.79,0,0,0-3.2.27c-.36,2-.72,4.22-1.07,6.8s-.76,5.25-1.2,8-.89,5.38-1.34,7.87a44.48,44.48,0,0,1-1.46,6.14q-1.61,5.61-4.41,7.61T711.54,427.92Zm51.51-66.46L760,343.58q-1.47-8.54-2.93-16.68t-2.94-16.55Q752.64,302,751,292.6q-2.4,11.75-4.54,21.09t-4,17.34q-1.87,8-3.47,15.35t-2.94,15.08Z"/><path class="cls-1" d="M901.83,282.46a5.69,5.69,0,0,1-4-1.47,12.6,12.6,0,0,1-2.8-4,21.89,21.89,0,0,1-1.74-5.87,42.17,42.17,0,0,1-.53-6.54,33.24,33.24,0,0,1,1.74-11.08q1.72-4.94,5.47-4.94h9.87q6.67,0,15.08-.13l17.62-.27c6.13-.08,12-.17,17.61-.26s10.63-.18,15.08-.27,7.74-.13,9.88-.13q4.8-.27,7.34,5.2A28.55,28.55,0,0,1,995,264.84a26.44,26.44,0,0,1-2.67,12c-1.78,3.57-4.45,5.34-8,5.34-2.5,0-5.17-.08-8-.26a112.74,112.74,0,0,0-12.81.26Q963,315,963,347.05V411.9c0,6.06-1.73,9.92-5.2,11.61s-8,2.54-13.48,2.54q-8.53,0-13.88-3.6t-5.33-10.55q0-31.48.53-64.58t0-64.86Z"/><path class="cls-1" d="M1007.52,281.39v-2.13l-4.53.53q-5.88.54-8.14-5.34t-.94-15.74q1.61-12.55,8.54-12.55l33.1-.27a111.13,111.13,0,0,1,14.14-.8,144.62,144.62,0,0,1,23.62,2,62.51,62.51,0,0,1,22,7.87,46.2,46.2,0,0,1,16.15,16.41q6.27,10.55,6.27,27.89,0,20-9.87,34.83a59.6,59.6,0,0,1-25.09,21.76q5.6,11.2,11.21,21.61a111.9,111.9,0,0,0,11.21,17.35l12.54,1.34q5.07.54,6.27,2.8a17.27,17.27,0,0,1,1.47,6.81,32.44,32.44,0,0,1-.67,6.13,22.88,22.88,0,0,1-2.4,6.68,15,15,0,0,1-4.94,5.34,12.78,12.78,0,0,1-8,1.86,98,98,0,0,0-12.41-.26,20.79,20.79,0,0,1-10.28-1.87q-4.27-2.14-9.21-9.74t-10-17.35q-5.07-9.74-9.47-19.62t-7.61-16.55l-5.34.27q0,6.68.14,14.81c.09,5.43.17,10.68.27,15.75s.13,9.57.13,13.48v8a16.25,16.25,0,0,1-1.34,7.2,9.41,9.41,0,0,1-3.6,4,13.92,13.92,0,0,1-5.07,1.73,40.09,40.09,0,0,1-5.74.4q-23,0-23-13.88V379.61l.53-65.66Zm37.9-5.34q0,6.4-.13,14.15t-.27,15.61q-.13,7.88-.27,15.48t-.13,14h11.48a23.6,23.6,0,0,0,11.34-2.41,18.48,18.48,0,0,0,6.94-6.4A27.31,27.31,0,0,0,1078,317a59.11,59.11,0,0,0,1.07-11.34q0-13.87-6-22.42t-17.49-8.54A42.33,42.33,0,0,0,1045.42,276.05Z"/><path class="cls-1" d="M1150.85,427.92a43.26,43.26,0,0,1-16.42-2.8q-6.81-2.81-6.8-6.54a63.87,63.87,0,0,1,1.46-9.08q1.47-7.2,4-18t5.74-24.42q3.2-13.62,6.8-27.89t7.21-28.43q3.6-14.14,6.8-26.16l-12.81-.53q-8-.53-11.47-4.54c-2.32-2.67-3.47-6.84-3.47-12.54a43.08,43.08,0,0,1,.8-8.54,27.45,27.45,0,0,1,2.27-6.94,13.25,13.25,0,0,1,3.46-4.54,5.8,5.8,0,0,1,4.41-1.33l69.13,4.8a3.89,3.89,0,0,1,3.2,1.87,19.37,19.37,0,0,1,2.4,5.07q1.07,3.21,2,7.21t1.74,8.27q1.86,8.81,4.8,23.09t6.41,30.69q3.46,16.41,7.07,33.1t6.27,30.29l6.41.8q3.74.54,5.2,6.54a55.54,55.54,0,0,1,1.47,13.21,19.91,19.91,0,0,1-1.33,8,9.47,9.47,0,0,1-3.88,4.4,14,14,0,0,1-6,1.74c-2.31.17-4.9.26-7.74.26a72.15,72.15,0,0,1-8.81-.53,56.26,56.26,0,0,1-8.81-1.87,12.09,12.09,0,0,1-6.54-4.27,29,29,0,0,1-4.26-7.74,59.74,59.74,0,0,1-2.81-10c-.71-3.64-1.51-7.34-2.4-11.07q-6.13,0-12.54-.14t-15.75-.13h-4.8a22.92,22.92,0,0,0-3.21.27c-.36,2-.71,4.22-1.07,6.8s-.75,5.25-1.2,8-.89,5.38-1.33,7.87a44.32,44.32,0,0,1-1.47,6.14q-1.6,5.61-4.4,7.61T1150.85,427.92Zm51.51-66.46q-1.6-9.34-3.07-17.88t-2.94-16.68q-1.47-8.14-2.93-16.55t-3.07-17.75q-2.41,11.75-4.54,21.09t-4,17.34q-1.87,8-3.47,15.35t-2.94,15.08Z"/><path class="cls-1" d="M1319.25,428.19a75.46,75.46,0,0,1-19.08-2.27,54.37,54.37,0,0,1-15.08-6.28,31.91,31.91,0,0,1-10-9.47,21.18,21.18,0,0,1-3.6-11.88l-1.87-121.17q-7.74-.25-11.88-2.93t-3.6-9.88q1.06-10.41,5.07-15.88t13.61-4.67l39,1.6q19.76.79,34.16,5.34A55.16,55.16,0,0,1,1369.7,265q9.33,9.74,13.74,25.22t4.41,38.17q0,49.63-17.22,74.73T1319.25,428.19Zm-10.94-45.11q0,15.21,11.75,15.21a17.48,17.48,0,0,0,12.14-5.07,42.46,42.46,0,0,0,9.47-14,89.41,89.41,0,0,0,6.14-21.35,160.46,160.46,0,0,0,2.14-27.09q0-29.08-10.14-41.1t-29.63-12H1308Z"/><path class="cls-1" d="M1463.91,247.5a5.13,5.13,0,0,1,3.74,1.6,11.16,11.16,0,0,1,2.53,4.13,26.49,26.49,0,0,1,1.34,5.61,45.85,45.85,0,0,1,.4,5.74,26.09,26.09,0,0,1-2.54,11.07q-2.54,5.48-8.14,5.47h-6.67v17.09q0,8.54-.27,17.08l-.53,38.7q-.27,9.87-.27,19.48V393h8.81q5.61,0,8.14,5.48A26.11,26.11,0,0,1,1473,409.5a43.91,43.91,0,0,1-.4,5.74,25.62,25.62,0,0,1-1.33,5.61,11.43,11.43,0,0,1-2.53,4.13,5.13,5.13,0,0,1-3.74,1.6l-58.72-1.6q-6.94,0-8.54-12.54-2.94-20,9.07-20h8.28V374.14q0-8.94.27-18.28l.53-40c.17-5.69.27-11.38.27-17.08V281.66h-10.41q-12,0-9.08-20,1.61-12.54,8.54-12.54Z"/><path class="cls-1" d="M1537.57,430.59q-29.35,0-45-24T1477,337.17q0-45.63,15.88-69.52t45.77-23.89q18.67,0,30.56,9.07t14.28,25.09l5.6,37.63q1.61,12-18.41,12c-4.45,0-7.74-.48-9.88-1.46a7,7,0,0,1-4-5.21l-6.67-34.43q-1.87-9.6-10.68-9.61-11.75,0-17.75,16.29t-6,47.77q0,29.89,5.73,43.5T1539.17,398a19.77,19.77,0,0,0,13.75-5.21,16.77,16.77,0,0,0,5.74-12.94q0-12,16.54-12,7.74,0,11,3.6t3.2,12.14a44.22,44.22,0,0,1-14.68,33.5,51.54,51.54,0,0,1-16.41,9.87A57.62,57.62,0,0,1,1537.57,430.59Z"/><path class="cls-1" d="M1660.61,247.5a5.13,5.13,0,0,1,3.74,1.6,11.29,11.29,0,0,1,2.53,4.13,26.49,26.49,0,0,1,1.34,5.61,45.85,45.85,0,0,1,.4,5.74,26.09,26.09,0,0,1-2.54,11.07q-2.53,5.48-8.14,5.47h-6.67v17.09q0,8.54-.27,17.08l-.53,38.7q-.27,9.87-.27,19.48V393H1659q5.61,0,8.14,5.48a26.11,26.11,0,0,1,2.53,11.07,43.91,43.91,0,0,1-.4,5.74,25.62,25.62,0,0,1-1.33,5.61,11.31,11.31,0,0,1-2.54,4.13,5.09,5.09,0,0,1-3.73,1.6L1603,425q-6.95,0-8.54-12.54-2.94-20,9.07-20h8.28V374.14q0-8.94.26-18.28l.54-40c.17-5.69.27-11.38.27-17.08V281.66h-10.41q-12,0-9.08-20,1.61-12.54,8.54-12.54Z"/><path class="cls-1" d="M1740.41,430.05q-17.09,0-29.36-5.73a49.84,49.84,0,0,1-19.88-16.42q-7.61-10.66-11.21-26a153,153,0,0,1-3.61-34.83,305.29,305.29,0,0,1,2.41-39.37q2.4-18.54,9.2-32.43a54.8,54.8,0,0,1,19.09-22q12.27-8.13,32-8.14t32.17,6.54a48.92,48.92,0,0,1,19.48,18.29q7.07,11.74,9.61,27.89a228.63,228.63,0,0,1,2.53,35.36,234.14,234.14,0,0,1-3.33,41.9q-3.35,18.17-10.68,30.3a49,49,0,0,1-19.21,18.41Q1757.76,430.05,1740.41,430.05Zm-24-83.8q0,11.47.67,20.82a56.11,56.11,0,0,0,3.2,16,22.44,22.44,0,0,0,7.34,10.28q4.8,3.6,13.08,3.6t12.81-4.27q4.53-4.28,6.8-12A77,77,0,0,0,1763,362q.4-11,.4-24.56,0-10.41-.8-20.68a81.63,81.63,0,0,0-3.34-18.29,32.14,32.14,0,0,0-7.33-12.94,16.75,16.75,0,0,0-12.55-4.94,14.85,14.85,0,0,0-12.28,5.74q-4.53,5.75-6.94,15.08a109.87,109.87,0,0,0-3.06,21.08Q1716.38,334.25,1716.39,346.25Z"/><path class="cls-1" d="M1825.55,284.59l-14.41.27q-5.88,0-8.15-6.4t-.93-16.29q1.61-12.27,8.54-12.54l32.56-1.6a8.19,8.19,0,0,1,2-.27h2.53a27.51,27.51,0,0,1,9.74,1.87,17.83,17.83,0,0,1,7.88,5.61,34.89,34.89,0,0,1,4.4,7.2q2,4.28,4,8.81t3.74,9.07c1.15,3,2.27,5.7,3.34,8q3.73,8.81,7.2,15.88t6.94,13.75q3.46,6.68,7.34,13.47t8.14,15.35c-.36-3-.58-6-.67-9.07s-.13-6-.13-9.08q0-10.41-.27-19.21c-.17-5.88-.31-11.61-.4-17.22s-.22-11.34-.4-17.21-.26-12.28-.26-19.22a5.12,5.12,0,0,1,2.67-4.4,20.92,20.92,0,0,1,6.27-2.67,40.06,40.06,0,0,1,7.07-1.2q3.46-.27,5.34-.27a44.14,44.14,0,0,1,5.74.4,20.43,20.43,0,0,1,5.73,1.6,11.8,11.8,0,0,1,4.41,3.34,8.63,8.63,0,0,1,1.73,5.6q0,39.24-1.6,78.2t-1.6,78.2a12,12,0,0,1-1.6,6.68,9.27,9.27,0,0,1-4.14,3.47,16.86,16.86,0,0,1-5.87,1.2c-2.23.08-4.4.13-6.54.13a18.39,18.39,0,0,1-9.87-2.8,27.82,27.82,0,0,1-7.74-7.08,102.63,102.63,0,0,1-10-15.61q-4.41-8.4-8.41-16.68-4-7.74-7.34-14.28t-6.81-13.21q-3.46-6.67-6.8-13.61t-7.34-15.48q1.34,22.95,1.73,43t.4,43q0,7.74-5.47,10.41a26.7,26.7,0,0,1-11.87,2.67,54.55,54.55,0,0,1-5.88-.4,36,36,0,0,1-6.8-1.47,16.88,16.88,0,0,1-5.74-3.07,6.46,6.46,0,0,1-2.4-5.21Z"/><path class="cls-2" d="M671.26,558.07h698a77.37,77.37,0,0,1,77.36,77.36h0a77.36,77.36,0,0,1-77.36,77.36h-698a77.35,77.35,0,0,1-77.36-77.36h0A77.36,77.36,0,0,1,671.26,558.07Z"/><path class="cls-1" d="M96.26,558.17H692a77.37,77.37,0,0,1,77.36,77.36h0A77.36,77.36,0,0,1,692,712.89H96.26A77.35,77.35,0,0,1,18.9,635.53h0A77.36,77.36,0,0,1,96.26,558.17Z"/><path class="cls-3" d="M850.49,586.05a49.24,49.24,0,1,0,49.23,49.28,49.24,49.24,0,0,0-49.23-49.28Zm-2.1,31.08h2.75a1.43,1.43,0,0,1,1,0,29.79,29.79,0,0,1,3.52,1.31,18.17,18.17,0,0,1,10.08,12.41.78.78,0,0,1,0,.78V634c0,.91,0,.77-.51.51h-2.75v-2.74a3.71,3.71,0,0,0,0-1.69,12.37,12.37,0,0,0-3.78-6,15.49,15.49,0,0,0-5.72-3.52,3,3,0,0,0-1.57,0H849l-.52.13Zm7.45,16.56v.66h-3c-.53,0-.53,0-.53-.52a3.65,3.65,0,0,0-2.74-3l-.52.82s-.53,0-.53-.65v-3a7.7,7.7,0,0,1,2.88.53h1.32a6.48,6.48,0,0,1,1.69,1.57l.91,1.43a4.29,4.29,0,0,1,.52,2.16Zm17.24,20.9v2.87a7.5,7.5,0,0,1-2,3.27l-2.46,2.83a2.1,2.1,0,0,1-1.17.92,3.62,3.62,0,0,1-2,.51h-3.4a16,16,0,0,1-3.53,0,6.35,6.35,0,0,1-3.79-.81A41.46,41.46,0,0,1,848,662h-.64l-1.31-.52-3.27-1.57a28.86,28.86,0,0,1-4.18-2.73l-3.52-2.75-3.27-3-2.74-3.27-.66-.92-.39-.51c-.39-.52-1.83-2.75-2.74-4.18l-1.56-3.14-.53-1a30.82,30.82,0,0,1-1.17-3.26c-.52-1.44-.92-2.88-1.31-4.31v-1a4.34,4.34,0,0,0,0-1.83l-.12-.4a18.54,18.54,0,0,1-1.19-3.79c-.39-1.69.14-3.65-.13-5.48V617a24.74,24.74,0,0,1,4.19-4.83l1.3-1a5.52,5.52,0,0,1,1.82-.81h4.58a8,8,0,0,1,4.57,4.17,7.79,7.79,0,0,1,.66,2.22c.52,1.7,1,3.65,1.43,5.61a7.94,7.94,0,0,1-.66,5.23,11.59,11.59,0,0,0-1,1.44l-2.09,1.57a1,1,0,0,0,0,1.17l.78,2.23a27,27,0,0,0,4.32,7.57,3.4,3.4,0,0,0,1,1,30,30,0,0,0,7.57,5.88l2.74,1.17c.65.39,1.69.53,2.22.92a.83.83,0,0,0,.81,0l2-2a7.18,7.18,0,0,1,5.35-2.22,13.7,13.7,0,0,1,2.45.52l4.58,1.44h.52a7.08,7.08,0,0,1,4.7,5.22,1.48,1.48,0,0,1,0,1.13Zm4.56-19.85H874v-1.57l-.52-4.31v-1.43a14.44,14.44,0,0,0-.91-2.45l-1.43-2.72-1.06-1.56v-.4a24.28,24.28,0,0,0-6.13-6,9,9,0,0,0-1.42-.94,13.22,13.22,0,0,0-2.74-1.43,22,22,0,0,0-4.18-1.45,19.86,19.86,0,0,0-5.48-.65v-3c0-.52,0-.52.52-.52h2a.41.41,0,0,1,.53,0A28.62,28.62,0,0,1,863.73,610a28,28,0,0,1,8.35,7.46l.52.81a13.33,13.33,0,0,1,1.43,2.22,31.36,31.36,0,0,1,2.62,6,1.56,1.56,0,0,1,0,1c.26,1.44.51,2.75.65,4.19v2.22l.39-.14Z"/><path class="cls-4" d="M111,630.56v.23a11,11,0,0,1-11,11h-.52A11.36,11.36,0,1,1,111,630.56Z"/><path class="cls-4" d="M145.53,616.46a49.81,49.81,0,1,0-27,65.08,49.81,49.81,0,0,0,27-65.08Zm-22.78,14.89a34.65,34.65,0,0,1-5,15.69,56.17,56.17,0,0,1-9.3,12.82c-1.83,1.7-3.53,3.53-5.49,5.23a5.22,5.22,0,0,1-2.61,1.17H98.56a6.59,6.59,0,0,1-3.39-1.82,68.45,68.45,0,0,1-15.69-21.05,26.82,26.82,0,0,1-3.14-13.07,23,23,0,0,1,15.33-21.71,20.25,20.25,0,0,1,4.71-.65h5.19a12.69,12.69,0,0,0,3.14,0,19.11,19.11,0,0,1,9.94,4.71l-.14-.13A23.07,23.07,0,0,1,122.75,631.35Z"/><path class="cls-3" d="M206.18,641.66a11.78,11.78,0,0,1-10.49-5.6q-3.65-5.61-3.64-16.19t3.7-16.22a12,12,0,0,1,10.68-5.57,11.42,11.42,0,0,1,7.13,2.11,8.66,8.66,0,0,1,3.33,5.86l1.31,8.78c.25,1.86-1.18,2.8-4.3,2.8a5.79,5.79,0,0,1-2.3-.35,1.59,1.59,0,0,1-.93-1.21l-1.56-8a2.38,2.38,0,0,0-2.49-2.24q-2.75,0-4.14,3.79t-1.4,11.15c0,4.65.44,8,1.34,10.15s2.27,3.18,4.14,3.18a4.6,4.6,0,0,0,3.2-1.22,3.88,3.88,0,0,0,1.34-3q0-2.8,3.86-2.8a3.3,3.3,0,0,1,2.56.84,4.29,4.29,0,0,1,.74,2.83,10.33,10.33,0,0,1-3.42,7.82,12.15,12.15,0,0,1-3.83,2.3A13.5,13.5,0,0,1,206.18,641.66Z"/><path class="cls-3" d="M224.36,640.85a3.11,3.11,0,0,1-1.93-.56,3.82,3.82,0,0,1-1.15-1.4,6.07,6.07,0,0,1-.53-1.87,16.88,16.88,0,0,1-.12-2V601.81a2,2,0,0,1,.4-1.27,3.64,3.64,0,0,1,1-.91,4.09,4.09,0,0,1,1.34-.53,7.25,7.25,0,0,1,1.43-.15c1.83,0,3.09.42,3.8,1.27a5.41,5.41,0,0,1,1.06,3.52q0,6.16-.1,13.79t0,15.66h7.59c.58,0,1.11.39,1.59,1.16a5.87,5.87,0,0,1,.87,2.55,4.6,4.6,0,0,1-.43,2.58,2.37,2.37,0,0,1-2.34,1.19h-5.07c-1.23,0-2.24,0-3,0l-2.09.06Z"/><path class="cls-3" d="M253.32,635.06a5,5,0,0,1-1.22,3.43,4.54,4.54,0,0,1-3.58,1.37,4.63,4.63,0,0,1-3-1.12,3.93,3.93,0,0,1-1.34-3.18,5.45,5.45,0,0,1,1.09-3.24,3.81,3.81,0,0,1,3.27-1.49,5.5,5.5,0,0,1,3.37,1.06A3.69,3.69,0,0,1,253.32,635.06Z"/><path class="cls-3" d="M274.43,609.1a18.07,18.07,0,0,0,1.52-1.81c.56-.75,1.18-1.54,1.87-2.4s1.39-1.68,2.12-2.49a21.15,21.15,0,0,1,2.21-2.15,4.37,4.37,0,0,1,2.05-1,10.49,10.49,0,0,1,2.06-.22,8,8,0,0,1,3.42.68,2.46,2.46,0,0,1,1.43,2.43q0,.32,0,2.52c0,1.48-.05,3.24-.09,5.3s-.07,4.24-.1,6.57,0,4.44,0,6.35v3.42c0,1.33,0,2.63,0,3.89s0,2.38,0,3.33v1.81q0,3-1,4.11a4.48,4.48,0,0,1-3.37,1.06,7.05,7.05,0,0,1-1.71-.19,2.85,2.85,0,0,1-1.37-.75,3.51,3.51,0,0,1-.9-1.61,10.19,10.19,0,0,1-.31-2.81c0-.29,0-1,0-2.27s0-2.54.06-4,0-2.76.06-4,0-2.14,0-2.55c0-1.08,0-2,0-2.84s.05-1.61.07-2.42,0-1.7,0-2.65,0-2.12-.13-3.49a8.63,8.63,0,0,0-1.3,1.53,7.8,7.8,0,0,1-1.25,1.46,7.89,7.89,0,0,1-1.74,1.22,3.59,3.59,0,0,1-1.44.34,1.5,1.5,0,0,1-1-.53,6.69,6.69,0,0,1-1-1.28,9.93,9.93,0,0,1-.78-1.52,3.59,3.59,0,0,1-.31-1.28A2.74,2.74,0,0,1,274.43,609.1Z"/><path class="cls-3" d="M316.58,619.43a5.88,5.88,0,0,0,1.31.41,10.58,10.58,0,0,1,2.89,1.34,10.34,10.34,0,0,1,2.9,2.83,8.49,8.49,0,0,1,1.3,5,10,10,0,0,1-1.15,4.83,11.36,11.36,0,0,1-3.08,3.64,13.86,13.86,0,0,1-4.45,2.27,17.72,17.72,0,0,1-5.26.78,14.17,14.17,0,0,1-6.6-1.37,13.19,13.19,0,0,1-4.17-3.24,11.14,11.14,0,0,1-2.18-3.86,11.43,11.43,0,0,1-.63-3.3,3,3,0,0,1,.44-1.59A4.16,4.16,0,0,1,299,626a5.07,5.07,0,0,1,1.53-.75,5.76,5.76,0,0,1,1.58-.25c.21,0,.53,0,1,.07a10.19,10.19,0,0,1,1.31.21,4,4,0,0,1,1.15.47.94.94,0,0,1,.5.81,12.8,12.8,0,0,0,.18,1.46,10.84,10.84,0,0,0,.72,2.4,7,7,0,0,0,1.52,2.24,3.54,3.54,0,0,0,2.62,1,5.76,5.76,0,0,0,1.62-.25,5.13,5.13,0,0,0,1.62-.81,4.19,4.19,0,0,0,1.24-1.56,5.55,5.55,0,0,0,.5-2.49,7.36,7.36,0,0,0-.28-2,6.61,6.61,0,0,0-.81-1.83,5.42,5.42,0,0,0-1.21-1.34,2.46,2.46,0,0,0-1.56-.53,3,3,0,0,1-2.46-.94,3.46,3.46,0,0,1-.78-2.3,3,3,0,0,1,.84-2.43,3.79,3.79,0,0,1,2-.81,3,3,0,0,0,1.43-.71,5.9,5.9,0,0,0,1.21-1.5,8.75,8.75,0,0,0,.87-2,7.11,7.11,0,0,0,.35-2.15,5.77,5.77,0,0,0-.44-2.43,3.82,3.82,0,0,0-1.12-1.46,4,4,0,0,0-1.49-.72,7.19,7.19,0,0,0-1.56-.18,3.43,3.43,0,0,0-2.58,1,6.41,6.41,0,0,0-1.44,2.24,9.77,9.77,0,0,0-.59,2.4c-.08.77-.12,1.26-.12,1.46a.92.92,0,0,1-.5.81,3.71,3.71,0,0,1-1.15.47,8.53,8.53,0,0,1-1.31.22c-.44,0-.76.06-1,.06a5.45,5.45,0,0,1-1.58-.25,4.74,4.74,0,0,1-1.53-.75,4,4,0,0,1-1.12-1.21,3,3,0,0,1-.44-1.59,9.5,9.5,0,0,1,.78-3.3,13.38,13.38,0,0,1,2.4-3.86,14.91,14.91,0,0,1,4.14-3.24,12.3,12.3,0,0,1,6-1.37,18.09,18.09,0,0,1,5.45.81,12.76,12.76,0,0,1,4.32,2.31,10.83,10.83,0,0,1,2.84,3.55,10.06,10.06,0,0,1,1,4.54,8.62,8.62,0,0,1-1.27,4.89,11.84,11.84,0,0,1-2.77,3,9.87,9.87,0,0,1-2.77,1.49C317,619.17,316.58,619.35,316.58,619.43Z"/><path class="cls-3" d="M342.92,640.91q-6.8,0-10.65-3t-3.86-8.71a11.68,11.68,0,0,1,1.74-6.64,9,9,0,0,1,5-3.58,8.34,8.34,0,0,1-4.42-3.36,10,10,0,0,1-1.62-5.66,10.59,10.59,0,0,1,1-4.67,11.2,11.2,0,0,1,2.83-3.65,13.13,13.13,0,0,1,4.36-2.36,17.85,17.85,0,0,1,5.61-.84,17,17,0,0,1,5.51.84,13.09,13.09,0,0,1,4.23,2.33,10.11,10.11,0,0,1,2.74,3.65,11.5,11.5,0,0,1,1,4.76,10.32,10.32,0,0,1-1.5,5.66,7.81,7.81,0,0,1-4.23,3.3,10.37,10.37,0,0,1,4.95,3.24,9.55,9.55,0,0,1,2,6.42q0,5.91-4,9.12T342.92,640.91Zm-.13-18.8a5,5,0,0,0-4.29,2,7.53,7.53,0,0,0-1.5,4.7,7.13,7.13,0,0,0,1.43,4.55,5.55,5.55,0,0,0,4.61,1.8q3.12,0,4.48-1.77a7.24,7.24,0,0,0,1.37-4.58,7.73,7.73,0,0,0-1.43-4.7Q346,622.11,342.79,622.11ZM337.62,610a7.35,7.35,0,0,0,1.37,4.55,4.52,4.52,0,0,0,3.8,1.8,3.62,3.62,0,0,0,1.9-.53,5.5,5.5,0,0,0,1.59-1.43,7.19,7.19,0,0,0,1.09-2.12,7.91,7.91,0,0,0,.4-2.52,5.32,5.32,0,0,0-1.3-3.77,5,5,0,0,0-3.8-1.4,4.86,4.86,0,0,0-3.77,1.4A5.79,5.79,0,0,0,337.62,610Z"/><path class="cls-3" d="M384,629.46l-2.06,0a9,9,0,0,1-2.27-.22,4.55,4.55,0,0,1-1.87-.87,2.42,2.42,0,0,1-.84-1.87,3.89,3.89,0,0,1,.38-2,1.83,1.83,0,0,1,1.8-.84l.78,0c.27,0,.53,0,.78,0h4.54c.21-1,.42-2.05.63-3.05s.39-2,.56-3.11q-.81,0-2.28.09a15,15,0,0,1-2.92-.09,6.6,6.6,0,0,1-2.55-.81,2.78,2.78,0,0,1-.38-4.2,3.8,3.8,0,0,1,2.27-.78c1.17,0,2.32,0,3.46,0l3.46.09c.12-.7.29-1.71.49-3a33.81,33.81,0,0,1,.88-4,14.87,14.87,0,0,1,1.43-3.49,2.55,2.55,0,0,1,2.24-1.49,3.82,3.82,0,0,1,2.4.68,2.81,2.81,0,0,1,1.21,2.18,12.67,12.67,0,0,1-.09,2.27c-.11.81-.24,1.62-.41,2.43s-.35,1.61-.56,2.4-.37,1.54-.5,2.24c1.37,0,2.76.07,4.18.09s2.8,0,4.17,0c.08-.5.18-1.15.31-1.93s.27-1.63.44-2.53.36-1.78.59-2.67a12.15,12.15,0,0,1,.87-2.43,5.92,5.92,0,0,1,1.27-1.78,2.53,2.53,0,0,1,1.75-.68,3.43,3.43,0,0,1,2.4.84,3,3,0,0,1,1.15,2.21,7.43,7.43,0,0,1-.13,1.8c-.12.79-.28,1.61-.46,2.46s-.38,1.68-.56,2.46-.33,1.42-.41,1.87l1.56.16a11.33,11.33,0,0,1,1.87.34,4.55,4.55,0,0,1,1.58.75,1.79,1.79,0,0,1,.72,1.37,2.75,2.75,0,0,1-1.06,2.39,3.93,3.93,0,0,1-2.55.91c-1.16,0-2.35,0-3.55,0-.25,1-.48,2-.69,3l-.62,3.05c.46,0,1.08,0,1.87.12a14.19,14.19,0,0,1,2.37.47,8.59,8.59,0,0,1,2.08.9,1.9,1.9,0,0,1,1,1.5c.08,1.16-.21,1.93-.88,2.3a5.51,5.51,0,0,1-2.55.62h-4.54c-.13.92-.26,1.92-.41,3a13.21,13.21,0,0,1-.78,3.12,7.11,7.11,0,0,1-1.58,2.49,4,4,0,0,1-2.9,1c-1.74.08-2.66-.77-2.74-2.56a13.12,13.12,0,0,1,.28-3.67l.78-3.61a34.14,34.14,0,0,0-4.05,0q-2.05.09-4,0c-.16.83-.33,1.82-.49,3a18.93,18.93,0,0,1-.78,3.3,8,8,0,0,1-1.5,2.67,3.54,3.54,0,0,1-2.71,1.19,3.69,3.69,0,0,1-2.08-.56,2.41,2.41,0,0,1-1-1.87,12.32,12.32,0,0,1,.41-3.86C383.46,632,383.74,630.66,384,629.46Zm8.28-5.73q2.11.12,4.17.12t4.11-.06c.29-1.08.54-2.13.75-3.14s.41-2.07.62-3.15l-4.23-.12c-.71,0-1.41-.06-2.12-.06h-2.12c-.2,1.08-.41,2.14-.62,3.2S392.4,622.65,392.23,623.73Z"/><path class="cls-3" d="M434.57,619.68a15.53,15.53,0,0,0-2.86.22c-.79.15-1.53.29-2.21.44l-2.06.43a10.92,10.92,0,0,1-2.33.22,3.62,3.62,0,0,1-1.19-.19,3.54,3.54,0,0,1-1-.53,2.86,2.86,0,0,1-.72-.71,1,1,0,0,1-.19-.75c.13-1.25.25-2.56.38-3.95s.25-2.81.37-4.24.25-2.84.37-4.23.23-2.71.32-4a8.37,8.37,0,0,1,.24-1.43,2.94,2.94,0,0,1,.69-1.21,3.45,3.45,0,0,1,1.46-.84,8.39,8.39,0,0,1,2.52-.31h1.31l2.24,0c.83,0,1.69,0,2.59,0h2.27c.87,0,1.64,0,2.3,0l1.84,0c.56,0,1.11,0,1.65,0s1.14,0,1.81,0a2.05,2.05,0,0,1,1.74.84,3.78,3.78,0,0,1,.62,2.28,4.67,4.67,0,0,1-.59,2.55,2,2,0,0,1-1.84.93H430.84c-.21,1.71-.39,3.28-.53,4.74s-.33,3.05-.53,4.79c.37-.16,1.1-.44,2.18-.84a12.64,12.64,0,0,1,4.23-.59,13.93,13.93,0,0,1,5.07.9,11.89,11.89,0,0,1,4.08,2.59,11.47,11.47,0,0,1,2.71,4.14,15.2,15.2,0,0,1,1,5.57,14.91,14.91,0,0,1-1.16,6,12.76,12.76,0,0,1-3.08,4.42,13.48,13.48,0,0,1-4.45,2.71,15.06,15.06,0,0,1-5.26.93,14.17,14.17,0,0,1-6.6-1.37,13.3,13.3,0,0,1-4.17-3.24,11.14,11.14,0,0,1-2.18-3.86,11.37,11.37,0,0,1-.62-3.3,3,3,0,0,1,.43-1.59,4.16,4.16,0,0,1,1.12-1.21,5.19,5.19,0,0,1,1.53-.75,5.82,5.82,0,0,1,1.59-.25c.2,0,.51,0,.93.07a8.92,8.92,0,0,1,1.24.21,3.49,3.49,0,0,1,1.09.47.93.93,0,0,1,.47.81,12,12,0,0,0,.22,2.06,8.89,8.89,0,0,0,.78,2.42,5.7,5.7,0,0,0,1.59,2,4,4,0,0,0,2.64.84,3.87,3.87,0,0,0,1.62-.41,5,5,0,0,0,1.62-1.24,6.78,6.78,0,0,0,1.24-2.18,9,9,0,0,0,.5-3.21,11.52,11.52,0,0,0-.28-2.52,7,7,0,0,0-.93-2.3,5.28,5.28,0,0,0-1.71-1.68A4.88,4.88,0,0,0,434.57,619.68Z"/><path class="cls-3" d="M452.75,635.06a11.14,11.14,0,0,1,2.12-2.77q1.56-1.59,3.55-3.52t4.17-4.11a42.7,42.7,0,0,0,4-4.57,27.65,27.65,0,0,0,3-4.92,12,12,0,0,0,1.19-5.14,5.77,5.77,0,0,0-.44-2.43,3.82,3.82,0,0,0-1.12-1.46,4,4,0,0,0-1.49-.72,7.19,7.19,0,0,0-1.56-.18,3.47,3.47,0,0,0-2.59,1,6.53,6.53,0,0,0-1.43,2.24,9.77,9.77,0,0,0-.59,2.4c-.08.77-.12,1.26-.12,1.46a.92.92,0,0,1-.5.81,3.71,3.71,0,0,1-1.15.47,8.53,8.53,0,0,1-1.31.22c-.44,0-.76.06-1,.06a5.45,5.45,0,0,1-1.58-.25,4.74,4.74,0,0,1-1.53-.75,4,4,0,0,1-1.12-1.21,3,3,0,0,1-.44-1.59,9.5,9.5,0,0,1,.78-3.3,13.38,13.38,0,0,1,2.4-3.86,14.91,14.91,0,0,1,4.14-3.24,12.3,12.3,0,0,1,5.95-1.37,16.81,16.81,0,0,1,5.44.85,12.69,12.69,0,0,1,4.33,2.39,11.06,11.06,0,0,1,2.84,3.8,12.07,12.07,0,0,1,1,5,14.24,14.24,0,0,1-.93,5.08,21.52,21.52,0,0,1-2.46,4.67,34.79,34.79,0,0,1-3.43,4.2q-1.89,2-3.86,3.74c-1.3,1.16-2.56,2.24-3.76,3.24s-2.24,1.88-3.12,2.67c1,0,1.61,0,1.84,0l.65,0c.34,0,1.05,0,2.15-.09l3.58-.22,3.61-.22c1.13-.06,1.89-.09,2.31-.09a3.29,3.29,0,0,1,1.87.43,2.24,2.24,0,0,1,.84,1.06,3.29,3.29,0,0,1,.18,1.22q0,.59,0,1a8.12,8.12,0,0,1-.09,1.18,2.45,2.45,0,0,1-1.5,2,4.73,4.73,0,0,1-2,.34c-.37,0-1.07,0-2.08-.06l-3.3-.13-3.4-.12c-1.08,0-1.84-.06-2.3-.06s-1,0-1.71,0l-2.31.09-2.33.09-1.68,0a6.75,6.75,0,0,1-2.18-.28,3.41,3.41,0,0,1-1.25-.68,2.08,2.08,0,0,1-.59-.87,2.94,2.94,0,0,1-.15-.91,9.91,9.91,0,0,1,.12-1.33A4.47,4.47,0,0,1,452.75,635.06Z"/><path class="cls-3" d="M486.19,640.6a12.63,12.63,0,0,1-1.37-.09,7.42,7.42,0,0,1-1.53-.34,3.18,3.18,0,0,1-1.21-.75,1.78,1.78,0,0,1-.5-1.31,15.24,15.24,0,0,1,.31-2.08q.32-1.65.87-4.08c.38-1.62.79-3.44,1.25-5.45s.94-4.06,1.46-6.13,1-4.14,1.53-6.2,1-3.92,1.4-5.6.81-3.14,1.12-4.36.55-2.07.72-2.52a3.49,3.49,0,0,1,2.21-2.24,12.83,12.83,0,0,1,7.9-.13,3.82,3.82,0,0,1,2.15,2,14.53,14.53,0,0,1,.44,1.68c.25,1.08.56,2.46.93,4.15s.8,3.6,1.28,5.75,1,4.36,1.43,6.61.95,4.44,1.43,6.6.89,4.1,1.25,5.82.64,3.12.87,4.2.34,1.66.34,1.74a1.77,1.77,0,0,1-.53,1.4,3.6,3.6,0,0,1-1.27.72,5.52,5.52,0,0,1-1.59.28l-1.47,0a5.81,5.81,0,0,1-3.48-.75,4.38,4.38,0,0,1-1.37-2.42c-.13-.58-.24-1.21-.34-1.87s-.26-1.41-.47-2.24h-1.37l-2.8-.07h-3c-.52,0-1.05,0-1.59.07-.16,1-.32,1.89-.47,2.8s-.32,1.85-.52,2.8a1.87,1.87,0,0,1-.6,1.09,2.88,2.88,0,0,1-1.05.59,5.63,5.63,0,0,1-1.22.25C487,640.58,486.56,640.6,486.19,640.6ZM499,626.47c-.45-2.78-1-5.64-1.61-8.56s-1.13-5.89-1.5-8.88q-.93,4.11-1.74,8.72t-1.68,8.72Z"/><path class="cls-3" d="M536.87,617.88a2.1,2.1,0,0,1,1.34.37,2,2,0,0,1,.65.84,2.47,2.47,0,0,1,.19,1v.8a3.72,3.72,0,0,1-.65,2.18,2.31,2.31,0,0,1-1.65,1.06c-.38,0-.76-.07-1.15-.09s-.91,0-1.53,0h-6L526,624c-.85,0-1.73,0-2.62,0s-1.76,0-2.61,0l-2.15,0a5.4,5.4,0,0,1-1.75-.22,2,2,0,0,1-.9-.56,1.52,1.52,0,0,1-.34-.84,8.74,8.74,0,0,1-.06-1.05,7.18,7.18,0,0,1,.34-2.4c.23-.64.9-1,2-1h11l1.53,0,2.08-.06,2.28-.06Z"/><path class="cls-3" d="M558.91,640.91q-6.78,0-10.64-3t-3.86-8.71a11.68,11.68,0,0,1,1.74-6.64,9,9,0,0,1,5-3.58,8.3,8.3,0,0,1-4.42-3.36,10,10,0,0,1-1.62-5.66,10.46,10.46,0,0,1,1-4.67,11.06,11.06,0,0,1,2.83-3.65,13,13,0,0,1,4.36-2.36,17.83,17.83,0,0,1,5.6-.84,17,17,0,0,1,5.51.84,13.14,13.14,0,0,1,4.24,2.33,10.22,10.22,0,0,1,2.74,3.65,11.5,11.5,0,0,1,1,4.76,10.4,10.4,0,0,1-1.49,5.66,7.83,7.83,0,0,1-4.24,3.3,10.28,10.28,0,0,1,5,3.24,9.56,9.56,0,0,1,2,6.42q0,5.91-4,9.12T558.91,640.91Zm-.12-18.8a5.08,5.08,0,0,0-4.3,2,7.58,7.58,0,0,0-1.49,4.7,7.13,7.13,0,0,0,1.43,4.55q1.43,1.8,4.61,1.8c2.07,0,3.57-.59,4.48-1.77a7.3,7.3,0,0,0,1.37-4.58,7.8,7.8,0,0,0-1.43-4.7C562.5,622.76,561,622.11,558.79,622.11ZM553.62,610a7.35,7.35,0,0,0,1.37,4.55,4.5,4.5,0,0,0,3.8,1.8,3.64,3.64,0,0,0,1.9-.53,5.5,5.5,0,0,0,1.59-1.43,7.44,7.44,0,0,0,1.09-2.12,8.2,8.2,0,0,0,.4-2.52,5.32,5.32,0,0,0-1.31-3.77,5,5,0,0,0-3.8-1.4,4.84,4.84,0,0,0-3.76,1.4A5.79,5.79,0,0,0,553.62,610Z"/><path class="cls-3" d="M589.49,613.52a12.36,12.36,0,0,1,1.43-.19c.5,0,1-.06,1.43-.06a13.43,13.43,0,0,1,4.92.9,11.69,11.69,0,0,1,4,2.59A11.53,11.53,0,0,1,604,620.9a16.37,16.37,0,0,1-.18,11.58,12.92,12.92,0,0,1-3.09,4.42,13.48,13.48,0,0,1-4.45,2.71,15.06,15.06,0,0,1-5.26.93,14.17,14.17,0,0,1-5.7-1.09,12.5,12.5,0,0,1-4.29-3,12.63,12.63,0,0,1-2.71-4.54,17.31,17.31,0,0,1-.94-5.76,24.23,24.23,0,0,1,1.56-8.5,49.65,49.65,0,0,1,3.58-7.69,48.61,48.61,0,0,1,4-6c1.3-1.64,2.21-2.73,2.7-3.27.34-.33.72-.69,1.16-1.09a6.76,6.76,0,0,1,1.43-1,5.64,5.64,0,0,1,1.71-.56,3.32,3.32,0,0,1,1.93.28,3.57,3.57,0,0,1,.84.62,2.61,2.61,0,0,1,.69,1.09,3,3,0,0,1,.06,1.46,3.44,3.44,0,0,1-1,1.68A29.35,29.35,0,0,0,593,607.1,49,49,0,0,0,589.49,613.52Zm.37,5.85h-1.4a6,6,0,0,0-1.28.13,29.62,29.62,0,0,0-.78,3.33,20.24,20.24,0,0,0-.28,3.27,10.58,10.58,0,0,0,1.31,5.82,4.13,4.13,0,0,0,3.61,2,3.87,3.87,0,0,0,1.62-.41,5,5,0,0,0,1.62-1.24,7,7,0,0,0,1.25-2.18,9.26,9.26,0,0,0,.49-3.21,11.92,11.92,0,0,0-.28-2.55,7,7,0,0,0-1-2.4,5.86,5.86,0,0,0-1.9-1.8A5.68,5.68,0,0,0,589.86,619.37Z"/><path class="cls-3" d="M196.86,670.2a6.43,6.43,0,0,1-2.66-2.12,5.38,5.38,0,0,1-1-3.13h3a4,4,0,0,0,1.26,2.57,4.55,4.55,0,0,0,3.22,1,4.71,4.71,0,0,0,3.19-1,3.29,3.29,0,0,0,1.17-2.6,3,3,0,0,0-.68-2,4.43,4.43,0,0,0-1.71-1.19,26.52,26.52,0,0,0-2.78-.87,24.89,24.89,0,0,1-3.44-1.12,5.56,5.56,0,0,1-2.21-1.76,5.17,5.17,0,0,1-.91-3.22,5.64,5.64,0,0,1,.9-3.15,5.9,5.9,0,0,1,2.54-2.11,8.9,8.9,0,0,1,3.75-.75,7.82,7.82,0,0,1,5,1.53,5.62,5.62,0,0,1,2.2,4H204.6a3.36,3.36,0,0,0-1.31-2.19,4.67,4.67,0,0,0-3-.95,4.38,4.38,0,0,0-2.9.92,3.13,3.13,0,0,0-1.12,2.57,2.78,2.78,0,0,0,.67,1.93,4.46,4.46,0,0,0,1.65,1.13,27.76,27.76,0,0,0,2.76.89,24.34,24.34,0,0,1,3.45,1.17,5.7,5.7,0,0,1,2.24,1.77,5.11,5.11,0,0,1,.94,3.25,5.71,5.71,0,0,1-.84,3,6.14,6.14,0,0,1-2.49,2.28,8.25,8.25,0,0,1-3.9.87A9.4,9.4,0,0,1,196.86,670.2Z"/><path class="cls-3" d="M217.44,654.38a7.52,7.52,0,0,1,3.87-1,8,8,0,0,1,4.13,1.09,7.76,7.76,0,0,1,2.91,3.07,9.49,9.49,0,0,1,1.06,4.59,9.69,9.69,0,0,1-1.06,4.6,7.91,7.91,0,0,1-2.91,3.15,7.81,7.81,0,0,1-4.13,1.12,7.46,7.46,0,0,1-3.84-1,7,7,0,0,1-2.54-2.44v11.23H212.1V653.68h2.83v3.14A6.77,6.77,0,0,1,217.44,654.38Zm8.29,4.4a5.24,5.24,0,0,0-2.1-2.17,5.79,5.79,0,0,0-2.91-.75,5.64,5.64,0,0,0-2.88.76,5.55,5.55,0,0,0-2.11,2.21,7.48,7.48,0,0,0,0,6.73,5.55,5.55,0,0,0,2.11,2.21,5.89,5.89,0,0,0,5.79,0,5.4,5.4,0,0,0,2.1-2.21,7.12,7.12,0,0,0,.78-3.41A7,7,0,0,0,225.73,658.78Z"/><path class="cls-3" d="M238.11,654.18a6.58,6.58,0,0,1,3.38-.81v2.92h-.75c-3.18,0-4.76,1.73-4.76,5.17v9.28h-2.84V653.68H236v2.77A5.43,5.43,0,0,1,238.11,654.18Z"/><path class="cls-3" d="M244.85,650.35a2,2,0,0,1,0-2.74,1.83,1.83,0,0,1,1.37-.56,1.74,1.74,0,0,1,1.32.56,2,2,0,0,1,0,2.74,1.78,1.78,0,0,1-1.32.56A1.87,1.87,0,0,1,244.85,650.35Zm2.74,3.33v17.06h-2.83V653.68Z"/><path class="cls-3" d="M265.77,655.25a7.25,7.25,0,0,1,1.93,5.43v10.06h-2.8v-9.65a5.5,5.5,0,0,0-1.28-3.91,4.56,4.56,0,0,0-3.48-1.35,4.65,4.65,0,0,0-3.57,1.4,5.72,5.72,0,0,0-1.32,4.08v9.43h-2.84V653.68h2.84v2.43a5.64,5.64,0,0,1,2.29-2,7.15,7.15,0,0,1,3.19-.71A6.94,6.94,0,0,1,265.77,655.25Z"/><path class="cls-3" d="M283.25,654.36a6.51,6.51,0,0,1,2.48,2.43v-3.11h2.86v17.43a8.45,8.45,0,0,1-1,4.16,7.14,7.14,0,0,1-2.84,2.85,8.85,8.85,0,0,1-4.32,1,9.43,9.43,0,0,1-5.6-1.59,6.23,6.23,0,0,1-2.65-4.33H275a4.46,4.46,0,0,0,1.93,2.51,6.31,6.31,0,0,0,3.51,1,5.19,5.19,0,0,0,3.82-1.47,5.53,5.53,0,0,0,1.48-4.11v-3.58a6.75,6.75,0,0,1-2.49,2.49,7.28,7.28,0,0,1-3.86,1,7.75,7.75,0,0,1-7-4.27,9.69,9.69,0,0,1-1.06-4.6,9.49,9.49,0,0,1,1.06-4.59,7.69,7.69,0,0,1,2.91-3.07,8,8,0,0,1,4.13-1.09A7.61,7.61,0,0,1,283.25,654.36Zm1.7,4.46a5.5,5.5,0,0,0-2.1-2.2,6,6,0,0,0-5.81,0,5.4,5.4,0,0,0-2.09,2.17,7.07,7.07,0,0,0-.77,3.37,7.24,7.24,0,0,0,.77,3.41,5.58,5.58,0,0,0,2.09,2.21,5.63,5.63,0,0,0,2.9.76,5.75,5.75,0,0,0,2.91-.76,5.53,5.53,0,0,0,2.1-2.21,7,7,0,0,0,.78-3.38A6.89,6.89,0,0,0,285,658.82Z"/><path class="cls-3" d="M296.31,666.82l-3.48,8.37h-1.9l2.27-8.37Z"/><path class="cls-3" d="M320.89,660.53a5.66,5.66,0,0,1,1.56,1.93,5.49,5.49,0,0,1,.57,2.46,5.41,5.41,0,0,1-.84,3,5.72,5.72,0,0,1-2.44,2.09,8.7,8.7,0,0,1-3.78.76h-8.1V649h7.79a8.76,8.76,0,0,1,3.76.73,5.36,5.36,0,0,1,2.34,2,5.16,5.16,0,0,1,.78,2.8,4.81,4.81,0,0,1-1,3.19,5.78,5.78,0,0,1-2.75,1.82A4.6,4.6,0,0,1,320.89,660.53Zm-10.19-2.12h4.76a4.61,4.61,0,0,0,3.08-.93,3.23,3.23,0,0,0,1.09-2.59,3.2,3.2,0,0,0-1.09-2.58,4.71,4.71,0,0,0-3.14-.93h-4.7Zm8.31,9a3.43,3.43,0,0,0,1.18-2.77,3.5,3.5,0,0,0-1.24-2.85,5,5,0,0,0-3.34-1H310.7v7.65h5A5,5,0,0,0,319,667.41Z"/><path class="cls-3" d="M330,669.93a7.84,7.84,0,0,1-3.05-3.1,9.57,9.57,0,0,1-1.1-4.65,9.25,9.25,0,0,1,1.13-4.62,7.87,7.87,0,0,1,3.1-3.09,9.54,9.54,0,0,1,8.78,0,7.89,7.89,0,0,1,3.1,3.07,9.17,9.17,0,0,1,1.14,4.64,9.07,9.07,0,0,1-1.17,4.65,8.11,8.11,0,0,1-3.16,3.1,9,9,0,0,1-4.42,1.09A8.73,8.73,0,0,1,330,669.93Zm7.21-2.12a5.5,5.5,0,0,0,2.17-2.14,7.88,7.88,0,0,0,0-7,5.3,5.3,0,0,0-2.12-2.13,6.11,6.11,0,0,0-5.68,0,5.19,5.19,0,0,0-2.07,2.13,7.23,7.23,0,0,0-.78,3.49,7.41,7.41,0,0,0,.77,3.52,5,5,0,0,0,2,2.13,5.74,5.74,0,0,0,2.81.7A6,6,0,0,0,337.25,667.81Z"/><path class="cls-3" d="M357.78,654.36a6.51,6.51,0,0,1,2.48,2.43v-3.11h2.86v17.43a8.56,8.56,0,0,1-1,4.16,7.23,7.23,0,0,1-2.85,2.85,8.81,8.81,0,0,1-4.31,1,9.46,9.46,0,0,1-5.61-1.59,6.21,6.21,0,0,1-2.64-4.33h2.8a4.46,4.46,0,0,0,1.93,2.51,6.34,6.34,0,0,0,3.52,1,5.19,5.19,0,0,0,3.81-1.47,5.49,5.49,0,0,0,1.48-4.11v-3.58a6.75,6.75,0,0,1-2.49,2.49,7.28,7.28,0,0,1-3.86,1,7.81,7.81,0,0,1-4.13-1.12,7.91,7.91,0,0,1-2.91-3.15,9.81,9.81,0,0,1-1.06-4.6,9.6,9.6,0,0,1,1.06-4.59,7.76,7.76,0,0,1,2.91-3.07,8,8,0,0,1,4.13-1.09A7.61,7.61,0,0,1,357.78,654.36Zm1.7,4.46a5.5,5.5,0,0,0-2.1-2.2,6,6,0,0,0-5.81,0,5.38,5.38,0,0,0-2.08,2.17,7,7,0,0,0-.78,3.37,7.12,7.12,0,0,0,.78,3.41,5.55,5.55,0,0,0,2.08,2.21,5.63,5.63,0,0,0,2.9.76,5.7,5.7,0,0,0,2.91-.76,5.53,5.53,0,0,0,2.1-2.21,7,7,0,0,0,.78-3.38A6.89,6.89,0,0,0,359.48,658.82Z"/><path class="cls-3" d="M371,669.93a7.84,7.84,0,0,1-3.05-3.1,9.57,9.57,0,0,1-1.1-4.65,9.15,9.15,0,0,1,1.14-4.62,7.85,7.85,0,0,1,3.09-3.09,9.54,9.54,0,0,1,8.78,0,7.89,7.89,0,0,1,3.1,3.07,9.17,9.17,0,0,1,1.14,4.64,9.07,9.07,0,0,1-1.17,4.65,8.11,8.11,0,0,1-3.16,3.1,9,9,0,0,1-4.42,1.09A8.73,8.73,0,0,1,371,669.93Zm7.21-2.12a5.44,5.44,0,0,0,2.17-2.14,6.91,6.91,0,0,0,.82-3.49,7,7,0,0,0-.81-3.49,5.3,5.3,0,0,0-2.12-2.13,6.11,6.11,0,0,0-5.68,0,5.19,5.19,0,0,0-2.07,2.13,7.23,7.23,0,0,0-.78,3.49,7.41,7.41,0,0,0,.77,3.52,5.06,5.06,0,0,0,2,2.13,5.68,5.68,0,0,0,2.8.7A6,6,0,0,0,378.22,667.81Z"/><path class="cls-3" d="M391.3,656v10.06a2.36,2.36,0,0,0,.53,1.76,2.6,2.6,0,0,0,1.83.51h2.09v2.4H393.2a5.06,5.06,0,0,1-3.55-1.09,4.68,4.68,0,0,1-1.19-3.58V656h-2.21v-2.33h2.21v-4.3h2.84v4.3h4.45V656Z"/><path class="cls-3" d="M399.17,657.56a7.72,7.72,0,0,1,2.92-3.07,7.93,7.93,0,0,1,4.12-1.09,7.61,7.61,0,0,1,3.89,1,6.52,6.52,0,0,1,2.46,2.43v-3.11h2.87v17.06h-2.87v-3.18a6.61,6.61,0,0,1-2.5,2.48,7.58,7.58,0,0,1-3.88,1,7.69,7.69,0,0,1-4.11-1.12,7.89,7.89,0,0,1-2.9-3.15,9.81,9.81,0,0,1-1.05-4.6A9.6,9.6,0,0,1,399.17,657.56Zm12.61,1.26a5.5,5.5,0,0,0-2.1-2.2,5.95,5.95,0,0,0-5.8,0,5.34,5.34,0,0,0-2.09,2.17,7,7,0,0,0-.78,3.37,7.12,7.12,0,0,0,.78,3.41,5.51,5.51,0,0,0,2.09,2.21,5.6,5.6,0,0,0,2.89.76,5.7,5.7,0,0,0,2.91-.76,5.53,5.53,0,0,0,2.1-2.21,7,7,0,0,0,.78-3.38A6.89,6.89,0,0,0,411.78,658.82Zm-1.43-10-6.63,3.55v-2.11l6.63-3.9Z"/><path class="cls-3" d="M951,617.33a5.89,5.89,0,0,0,1.3.41,10.56,10.56,0,0,1,5.8,4.17,8.49,8.49,0,0,1,1.3,5,10,10,0,0,1-1.15,4.83,11.49,11.49,0,0,1-3.08,3.64,14.07,14.07,0,0,1-4.45,2.27,17.72,17.72,0,0,1-5.26.78,14.24,14.24,0,0,1-6.61-1.37,13.42,13.42,0,0,1-4.17-3.24,11.31,11.31,0,0,1-2.18-3.86,11.71,11.71,0,0,1-.62-3.3,3,3,0,0,1,.44-1.59,4.16,4.16,0,0,1,1.12-1.21,5,5,0,0,1,1.52-.75,5.82,5.82,0,0,1,1.59-.25,9.16,9.16,0,0,1,1,.07,9.77,9.77,0,0,1,1.3.21,4,4,0,0,1,1.16.47.93.93,0,0,1,.49.81,13.83,13.83,0,0,0,.19,1.46,10.33,10.33,0,0,0,.72,2.4,7,7,0,0,0,1.52,2.24,3.54,3.54,0,0,0,2.62,1,5.82,5.82,0,0,0,1.62-.25,5.13,5.13,0,0,0,1.62-.81,4.29,4.29,0,0,0,1.24-1.56,5.55,5.55,0,0,0,.5-2.49,7.36,7.36,0,0,0-.28-2,6.68,6.68,0,0,0-.81-1.84,5.22,5.22,0,0,0-1.22-1.33,2.41,2.41,0,0,0-1.55-.53,3,3,0,0,1-2.46-.94,3.46,3.46,0,0,1-.78-2.3,3,3,0,0,1,.84-2.43,3.71,3.71,0,0,1,2-.81,2.89,2.89,0,0,0,1.44-.72,5.88,5.88,0,0,0,1.21-1.49,10,10,0,0,0,.87-2,7.11,7.11,0,0,0,.35-2.15,5.77,5.77,0,0,0-.44-2.43,3.92,3.92,0,0,0-1.12-1.46,4,4,0,0,0-1.5-.72,7.13,7.13,0,0,0-1.55-.19,3.47,3.47,0,0,0-2.59,1,6.53,6.53,0,0,0-1.43,2.24,9.77,9.77,0,0,0-.59,2.4c-.08.77-.12,1.26-.12,1.46a.92.92,0,0,1-.5.81,3.81,3.81,0,0,1-1.15.47,10.24,10.24,0,0,1-1.31.22c-.44,0-.76.06-1,.06a5.52,5.52,0,0,1-1.59-.25,4.69,4.69,0,0,1-1.52-.75,4,4,0,0,1-1.12-1.21,3,3,0,0,1-.44-1.59,9.5,9.5,0,0,1,.78-3.3,13.38,13.38,0,0,1,2.4-3.86,14.91,14.91,0,0,1,4.14-3.24,12.3,12.3,0,0,1,5.95-1.37,17.67,17.67,0,0,1,5.44.81,12.81,12.81,0,0,1,4.33,2.31,10.8,10.8,0,0,1,2.83,3.55,9.94,9.94,0,0,1,1,4.54,8.55,8.55,0,0,1-1.28,4.89,11.66,11.66,0,0,1-2.77,3,10,10,0,0,1-2.77,1.49C951.38,617.07,951,617.25,951,617.33Z"/><path class="cls-3" d="M963.1,607a18.07,18.07,0,0,0,1.52-1.81c.56-.75,1.19-1.55,1.87-2.4s1.39-1.68,2.12-2.49a21.15,21.15,0,0,1,2.21-2.15,4.32,4.32,0,0,1,2-1,10.57,10.57,0,0,1,2.06-.22,7.93,7.93,0,0,1,3.42.68,2.47,2.47,0,0,1,1.44,2.43c0,.21,0,1.05,0,2.52s0,3.24-.09,5.3-.07,4.24-.09,6.56,0,4.45,0,6.36v3.42c0,1.33,0,2.63,0,3.89s0,2.38,0,3.33v1.81q0,3-1,4.11a4.51,4.51,0,0,1-3.36,1.06,7.61,7.61,0,0,1-1.72-.19,2.9,2.9,0,0,1-1.37-.75,3.59,3.59,0,0,1-.9-1.62,10.11,10.11,0,0,1-.31-2.8c0-.29,0-1,0-2.27s0-2.54.06-4,0-2.76.06-4,0-2.14,0-2.55c0-1.08,0-2,0-2.84l.06-2.43q0-1.21,0-2.64c0-1,0-2.12-.12-3.49a8.29,8.29,0,0,0-1.31,1.53,7.8,7.8,0,0,1-1.25,1.46,7.27,7.27,0,0,1-1.74,1.21,3.45,3.45,0,0,1-1.43.35,1.5,1.5,0,0,1-1-.53,7.48,7.48,0,0,1-1-1.28,9.44,9.44,0,0,1-.77-1.52,3.65,3.65,0,0,1-.32-1.28A2.79,2.79,0,0,1,963.1,607Z"/><path class="cls-3" d="M986.39,633a10.82,10.82,0,0,1,2.11-2.77q1.56-1.59,3.55-3.52c1.33-1.29,2.72-2.65,4.17-4.11a42.9,42.9,0,0,0,4-4.58,27.81,27.81,0,0,0,3-4.91,12.16,12.16,0,0,0,1.18-5.14,5.77,5.77,0,0,0-.44-2.43,3.82,3.82,0,0,0-1.12-1.46,3.89,3.89,0,0,0-1.49-.72,7.22,7.22,0,0,0-1.56-.19,3.43,3.43,0,0,0-2.58,1,6.39,6.39,0,0,0-1.43,2.24,9.81,9.81,0,0,0-.6,2.4c-.08.77-.12,1.26-.12,1.46a.92.92,0,0,1-.5.81,3.61,3.61,0,0,1-1.15.47,10,10,0,0,1-1.31.22c-.43,0-.76.06-1,.06a5.47,5.47,0,0,1-1.59-.25,4.74,4.74,0,0,1-1.53-.75,4.17,4.17,0,0,1-1.12-1.21,3,3,0,0,1-.43-1.59,9.5,9.5,0,0,1,.78-3.3,13.12,13.12,0,0,1,2.39-3.86,14.91,14.91,0,0,1,4.14-3.24,12.33,12.33,0,0,1,6-1.37,17.15,17.15,0,0,1,5.45.84,12.73,12.73,0,0,1,4.33,2.4,11.07,11.07,0,0,1,2.83,3.8,12,12,0,0,1,1,5,14.25,14.25,0,0,1-.94,5.08,21.75,21.75,0,0,1-2.46,4.67,35.67,35.67,0,0,1-3.42,4.2c-1.27,1.33-2.55,2.57-3.86,3.74s-2.57,2.24-3.77,3.23-2.24,1.89-3.11,2.68c1,0,1.61,0,1.83,0l.66,0c.33,0,1.05,0,2.15-.09l3.58-.22,3.61-.22c1.12-.06,1.89-.09,2.3-.09a3.29,3.29,0,0,1,1.87.43,2.24,2.24,0,0,1,.84,1.06,3.11,3.11,0,0,1,.19,1.22q0,.59,0,1a8.29,8.29,0,0,1-.1,1.18,2.67,2.67,0,0,1-.43,1.12,2.54,2.54,0,0,1-1.06.84,4.58,4.58,0,0,1-2,.35c-.38,0-1.07,0-2.09-.07l-3.3-.12-3.39-.12c-1.08-.05-1.85-.07-2.31-.07l-1.71,0-2.3.1-2.34.09-1.68,0a6.79,6.79,0,0,1-2.18-.28,3.36,3.36,0,0,1-1.24-.68,2.21,2.21,0,0,1-.6-.87,3,3,0,0,1-.15-.91,10,10,0,0,1,.12-1.34A4.32,4.32,0,0,1,986.39,633Z"/><path class="cls-3" d="M1049.27,626.86c-2,.08-3.86.1-5.6.06s-3.61-.06-5.61-.06a17.93,17.93,0,0,1-1.83-.1,6.69,6.69,0,0,1-1.9-.43,4.16,4.16,0,0,1-1.5-1,2.46,2.46,0,0,1-.62-1.77,5.7,5.7,0,0,1,1-3.24q4-5.91,7.84-11.33t8.35-11a3.93,3.93,0,0,1,1.83-1.28,6.68,6.68,0,0,1,2.21-.4,8.28,8.28,0,0,1,1.5.15,6.31,6.31,0,0,1,1.52.5,3.5,3.5,0,0,1,1.19.9,2.2,2.2,0,0,1,.46,1.44q0,5.16-.28,9.8c-.18,3.1-.28,6.37-.28,9.81v1.18q.81,0,1.5,0a3.47,3.47,0,0,1,1.21.28,1.75,1.75,0,0,1,.81.78,3.51,3.51,0,0,1,.28,1.59c0,.79,0,1.43-.06,1.93a1.86,1.86,0,0,1-.44,1.15,2,2,0,0,1-1.12.56,10,10,0,0,1-2,.16v1.87l.06,3.73v1.87c0,1.74-.43,2.9-1.28,3.46a6.6,6.6,0,0,1-3.64.84,3.2,3.2,0,0,1-2.83-1.31,5.35,5.35,0,0,1-.9-3.11Q1049.09,630.41,1049.27,626.86Zm-7.34-6.54h2l3.67-.06h2c.05-.58.07-1.14.07-1.68v-4l-.13-4.54v-2.31q-2.05,3.18-3.89,6.23C1044.41,616,1043.17,618.12,1041.93,620.32Z"/><path class="cls-3" d="M1083.52,617.33a5.88,5.88,0,0,0,1.31.41,10.59,10.59,0,0,1,5.79,4.17,8.49,8.49,0,0,1,1.3,5,10,10,0,0,1-1.15,4.83,11.36,11.36,0,0,1-3.08,3.64,14.07,14.07,0,0,1-4.45,2.27,17.72,17.72,0,0,1-5.26.78,14.17,14.17,0,0,1-6.6-1.37,13.35,13.35,0,0,1-4.18-3.24A11.28,11.28,0,0,1,1065,630a11.43,11.43,0,0,1-.63-3.3,3,3,0,0,1,.44-1.59,4.16,4.16,0,0,1,1.12-1.21,5.14,5.14,0,0,1,1.52-.75,5.88,5.88,0,0,1,1.59-.25,9.16,9.16,0,0,1,1,.07,10.19,10.19,0,0,1,1.31.21,4.08,4.08,0,0,1,1.15.47.94.94,0,0,1,.5.81,12.8,12.8,0,0,0,.18,1.46,10.84,10.84,0,0,0,.72,2.4,7,7,0,0,0,1.52,2.24,3.54,3.54,0,0,0,2.62,1,5.76,5.76,0,0,0,1.62-.25,5.13,5.13,0,0,0,1.62-.81,4.29,4.29,0,0,0,1.24-1.56,5.55,5.55,0,0,0,.5-2.49,7.36,7.36,0,0,0-.28-2,6.68,6.68,0,0,0-.81-1.84,5.37,5.37,0,0,0-1.21-1.33,2.46,2.46,0,0,0-1.56-.53,3,3,0,0,1-2.46-.94,3.46,3.46,0,0,1-.78-2.3,3,3,0,0,1,.84-2.43,3.71,3.71,0,0,1,2-.81,2.9,2.9,0,0,0,1.43-.72,5.88,5.88,0,0,0,1.21-1.49,9.43,9.43,0,0,0,.87-2,7.11,7.11,0,0,0,.35-2.15,5.77,5.77,0,0,0-.44-2.43,3.82,3.82,0,0,0-1.12-1.46,4,4,0,0,0-1.49-.72,7.22,7.22,0,0,0-1.56-.19,3.43,3.43,0,0,0-2.58,1,6.41,6.41,0,0,0-1.44,2.24,9.77,9.77,0,0,0-.59,2.4c-.08.77-.12,1.26-.12,1.46a.92.92,0,0,1-.5.81,3.71,3.71,0,0,1-1.15.47,10,10,0,0,1-1.31.22c-.44,0-.76.06-1,.06a5.45,5.45,0,0,1-1.58-.25,4.74,4.74,0,0,1-1.53-.75,4,4,0,0,1-1.12-1.21,3,3,0,0,1-.44-1.59,9.5,9.5,0,0,1,.78-3.3,13.38,13.38,0,0,1,2.4-3.86,14.91,14.91,0,0,1,4.14-3.24,12.3,12.3,0,0,1,6-1.37,17.78,17.78,0,0,1,5.45.81,12.76,12.76,0,0,1,4.32,2.31,10.83,10.83,0,0,1,2.84,3.55,10.06,10.06,0,0,1,1,4.54,8.62,8.62,0,0,1-1.27,4.89,11.84,11.84,0,0,1-2.77,3,10.13,10.13,0,0,1-2.77,1.49C1083.94,617.07,1083.52,617.25,1083.52,617.33Z"/><path class="cls-3" d="M1115.34,617.33a5.89,5.89,0,0,0,1.3.41,10.57,10.57,0,0,1,2.9,1.33,10.35,10.35,0,0,1,2.89,2.84,8.42,8.42,0,0,1,1.31,5,10,10,0,0,1-1.15,4.83,11.49,11.49,0,0,1-3.08,3.64,14.07,14.07,0,0,1-4.45,2.27,17.79,17.79,0,0,1-5.27.78,14.22,14.22,0,0,1-6.6-1.37,13.42,13.42,0,0,1-4.17-3.24,11.31,11.31,0,0,1-2.18-3.86,11.71,11.71,0,0,1-.62-3.3,2.93,2.93,0,0,1,.44-1.59,4.16,4.16,0,0,1,1.12-1.21,5,5,0,0,1,1.52-.75,5.82,5.82,0,0,1,1.59-.25,8.85,8.85,0,0,1,1,.07,9.66,9.66,0,0,1,1.31.21,3.85,3.85,0,0,1,1.15.47.92.92,0,0,1,.5.81,11.46,11.46,0,0,0,.19,1.46,9.87,9.87,0,0,0,.72,2.4,7,7,0,0,0,1.52,2.24,3.52,3.52,0,0,0,2.62,1,5.87,5.87,0,0,0,1.62-.25,5,5,0,0,0,1.61-.81,4.21,4.21,0,0,0,1.25-1.56,5.55,5.55,0,0,0,.5-2.49,7.79,7.79,0,0,0-.28-2,6.68,6.68,0,0,0-.81-1.84,5.4,5.4,0,0,0-1.22-1.33,2.41,2.41,0,0,0-1.55-.53,3,3,0,0,1-2.46-.94,3.46,3.46,0,0,1-.78-2.3,3,3,0,0,1,.84-2.43,3.68,3.68,0,0,1,2-.81,2.89,2.89,0,0,0,1.44-.72,5.88,5.88,0,0,0,1.21-1.49,10,10,0,0,0,.87-2,7.09,7.09,0,0,0,.34-2.15,5.78,5.78,0,0,0-.43-2.43,3.92,3.92,0,0,0-1.12-1.46,4,4,0,0,0-1.5-.72,7.21,7.21,0,0,0-1.55-.19,3.46,3.46,0,0,0-2.59,1,6.53,6.53,0,0,0-1.43,2.24,9.77,9.77,0,0,0-.59,2.4c-.09.77-.13,1.26-.13,1.46a.91.91,0,0,1-.49.81,3.77,3.77,0,0,1-1.16.47,9.81,9.81,0,0,1-1.3.22c-.44,0-.76.06-1,.06a5.47,5.47,0,0,1-1.59-.25,4.6,4.6,0,0,1-1.52-.75,4,4,0,0,1-1.12-1.21,3,3,0,0,1-.44-1.59,9.5,9.5,0,0,1,.78-3.3,13.38,13.38,0,0,1,2.4-3.86,14.91,14.91,0,0,1,4.14-3.24,12.29,12.29,0,0,1,5.94-1.37,17.73,17.73,0,0,1,5.45.81,12.81,12.81,0,0,1,4.33,2.31,10.8,10.8,0,0,1,2.83,3.55,9.94,9.94,0,0,1,1,4.54,8.62,8.62,0,0,1-1.28,4.89,11.66,11.66,0,0,1-2.77,3,10,10,0,0,1-2.77,1.49C1115.76,617.07,1115.34,617.25,1115.34,617.33Z"/><path class="cls-3" d="M1158.17,639.93a13.85,13.85,0,0,1-6.53-1.4,11.42,11.42,0,0,1-4.36-4,18,18,0,0,1-2.43-6.26,41.25,41.25,0,0,1-.75-8.22,81.29,81.29,0,0,1,.53-9.62,23,23,0,0,1,2.09-7.53A11.84,11.84,0,0,1,1151,598a13.08,13.08,0,0,1,7.1-1.74,14.78,14.78,0,0,1,7.19,1.52,11.18,11.18,0,0,1,4.36,4.27,18,18,0,0,1,2.15,6.5,56.72,56.72,0,0,1,.56,8.25,55.45,55.45,0,0,1-.78,9.84,22.51,22.51,0,0,1-2.49,7.26,11.82,11.82,0,0,1-4.39,4.48A13.07,13.07,0,0,1,1158.17,639.93Zm-5.1-21.48q0,3.12.15,5.73a22.68,22.68,0,0,0,.66,4.48,6.75,6.75,0,0,0,1.49,2.93,3.56,3.56,0,0,0,2.74,1.06,4.21,4.21,0,0,0,3.08-1.06,6.41,6.41,0,0,0,1.62-3,21,21,0,0,0,.62-4.7q.1-2.75.1-6t-.19-6a21.73,21.73,0,0,0-.75-4.64,6.68,6.68,0,0,0-1.61-3,3.88,3.88,0,0,0-2.81-1,3.45,3.45,0,0,0-2.77,1.21,7.91,7.91,0,0,0-1.52,3.3,27.61,27.61,0,0,0-.66,4.86Q1153.07,615.34,1153.07,618.45Z"/><path class="cls-3" d="M1189.49,617.58a15.61,15.61,0,0,0-2.86.22c-.79.14-1.53.29-2.21.43l-2.06.44a10.92,10.92,0,0,1-2.33.22,3.52,3.52,0,0,1-1.18-.19,3.47,3.47,0,0,1-1-.53,3.24,3.24,0,0,1-.72-.71,1,1,0,0,1-.18-.75c.12-1.25.24-2.56.37-4s.25-2.8.37-4.23.25-2.84.38-4.23.22-2.71.31-4a7.37,7.37,0,0,1,.25-1.43,2.75,2.75,0,0,1,.68-1.21,3.26,3.26,0,0,1,1.46-.84,8.38,8.38,0,0,1,2.53-.32h1.3c.67,0,1.41,0,2.25,0s1.69,0,2.58,0h2.27q1.3,0,2.31,0c.66,0,1.27,0,1.83,0s1.11,0,1.65,0,1.14,0,1.81,0a2,2,0,0,1,1.74.84,3.72,3.72,0,0,1,.62,2.28,4.67,4.67,0,0,1-.59,2.55,2,2,0,0,1-1.83.93h-13.45c-.21,1.7-.39,3.28-.53,4.73s-.32,3.06-.53,4.8c.37-.17,1.1-.45,2.18-.84a12.43,12.43,0,0,1,4.23-.59,14,14,0,0,1,5.08.9,12.07,12.07,0,0,1,4.07,2.58,11.42,11.42,0,0,1,2.71,4.14,16.4,16.4,0,0,1-.18,11.59,13,13,0,0,1-3.09,4.42,13.48,13.48,0,0,1-4.45,2.71,15.06,15.06,0,0,1-5.26.93,14.17,14.17,0,0,1-6.6-1.37,13.42,13.42,0,0,1-4.17-3.24A11.14,11.14,0,0,1,1177,630a11.37,11.37,0,0,1-.62-3.3,3,3,0,0,1,.43-1.59,4.3,4.3,0,0,1,1.12-1.21,5.19,5.19,0,0,1,1.53-.75,5.82,5.82,0,0,1,1.59-.25,8.26,8.26,0,0,1,.93.07,9.06,9.06,0,0,1,1.25.21,3.71,3.71,0,0,1,1.09.47.94.94,0,0,1,.46.81,11.86,11.86,0,0,0,.22,2.05,9.7,9.7,0,0,0,.78,2.43,5.7,5.7,0,0,0,1.59,2,4,4,0,0,0,2.64.84,3.87,3.87,0,0,0,1.62-.41,5,5,0,0,0,1.62-1.24,7,7,0,0,0,1.25-2.18,9.26,9.26,0,0,0,.49-3.21,11.52,11.52,0,0,0-.28-2.52,6.79,6.79,0,0,0-.93-2.3,5.41,5.41,0,0,0-1.71-1.69A5,5,0,0,0,1189.49,617.58Z"/><path class="cls-3" d="M1221.06,638.81q-6.78,0-10.65-3t-3.86-8.72a11.59,11.59,0,0,1,1.75-6.63,9,9,0,0,1,5-3.58,8.3,8.3,0,0,1-4.42-3.36,10,10,0,0,1-1.62-5.67,10.65,10.65,0,0,1,1-4.67,11.05,11.05,0,0,1,2.84-3.64,12.94,12.94,0,0,1,4.36-2.36,17.83,17.83,0,0,1,5.6-.84,17,17,0,0,1,5.51.84,12.9,12.9,0,0,1,4.23,2.33,10,10,0,0,1,2.74,3.64,11.43,11.43,0,0,1,1,4.77,10.4,10.4,0,0,1-1.49,5.66,7.83,7.83,0,0,1-4.24,3.3,10.23,10.23,0,0,1,5,3.24,9.55,9.55,0,0,1,2,6.41q0,5.92-4,9.13T1221.06,638.81Zm-.12-18.8a5.08,5.08,0,0,0-4.3,2,7.52,7.52,0,0,0-1.49,4.7,7.07,7.07,0,0,0,1.43,4.55,5.52,5.52,0,0,0,4.6,1.8c2.08,0,3.57-.59,4.49-1.77a7.32,7.32,0,0,0,1.37-4.58,7.8,7.8,0,0,0-1.43-4.7Q1224.17,620,1220.94,620Zm-5.17-12.08a7.23,7.23,0,0,0,1.37,4.54,4.49,4.49,0,0,0,3.8,1.81,3.76,3.76,0,0,0,1.9-.53,5.34,5.34,0,0,0,1.58-1.43,7.19,7.19,0,0,0,1.09-2.12,7.92,7.92,0,0,0,.41-2.52,5.32,5.32,0,0,0-1.31-3.77,5,5,0,0,0-3.8-1.4,4.86,4.86,0,0,0-3.77,1.4A5.79,5.79,0,0,0,1215.77,607.93Z"/><path class="cls-3" d="M1252.63,617.58a15.73,15.73,0,0,0-2.87.22c-.78.14-1.52.29-2.21.43l-2,.44a11,11,0,0,1-2.34.22,3.6,3.6,0,0,1-1.18-.19,3.73,3.73,0,0,1-1-.53,3,3,0,0,1-.71-.71,1,1,0,0,1-.19-.75c.13-1.25.25-2.56.37-4s.25-2.8.38-4.23.25-2.84.37-4.23.23-2.71.31-4a8.21,8.21,0,0,1,.25-1.43,2.77,2.77,0,0,1,.69-1.21,3.26,3.26,0,0,1,1.46-.84,8.26,8.26,0,0,1,2.52-.32h1.31c.66,0,1.41,0,2.24,0s1.69,0,2.59,0h2.27c.87,0,1.64,0,2.3,0s1.28,0,1.84,0,1.11,0,1.65,0,1.14,0,1.8,0a2.06,2.06,0,0,1,1.75.84,3.78,3.78,0,0,1,.62,2.28,4.76,4.76,0,0,1-.59,2.55,2,2,0,0,1-1.84.93h-13.45c-.21,1.7-.38,3.28-.53,4.73s-.32,3.06-.53,4.8c.38-.17,1.1-.45,2.18-.84a12.46,12.46,0,0,1,4.24-.59,14,14,0,0,1,5.07.9,12,12,0,0,1,4.08,2.58,11.55,11.55,0,0,1,2.71,4.14,15.25,15.25,0,0,1,1,5.58,14.91,14.91,0,0,1-1.15,6,13,13,0,0,1-3.08,4.42,13.58,13.58,0,0,1-4.45,2.71,15.1,15.1,0,0,1-5.26.93,14.17,14.17,0,0,1-6.6-1.37,13.19,13.19,0,0,1-4.17-3.24,11.14,11.14,0,0,1-2.18-3.86,11.43,11.43,0,0,1-.63-3.3,3,3,0,0,1,.44-1.59,4.16,4.16,0,0,1,1.12-1.21,5.14,5.14,0,0,1,1.52-.75,5.88,5.88,0,0,1,1.59-.25,8.4,8.4,0,0,1,.94.07,8.92,8.92,0,0,1,1.24.21,3.49,3.49,0,0,1,1.09.47,1,1,0,0,1,.47.81,11.86,11.86,0,0,0,.22,2.05,9,9,0,0,0,.78,2.43,5.79,5.79,0,0,0,1.58,2,4.06,4.06,0,0,0,2.65.84,3.87,3.87,0,0,0,1.62-.41,5,5,0,0,0,1.62-1.24,6.78,6.78,0,0,0,1.24-2.18,9.25,9.25,0,0,0,.5-3.21,11.52,11.52,0,0,0-.28-2.52,7.22,7.22,0,0,0-.93-2.3,5.34,5.34,0,0,0-1.72-1.69A4.9,4.9,0,0,0,1252.63,617.58Z"/><path class="cls-3" d="M941.61,671.32a37.92,37.92,0,0,0,5.67-6.39,11.56,11.56,0,0,0,2.31-6.57,7.21,7.21,0,0,0-1.47-4.78q-1.47-1.76-4.74-1.75a6.22,6.22,0,0,0-4.92,2,8.26,8.26,0,0,0-1.89,5.3h-4.11c.12-3.48,1.18-6.18,3.17-8.08a12,12,0,0,1,15.34-.18,9.55,9.55,0,0,1,2.83,7.33,14,14,0,0,1-2.31,7.54,33.48,33.48,0,0,1-5.26,6.44q-2.94,2.79-7.52,6.47h16.07v3.55H932.32v-3Q938.24,674.38,941.61,671.32Z"/><path class="cls-3" d="M980.46,652.11l-13,30.44h-4.3l13.17-30h-18v-3.65h22.13Z"/><path class="cls-3" d="M984.15,675v-3.23l16.39-22.69h5.09v22.23h4.67V675h-4.67v7.51h-4.2V675Zm17.47-21.49-12.56,17.8h12.56Z"/><path class="cls-3" d="M1047.8,652.11l-13,30.44h-4.3l13.17-30h-18v-3.65h22.13Z"/><path class="cls-3" d="M1055.13,652.78q2.63-4.5,9.16-4.5t9.1,4.5q2.63,4.51,2.62,12.54T1073.39,678q-2.61,4.53-9.1,4.52t-9.16-4.52q-2.61-4.53-2.61-12.71Q1052.52,657.3,1055.13,652.78Zm16.14,5.65a8.74,8.74,0,0,0-2.2-4.55,6.32,6.32,0,0,0-4.78-1.73,6.42,6.42,0,0,0-4.84,1.73,8.81,8.81,0,0,0-2.19,4.55,37.45,37.45,0,0,0-.54,6.89,38.64,38.64,0,0,0,.54,7,8.83,8.83,0,0,0,2.19,4.58,6.42,6.42,0,0,0,4.84,1.73,6.32,6.32,0,0,0,4.78-1.73,8.76,8.76,0,0,0,2.2-4.58,38.64,38.64,0,0,0,.54-7A37.45,37.45,0,0,0,1071.27,658.43Z"/><path class="cls-3" d="M1106.74,651.64a6.89,6.89,0,0,0-6.21,3.2q-2.05,3.2-2,10.53a7.92,7.92,0,0,1,3.57-3.81,11.47,11.47,0,0,1,5.58-1.37,10.15,10.15,0,0,1,7.68,3c1.92,2,2.87,4.75,2.87,8.27a12.83,12.83,0,0,1-1.23,5.7,9.44,9.44,0,0,1-3.74,4,11.53,11.53,0,0,1-6,1.5,11.85,11.85,0,0,1-7.52-2.15,11.28,11.28,0,0,1-3.78-5.93,35,35,0,0,1-1.07-9.34q0-17.15,12-17.14a9.59,9.59,0,0,1,10.28,8.73h-3.93Q1112.11,651.65,1106.74,651.64Zm-3.74,13a6.79,6.79,0,0,0-2.87,2.47,7.2,7.2,0,0,0-1.1,4,8.15,8.15,0,0,0,2.06,5.77,7.62,7.62,0,0,0,5.88,2.22,6.89,6.89,0,0,0,5.21-2,7.65,7.65,0,0,0,1.94-5.49,8.28,8.28,0,0,0-1.87-5.72,7,7,0,0,0-5.47-2.08A8.83,8.83,0,0,0,1103,664.6Z"/><path class="cls-3" d="M1126.12,662a8,8,0,0,1-1.4-4.77,8.44,8.44,0,0,1,1.26-4.55,8.63,8.63,0,0,1,3.76-3.22,15.95,15.95,0,0,1,12.09,0,8.75,8.75,0,0,1,3.78,3.22,8.3,8.3,0,0,1,1.29,4.55,8,8,0,0,1-1.45,4.74,8.58,8.58,0,0,1-4,3,8.91,8.91,0,0,1,4.6,3.1,8.5,8.5,0,0,1,1.71,5.35,9.38,9.38,0,0,1-1.5,5.3,9.66,9.66,0,0,1-4.23,3.5,15,15,0,0,1-6.28,1.24,14.68,14.68,0,0,1-6.23-1.24,9.75,9.75,0,0,1-4.18-3.5,9.38,9.38,0,0,1-1.5-5.3,8.69,8.69,0,0,1,1.69-5.37,8.44,8.44,0,0,1,4.57-3.08A8.74,8.74,0,0,1,1126.12,662Zm4,6.46a5.63,5.63,0,0,0-2.19,4.84,6.05,6.05,0,0,0,2.12,4.81,8.53,8.53,0,0,0,5.72,1.82,8.42,8.42,0,0,0,5.7-1.82,6.07,6.07,0,0,0,2.1-4.81,5.67,5.67,0,0,0-2.15-4.79,9,9,0,0,0-5.65-1.66A9.36,9.36,0,0,0,1130.13,668.47Zm10.79-15.1a7.84,7.84,0,0,0-5.14-1.54,7.75,7.75,0,0,0-5.09,1.54,5.42,5.42,0,0,0-1.86,4.43,5.17,5.17,0,0,0,1.93,4.21,8.78,8.78,0,0,0,10.09,0,5.22,5.22,0,0,0,1.94-4.22A5.39,5.39,0,0,0,1140.92,653.37Z"/><path class="cls-3" d="M519.36,821a3.67,3.67,0,0,1-1.35,3,5.76,5.76,0,0,1-3.73,1.1,13.66,13.66,0,0,1-1.88-.16,9.64,9.64,0,0,1-2.2-.58,5.39,5.39,0,0,1-1.84-1.14,2.47,2.47,0,0,1-.78-1.88c0-3,.13-5.88.41-8.79s.56-5.84.86-8.75.58-5.84.85-8.75.41-5.85.41-8.8a3.06,3.06,0,0,1,1.31-2.69,5.5,5.5,0,0,1,3.19-.9c2.56,0,3.85,1.14,3.85,3.43q0,8.83.45,17.42C519.2,809.24,519.36,815.08,519.36,821Zm-10.64-45.8a6.18,6.18,0,0,1,.37-2,5.78,5.78,0,0,1,1.11-1.92,6.22,6.22,0,0,1,1.8-1.43,5.25,5.25,0,0,1,2.53-.57,5.94,5.94,0,0,1,3.8,1.34,4.7,4.7,0,0,1,1.68,3.89,5.69,5.69,0,0,1-1.31,3.72,5,5,0,0,1-4.09,1.6,6.91,6.91,0,0,1-4.13-1.27A4,4,0,0,1,508.72,775.22Z"/><path class="cls-3" d="M540.7,813a31.49,31.49,0,0,1-1-3.44q-.66-2.61-1.51-6.3c-.58-2.45-1.19-5.15-1.85-8.09s-1.29-5.9-1.92-8.87l-1.8-8.63c-.57-2.78-1-5.24-1.43-7.36H529c-2.23,0-3.27-1.64-3.1-4.91a6,6,0,0,1,.86-3.39,2.8,2.8,0,0,1,2.16-1.11l5.4-.33q.49-.08,1-.12c.36,0,.75,0,1.19,0a20.79,20.79,0,0,1,3.31.29,2.94,2.94,0,0,1,2.41,2,19.33,19.33,0,0,1,.62,2.9q.36,2.25.81,5.48t1,7.24c.38,2.67.77,5.43,1.18,8.26s.83,5.66,1.27,8.47.87,5.43,1.31,7.89c.49-2.24,1-4.7,1.59-7.4s1.15-5.44,1.72-8.22l1.68-8.22,1.47-7.36c.43-2.21.79-4.09,1.06-5.64s.44-2.58.49-3.07a2.76,2.76,0,0,1,.49-1.43,2.38,2.38,0,0,1,1-.78,5.48,5.48,0,0,1,1.43-.33c.54,0,1.11-.08,1.71-.08a12,12,0,0,1,1.6.16,11,11,0,0,1,2,.54,5.19,5.19,0,0,1,1.76,1,2,2,0,0,1,.74,1.55,31.25,31.25,0,0,1-.7,4.83q-.69,3.6-1.8,8.38t-2.41,10.22q-1.3,5.45-2.57,10.47t-2.29,9.12c-.69,2.73-1.22,4.74-1.6,6a2,2,0,0,1-.94,1.06,7.44,7.44,0,0,1-1.92.82,16,16,0,0,1-2.58.49,25.23,25.23,0,0,1-2.9.17,16,16,0,0,1-4.42-.58C541.79,814.34,541,813.77,540.7,813Z"/><path class="cls-3" d="M589.36,760.18a1.55,1.55,0,0,1,1.14.49,3.38,3.38,0,0,1,.78,1.26,8,8,0,0,1,.41,1.72,14.07,14.07,0,0,1,.12,1.76,8,8,0,0,1-.78,3.39,2.58,2.58,0,0,1-2.49,1.68h-2v5.23c0,1.75,0,3.49-.09,5.24l-.16,11.86q-.07,3-.08,6v6h2.7a2.6,2.6,0,0,1,2.49,1.67,8,8,0,0,1,.78,3.4,14.07,14.07,0,0,1-.12,1.76,8.4,8.4,0,0,1-.41,1.71,3.42,3.42,0,0,1-.78,1.27,1.56,1.56,0,0,1-1.14.49l-18-.49q-2.13,0-2.61-3.84c-.6-4.09.32-6.14,2.78-6.14h2.53V799c0-1.82,0-3.69.08-5.6l.17-12.27c.05-1.74.08-3.49.08-5.23v-5.24h-3.19q-3.67,0-2.78-6.13.5-3.84,2.62-3.84Z"/><path class="cls-3" d="M604.73,803.27a5,5,0,0,0,2.54,2.7,9.28,9.28,0,0,0,4.66,1.15,5.13,5.13,0,0,0,5.48-5.24,4.17,4.17,0,0,0-1.72-3.23,30.85,30.85,0,0,0-4.25-2.9c-1.69-1-3.55-2-5.56-3.19a30.5,30.5,0,0,1-5.56-4,21,21,0,0,1-4.26-5.35,14.65,14.65,0,0,1-1.71-7.24,16.12,16.12,0,0,1,5-11.86,16.29,16.29,0,0,1,5.56-3.43,19.45,19.45,0,0,1,7-1.23,16.77,16.77,0,0,1,12.76,5.36,13.48,13.48,0,0,1,2.9,4.82,9.78,9.78,0,0,1,.53,4.62L627.06,781a2.16,2.16,0,0,1-.78,1.35,5.88,5.88,0,0,1-1.67,1,7.2,7.2,0,0,1-4.26.33,7.36,7.36,0,0,1-2.53-1.31,2.14,2.14,0,0,1-1-2.05l.81-6a3.36,3.36,0,0,0-.24-1.92,5.16,5.16,0,0,0-1.19-1.68,6.88,6.88,0,0,0-1.8-1.22,5.08,5.08,0,0,0-2.25-.49,5.61,5.61,0,0,0-4.41,2.08,7.67,7.67,0,0,0-1.8,5.2,6.55,6.55,0,0,0,1.76,4.66,19.16,19.16,0,0,0,4.33,3.39q2.58,1.51,5.64,2.94a33.69,33.69,0,0,1,5.65,3.32,18.49,18.49,0,0,1,4.33,4.41,10.81,10.81,0,0,1,1.76,6.3A12.81,12.81,0,0,1,628,807.4a14.49,14.49,0,0,1-4,4.67,18.94,18.94,0,0,1-5.76,3,22.36,22.36,0,0,1-11.82.49,22.6,22.6,0,0,1-4.58-1.55,14.37,14.37,0,0,1-3.52-2.29,6.73,6.73,0,0,1-1.92-2.78l-2.29-7.36a7.7,7.7,0,0,1-.29-1.8,5.9,5.9,0,0,1,.25-1.92,4.85,4.85,0,0,1,2.82-3.07,5,5,0,0,1,3.52-.16,2.92,2.92,0,0,1,2,1.47Z"/><path class="cls-3" d="M651.84,760.18a1.56,1.56,0,0,1,1.14.49,3.38,3.38,0,0,1,.78,1.26,8,8,0,0,1,.41,1.72,14.07,14.07,0,0,1,.12,1.76,8,8,0,0,1-.78,3.39,2.6,2.6,0,0,1-2.49,1.68h-2v5.23c0,1.75,0,3.49-.08,5.24l-.16,11.86c-.06,2-.08,4-.08,6v6h2.7a2.6,2.6,0,0,1,2.49,1.67,8,8,0,0,1,.78,3.4,12.48,12.48,0,0,1-.13,1.76,7.79,7.79,0,0,1-.4,1.71,3.55,3.55,0,0,1-.78,1.27,1.57,1.57,0,0,1-1.15.49l-18-.49q-2.13,0-2.61-3.84-.91-6.13,2.78-6.14h2.53V799c0-1.82,0-3.69.08-5.6l.17-12.27c0-1.74.08-3.49.08-5.23v-5.24H634q-3.68,0-2.78-6.13.49-3.84,2.62-3.84Zm-18.08-4.5a2.43,2.43,0,0,1,.74-1.72,19.34,19.34,0,0,1,2.13-2.13,29,29,0,0,1,2.94-2.24c1.09-.74,2.13-1.41,3.11-2a26.92,26.92,0,0,1,2.7-1.47,5,5,0,0,1,1.71-.57,4.56,4.56,0,0,1,1.48.28,8.16,8.16,0,0,1,1.55.74,5.17,5.17,0,0,1,1.27,1.1,2.66,2.66,0,0,1,.61,1.39c0,.55-.44,1.18-1.31,1.88a22.82,22.82,0,0,1-2.57,1.76c-1.12.69-2.47,1.57-4,2.66a25.07,25.07,0,0,1-4.46,2.66,7.74,7.74,0,0,1-2.82.69,1.73,1.73,0,0,1-.86-.32,5.6,5.6,0,0,1-1-.78,7.74,7.74,0,0,1-.82-1A1.79,1.79,0,0,1,633.76,755.68Z"/><path class="cls-3" d="M659.11,770.89a1.72,1.72,0,0,1-1.22-.45,3.78,3.78,0,0,1-.86-1.23,6.36,6.36,0,0,1-.53-1.8,12.56,12.56,0,0,1-.17-2,10,10,0,0,1,.54-3.39c.35-1,.91-1.52,1.67-1.52h3c1.36,0,2.9,0,4.62,0l5.4-.08,5.39-.08,4.62-.08c1.37,0,2.38,0,3,0a2.28,2.28,0,0,1,2.25,1.59,8.73,8.73,0,0,1,.78,3.72,8.16,8.16,0,0,1-.82,3.68,2.63,2.63,0,0,1-2.46,1.64c-.76,0-1.58,0-2.45-.08a32.76,32.76,0,0,0-3.92.08q-.16,10.05-.17,19.87v19.87c0,1.86-.53,3-1.59,3.56a9.45,9.45,0,0,1-4.13.78,7.41,7.41,0,0,1-4.25-1.11,3.62,3.62,0,0,1-1.64-3.23q0-9.64.16-19.79t0-19.87Z"/><path class="cls-3" d="M694.69,815.46a13.26,13.26,0,0,1-5-.86c-1.39-.57-2.09-1.24-2.09-2a19.76,19.76,0,0,1,.45-2.78q.45-2.21,1.23-5.52c.52-2.21,1.1-4.71,1.76-7.49s1.35-5.62,2.08-8.54,1.48-5.82,2.21-8.71,1.43-5.56,2.09-8l-3.93-.16A4.86,4.86,0,0,1,690,770a5.77,5.77,0,0,1-1.07-3.84,12.88,12.88,0,0,1,.25-2.62,8.33,8.33,0,0,1,.69-2.13,4.1,4.1,0,0,1,1.07-1.39,1.8,1.8,0,0,1,1.35-.41l21.18,1.48a1.18,1.18,0,0,1,1,.57,5.76,5.76,0,0,1,.73,1.55c.22.66.43,1.39.62,2.21s.37,1.66.53,2.54q.57,2.68,1.47,7.07t2,9.4q1.06,5,2.17,10.15c.74,3.4,1.38,6.5,1.92,9.28l2,.24q1.14.17,1.59,2a16.94,16.94,0,0,1,.45,4,6.1,6.1,0,0,1-.41,2.46,2.9,2.9,0,0,1-1.18,1.35,4.4,4.4,0,0,1-1.84.53c-.71,0-1.5.08-2.38.08a21.48,21.48,0,0,1-2.69-.16,16.13,16.13,0,0,1-2.7-.58,3.69,3.69,0,0,1-2-1.3,9.13,9.13,0,0,1-1.31-2.38,17.85,17.85,0,0,1-.85-3.06c-.22-1.12-.47-2.25-.74-3.4-1.26,0-2.54,0-3.84,0s-2.92,0-4.83,0h-1.47a7.83,7.83,0,0,0-1,.08c-.11.6-.22,1.3-.33,2.09s-.23,1.61-.37,2.45-.27,1.65-.41,2.42a12.14,12.14,0,0,1-.45,1.88,4.13,4.13,0,0,1-1.35,2.33A5.32,5.32,0,0,1,694.69,815.46Zm15.78-20.36c-.32-1.91-.64-3.74-.94-5.48s-.6-3.45-.9-5.11-.6-3.36-.9-5.07-.61-3.53-.94-5.44q-.74,3.6-1.39,6.46t-1.22,5.31c-.39,1.64-.74,3.21-1.07,4.71s-.62,3-.9,4.62Z"/><path class="cls-3" d="M732.55,771.54l-4.41.09a2.55,2.55,0,0,1-2.5-2,10.74,10.74,0,0,1-.28-5c.32-2.5,1.2-3.78,2.61-3.84l10-.49a2.77,2.77,0,0,1,.61-.08h.78a8.46,8.46,0,0,1,3,.57,5.41,5.41,0,0,1,2.41,1.72,10.44,10.44,0,0,1,1.35,2.21c.41.87.82,1.77,1.22,2.69s.79,1.86,1.15,2.79.69,1.74,1,2.45q1.14,2.7,2.21,4.86c.71,1.45,1.42,2.85,2.13,4.22s1.45,2.74,2.24,4.13,1.63,3,2.5,4.7c-.11-.93-.18-1.85-.21-2.78s0-1.85,0-2.78c0-2.13,0-4.09-.08-5.89s-.09-3.56-.12-5.28-.07-3.47-.12-5.27-.09-3.76-.09-5.89a1.6,1.6,0,0,1,.82-1.35,7,7,0,0,1,1.92-.82,12.13,12.13,0,0,1,2.17-.36c.71-.06,1.26-.09,1.64-.09a14.18,14.18,0,0,1,1.76.13,6,6,0,0,1,1.75.49,3.46,3.46,0,0,1,1.35,1,2.62,2.62,0,0,1,.54,1.72q0,12-.5,24t-.49,24a3.66,3.66,0,0,1-.49,2,2.81,2.81,0,0,1-1.26,1.06,5.18,5.18,0,0,1-1.8.37c-.69,0-1.35,0-2,0a5.64,5.64,0,0,1-3-.86,8.64,8.64,0,0,1-2.38-2.17,31.93,31.93,0,0,1-3.06-4.78q-1.35-2.58-2.58-5.11Q751,799.6,750,797.59t-2.08-4.05q-1.06-2-2.09-4.17t-2.25-4.74q.42,7,.53,13.17t.13,13.16a3.2,3.2,0,0,1-1.68,3.19,8.13,8.13,0,0,1-3.64.82,16.51,16.51,0,0,1-1.8-.12,11.34,11.34,0,0,1-2.08-.45,5.11,5.11,0,0,1-1.76-.94,2,2,0,0,1-.74-1.6Z"/><path class="cls-3" d="M794.79,816.11a21.16,21.16,0,0,1-9-1.75,15.3,15.3,0,0,1-6.09-5,22.56,22.56,0,0,1-3.44-8,47.17,47.17,0,0,1-1.1-10.67,94.11,94.11,0,0,1,.74-12.06,31.77,31.77,0,0,1,2.82-9.94,16.86,16.86,0,0,1,5.85-6.75q3.75-2.49,9.81-2.49a21.16,21.16,0,0,1,9.85,2,15,15,0,0,1,6,5.61,23.37,23.37,0,0,1,2.95,8.54,69.87,69.87,0,0,1,.77,10.84,71.85,71.85,0,0,1-1,12.84,27.4,27.4,0,0,1-3.27,9.28,15,15,0,0,1-5.89,5.64A19,19,0,0,1,794.79,816.11Zm-7.36-25.67c0,2.34.07,4.47.2,6.37a17.4,17.4,0,0,0,1,4.91,6.92,6.92,0,0,0,2.25,3.15,6.52,6.52,0,0,0,4,1.1,5.53,5.53,0,0,0,3.93-1.3,8.1,8.1,0,0,0,2.08-3.68,23.8,23.8,0,0,0,.82-5.73q.12-3.35.12-7.52,0-3.19-.24-6.34a25.19,25.19,0,0,0-1-5.6,9.76,9.76,0,0,0-2.25-4,5.11,5.11,0,0,0-3.84-1.51,4.52,4.52,0,0,0-3.76,1.76,12.23,12.23,0,0,0-2.13,4.62,34,34,0,0,0-.94,6.46C787.5,785.56,787.43,788,787.43,790.44Z"/><path class="cls-3" d="M827.75,803.27a4.93,4.93,0,0,0,2.53,2.7,9.31,9.31,0,0,0,4.66,1.15,5.13,5.13,0,0,0,5.48-5.24,4.17,4.17,0,0,0-1.72-3.23,30.85,30.85,0,0,0-4.25-2.9q-2.54-1.47-5.56-3.19a30.85,30.85,0,0,1-5.56-4,20.78,20.78,0,0,1-4.25-5.35,14.55,14.55,0,0,1-1.72-7.24,16,16,0,0,1,1.35-6.62,16,16,0,0,1,9.24-8.67,19.45,19.45,0,0,1,7-1.23,16.72,16.72,0,0,1,12.76,5.36,13.48,13.48,0,0,1,2.9,4.82,9.66,9.66,0,0,1,.53,4.62L850.07,781a2.07,2.07,0,0,1-.78,1.35,5.88,5.88,0,0,1-1.67,1,6.77,6.77,0,0,1-2.13.49,6.65,6.65,0,0,1-2.12-.16,7.4,7.4,0,0,1-2.54-1.31,2.16,2.16,0,0,1-1-2.05l.82-6a3.36,3.36,0,0,0-.25-1.92,5.13,5.13,0,0,0-1.18-1.68,6.88,6.88,0,0,0-1.8-1.22,5.11,5.11,0,0,0-2.25-.49,5.61,5.61,0,0,0-4.42,2.08,7.67,7.67,0,0,0-1.8,5.2,6.59,6.59,0,0,0,1.76,4.66,19.39,19.39,0,0,0,4.33,3.39q2.58,1.51,5.65,2.94a34,34,0,0,1,5.64,3.32,18.53,18.53,0,0,1,4.34,4.41,10.8,10.8,0,0,1,1.75,6.3A12.81,12.81,0,0,1,851,807.4a14.46,14.46,0,0,1-4,4.67,19.11,19.11,0,0,1-5.77,3,22.36,22.36,0,0,1-11.82.49,22.81,22.81,0,0,1-4.58-1.55,14.11,14.11,0,0,1-3.51-2.29,6.67,6.67,0,0,1-1.93-2.78l-2.29-7.36a7.22,7.22,0,0,1-.28-1.8,5.63,5.63,0,0,1,.24-1.92,4.89,4.89,0,0,1,1-1.76,5.12,5.12,0,0,1,5.36-1.47c1.09.38,1.75.87,2,1.47Z"/><path class="cls-3" d="M870.84,809a5.91,5.91,0,0,1-.37,2,5.75,5.75,0,0,1-1.1,1.92,6.25,6.25,0,0,1-1.8,1.44,5.28,5.28,0,0,1-2.53.57,5.92,5.92,0,0,1-3.81-1.35,4.73,4.73,0,0,1-1.67-3.89,5.68,5.68,0,0,1,1.31-3.72,5,5,0,0,1,4.08-1.59,6.82,6.82,0,0,1,4.13,1.27A4,4,0,0,1,870.84,809Zm-10.63-45.8a3.64,3.64,0,0,1,1.35-3,5.69,5.69,0,0,1,3.72-1.11,13.78,13.78,0,0,1,1.88.17,10.25,10.25,0,0,1,2.21.57,5.49,5.49,0,0,1,1.84,1.14,2.47,2.47,0,0,1,.78,1.88q0,4.43-.41,8.8t-.86,8.75q-.45,4.37-.86,8.75t-.41,8.79a3,3,0,0,1-1.31,2.7,5.48,5.48,0,0,1-3.19.9q-3.84,0-3.84-3.44,0-8.83-.45-17.42T860.21,763.2Z"/><path class="cls-1" d="M1733.2,222.52c2.4-12.15,32.7-30.32,44.23-33.65,8.2.19,23.48,9.87,11.94,17.91-6.36,4.94-13.92,8.85-22,14.65C1755.25,230.27,1739.2,239.82,1733.2,222.52Z"/></g></g></svg>